%FSLAX44Y44*%
%MOMM*%
G71*
G01*
G75*
%ADD10R,1.1000X0.6000*%
%ADD11R,0.6000X1.1000*%
%ADD12R,0.5000X0.5000*%
%ADD13R,1.6000X1.6000*%
%ADD14R,0.6350X0.5080*%
%ADD15R,2.6000X0.3000*%
%ADD16R,3.0000X1.6000*%
%ADD17R,6.7000X6.7000*%
%ADD18R,0.3000X0.9000*%
%ADD19R,0.9000X0.3000*%
%ADD20R,5.2000X5.2000*%
%ADD21R,1.4000X1.2000*%
%ADD22R,1.2700X1.5240*%
%ADD23C,0.2000*%
%ADD24C,0.5000*%
%ADD25C,0.3000*%
%ADD26C,0.2286*%
%ADD27C,0.2540*%
%ADD28C,0.2032*%
%ADD29C,0.6350*%
%ADD30C,0.2500*%
%ADD31C,0.1524*%
%ADD32C,0.1270*%
%ADD33C,2.0000*%
%ADD34R,2.0000X2.0000*%
%ADD35R,1.6000X2.0000*%
%ADD36O,1.6000X2.0000*%
%ADD37C,3.3000*%
%ADD38C,2.3000*%
%ADD39C,6.0000*%
%ADD40C,2.4000*%
%ADD41C,1.0000*%
%ADD42C,0.8000*%
%ADD43C,0.4000*%
%ADD44R,1.3000X0.8000*%
%ADD45R,0.8000X1.3000*%
%ADD46R,0.7000X0.7000*%
%ADD47R,1.8000X1.8000*%
%ADD48R,0.8350X0.7080*%
%ADD49R,2.8000X0.5000*%
%ADD50R,3.2000X1.8000*%
%ADD51R,6.9000X6.9000*%
%ADD52R,0.5000X1.1000*%
%ADD53R,1.1000X0.5000*%
%ADD54R,5.4000X5.4000*%
%ADD55R,1.6000X1.4000*%
%ADD56R,1.4700X1.7240*%
%ADD57C,2.2000*%
%ADD58R,2.2000X2.2000*%
%ADD59R,1.8000X2.2000*%
%ADD60O,1.8000X2.2000*%
%ADD61C,3.5000*%
%ADD62C,2.5000*%
%ADD63C,6.2000*%
%ADD64C,2.6000*%
%ADD65C,1.2000*%
%ADD66C,0.1693*%
D23*
X1870498Y1883238D02*
X1959398D01*
X1895898D02*
Y2282199D01*
Y2384277D02*
Y2783238D01*
X1890818Y1898478D02*
X1895898Y1883238D01*
X1900978Y1898478D01*
X1890818Y2767998D02*
X1895898Y2783238D01*
X1900978Y2767998D01*
X1893358Y1883238D02*
X1898438D01*
X1893358Y2783238D02*
X1898438D01*
X1959398Y1814658D02*
Y1883238D01*
Y1852758D02*
X2208359D01*
X2310437D02*
X2559398D01*
X1959398D02*
X1974638Y1857838D01*
X1959398Y1852758D02*
X1974638Y1847678D01*
X2544158Y1857838D02*
X2559398Y1852758D01*
X2544158Y1847678D02*
X2559398Y1852758D01*
X1959398Y1850218D02*
Y1855298D01*
X2559398Y1850218D02*
Y1855298D01*
D26*
X1559708Y2880728D02*
X1558619Y2882905D01*
X1555354Y2883993D01*
X1553178D01*
X1549913Y2882905D01*
X1547736Y2879640D01*
X1546648Y2874198D01*
Y2868756D01*
X1547736Y2864403D01*
X1549913Y2862227D01*
X1553178Y2861138D01*
X1554266D01*
X1557531Y2862227D01*
X1559708Y2864403D01*
X1560796Y2867668D01*
Y2868756D01*
X1559708Y2872021D01*
X1557531Y2874198D01*
X1554266Y2875287D01*
X1553178D01*
X1549913Y2874198D01*
X1547736Y2872021D01*
X1546648Y2868756D01*
X1566891Y2863315D02*
X1565802Y2862227D01*
X1566891Y2861138D01*
X1567979Y2862227D01*
X1566891Y2863315D01*
X1579516Y2883993D02*
X1576250Y2882905D01*
X1574074Y2879640D01*
X1572986Y2874198D01*
Y2870933D01*
X1574074Y2865492D01*
X1576250Y2862227D01*
X1579516Y2861138D01*
X1581692D01*
X1584957Y2862227D01*
X1587134Y2865492D01*
X1588222Y2870933D01*
Y2874198D01*
X1587134Y2879640D01*
X1584957Y2882905D01*
X1581692Y2883993D01*
X1579516D01*
X1557531Y2375993D02*
X1546648Y2360757D01*
X1562973D01*
X1557531Y2375993D02*
Y2353138D01*
X1568088Y2355315D02*
X1567000Y2354227D01*
X1568088Y2353138D01*
X1569176Y2354227D01*
X1568088Y2355315D01*
X1580713Y2375993D02*
X1577448Y2374905D01*
X1575271Y2371640D01*
X1574183Y2366198D01*
Y2362933D01*
X1575271Y2357491D01*
X1577448Y2354227D01*
X1580713Y2353138D01*
X1582889D01*
X1586154Y2354227D01*
X1588331Y2357491D01*
X1589419Y2362933D01*
Y2366198D01*
X1588331Y2371640D01*
X1586154Y2374905D01*
X1582889Y2375993D01*
X1580713D01*
X1547736Y1862552D02*
Y1863640D01*
X1548824Y1865817D01*
X1549913Y1866905D01*
X1552089Y1867993D01*
X1556443D01*
X1558619Y1866905D01*
X1559708Y1865817D01*
X1560796Y1863640D01*
Y1861463D01*
X1559708Y1859286D01*
X1557531Y1856022D01*
X1546648Y1845138D01*
X1561884D01*
X1568088Y1847315D02*
X1567000Y1846227D01*
X1568088Y1845138D01*
X1569176Y1846227D01*
X1568088Y1847315D01*
X1580713Y1867993D02*
X1577448Y1866905D01*
X1575271Y1863640D01*
X1574183Y1858198D01*
Y1854933D01*
X1575271Y1849491D01*
X1577448Y1846227D01*
X1580713Y1845138D01*
X1582889D01*
X1586154Y1846227D01*
X1588331Y1849491D01*
X1589419Y1854933D01*
Y1858198D01*
X1588331Y1863640D01*
X1586154Y1866905D01*
X1582889Y1867993D01*
X1580713D01*
X1581753Y1359993D02*
X1578488Y1358905D01*
X1576311Y1355640D01*
X1575223Y1350198D01*
Y1346933D01*
X1576311Y1341492D01*
X1578488Y1338226D01*
X1581753Y1337138D01*
X1583929D01*
X1587194Y1338226D01*
X1589371Y1341492D01*
X1590459Y1346933D01*
Y1350198D01*
X1589371Y1355640D01*
X1587194Y1358905D01*
X1583929Y1359993D01*
X1581753D01*
X1552998Y1609640D02*
X1555174Y1610728D01*
X1558439Y1613993D01*
Y1591138D01*
X1570846Y1593315D02*
X1569758Y1592227D01*
X1570846Y1591138D01*
X1571935Y1592227D01*
X1570846Y1593315D01*
X1583471Y1613993D02*
X1580206Y1612905D01*
X1578029Y1609640D01*
X1576941Y1604198D01*
Y1600933D01*
X1578029Y1595491D01*
X1580206Y1592227D01*
X1583471Y1591138D01*
X1585648D01*
X1588913Y1592227D01*
X1591089Y1595491D01*
X1592178Y1600933D01*
Y1604198D01*
X1591089Y1609640D01*
X1588913Y1612905D01*
X1585648Y1613993D01*
X1583471D01*
X1548824Y2121993D02*
X1560796D01*
X1554266Y2113286D01*
X1557531D01*
X1559708Y2112198D01*
X1560796Y2111110D01*
X1561884Y2107845D01*
Y2105668D01*
X1560796Y2102403D01*
X1558619Y2100226D01*
X1555354Y2099138D01*
X1552089D01*
X1548824Y2100226D01*
X1547736Y2101315D01*
X1546648Y2103492D01*
X1568088Y2101315D02*
X1567000Y2100226D01*
X1568088Y2099138D01*
X1569176Y2100226D01*
X1568088Y2101315D01*
X1580713Y2121993D02*
X1577448Y2120905D01*
X1575271Y2117640D01*
X1574183Y2112198D01*
Y2108933D01*
X1575271Y2103492D01*
X1577448Y2100226D01*
X1580713Y2099138D01*
X1582889D01*
X1586154Y2100226D01*
X1588331Y2103492D01*
X1589419Y2108933D01*
Y2112198D01*
X1588331Y2117640D01*
X1586154Y2120905D01*
X1582889Y2121993D01*
X1580713D01*
X1559708Y2629993D02*
X1548824D01*
X1547736Y2620198D01*
X1548824Y2621287D01*
X1552089Y2622375D01*
X1555354D01*
X1558619Y2621287D01*
X1560796Y2619110D01*
X1561884Y2615845D01*
Y2613668D01*
X1560796Y2610403D01*
X1558619Y2608227D01*
X1555354Y2607138D01*
X1552089D01*
X1548824Y2608227D01*
X1547736Y2609315D01*
X1546648Y2611491D01*
X1568088Y2609315D02*
X1567000Y2608227D01*
X1568088Y2607138D01*
X1569176Y2608227D01*
X1568088Y2609315D01*
X1580713Y2629993D02*
X1577448Y2628905D01*
X1575271Y2625640D01*
X1574183Y2620198D01*
Y2616933D01*
X1575271Y2611491D01*
X1577448Y2608227D01*
X1580713Y2607138D01*
X1582889D01*
X1586154Y2608227D01*
X1588331Y2611491D01*
X1589419Y2616933D01*
Y2620198D01*
X1588331Y2625640D01*
X1586154Y2628905D01*
X1582889Y2629993D01*
X1580713D01*
X3518953Y1194901D02*
X3496098Y1205785D01*
X3518953Y1210138D02*
Y1194901D01*
X3498275Y1188698D02*
X3497186Y1189786D01*
X3496098Y1188698D01*
X3497186Y1187609D01*
X3498275Y1188698D01*
X3518953Y1176073D02*
X3517864Y1179338D01*
X3514599Y1181515D01*
X3509158Y1182603D01*
X3505893D01*
X3500451Y1181515D01*
X3497186Y1179338D01*
X3496098Y1176073D01*
Y1173896D01*
X3497186Y1170631D01*
X3500451Y1168455D01*
X3505893Y1167366D01*
X3509158D01*
X3514599Y1168455D01*
X3517864Y1170631D01*
X3518953Y1173896D01*
Y1176073D01*
X3010953Y1197078D02*
Y1207962D01*
X3001158Y1209050D01*
X3002246Y1207962D01*
X3003334Y1204696D01*
Y1201431D01*
X3002246Y1198166D01*
X3000069Y1195990D01*
X2996805Y1194901D01*
X2994628D01*
X2991363Y1195990D01*
X2989186Y1198166D01*
X2988098Y1201431D01*
Y1204696D01*
X2989186Y1207962D01*
X2990274Y1209050D01*
X2992451Y1210138D01*
X2990274Y1188698D02*
X2989186Y1189786D01*
X2988098Y1188698D01*
X2989186Y1187609D01*
X2990274Y1188698D01*
X3010953Y1176073D02*
X3009865Y1179338D01*
X3006599Y1181515D01*
X3001158Y1182603D01*
X2997893D01*
X2992451Y1181515D01*
X2989186Y1179338D01*
X2988098Y1176073D01*
Y1173896D01*
X2989186Y1170631D01*
X2992451Y1168455D01*
X2997893Y1167366D01*
X3001158D01*
X3006599Y1168455D01*
X3009865Y1170631D01*
X3010953Y1173896D01*
Y1176073D01*
X2502953Y1207962D02*
Y1195990D01*
X2494246Y1202520D01*
Y1199255D01*
X2493158Y1197078D01*
X2492069Y1195990D01*
X2488804Y1194901D01*
X2486628D01*
X2483363Y1195990D01*
X2481186Y1198166D01*
X2480098Y1201431D01*
Y1204696D01*
X2481186Y1207962D01*
X2482274Y1209050D01*
X2484451Y1210138D01*
X2482274Y1188698D02*
X2481186Y1189786D01*
X2480098Y1188698D01*
X2481186Y1187609D01*
X2482274Y1188698D01*
X2502953Y1176073D02*
X2501864Y1179338D01*
X2498599Y1181515D01*
X2493158Y1182603D01*
X2489893D01*
X2484451Y1181515D01*
X2481186Y1179338D01*
X2480098Y1176073D01*
Y1173896D01*
X2481186Y1170631D01*
X2484451Y1168455D01*
X2489893Y1167366D01*
X2493158D01*
X2498599Y1168455D01*
X2501864Y1170631D01*
X2502953Y1173896D01*
Y1176073D01*
X1990599Y1210138D02*
X1991688Y1207962D01*
X1994953Y1204696D01*
X1972098D01*
X1974274Y1192289D02*
X1973186Y1193378D01*
X1972098Y1192289D01*
X1973186Y1191201D01*
X1974274Y1192289D01*
X1994953Y1179665D02*
X1993864Y1182930D01*
X1990599Y1185106D01*
X1985158Y1186195D01*
X1981893D01*
X1976451Y1185106D01*
X1973186Y1182930D01*
X1972098Y1179665D01*
Y1177488D01*
X1973186Y1174223D01*
X1976451Y1172046D01*
X1981893Y1170958D01*
X1985158D01*
X1990599Y1172046D01*
X1993864Y1174223D01*
X1994953Y1177488D01*
Y1179665D01*
X1740953Y1203608D02*
X1739864Y1206873D01*
X1736599Y1209050D01*
X1731158Y1210138D01*
X1727893D01*
X1722451Y1209050D01*
X1719186Y1206873D01*
X1718098Y1203608D01*
Y1201431D01*
X1719186Y1198166D01*
X1722451Y1195990D01*
X1727893Y1194901D01*
X1731158D01*
X1736599Y1195990D01*
X1739864Y1198166D01*
X1740953Y1201431D01*
Y1203608D01*
X2243511Y1209050D02*
X2244599D01*
X2246776Y1207962D01*
X2247864Y1206873D01*
X2248953Y1204696D01*
Y1200343D01*
X2247864Y1198166D01*
X2246776Y1197078D01*
X2244599Y1195990D01*
X2242423D01*
X2240246Y1197078D01*
X2236981Y1199255D01*
X2226098Y1210138D01*
Y1194901D01*
X2228274Y1188698D02*
X2227186Y1189786D01*
X2226098Y1188698D01*
X2227186Y1187609D01*
X2228274Y1188698D01*
X2248953Y1176073D02*
X2247864Y1179338D01*
X2244599Y1181515D01*
X2239158Y1182603D01*
X2235893D01*
X2230451Y1181515D01*
X2227186Y1179338D01*
X2226098Y1176073D01*
Y1173896D01*
X2227186Y1170631D01*
X2230451Y1168455D01*
X2235893Y1167366D01*
X2239158D01*
X2244599Y1168455D01*
X2247864Y1170631D01*
X2248953Y1173896D01*
Y1176073D01*
X2756953Y1199255D02*
X2741716Y1210138D01*
Y1193813D01*
X2756953Y1199255D02*
X2734098D01*
X2736274Y1188698D02*
X2735186Y1189786D01*
X2734098Y1188698D01*
X2735186Y1187609D01*
X2736274Y1188698D01*
X2756953Y1176073D02*
X2755864Y1179338D01*
X2752599Y1181515D01*
X2747158Y1182603D01*
X2743893D01*
X2738451Y1181515D01*
X2735186Y1179338D01*
X2734098Y1176073D01*
Y1173896D01*
X2735186Y1170631D01*
X2738451Y1168455D01*
X2743893Y1167366D01*
X2747158D01*
X2752599Y1168455D01*
X2755864Y1170631D01*
X2756953Y1173896D01*
Y1176073D01*
X3261688Y1197078D02*
X3263864Y1198166D01*
X3264953Y1201431D01*
Y1203608D01*
X3263864Y1206873D01*
X3260599Y1209050D01*
X3255158Y1210138D01*
X3249716D01*
X3245363Y1209050D01*
X3243186Y1206873D01*
X3242098Y1203608D01*
Y1202520D01*
X3243186Y1199255D01*
X3245363Y1197078D01*
X3248628Y1195990D01*
X3249716D01*
X3252981Y1197078D01*
X3255158Y1199255D01*
X3256246Y1202520D01*
Y1203608D01*
X3255158Y1206873D01*
X3252981Y1209050D01*
X3249716Y1210138D01*
X3244274Y1189895D02*
X3243186Y1190983D01*
X3242098Y1189895D01*
X3243186Y1188807D01*
X3244274Y1189895D01*
X3264953Y1177270D02*
X3263864Y1180535D01*
X3260599Y1182712D01*
X3255158Y1183800D01*
X3251893D01*
X3246451Y1182712D01*
X3243186Y1180535D01*
X3242098Y1177270D01*
Y1175094D01*
X3243186Y1171829D01*
X3246451Y1169652D01*
X3251893Y1168564D01*
X3255158D01*
X3260599Y1169652D01*
X3263864Y1171829D01*
X3264953Y1175094D01*
Y1177270D01*
X1683173Y1283793D02*
X1698409Y1260938D01*
Y1283793D02*
X1683173Y1260938D01*
X1664753Y1314913D02*
X1653869Y1306206D01*
X1641898D01*
X1664753Y1297500D02*
X1653869Y1306206D01*
X2690008Y1458418D02*
X2679124D01*
X2678036Y1448623D01*
X2679124Y1449711D01*
X2682390Y1450800D01*
X2685654D01*
X2688919Y1449711D01*
X2691096Y1447535D01*
X2692184Y1444270D01*
Y1442093D01*
X2691096Y1438828D01*
X2688919Y1436651D01*
X2685654Y1435563D01*
X2682390D01*
X2679124Y1436651D01*
X2678036Y1437740D01*
X2676948Y1439917D01*
X2697299Y1445358D02*
X2716890D01*
X2734521Y1458418D02*
Y1441005D01*
X2733433Y1437740D01*
X2732344Y1436651D01*
X2730168Y1435563D01*
X2727991D01*
X2725814Y1436651D01*
X2724726Y1437740D01*
X2723637Y1441005D01*
Y1443181D01*
X2740398Y1450800D02*
Y1439917D01*
X2741486Y1436651D01*
X2743663Y1435563D01*
X2746928D01*
X2749105Y1436651D01*
X2752370Y1439917D01*
Y1450800D02*
Y1435563D01*
X2758355Y1450800D02*
Y1435563D01*
Y1446447D02*
X2761620Y1449711D01*
X2763797Y1450800D01*
X2767062D01*
X2769239Y1449711D01*
X2770327Y1446447D01*
Y1435563D01*
X2776313Y1445358D02*
X2795903D01*
X2803739Y1452977D02*
Y1454065D01*
X2804827Y1456242D01*
X2805916Y1457330D01*
X2808093Y1458418D01*
X2812446D01*
X2814622Y1457330D01*
X2815711Y1456242D01*
X2816799Y1454065D01*
Y1451888D01*
X2815711Y1449711D01*
X2813534Y1446447D01*
X2802651Y1435563D01*
X2817888D01*
X2829533Y1458418D02*
X2826268Y1457330D01*
X2824091Y1454065D01*
X2823003Y1448623D01*
Y1445358D01*
X2824091Y1439917D01*
X2826268Y1436651D01*
X2829533Y1435563D01*
X2831709D01*
X2834974Y1436651D01*
X2837151Y1439917D01*
X2838239Y1445358D01*
Y1448623D01*
X2837151Y1454065D01*
X2834974Y1457330D01*
X2831709Y1458418D01*
X2829533D01*
X2843354Y1454065D02*
X2845531Y1455153D01*
X2848796Y1458418D01*
Y1435563D01*
X2861203Y1452977D02*
Y1454065D01*
X2862292Y1456242D01*
X2863380Y1457330D01*
X2865557Y1458418D01*
X2869910D01*
X2872087Y1457330D01*
X2873175Y1456242D01*
X2874263Y1454065D01*
Y1451888D01*
X2873175Y1449711D01*
X2870999Y1446447D01*
X2860115Y1435563D01*
X2875352D01*
X2701078Y1554303D02*
Y1531448D01*
X2716314Y1554303D02*
Y1531448D01*
X2701078Y1543420D02*
X2716314D01*
X2736775Y1554303D02*
X2722627D01*
Y1531448D01*
X2736775D01*
X2722627Y1543420D02*
X2731334D01*
X2740584Y1554303D02*
Y1531448D01*
Y1554303D02*
X2750379D01*
X2753644Y1553215D01*
X2754733Y1552127D01*
X2755821Y1549950D01*
Y1547773D01*
X2754733Y1545596D01*
X2753644Y1544508D01*
X2750379Y1543420D01*
X2740584D01*
X2748203D02*
X2755821Y1531448D01*
X2775085Y1554303D02*
X2760936D01*
Y1531448D01*
X2775085D01*
X2760936Y1543420D02*
X2769643D01*
X2701078Y1594943D02*
Y1572088D01*
X2714138D01*
X2723171Y1594943D02*
X2720994Y1593855D01*
X2718818Y1591678D01*
X2717729Y1589501D01*
X2716641Y1586237D01*
Y1580795D01*
X2717729Y1577530D01*
X2718818Y1575353D01*
X2720994Y1573177D01*
X2723171Y1572088D01*
X2727524D01*
X2729701Y1573177D01*
X2731878Y1575353D01*
X2732966Y1577530D01*
X2734054Y1580795D01*
Y1586237D01*
X2732966Y1589501D01*
X2731878Y1591678D01*
X2729701Y1593855D01*
X2727524Y1594943D01*
X2723171D01*
X2755712Y1589501D02*
X2754624Y1591678D01*
X2752447Y1593855D01*
X2750271Y1594943D01*
X2745917D01*
X2743741Y1593855D01*
X2741564Y1591678D01*
X2740475Y1589501D01*
X2739387Y1586237D01*
Y1580795D01*
X2740475Y1577530D01*
X2741564Y1575353D01*
X2743741Y1573177D01*
X2745917Y1572088D01*
X2750271D01*
X2752447Y1573177D01*
X2754624Y1575353D01*
X2755712Y1577530D01*
Y1580795D01*
X2750271D02*
X2755712D01*
X2767466Y1594943D02*
X2765290Y1593855D01*
X2763113Y1591678D01*
X2762025Y1589501D01*
X2760936Y1586237D01*
Y1580795D01*
X2762025Y1577530D01*
X2763113Y1575353D01*
X2765290Y1573177D01*
X2767466Y1572088D01*
X2771820D01*
X2773996Y1573177D01*
X2776173Y1575353D01*
X2777261Y1577530D01*
X2778350Y1580795D01*
Y1586237D01*
X2777261Y1589501D01*
X2776173Y1591678D01*
X2773996Y1593855D01*
X2771820Y1594943D01*
X2767466D01*
X2701078Y1618531D02*
X2710873D01*
X2714138Y1619620D01*
X2715226Y1620708D01*
X2716314Y1622885D01*
Y1626150D01*
X2715226Y1628327D01*
X2714138Y1629415D01*
X2710873Y1630503D01*
X2701078D01*
Y1607648D01*
X2721430Y1630503D02*
Y1607648D01*
X2734490D01*
X2754406D02*
X2745699Y1630503D01*
X2736993Y1607648D01*
X2740258Y1615267D02*
X2751141D01*
X2776064Y1625061D02*
X2774976Y1627238D01*
X2772799Y1629415D01*
X2770623Y1630503D01*
X2766269D01*
X2764092Y1629415D01*
X2761916Y1627238D01*
X2760827Y1625061D01*
X2759739Y1621797D01*
Y1616355D01*
X2760827Y1613090D01*
X2761916Y1610913D01*
X2764092Y1608737D01*
X2766269Y1607648D01*
X2770623D01*
X2772799Y1608737D01*
X2774976Y1610913D01*
X2776064Y1613090D01*
X2796634Y1630503D02*
X2782485D01*
Y1607648D01*
X2796634D01*
X2782485Y1619620D02*
X2791192D01*
X2553303Y1458418D02*
X2550038Y1457330D01*
X2547861Y1454065D01*
X2546773Y1448623D01*
Y1445358D01*
X2547861Y1439917D01*
X2550038Y1436651D01*
X2553303Y1435563D01*
X2555479D01*
X2558744Y1436651D01*
X2560921Y1439917D01*
X2562009Y1445358D01*
Y1448623D01*
X2560921Y1454065D01*
X2558744Y1457330D01*
X2555479Y1458418D01*
X2553303D01*
X2567125Y1454065D02*
X2569301Y1455153D01*
X2572566Y1458418D01*
Y1435563D01*
X2360718Y1391743D02*
Y1368888D01*
Y1391743D02*
X2368336D01*
X2371601Y1390655D01*
X2373778Y1388478D01*
X2374866Y1386302D01*
X2375954Y1383036D01*
Y1377595D01*
X2374866Y1374330D01*
X2373778Y1372153D01*
X2371601Y1369977D01*
X2368336Y1368888D01*
X2360718D01*
X2381070Y1384125D02*
Y1368888D01*
Y1377595D02*
X2382158Y1380860D01*
X2384335Y1383036D01*
X2386511Y1384125D01*
X2389776D01*
X2394021Y1391743D02*
X2395109Y1390655D01*
X2396198Y1391743D01*
X2395109Y1392832D01*
X2394021Y1391743D01*
X2395109Y1384125D02*
Y1368888D01*
X2400224Y1391743D02*
Y1368888D01*
X2405013Y1391743D02*
Y1368888D01*
X2409802Y1391743D02*
Y1368888D01*
Y1391743D02*
X2417420D01*
X2420685Y1390655D01*
X2422862Y1388478D01*
X2423950Y1386302D01*
X2425038Y1383036D01*
Y1377595D01*
X2423950Y1374330D01*
X2422862Y1372153D01*
X2420685Y1369977D01*
X2417420Y1368888D01*
X2409802D01*
X2430154Y1384125D02*
Y1368888D01*
Y1377595D02*
X2431242Y1380860D01*
X2433419Y1383036D01*
X2435595Y1384125D01*
X2438860D01*
X2453988D02*
Y1368888D01*
Y1380860D02*
X2451812Y1383036D01*
X2449635Y1384125D01*
X2446370D01*
X2444193Y1383036D01*
X2442017Y1380860D01*
X2440928Y1377595D01*
Y1375418D01*
X2442017Y1372153D01*
X2444193Y1369977D01*
X2446370Y1368888D01*
X2449635D01*
X2451812Y1369977D01*
X2453988Y1372153D01*
X2460083Y1384125D02*
X2464436Y1368888D01*
X2468790Y1384125D02*
X2464436Y1368888D01*
X2468790Y1384125D02*
X2473143Y1368888D01*
X2477496Y1384125D02*
X2473143Y1368888D01*
X2485006Y1391743D02*
X2486094Y1390655D01*
X2487183Y1391743D01*
X2486094Y1392832D01*
X2485006Y1391743D01*
X2486094Y1384125D02*
Y1368888D01*
X2491209Y1384125D02*
Y1368888D01*
Y1379772D02*
X2494474Y1383036D01*
X2496651Y1384125D01*
X2499916D01*
X2502093Y1383036D01*
X2503181Y1379772D01*
Y1368888D01*
X2522227Y1384125D02*
Y1366711D01*
X2521139Y1363446D01*
X2520050Y1362358D01*
X2517874Y1361270D01*
X2514609D01*
X2512432Y1362358D01*
X2522227Y1380860D02*
X2520050Y1383036D01*
X2517874Y1384125D01*
X2514609D01*
X2512432Y1383036D01*
X2510255Y1380860D01*
X2509167Y1377595D01*
Y1375418D01*
X2510255Y1372153D01*
X2512432Y1369977D01*
X2514609Y1368888D01*
X2517874D01*
X2520050Y1369977D01*
X2522227Y1372153D01*
X1933998Y1379772D02*
X1943793D01*
X1947058Y1380860D01*
X1948146Y1381948D01*
X1949234Y1384125D01*
Y1387390D01*
X1948146Y1389567D01*
X1947058Y1390655D01*
X1943793Y1391743D01*
X1933998D01*
Y1368888D01*
X1970675Y1386302D02*
X1969586Y1388478D01*
X1967410Y1390655D01*
X1965233Y1391743D01*
X1960880D01*
X1958703Y1390655D01*
X1956526Y1388478D01*
X1955438Y1386302D01*
X1954350Y1383036D01*
Y1377595D01*
X1955438Y1374330D01*
X1956526Y1372153D01*
X1958703Y1369977D01*
X1960880Y1368888D01*
X1965233D01*
X1967410Y1369977D01*
X1969586Y1372153D01*
X1970675Y1374330D01*
X1977096Y1391743D02*
Y1368888D01*
Y1391743D02*
X1986891D01*
X1990156Y1390655D01*
X1991244Y1389567D01*
X1992333Y1387390D01*
Y1385213D01*
X1991244Y1383036D01*
X1990156Y1381948D01*
X1986891Y1380860D01*
X1977096D02*
X1986891D01*
X1990156Y1379772D01*
X1991244Y1378683D01*
X1992333Y1376507D01*
Y1373241D01*
X1991244Y1371065D01*
X1990156Y1369977D01*
X1986891Y1368888D01*
X1977096D01*
X1997448Y1387390D02*
X1999624Y1388478D01*
X2002890Y1391743D01*
Y1368888D01*
X2015297Y1371065D02*
X2014208Y1369977D01*
X2015297Y1368888D01*
X2016385Y1369977D01*
X2015297Y1371065D01*
X2021391Y1379772D02*
X2031186D01*
X2034451Y1380860D01*
X2035540Y1381948D01*
X2036628Y1384125D01*
Y1387390D01*
X2035540Y1389567D01*
X2034451Y1390655D01*
X2031186Y1391743D01*
X2021391D01*
Y1368888D01*
X2058068Y1386302D02*
X2056980Y1388478D01*
X2054803Y1390655D01*
X2052627Y1391743D01*
X2048273D01*
X2046096Y1390655D01*
X2043920Y1388478D01*
X2042832Y1386302D01*
X2041743Y1383036D01*
Y1377595D01*
X2042832Y1374330D01*
X2043920Y1372153D01*
X2046096Y1369977D01*
X2048273Y1368888D01*
X2052627D01*
X2054803Y1369977D01*
X2056980Y1372153D01*
X2058068Y1374330D01*
X2064489Y1391743D02*
Y1368888D01*
Y1391743D02*
X2074285D01*
X2077549Y1390655D01*
X2078638Y1389567D01*
X2079726Y1387390D01*
Y1385213D01*
X2078638Y1383036D01*
X2077549Y1381948D01*
X2074285Y1380860D01*
X2064489D02*
X2074285D01*
X2077549Y1379772D01*
X2078638Y1378683D01*
X2079726Y1376507D01*
Y1373241D01*
X2078638Y1371065D01*
X2077549Y1369977D01*
X2074285Y1368888D01*
X2064489D01*
X2233896Y1556843D02*
X2219748D01*
Y1533988D01*
X2233896D01*
X2219748Y1545960D02*
X2228454D01*
X2237705Y1556843D02*
X2252942Y1533988D01*
Y1556843D02*
X2237705Y1533988D01*
X2265676Y1556843D02*
Y1533988D01*
X2258057Y1556843D02*
X2273294D01*
X2276015Y1526370D02*
X2293428D01*
X2296367Y1556843D02*
Y1533988D01*
X2311603Y1556843D02*
Y1533988D01*
X2296367Y1545960D02*
X2311603D01*
X2317916Y1556843D02*
Y1533988D01*
Y1556843D02*
X2325534D01*
X2328799Y1555755D01*
X2330976Y1553578D01*
X2332064Y1551402D01*
X2333152Y1548136D01*
Y1542695D01*
X2332064Y1539430D01*
X2330976Y1537253D01*
X2328799Y1535076D01*
X2325534Y1533988D01*
X2317916D01*
X2338268Y1556843D02*
Y1533988D01*
Y1556843D02*
X2346974Y1533988D01*
X2355681Y1556843D02*
X2346974Y1533988D01*
X2355681Y1556843D02*
Y1533988D01*
X2362211Y1556843D02*
Y1533988D01*
X2101636Y1647013D02*
Y1624158D01*
X2094018Y1647013D02*
X2109254D01*
X2125035Y1639395D02*
Y1624158D01*
Y1636130D02*
X2122859Y1638306D01*
X2120682Y1639395D01*
X2117417D01*
X2115240Y1638306D01*
X2113064Y1636130D01*
X2111975Y1632865D01*
Y1630688D01*
X2113064Y1627423D01*
X2115240Y1625246D01*
X2117417Y1624158D01*
X2120682D01*
X2122859Y1625246D01*
X2125035Y1627423D01*
X2144190Y1636130D02*
X2142013Y1638306D01*
X2139837Y1639395D01*
X2136572D01*
X2134395Y1638306D01*
X2132218Y1636130D01*
X2131130Y1632865D01*
Y1630688D01*
X2132218Y1627423D01*
X2134395Y1625246D01*
X2136572Y1624158D01*
X2139837D01*
X2142013Y1625246D01*
X2144190Y1627423D01*
X2149088Y1647013D02*
Y1624158D01*
Y1635042D02*
X2152353Y1638306D01*
X2154529Y1639395D01*
X2157794D01*
X2159971Y1638306D01*
X2161059Y1635042D01*
Y1624158D01*
X2168134Y1639395D02*
X2174664Y1624158D01*
X2181194Y1639395D02*
X2174664Y1624158D01*
X2172487Y1619805D01*
X2170310Y1617628D01*
X2168134Y1616540D01*
X2167045D01*
X2196974Y1636130D02*
X2195886Y1638306D01*
X2192621Y1639395D01*
X2189356D01*
X2186091Y1638306D01*
X2185003Y1636130D01*
X2186091Y1633953D01*
X2188268Y1632865D01*
X2193709Y1631776D01*
X2195886Y1630688D01*
X2196974Y1628512D01*
Y1627423D01*
X2195886Y1625246D01*
X2192621Y1624158D01*
X2189356D01*
X2186091Y1625246D01*
X2185003Y1627423D01*
X2213735Y1636130D02*
X2212646Y1638306D01*
X2209382Y1639395D01*
X2206116D01*
X2202852Y1638306D01*
X2201763Y1636130D01*
X2202852Y1633953D01*
X2205028Y1632865D01*
X2210470Y1631776D01*
X2212646Y1630688D01*
X2213735Y1628512D01*
Y1627423D01*
X2212646Y1625246D01*
X2209382Y1624158D01*
X2206116D01*
X2202852Y1625246D01*
X2201763Y1627423D01*
X2218524Y1632865D02*
X2231584D01*
Y1635042D01*
X2230495Y1637218D01*
X2229407Y1638306D01*
X2227230Y1639395D01*
X2223965D01*
X2221789Y1638306D01*
X2219612Y1636130D01*
X2218524Y1632865D01*
Y1630688D01*
X2219612Y1627423D01*
X2221789Y1625246D01*
X2223965Y1624158D01*
X2227230D01*
X2229407Y1625246D01*
X2231584Y1627423D01*
X2236481Y1639395D02*
Y1624158D01*
Y1635042D02*
X2239746Y1638306D01*
X2241923Y1639395D01*
X2245188D01*
X2247365Y1638306D01*
X2248453Y1635042D01*
Y1624158D01*
Y1635042D02*
X2251718Y1638306D01*
X2253895Y1639395D01*
X2257159D01*
X2259336Y1638306D01*
X2260425Y1635042D01*
Y1624158D01*
X2280668Y1639395D02*
Y1624158D01*
Y1636130D02*
X2278491Y1638306D01*
X2276314Y1639395D01*
X2273049D01*
X2270873Y1638306D01*
X2268696Y1636130D01*
X2267608Y1632865D01*
Y1630688D01*
X2268696Y1627423D01*
X2270873Y1625246D01*
X2273049Y1624158D01*
X2276314D01*
X2278491Y1625246D01*
X2280668Y1627423D01*
D27*
X2520252Y2189805D02*
X2517713Y2187266D01*
Y2182187D01*
X2520252Y2179648D01*
X2530408D01*
X2532948Y2182187D01*
Y2187266D01*
X2530408Y2189805D01*
X2525330D01*
Y2184727D01*
X2532948Y2194883D02*
X2517713D01*
X2532948Y2205040D01*
X2517713D01*
Y2210118D02*
X2532948D01*
Y2217736D01*
X2530408Y2220275D01*
X2520252D01*
X2517713Y2217736D01*
Y2210118D01*
X2058448Y2698133D02*
Y2682898D01*
Y2690516D01*
X2068604D01*
Y2698133D01*
Y2682898D01*
X2083840Y2698133D02*
X2073683D01*
Y2682898D01*
X2083840D01*
X2073683Y2690516D02*
X2078761D01*
X2088918Y2695594D02*
X2091457Y2698133D01*
X2096535D01*
X2099075Y2695594D01*
Y2693055D01*
X2096535Y2690516D01*
X2093996D01*
X2096535D01*
X2099075Y2687976D01*
Y2685437D01*
X2096535Y2682898D01*
X2091457D01*
X2088918Y2685437D01*
X2412948Y2700633D02*
Y2685398D01*
Y2693016D01*
X2423104D01*
Y2700633D01*
Y2685398D01*
X2438340Y2700633D02*
X2428183D01*
Y2685398D01*
X2438340D01*
X2428183Y2693016D02*
X2433261D01*
X2443418Y2685398D02*
X2448496D01*
X2445957D01*
Y2700633D01*
X2443418Y2698094D01*
X2080448Y2000133D02*
Y1984898D01*
Y1992516D01*
X2090604D01*
Y2000133D01*
Y1984898D01*
X2105840Y2000133D02*
X2095683D01*
Y1984898D01*
X2105840D01*
X2095683Y1992516D02*
X2100761D01*
X2118535Y1984898D02*
Y2000133D01*
X2110918Y1992516D01*
X2121075D01*
X2400198Y1999133D02*
Y1983898D01*
Y1991516D01*
X2410354D01*
Y1999133D01*
Y1983898D01*
X2425589Y1999133D02*
X2415433D01*
Y1983898D01*
X2425589D01*
X2415433Y1991516D02*
X2420511D01*
X2440825Y1983898D02*
X2430668D01*
X2440825Y1994055D01*
Y1996594D01*
X2438285Y1999133D01*
X2433207D01*
X2430668Y1996594D01*
X2449463Y2289305D02*
Y2284227D01*
Y2286766D01*
X2462159D01*
X2464698Y2284227D01*
Y2281687D01*
X2462159Y2279148D01*
X2464698Y2294383D02*
Y2299462D01*
Y2296922D01*
X2449463D01*
X2452002Y2294383D01*
X2173183Y2382648D02*
X2160487D01*
X2157948Y2380109D01*
Y2375031D01*
X2160487Y2372491D01*
X2173183D01*
X2157948Y2367413D02*
Y2362335D01*
Y2364874D01*
X2173183D01*
X2170644Y2367413D01*
X1984463Y2560898D02*
X1997159D01*
X1999698Y2563437D01*
Y2568516D01*
X1997159Y2571055D01*
X1984463D01*
X1999698Y2576133D02*
Y2581212D01*
Y2578672D01*
X1984463D01*
X1987002Y2576133D01*
Y2588829D02*
X1984463Y2591368D01*
Y2596447D01*
X1987002Y2598986D01*
X1997159D01*
X1999698Y2596447D01*
Y2591368D01*
X1997159Y2588829D01*
X1987002D01*
X2336948Y2586383D02*
Y2573687D01*
X2339487Y2571148D01*
X2344565D01*
X2347104Y2573687D01*
Y2586383D01*
X2352183Y2573687D02*
X2354722Y2571148D01*
X2359800D01*
X2362339Y2573687D01*
Y2583844D01*
X2359800Y2586383D01*
X2354722D01*
X2352183Y2583844D01*
Y2581305D01*
X2354722Y2578766D01*
X2362339D01*
X1989463Y2322055D02*
Y2316976D01*
Y2319516D01*
X2002159D01*
X2004698Y2316976D01*
Y2314437D01*
X2002159Y2311898D01*
X2004698Y2337290D02*
Y2327133D01*
X1994541Y2337290D01*
X1992002D01*
X1989463Y2334751D01*
Y2329672D01*
X1992002Y2327133D01*
X2393463Y2064898D02*
Y2075055D01*
Y2069977D01*
X2408698D01*
X2398541Y2082672D02*
Y2087751D01*
X2401080Y2090290D01*
X2408698D01*
Y2082672D01*
X2406158Y2080133D01*
X2403619Y2082672D01*
Y2090290D01*
X2398541Y2105525D02*
Y2097908D01*
X2401080Y2095368D01*
X2406158D01*
X2408698Y2097908D01*
Y2105525D01*
X2393463Y2110603D02*
X2408698D01*
X2401080D01*
X2398541Y2113143D01*
Y2118221D01*
X2401080Y2120760D01*
X2408698D01*
X2398541Y2125838D02*
X2406158D01*
X2408698Y2128378D01*
Y2135995D01*
X2411237D01*
X2413776Y2133456D01*
Y2130917D01*
X2408698Y2135995D02*
X2398541D01*
X2408698Y2141073D02*
Y2148691D01*
X2406158Y2151230D01*
X2403619Y2148691D01*
Y2143613D01*
X2401080Y2141073D01*
X2398541Y2143613D01*
Y2151230D01*
X2408698Y2156309D02*
Y2163926D01*
X2406158Y2166465D01*
X2403619Y2163926D01*
Y2158848D01*
X2401080Y2156309D01*
X2398541Y2158848D01*
Y2166465D01*
X2408698Y2179161D02*
Y2174083D01*
X2406158Y2171544D01*
X2401080D01*
X2398541Y2174083D01*
Y2179161D01*
X2401080Y2181700D01*
X2403619D01*
Y2171544D01*
X2408698Y2186779D02*
X2398541D01*
Y2189318D01*
X2401080Y2191857D01*
X2408698D01*
X2401080D01*
X2398541Y2194396D01*
X2401080Y2196935D01*
X2408698D01*
X2398541Y2204553D02*
Y2209631D01*
X2401080Y2212171D01*
X2408698D01*
Y2204553D01*
X2406158Y2202014D01*
X2403619Y2204553D01*
Y2212171D01*
X2394198Y2172648D02*
X2387533Y2179313D01*
X2423713Y2079055D02*
Y2068898D01*
X2438948D01*
Y2079055D01*
X2431330Y2068898D02*
Y2073976D01*
X2423713Y2084133D02*
X2438948Y2094290D01*
X2423713D02*
X2438948Y2084133D01*
X2423713Y2099368D02*
Y2109525D01*
Y2104447D01*
X2438948D01*
Y2114603D02*
Y2119682D01*
Y2117143D01*
X2423713D01*
X2426252Y2114603D01*
X2438948Y2127299D02*
Y2132378D01*
Y2129838D01*
X2423713D01*
X2426252Y2127299D01*
X2438948Y2155230D02*
Y2160309D01*
Y2157769D01*
X2423713D01*
X2426252Y2155230D01*
X2438948Y2178083D02*
Y2167926D01*
X2428791Y2178083D01*
X2426252D01*
X2423713Y2175544D01*
Y2170465D01*
X2426252Y2167926D01*
X2438948Y2193318D02*
Y2183161D01*
X2428791Y2193318D01*
X2426252D01*
X2423713Y2190779D01*
Y2185700D01*
X2426252Y2183161D01*
X2438948Y2198396D02*
Y2203475D01*
Y2200935D01*
X2423713D01*
X2426252Y2198396D01*
X1832398Y1673688D02*
X1829908Y1673566D01*
X1827442Y1673200D01*
X1825024Y1672594D01*
X1822677Y1671755D01*
X1820424Y1670689D01*
X1818286Y1669408D01*
X1816284Y1667923D01*
X1814437Y1666249D01*
X1812763Y1664402D01*
X1811278Y1662400D01*
X1809997Y1660262D01*
X1808931Y1658008D01*
X1808091Y1655661D01*
X1807486Y1653243D01*
X1807120Y1650778D01*
X1806998Y1648288D01*
Y1369142D02*
X1807119Y1366655D01*
X1807480Y1364192D01*
X1808078Y1361776D01*
X1808908Y1359428D01*
X1809961Y1357173D01*
X1811228Y1355029D01*
X1812697Y1353019D01*
X1814354Y1351161D01*
X1816183Y1349472D01*
X1818167Y1347968D01*
X1820288Y1346664D01*
X1822525Y1345571D01*
X1824857Y1344701D01*
X1827263Y1344060D01*
X1829720Y1343656D01*
X1832204Y1343492D01*
X2899198Y1343488D02*
X2901687Y1343610D01*
X2904153Y1343976D01*
X2906571Y1344582D01*
X2908918Y1345422D01*
X2911171Y1346487D01*
X2913309Y1347769D01*
X2915311Y1349254D01*
X2917158Y1350928D01*
X2918832Y1352775D01*
X2920317Y1354777D01*
X2921599Y1356915D01*
X2922664Y1359168D01*
X2923504Y1361515D01*
X2924109Y1363933D01*
X2924475Y1366398D01*
X2924598Y1368888D01*
Y1648288D02*
X2924475Y1650778D01*
X2924109Y1653243D01*
X2923504Y1655661D01*
X2922664Y1658008D01*
X2921599Y1660262D01*
X2920317Y1662400D01*
X2918832Y1664402D01*
X2917158Y1666249D01*
X2915311Y1667923D01*
X2913309Y1669408D01*
X2911171Y1670689D01*
X2908918Y1671755D01*
X2906571Y1672594D01*
X2904153Y1673200D01*
X2901687Y1673566D01*
X2899198Y1673688D01*
X1832398Y1343488D02*
X2899198D01*
X1832398Y1673688D02*
X2899198D01*
X2924598Y1368888D02*
Y1648288D01*
X1806998Y1368888D02*
Y1648288D01*
X2610198Y1923873D02*
Y1908638D01*
X2617815D01*
X2620354Y1911177D01*
Y1921334D01*
X2617815Y1923873D01*
X2610198D01*
X2625433Y1918795D02*
Y1908638D01*
Y1913716D01*
X2627972Y1916256D01*
X2630511Y1918795D01*
X2633050D01*
X2640668Y1908638D02*
X2645746D01*
X2643207D01*
Y1918795D01*
X2640668D01*
X2653364Y1908638D02*
X2658442D01*
X2655903D01*
Y1923873D01*
X2653364D01*
X2666060Y1908638D02*
X2671138D01*
X2668599D01*
Y1923873D01*
X2666060D01*
X2693990D02*
Y1908638D01*
X2701608D01*
X2704147Y1911177D01*
Y1921334D01*
X2701608Y1923873D01*
X2693990D01*
X2709225Y1918795D02*
Y1908638D01*
Y1913716D01*
X2711765Y1916256D01*
X2714304Y1918795D01*
X2716843D01*
X2727000D02*
X2732078D01*
X2734617Y1916256D01*
Y1908638D01*
X2727000D01*
X2724461Y1911177D01*
X2727000Y1913716D01*
X2734617D01*
X2739696Y1918795D02*
Y1911177D01*
X2742235Y1908638D01*
X2744774Y1911177D01*
X2747313Y1908638D01*
X2749853Y1911177D01*
Y1918795D01*
X2754931Y1908638D02*
X2760009D01*
X2757470D01*
Y1918795D01*
X2754931D01*
X2767627Y1908638D02*
Y1918795D01*
X2775244D01*
X2777784Y1916256D01*
Y1908638D01*
X2787940Y1903560D02*
X2790479D01*
X2793018Y1906099D01*
Y1918795D01*
X2785401D01*
X2782862Y1916256D01*
Y1911177D01*
X2785401Y1908638D01*
X2793018D01*
X2798097D02*
Y1911177D01*
X2800636D01*
Y1908638D01*
X2798097D01*
X2671155Y2116918D02*
Y2132153D01*
X2663538Y2124536D01*
X2673694D01*
X2678773Y2129614D02*
X2681312Y2132153D01*
X2686390D01*
X2688929Y2129614D01*
Y2127075D01*
X2686390Y2124536D01*
X2683851D01*
X2686390D01*
X2688929Y2121996D01*
Y2119457D01*
X2686390Y2116918D01*
X2681312D01*
X2678773Y2119457D01*
X2787998Y2116918D02*
X2793076D01*
X2790537D01*
Y2132153D01*
X2787998Y2129614D01*
X2810850Y2132153D02*
X2800694D01*
Y2124536D01*
X2805772Y2127075D01*
X2808311D01*
X2810850Y2124536D01*
Y2119457D01*
X2808311Y2116918D01*
X2803233D01*
X2800694Y2119457D01*
X2815929Y2116918D02*
Y2119457D01*
X2818468D01*
Y2116918D01*
X2815929D01*
X2828625Y2132153D02*
X2838781D01*
Y2129614D01*
X2828625Y2119457D01*
Y2116918D01*
X2851477D02*
Y2132153D01*
X2843860Y2124536D01*
X2854016D01*
X2859095Y2129614D02*
X2861634Y2132153D01*
X2866712D01*
X2869251Y2129614D01*
Y2127075D01*
X2866712Y2124536D01*
X2869251Y2121996D01*
Y2119457D01*
X2866712Y2116918D01*
X2861634D01*
X2859095Y2119457D01*
Y2121996D01*
X2861634Y2124536D01*
X2859095Y2127075D01*
Y2129614D01*
X2861634Y2124536D02*
X2866712D01*
X2874330Y2116918D02*
Y2127075D01*
X2876869D01*
X2879408Y2124536D01*
Y2116918D01*
Y2124536D01*
X2881947Y2127075D01*
X2884486Y2124536D01*
Y2116918D01*
X2889565D02*
X2894643D01*
X2892104D01*
Y2127075D01*
X2889565D01*
X2902261Y2116918D02*
X2907339D01*
X2904800D01*
Y2132153D01*
X2902261D01*
X2965798Y2129614D02*
X2968337Y2132153D01*
X2973415D01*
X2975954Y2129614D01*
Y2119457D01*
X2973415Y2116918D01*
X2968337D01*
X2965798Y2119457D01*
Y2129614D01*
X2981033Y2116918D02*
Y2119457D01*
X2983572D01*
Y2116918D01*
X2981033D01*
X3001346D02*
Y2132153D01*
X2993729Y2124536D01*
X3003885D01*
X3008964Y2116918D02*
Y2127075D01*
X3011503D01*
X3014042Y2124536D01*
Y2116918D01*
Y2124536D01*
X3016581Y2127075D01*
X3019120Y2124536D01*
Y2116918D01*
X3024199D02*
Y2127075D01*
X3026738D01*
X3029277Y2124536D01*
Y2116918D01*
Y2124536D01*
X3031816Y2127075D01*
X3034355Y2124536D01*
Y2116918D01*
X3143598D02*
Y2132153D01*
X3151215D01*
X3153754Y2129614D01*
Y2124536D01*
X3151215Y2121996D01*
X3143598D01*
X3158833Y2132153D02*
X3168990D01*
X3163911D01*
Y2116918D01*
X3174068Y2132153D02*
Y2116918D01*
Y2124536D01*
X3184225D01*
Y2132153D01*
Y2116918D01*
X2663538Y2086438D02*
X2668616D01*
X2666077D01*
Y2101673D01*
X2663538Y2099134D01*
X2676234Y2101673D02*
X2686390D01*
Y2099134D01*
X2676234Y2088977D01*
Y2086438D01*
X2787998D02*
X2793076D01*
X2790537D01*
Y2101673D01*
X2787998Y2099134D01*
X2800694Y2088977D02*
X2803233Y2086438D01*
X2808311D01*
X2810850Y2088977D01*
Y2099134D01*
X2808311Y2101673D01*
X2803233D01*
X2800694Y2099134D01*
Y2096595D01*
X2803233Y2094056D01*
X2810850D01*
X2815929Y2086438D02*
Y2088977D01*
X2818468D01*
Y2086438D01*
X2815929D01*
X2838781Y2101673D02*
X2833703Y2099134D01*
X2828625Y2094056D01*
Y2088977D01*
X2831164Y2086438D01*
X2836242D01*
X2838781Y2088977D01*
Y2091517D01*
X2836242Y2094056D01*
X2828625D01*
X2843860Y2099134D02*
X2846399Y2101673D01*
X2851477D01*
X2854016Y2099134D01*
Y2096595D01*
X2851477Y2094056D01*
X2854016Y2091517D01*
Y2088977D01*
X2851477Y2086438D01*
X2846399D01*
X2843860Y2088977D01*
Y2091517D01*
X2846399Y2094056D01*
X2843860Y2096595D01*
Y2099134D01*
X2846399Y2094056D02*
X2851477D01*
X2869251Y2101673D02*
X2859095D01*
Y2094056D01*
X2864173Y2096595D01*
X2866712D01*
X2869251Y2094056D01*
Y2088977D01*
X2866712Y2086438D01*
X2861634D01*
X2859095Y2088977D01*
X2874330Y2086438D02*
Y2096595D01*
X2876869D01*
X2879408Y2094056D01*
Y2086438D01*
Y2094056D01*
X2881947Y2096595D01*
X2884486Y2094056D01*
Y2086438D01*
X2889565D02*
X2894643D01*
X2892104D01*
Y2096595D01*
X2889565D01*
X2902261Y2086438D02*
X2907339D01*
X2904800D01*
Y2101673D01*
X2902261D01*
X2965798Y2099134D02*
X2968337Y2101673D01*
X2973415D01*
X2975954Y2099134D01*
Y2088977D01*
X2973415Y2086438D01*
X2968337D01*
X2965798Y2088977D01*
Y2099134D01*
X2981033Y2086438D02*
Y2088977D01*
X2983572D01*
Y2086438D01*
X2981033D01*
X3003885Y2101673D02*
X2993729D01*
Y2094056D01*
X2998807Y2096595D01*
X3001346D01*
X3003885Y2094056D01*
Y2088977D01*
X3001346Y2086438D01*
X2996268D01*
X2993729Y2088977D01*
X3008964Y2086438D02*
Y2096595D01*
X3011503D01*
X3014042Y2094056D01*
Y2086438D01*
Y2094056D01*
X3016581Y2096595D01*
X3019120Y2094056D01*
Y2086438D01*
X3024199D02*
Y2096595D01*
X3026738D01*
X3029277Y2094056D01*
Y2086438D01*
Y2094056D01*
X3031816Y2096595D01*
X3034355Y2094056D01*
Y2086438D01*
X3143598D02*
Y2101673D01*
X3151215D01*
X3153754Y2099134D01*
Y2094056D01*
X3151215Y2091517D01*
X3143598D01*
X3158833Y2101673D02*
X3168990D01*
X3163911D01*
Y2086438D01*
X3174068Y2101673D02*
Y2086438D01*
Y2094056D01*
X3184225D01*
Y2101673D01*
Y2086438D01*
X2663538Y2071193D02*
X2673694D01*
Y2068654D01*
X2663538Y2058497D01*
Y2055958D01*
X2678773Y2068654D02*
X2681312Y2071193D01*
X2686390D01*
X2688929Y2068654D01*
Y2058497D01*
X2686390Y2055958D01*
X2681312D01*
X2678773Y2058497D01*
Y2068654D01*
X2787998D02*
X2790537Y2071193D01*
X2795615D01*
X2798154Y2068654D01*
Y2066115D01*
X2795615Y2063576D01*
X2793076D01*
X2795615D01*
X2798154Y2061037D01*
Y2058497D01*
X2795615Y2055958D01*
X2790537D01*
X2787998Y2058497D01*
X2803233D02*
X2805772Y2055958D01*
X2810850D01*
X2813390Y2058497D01*
Y2068654D01*
X2810850Y2071193D01*
X2805772D01*
X2803233Y2068654D01*
Y2066115D01*
X2805772Y2063576D01*
X2813390D01*
X2818468Y2055958D02*
Y2058497D01*
X2821007D01*
Y2055958D01*
X2818468D01*
X2831164Y2068654D02*
X2833703Y2071193D01*
X2838781D01*
X2841320Y2068654D01*
Y2066115D01*
X2838781Y2063576D01*
X2836242D01*
X2838781D01*
X2841320Y2061037D01*
Y2058497D01*
X2838781Y2055958D01*
X2833703D01*
X2831164Y2058497D01*
X2846399Y2071193D02*
X2856555D01*
Y2068654D01*
X2846399Y2058497D01*
Y2055958D01*
X2861634D02*
Y2066115D01*
X2864173D01*
X2866712Y2063576D01*
Y2055958D01*
Y2063576D01*
X2869251Y2066115D01*
X2871790Y2063576D01*
Y2055958D01*
X2876869D02*
X2881947D01*
X2879408D01*
Y2066115D01*
X2876869D01*
X2889565Y2055958D02*
X2894643D01*
X2892104D01*
Y2071193D01*
X2889565D01*
X2965798Y2055958D02*
X2970876D01*
X2968337D01*
Y2071193D01*
X2965798Y2068654D01*
X2978494Y2055958D02*
Y2066115D01*
X2981033D01*
X2983572Y2063576D01*
Y2055958D01*
Y2063576D01*
X2986111Y2066115D01*
X2988650Y2063576D01*
Y2055958D01*
X2993729D02*
Y2066115D01*
X2996268D01*
X2998807Y2063576D01*
Y2055958D01*
Y2063576D01*
X3001346Y2066115D01*
X3003885Y2063576D01*
Y2055958D01*
X3143598D02*
Y2071193D01*
X3151215D01*
X3153754Y2068654D01*
Y2063576D01*
X3151215Y2061037D01*
X3143598D01*
X3158833Y2071193D02*
X3168990D01*
X3163911D01*
Y2055958D01*
X3174068Y2071193D02*
Y2055958D01*
Y2063576D01*
X3184225D01*
Y2071193D01*
Y2055958D01*
X2673694Y2025478D02*
X2663538D01*
X2673694Y2035635D01*
Y2038174D01*
X2671155Y2040713D01*
X2666077D01*
X2663538Y2038174D01*
X2798154Y2040713D02*
X2793076Y2038174D01*
X2787998Y2033096D01*
Y2028017D01*
X2790537Y2025478D01*
X2795615D01*
X2798154Y2028017D01*
Y2030556D01*
X2795615Y2033096D01*
X2787998D01*
X2813390Y2040713D02*
X2808311Y2038174D01*
X2803233Y2033096D01*
Y2028017D01*
X2805772Y2025478D01*
X2810850D01*
X2813390Y2028017D01*
Y2030556D01*
X2810850Y2033096D01*
X2803233D01*
X2818468Y2025478D02*
Y2028017D01*
X2821007D01*
Y2025478D01*
X2818468D01*
X2831164Y2028017D02*
X2833703Y2025478D01*
X2838781D01*
X2841320Y2028017D01*
Y2038174D01*
X2838781Y2040713D01*
X2833703D01*
X2831164Y2038174D01*
Y2035635D01*
X2833703Y2033096D01*
X2841320D01*
X2856555Y2025478D02*
X2846399D01*
X2856555Y2035635D01*
Y2038174D01*
X2854016Y2040713D01*
X2848938D01*
X2846399Y2038174D01*
X2861634Y2028017D02*
X2864173Y2025478D01*
X2869251D01*
X2871790Y2028017D01*
Y2038174D01*
X2869251Y2040713D01*
X2864173D01*
X2861634Y2038174D01*
Y2035635D01*
X2864173Y2033096D01*
X2871790D01*
X2876869Y2025478D02*
Y2035635D01*
X2879408D01*
X2881947Y2033096D01*
Y2025478D01*
Y2033096D01*
X2884486Y2035635D01*
X2887025Y2033096D01*
Y2025478D01*
X2892104D02*
X2897182D01*
X2894643D01*
Y2035635D01*
X2892104D01*
X2904800Y2025478D02*
X2909878D01*
X2907339D01*
Y2040713D01*
X2904800D01*
X2965798Y2025478D02*
X2970876D01*
X2968337D01*
Y2040713D01*
X2965798Y2038174D01*
X2978494Y2025478D02*
Y2028017D01*
X2981033D01*
Y2025478D01*
X2978494D01*
X2991189Y2040713D02*
X3001346D01*
Y2038174D01*
X2991189Y2028017D01*
Y2025478D01*
X3006425D02*
Y2035635D01*
X3008964D01*
X3011503Y2033096D01*
Y2025478D01*
Y2033096D01*
X3014042Y2035635D01*
X3016581Y2033096D01*
Y2025478D01*
X3021660D02*
Y2035635D01*
X3024199D01*
X3026738Y2033096D01*
Y2025478D01*
Y2033096D01*
X3029277Y2035635D01*
X3031816Y2033096D01*
Y2025478D01*
X3143598D02*
Y2040713D01*
X3151215D01*
X3153754Y2038174D01*
Y2033096D01*
X3151215Y2030556D01*
X3143598D01*
X3158833Y2040713D02*
X3168990D01*
X3163911D01*
Y2025478D01*
X3174068Y2040713D02*
Y2025478D01*
Y2033096D01*
X3184225D01*
Y2040713D01*
Y2025478D01*
X2673694Y1994998D02*
X2663538D01*
X2673694Y2005155D01*
Y2007694D01*
X2671155Y2010233D01*
X2666077D01*
X2663538Y2007694D01*
X2787998Y1994998D02*
X2793076D01*
X2790537D01*
Y2010233D01*
X2787998Y2007694D01*
X2800694D02*
X2803233Y2010233D01*
X2808311D01*
X2810850Y2007694D01*
Y1997537D01*
X2808311Y1994998D01*
X2803233D01*
X2800694Y1997537D01*
Y2007694D01*
X2826086Y2010233D02*
X2821007Y2007694D01*
X2815929Y2002616D01*
Y1997537D01*
X2818468Y1994998D01*
X2823546D01*
X2826086Y1997537D01*
Y2000076D01*
X2823546Y2002616D01*
X2815929D01*
X2831164Y1994998D02*
Y1997537D01*
X2833703D01*
Y1994998D01*
X2831164D01*
X2854016D02*
X2843860D01*
X2854016Y2005155D01*
Y2007694D01*
X2851477Y2010233D01*
X2846399D01*
X2843860Y2007694D01*
X2859095Y1997537D02*
X2861634Y1994998D01*
X2866712D01*
X2869251Y1997537D01*
Y2007694D01*
X2866712Y2010233D01*
X2861634D01*
X2859095Y2007694D01*
Y2005155D01*
X2861634Y2002616D01*
X2869251D01*
X2874330Y1997537D02*
X2876869Y1994998D01*
X2881947D01*
X2884486Y1997537D01*
Y2007694D01*
X2881947Y2010233D01*
X2876869D01*
X2874330Y2007694D01*
Y2005155D01*
X2876869Y2002616D01*
X2884486D01*
X2889565Y1994998D02*
Y2005155D01*
X2892104D01*
X2894643Y2002616D01*
Y1994998D01*
Y2002616D01*
X2897182Y2005155D01*
X2899721Y2002616D01*
Y1994998D01*
X2904800D02*
X2909878D01*
X2907339D01*
Y2005155D01*
X2904800D01*
X2917496Y1994998D02*
X2922574D01*
X2920035D01*
Y2010233D01*
X2917496D01*
X2975954Y1994998D02*
X2965798D01*
X2975954Y2005155D01*
Y2007694D01*
X2973415Y2010233D01*
X2968337D01*
X2965798Y2007694D01*
X2981033Y1994998D02*
Y1997537D01*
X2983572D01*
Y1994998D01*
X2981033D01*
X2993729Y2010233D02*
X3003885D01*
Y2007694D01*
X2993729Y1997537D01*
Y1994998D01*
X3008964D02*
Y2005155D01*
X3011503D01*
X3014042Y2002616D01*
Y1994998D01*
Y2002616D01*
X3016581Y2005155D01*
X3019120Y2002616D01*
Y1994998D01*
X3024199D02*
Y2005155D01*
X3026738D01*
X3029277Y2002616D01*
Y1994998D01*
Y2002616D01*
X3031816Y2005155D01*
X3034355Y2002616D01*
Y1994998D01*
X3143598D02*
Y2010233D01*
X3151215D01*
X3153754Y2007694D01*
Y2002616D01*
X3151215Y2000076D01*
X3143598D01*
X3158833Y2010233D02*
X3168990D01*
X3163911D01*
Y1994998D01*
X3174068Y2010233D02*
Y1994998D01*
Y2002616D01*
X3184225D01*
Y2010233D01*
Y1994998D01*
X2671155Y1964518D02*
Y1979753D01*
X2663538Y1972136D01*
X2673694D01*
X2787998Y1964518D02*
X2793076D01*
X2790537D01*
Y1979753D01*
X2787998Y1977214D01*
X2800694Y1964518D02*
X2805772D01*
X2803233D01*
Y1979753D01*
X2800694Y1977214D01*
X2813389D02*
X2815929Y1979753D01*
X2821007D01*
X2823546Y1977214D01*
Y1974675D01*
X2821007Y1972136D01*
X2823546Y1969597D01*
Y1967057D01*
X2821007Y1964518D01*
X2815929D01*
X2813389Y1967057D01*
Y1969597D01*
X2815929Y1972136D01*
X2813389Y1974675D01*
Y1977214D01*
X2815929Y1972136D02*
X2821007D01*
X2828625Y1964518D02*
Y1967057D01*
X2831164D01*
Y1964518D01*
X2828625D01*
X2841320D02*
X2846399D01*
X2843860D01*
Y1979753D01*
X2841320Y1977214D01*
X2854016Y1964518D02*
X2859095D01*
X2856555D01*
Y1979753D01*
X2854016Y1977214D01*
X2866712Y1964518D02*
Y1974675D01*
X2869251D01*
X2871790Y1972136D01*
Y1964518D01*
Y1972136D01*
X2874330Y1974675D01*
X2876869Y1972136D01*
Y1964518D01*
X2881947D02*
X2887025D01*
X2884486D01*
Y1974675D01*
X2881947D01*
X2894643Y1964518D02*
X2899721D01*
X2897182D01*
Y1979753D01*
X2894643D01*
X2965798Y1977214D02*
X2968337Y1979753D01*
X2973415D01*
X2975954Y1977214D01*
Y1974675D01*
X2973415Y1972136D01*
X2970876D01*
X2973415D01*
X2975954Y1969597D01*
Y1967057D01*
X2973415Y1964518D01*
X2968337D01*
X2965798Y1967057D01*
X2981033Y1964518D02*
Y1974675D01*
X2983572D01*
X2986111Y1972136D01*
Y1964518D01*
Y1972136D01*
X2988650Y1974675D01*
X2991190Y1972136D01*
Y1964518D01*
X2996268D02*
Y1974675D01*
X2998807D01*
X3001346Y1972136D01*
Y1964518D01*
Y1972136D01*
X3003885Y1974675D01*
X3006425Y1972136D01*
Y1964518D01*
X3143598D02*
Y1979753D01*
X3151215D01*
X3153754Y1977214D01*
Y1972136D01*
X3151215Y1969597D01*
X3143598D01*
X3158833Y1979753D02*
X3168990D01*
X3163911D01*
Y1964518D01*
X3174068Y1979753D02*
Y1964518D01*
Y1972136D01*
X3184225D01*
Y1979753D01*
Y1964518D01*
X2663538Y1934038D02*
X2668616D01*
X2666077D01*
Y1949273D01*
X2663538Y1946734D01*
X2676234D02*
X2678773Y1949273D01*
X2683851D01*
X2686390Y1946734D01*
Y1944195D01*
X2683851Y1941656D01*
X2681312D01*
X2683851D01*
X2686390Y1939117D01*
Y1936577D01*
X2683851Y1934038D01*
X2678773D01*
X2676234Y1936577D01*
X2691469Y1946734D02*
X2694008Y1949273D01*
X2699086D01*
X2701625Y1946734D01*
Y1944195D01*
X2699086Y1941656D01*
X2701625Y1939117D01*
Y1936577D01*
X2699086Y1934038D01*
X2694008D01*
X2691469Y1936577D01*
Y1939117D01*
X2694008Y1941656D01*
X2691469Y1944195D01*
Y1946734D01*
X2694008Y1941656D02*
X2699086D01*
X2787998Y1949273D02*
X2798154D01*
X2793076D01*
Y1934038D01*
X2805772D02*
X2810850D01*
X2813390Y1936577D01*
Y1941656D01*
X2810850Y1944195D01*
X2805772D01*
X2803233Y1941656D01*
Y1936577D01*
X2805772Y1934038D01*
X2821007Y1946734D02*
Y1944195D01*
X2818468D01*
X2823546D01*
X2821007D01*
Y1936577D01*
X2823546Y1934038D01*
X2833703Y1944195D02*
X2838781D01*
X2841320Y1941656D01*
Y1934038D01*
X2833703D01*
X2831164Y1936577D01*
X2833703Y1939117D01*
X2841320D01*
X2846399Y1934038D02*
X2851477D01*
X2848938D01*
Y1949273D01*
X2846399D01*
D28*
X3521500Y1349836D02*
X3521240Y1352392D01*
X3520471Y1354844D01*
X3519224Y1357091D01*
X3517550Y1359041D01*
X3515518Y1360613D01*
X3513211Y1361745D01*
X3510723Y1362389D01*
X3508157Y1362519D01*
X3505617Y1362130D01*
X3503207Y1361238D01*
X3501027Y1359879D01*
X3499164Y1358108D01*
X3497696Y1355999D01*
X3496683Y1353638D01*
X3496165Y1351120D01*
Y1348551D01*
X3496683Y1346034D01*
X3497696Y1343672D01*
X3499164Y1341563D01*
X3501027Y1339793D01*
X3503207Y1338434D01*
X3505617Y1337541D01*
X3508157Y1337152D01*
X3510723Y1337282D01*
X3513211Y1337926D01*
X3515518Y1339058D01*
X3517550Y1340631D01*
X3519224Y1342581D01*
X3520471Y1344827D01*
X3521240Y1347279D01*
X3521500Y1349836D01*
X3527850D02*
X3527680Y1352375D01*
X3527173Y1354868D01*
X3526339Y1357272D01*
X3525191Y1359544D01*
X3523751Y1361642D01*
X3522043Y1363529D01*
X3520100Y1365172D01*
X3517955Y1366541D01*
X3515647Y1367613D01*
X3513216Y1368367D01*
X3510707Y1368790D01*
X3508164Y1368875D01*
X3505632Y1368620D01*
X3503156Y1368030D01*
X3500781Y1367116D01*
X3498550Y1365893D01*
X3496501Y1364383D01*
X3494672Y1362614D01*
X3493094Y1360617D01*
X3491798Y1358427D01*
X3490804Y1356084D01*
X3490132Y1353630D01*
X3489793Y1351108D01*
Y1348563D01*
X3490132Y1346041D01*
X3490804Y1343587D01*
X3491798Y1341244D01*
X3493094Y1339054D01*
X3494672Y1337057D01*
X3496501Y1335288D01*
X3498550Y1333779D01*
X3500781Y1332556D01*
X3503156Y1331641D01*
X3505632Y1331051D01*
X3508164Y1330796D01*
X3510707Y1330881D01*
X3513216Y1331305D01*
X3515647Y1332059D01*
X3517955Y1333130D01*
X3520100Y1334499D01*
X3522044Y1336142D01*
X3523751Y1338029D01*
X3525191Y1340127D01*
X3526339Y1342399D01*
X3527173Y1344803D01*
X3527680Y1347296D01*
X3527850Y1349836D01*
X3509435D02*
X3508165D01*
X3509435D01*
X3510070D02*
X3508165Y1350935D01*
Y1348736D01*
X3510070Y1349836D01*
X3513880D02*
X3513298Y1352196D01*
X3511686Y1354016D01*
X3509413Y1354879D01*
X3506999Y1354586D01*
X3504998Y1353204D01*
X3503868Y1351051D01*
Y1348620D01*
X3504998Y1346467D01*
X3506999Y1345086D01*
X3509413Y1344793D01*
X3511686Y1345655D01*
X3513298Y1347475D01*
X3513880Y1349836D01*
X3512610D02*
X3511719Y1352285D01*
X3509462Y1353588D01*
X3506895Y1353135D01*
X3505220Y1351139D01*
Y1348533D01*
X3506895Y1346536D01*
X3509462Y1346084D01*
X3511719Y1347387D01*
X3512610Y1349836D01*
X3511340D02*
X3510070Y1352035D01*
X3507530D01*
X3506260Y1349836D01*
X3507530Y1347636D01*
X3510070D01*
X3511340Y1349836D01*
X1749848Y2873838D02*
X1749678Y2876377D01*
X1749171Y2878871D01*
X1748336Y2881275D01*
X1747188Y2883546D01*
X1745748Y2885645D01*
X1744041Y2887532D01*
X1742098Y2889175D01*
X1739953Y2890544D01*
X1737644Y2891615D01*
X1735214Y2892369D01*
X1732704Y2892792D01*
X1730161Y2892878D01*
X1727629Y2892623D01*
X1725154Y2892033D01*
X1722779Y2891118D01*
X1720547Y2889895D01*
X1718499Y2888386D01*
X1716669Y2886617D01*
X1715092Y2884619D01*
X1713795Y2882430D01*
X1712802Y2880087D01*
X1712129Y2877633D01*
X1711790Y2875110D01*
Y2872566D01*
X1712129Y2870044D01*
X1712802Y2867589D01*
X1713795Y2865246D01*
X1715092Y2863057D01*
X1716669Y2861060D01*
X1718499Y2859290D01*
X1720547Y2857781D01*
X1722779Y2856558D01*
X1725154Y2855643D01*
X1727629Y2855053D01*
X1730161Y2854799D01*
X1732704Y2854884D01*
X1735214Y2855307D01*
X1737644Y2856061D01*
X1739953Y2857132D01*
X1742098Y2858502D01*
X1744041Y2860145D01*
X1745748Y2862032D01*
X1747188Y2864130D01*
X1748336Y2866401D01*
X1749171Y2868805D01*
X1749678Y2871299D01*
X1749848Y2873838D01*
X1731433D02*
X1730163D01*
X1731433D01*
X1732068D02*
X1730163Y2874938D01*
Y2872738D01*
X1732068Y2873838D01*
X1733338D02*
X1732068Y2876038D01*
X1729528D01*
X1728258Y2873838D01*
X1729528Y2871638D01*
X1732068D01*
X1733338Y2873838D01*
X1734608D02*
X1733716Y2876287D01*
X1731459Y2877590D01*
X1728893Y2877138D01*
X1727217Y2875141D01*
Y2872535D01*
X1728893Y2870539D01*
X1731459Y2870086D01*
X1733716Y2871389D01*
X1734608Y2873838D01*
X1735878D02*
X1735296Y2876199D01*
X1733683Y2878019D01*
X1731410Y2878881D01*
X1728996Y2878588D01*
X1726995Y2877207D01*
X1725865Y2875054D01*
Y2872622D01*
X1726995Y2870469D01*
X1728996Y2869088D01*
X1731410Y2868795D01*
X1733683Y2869657D01*
X1735296Y2871477D01*
X1735878Y2873838D01*
X1743498D02*
X1743238Y2876395D01*
X1742468Y2878846D01*
X1741221Y2881093D01*
X1739547Y2883043D01*
X1737516Y2884616D01*
X1735208Y2885748D01*
X1732721Y2886392D01*
X1730154Y2886522D01*
X1727614Y2886133D01*
X1725205Y2885240D01*
X1723024Y2883881D01*
X1721161Y2882111D01*
X1719693Y2880002D01*
X1718680Y2877640D01*
X1718163Y2875123D01*
Y2872553D01*
X1718680Y2870036D01*
X1719693Y2867675D01*
X1721161Y2865566D01*
X1723024Y2863795D01*
X1725205Y2862436D01*
X1727614Y2861544D01*
X1730154Y2861154D01*
X1732721Y2861284D01*
X1735208Y2861929D01*
X1737516Y2863060D01*
X1739548Y2864633D01*
X1741221Y2866583D01*
X1742468Y2868830D01*
X1743238Y2871282D01*
X1743498Y2873838D01*
X1743500Y1349836D02*
X1743240Y1352392D01*
X1742471Y1354844D01*
X1741224Y1357091D01*
X1739550Y1359041D01*
X1737518Y1360613D01*
X1735211Y1361745D01*
X1732723Y1362389D01*
X1730157Y1362519D01*
X1727617Y1362130D01*
X1725207Y1361238D01*
X1723026Y1359879D01*
X1721164Y1358108D01*
X1719696Y1355999D01*
X1718683Y1353638D01*
X1718165Y1351120D01*
Y1348551D01*
X1718683Y1346034D01*
X1719696Y1343672D01*
X1721164Y1341563D01*
X1723026Y1339793D01*
X1725207Y1338434D01*
X1727617Y1337541D01*
X1730157Y1337152D01*
X1732723Y1337282D01*
X1735211Y1337926D01*
X1737518Y1339058D01*
X1739550Y1340631D01*
X1741224Y1342581D01*
X1742471Y1344827D01*
X1743240Y1347279D01*
X1743500Y1349836D01*
X1749850D02*
X1749680Y1352375D01*
X1749173Y1354868D01*
X1748339Y1357272D01*
X1747191Y1359544D01*
X1745751Y1361642D01*
X1744044Y1363529D01*
X1742100Y1365172D01*
X1739955Y1366541D01*
X1737647Y1367613D01*
X1735216Y1368367D01*
X1732707Y1368790D01*
X1730164Y1368875D01*
X1727632Y1368620D01*
X1725156Y1368030D01*
X1722781Y1367116D01*
X1720550Y1365893D01*
X1718501Y1364383D01*
X1716672Y1362614D01*
X1715095Y1360617D01*
X1713798Y1358427D01*
X1712804Y1356084D01*
X1712132Y1353630D01*
X1711793Y1351108D01*
Y1348563D01*
X1712132Y1346041D01*
X1712804Y1343587D01*
X1713798Y1341244D01*
X1715095Y1339054D01*
X1716672Y1337057D01*
X1718501Y1335288D01*
X1720550Y1333779D01*
X1722781Y1332556D01*
X1725156Y1331641D01*
X1727632Y1331051D01*
X1730164Y1330796D01*
X1732707Y1330881D01*
X1735216Y1331305D01*
X1737647Y1332059D01*
X1739955Y1333130D01*
X1742100Y1334499D01*
X1744044Y1336142D01*
X1745751Y1338029D01*
X1747191Y1340127D01*
X1748339Y1342399D01*
X1749173Y1344803D01*
X1749680Y1347296D01*
X1749850Y1349836D01*
X1731435D02*
X1730165D01*
X1731435D01*
X1732070D02*
X1730165Y1350935D01*
Y1348736D01*
X1732070Y1349836D01*
X1735880D02*
X1735298Y1352196D01*
X1733686Y1354016D01*
X1731413Y1354879D01*
X1728999Y1354586D01*
X1726998Y1353204D01*
X1725868Y1351051D01*
Y1348620D01*
X1726998Y1346467D01*
X1728999Y1345086D01*
X1731413Y1344793D01*
X1733686Y1345655D01*
X1735298Y1347475D01*
X1735880Y1349836D01*
X1733340D02*
X1732070Y1352035D01*
X1729530D01*
X1728260Y1349836D01*
X1729530Y1347636D01*
X1732070D01*
X1733340Y1349836D01*
X1734610D02*
X1733719Y1352285D01*
X1731462Y1353588D01*
X1728895Y1353135D01*
X1727220Y1351139D01*
Y1348533D01*
X1728895Y1346536D01*
X1731462Y1346084D01*
X1733719Y1347387D01*
X1734610Y1349836D01*
X1749850D02*
X1762550D01*
X1673650D02*
X1711750D01*
X1654598Y1273638D02*
X1673648D01*
X1648248Y1330788D02*
X1660948D01*
X1650915Y1332820D02*
X1658281D01*
X1652185Y1333709D02*
X1657011D01*
X1649645Y1331931D02*
X1659551D01*
X1653455Y1334598D02*
X1655741D01*
X1705398Y1273638D02*
X1711748D01*
X1603798Y1349838D02*
X1654598D01*
X1635548Y1375238D02*
X1654598D01*
X1635548Y1400638D02*
X1654598D01*
X1635548Y1426038D02*
X1654598D01*
X1635548Y1451438D02*
X1654598D01*
X1616498Y1476838D02*
X1654598D01*
X1635548Y1502238D02*
X1654598D01*
X1635548Y1527638D02*
X1654598D01*
X1635548Y1553038D02*
X1654598D01*
X1635548Y1578438D02*
X1654598D01*
X1603798Y1603838D02*
X1654598D01*
X1635548Y1629238D02*
X1654598D01*
X1635548Y1654638D02*
X1654598D01*
X1635548Y1680038D02*
X1654598D01*
X1635548Y1705438D02*
X1654598D01*
X1616498Y1730838D02*
X1654598D01*
X1635548Y1756238D02*
X1654598D01*
X1635548Y1781638D02*
X1654598D01*
X1635548Y1807038D02*
X1654598D01*
X1635548Y1832438D02*
X1654598D01*
X1603798Y1857838D02*
X1654598D01*
X1635548Y1883238D02*
X1654598D01*
X1635548Y1908638D02*
X1654598D01*
X1635548Y1934038D02*
X1654598D01*
X1635548Y1959438D02*
X1654598D01*
X1616498Y1984838D02*
X1654598D01*
X1635548Y2010238D02*
X1654598D01*
X1635548Y2035638D02*
X1654598D01*
X1635548Y2061038D02*
X1654598D01*
X1635548Y2086438D02*
X1654598D01*
X1603798Y2111838D02*
X1654598D01*
X1635548Y2137238D02*
X1654598D01*
X1635548Y2162638D02*
X1654598D01*
X1635548Y2188038D02*
X1654598D01*
X1635548Y2213438D02*
X1654598D01*
X1616498Y2238838D02*
X1654598D01*
X1635548Y2264238D02*
X1654598D01*
X1635548Y2289638D02*
X1654598D01*
X1635548Y2315038D02*
X1654598D01*
X1635548Y2340438D02*
X1654598D01*
X1603798Y2365838D02*
X1654598D01*
X1635548Y2391238D02*
X1654598D01*
X1635548Y2416638D02*
X1654598D01*
X1635548Y2442038D02*
X1654598D01*
X1635548Y2467438D02*
X1654598D01*
X1616498Y2492838D02*
X1654598D01*
X1635548Y2518238D02*
X1654598D01*
X1635548Y2543638D02*
X1654598D01*
X1635548Y2569038D02*
X1654598D01*
X1635548Y2594438D02*
X1654598D01*
X1603798Y2619838D02*
X1654598D01*
X1635548Y2645238D02*
X1654598D01*
X1635548Y2670638D02*
X1654598D01*
X1635548Y2696038D02*
X1654598D01*
X1635548Y2721438D02*
X1654598D01*
X1616498Y2746838D02*
X1654598D01*
X1635548Y2772238D02*
X1654598D01*
X1635548Y2797638D02*
X1654598D01*
X1635548Y2823038D02*
X1654598D01*
X1635548Y2848438D02*
X1654598D01*
X1603798Y2873838D02*
X1654598D01*
X1730798D02*
X1743498D01*
X1718098D02*
X1730798D01*
X1673648D02*
X1711748D01*
X1749848D02*
X1762548D01*
X3477050Y1349836D02*
X3489750D01*
X3527850D02*
X3540550D01*
X1730800Y1292686D02*
Y1330786D01*
Y1368886D02*
Y1381586D01*
X1654598Y1273638D02*
Y1292688D01*
X1711748Y1267288D02*
Y1279988D01*
X1713780Y1269955D02*
Y1277321D01*
X1654598Y1324438D02*
Y1330788D01*
X1714669Y1271225D02*
Y1276051D01*
X1712891Y1268685D02*
Y1278591D01*
X1715558Y1272495D02*
Y1274781D01*
X1730798Y1222838D02*
Y1273638D01*
X1756198Y1254588D02*
Y1273638D01*
X1781598Y1254588D02*
Y1273638D01*
X1806998Y1254588D02*
Y1273638D01*
X1832398Y1254588D02*
Y1273638D01*
X1857798Y1235538D02*
Y1273638D01*
X1883198Y1254588D02*
Y1273638D01*
X1908598Y1254588D02*
Y1273638D01*
X1933998Y1254588D02*
Y1273638D01*
X1959398Y1254588D02*
Y1273638D01*
X1984798Y1222838D02*
Y1273638D01*
X2010198Y1254588D02*
Y1273638D01*
X2035598Y1254588D02*
Y1273638D01*
X2060998Y1254588D02*
Y1273638D01*
X2086398Y1254588D02*
Y1273638D01*
X2111798Y1235538D02*
Y1273638D01*
X2137198Y1254588D02*
Y1273638D01*
X2162598Y1254588D02*
Y1273638D01*
X2187998Y1254588D02*
Y1273638D01*
X2213398Y1254588D02*
Y1273638D01*
X2238798Y1222838D02*
Y1273638D01*
X2264198Y1254588D02*
Y1273638D01*
X2289598Y1254588D02*
Y1273638D01*
X2314998Y1254588D02*
Y1273638D01*
X2340398Y1254588D02*
Y1273638D01*
X2365798Y1235538D02*
Y1273638D01*
X2391198Y1254588D02*
Y1273638D01*
X2416598Y1254588D02*
Y1273638D01*
X2441998Y1254588D02*
Y1273638D01*
X2467398Y1254588D02*
Y1273638D01*
X2492798Y1222838D02*
Y1273638D01*
X2518198Y1254588D02*
Y1273638D01*
X2543598Y1254588D02*
Y1273638D01*
X2568998Y1254588D02*
Y1273638D01*
X2594398Y1254588D02*
Y1273638D01*
X2619798Y1235538D02*
Y1273638D01*
X2645198Y1254588D02*
Y1273638D01*
X2670598Y1254588D02*
Y1273638D01*
X2695998Y1254588D02*
Y1273638D01*
X2721398Y1254588D02*
Y1273638D01*
X2746798Y1222838D02*
Y1273638D01*
X2772198Y1254588D02*
Y1273638D01*
X2797598Y1254588D02*
Y1273638D01*
X2822998Y1254588D02*
Y1273638D01*
X2848398Y1254588D02*
Y1273638D01*
X2873798Y1235538D02*
Y1273638D01*
X2899198Y1254588D02*
Y1273638D01*
X2924598Y1254588D02*
Y1273638D01*
X2949998Y1254588D02*
Y1273638D01*
X2975398Y1254588D02*
Y1273638D01*
X3000798Y1222838D02*
Y1273638D01*
X3026198Y1254588D02*
Y1273638D01*
X3051598Y1254588D02*
Y1273638D01*
X3076998Y1254588D02*
Y1273638D01*
X3102398Y1254588D02*
Y1273638D01*
X3127798Y1235538D02*
Y1273638D01*
X3153198Y1254588D02*
Y1273638D01*
X3178598Y1254588D02*
Y1273638D01*
X3203998Y1254588D02*
Y1273638D01*
X3229398Y1254588D02*
Y1273638D01*
X3254798Y1222838D02*
Y1273638D01*
X3280198Y1254588D02*
Y1273638D01*
X3305598Y1254588D02*
Y1273638D01*
X3330998Y1254588D02*
Y1273638D01*
X3356398Y1254588D02*
Y1273638D01*
X3381798Y1235538D02*
Y1273638D01*
X3407198Y1254588D02*
Y1273638D01*
X3432598Y1254588D02*
Y1273638D01*
X3457998Y1254588D02*
Y1273638D01*
X3483398Y1254588D02*
Y1273638D01*
X3508798Y1222838D02*
Y1273638D01*
X1730798Y2861138D02*
Y2873838D01*
Y2886538D01*
Y2892888D02*
Y2905588D01*
Y2842088D02*
Y2854788D01*
X3508800Y1368886D02*
Y1381586D01*
Y1292686D02*
Y1330786D01*
X1730798Y1349838D02*
X1739688Y1358728D01*
X1721908Y1340948D02*
X1730798Y1349838D01*
X3499908Y1340948D02*
X3508798Y1349838D01*
X3517688Y1358728D01*
X1730798Y1349838D02*
X1739688Y1340948D01*
X1721908Y1358728D02*
X1730798Y1349838D01*
X3508798D02*
X3517688Y1340948D01*
X3499908Y1358728D02*
X3508798Y1349838D01*
X1711748Y1267288D02*
X1730798Y1273638D01*
X1711748Y1279988D02*
X1730798Y1273638D01*
X1713780Y1277321D02*
X1724702Y1273638D01*
X1713780Y1269955D02*
X1724702Y1273638D01*
X1654598Y1349838D02*
X1660948Y1330788D01*
X1648248D02*
X1654598Y1349838D01*
X1650915Y1332820D02*
X1654598Y1343742D01*
X1658281Y1332820D01*
X1652185Y1333709D02*
X1654598Y1340821D01*
X1657011Y1333709D01*
X1649645Y1331931D02*
X1654598Y1346663D01*
X1659551Y1331931D01*
X1653455Y1334598D02*
X1654598Y1337900D01*
X1655741Y1334598D01*
X1714669Y1276051D02*
X1721781Y1273638D01*
X1714669Y1271225D02*
X1721781Y1273638D01*
X1712891Y1278591D02*
X1727623Y1273638D01*
X1712891Y1268685D02*
X1727623Y1273638D01*
X1715558Y1274781D02*
X1718860Y1273638D01*
X1715558Y1272495D02*
X1718860Y1273638D01*
X1842556Y1559748D02*
X1841104Y1561199D01*
X1838928Y1561925D01*
X1836026D01*
X1833849Y1561199D01*
X1832398Y1559748D01*
Y1558297D01*
X1833123Y1556846D01*
X1833849Y1556120D01*
X1835300Y1555395D01*
X1839653Y1553944D01*
X1841104Y1553218D01*
X1841830Y1552493D01*
X1842556Y1551042D01*
Y1548865D01*
X1841104Y1547414D01*
X1838928Y1546688D01*
X1836026D01*
X1833849Y1547414D01*
X1832398Y1548865D01*
X1845966Y1561925D02*
Y1546688D01*
Y1561925D02*
X1851044D01*
X1853221Y1561199D01*
X1854672Y1559748D01*
X1855398Y1558297D01*
X1856123Y1556120D01*
Y1552493D01*
X1855398Y1550316D01*
X1854672Y1548865D01*
X1853221Y1547414D01*
X1851044Y1546688D01*
X1845966D01*
D29*
X2911898Y1464392D02*
X2911659Y1466820D01*
X2910950Y1469155D01*
X2909800Y1471307D01*
X2908252Y1473193D01*
X2906366Y1474741D01*
X2904214Y1475891D01*
X2901880Y1476599D01*
X2899452Y1476838D01*
X2619798D02*
X2617320Y1476594D01*
X2614938Y1475871D01*
X2612742Y1474698D01*
X2610817Y1473118D01*
X2609238Y1471194D01*
X2608064Y1468998D01*
X2607342Y1466616D01*
X2607098Y1464138D01*
X2899198Y1489538D02*
X2901675Y1489782D01*
X2904058Y1490505D01*
X2906253Y1491678D01*
X2908178Y1493258D01*
X2909757Y1495182D01*
X2910931Y1497378D01*
X2911654Y1499760D01*
X2911898Y1502238D01*
X2607098D02*
X2607342Y1499760D01*
X2608064Y1497378D01*
X2609238Y1495182D01*
X2610817Y1493258D01*
X2612742Y1491678D01*
X2614938Y1490505D01*
X2617320Y1489782D01*
X2619798Y1489538D01*
X2911898Y1648542D02*
X2911648Y1651024D01*
X2910908Y1653405D01*
X2909709Y1655592D01*
X2908098Y1657495D01*
X2906139Y1659039D01*
X2903912Y1660161D01*
X2901506Y1660818D01*
X2899017Y1660981D01*
X2899198Y1419688D02*
X2901675Y1419932D01*
X2904058Y1420655D01*
X2906253Y1421828D01*
X2908178Y1423408D01*
X2909757Y1425332D01*
X2910931Y1427528D01*
X2911654Y1429910D01*
X2911898Y1432388D01*
X2911898Y1394510D02*
X2911617Y1396956D01*
X2910869Y1399302D01*
X2909682Y1401460D01*
X2908101Y1403348D01*
X2906186Y1404896D01*
X2904008Y1406045D01*
X2901649Y1406752D01*
X2899198Y1406991D01*
Y1356188D02*
X2901675Y1356432D01*
X2904058Y1357155D01*
X2906253Y1358329D01*
X2908178Y1359908D01*
X2909757Y1361832D01*
X2910931Y1364028D01*
X2911654Y1366411D01*
X2911898Y1368888D01*
X2581698Y1419688D02*
X2584175Y1419932D01*
X2586558Y1420655D01*
X2588753Y1421828D01*
X2590678Y1423408D01*
X2592257Y1425332D01*
X2593431Y1427528D01*
X2594154Y1429910D01*
X2594398Y1432388D01*
X2607098Y1432134D02*
X2607342Y1429679D01*
X2608066Y1427321D01*
X2609241Y1425152D01*
X2610820Y1423257D01*
X2612742Y1421711D01*
X2614932Y1420574D01*
X2617302Y1419892D01*
X2619761Y1419690D01*
X2594398Y1464392D02*
X2594159Y1466820D01*
X2593450Y1469155D01*
X2592300Y1471307D01*
X2590752Y1473193D01*
X2588866Y1474741D01*
X2586714Y1475891D01*
X2584380Y1476599D01*
X2581952Y1476838D01*
X1819698Y1368888D02*
X1819936Y1366438D01*
X1820643Y1364079D01*
X1821792Y1361902D01*
X1823339Y1359987D01*
X1825227Y1358406D01*
X1827384Y1357220D01*
X1829730Y1356472D01*
X1832176Y1356190D01*
X2581919Y1489538D02*
X2584366Y1489819D01*
X2586712Y1490567D01*
X2588870Y1491754D01*
X2590758Y1493335D01*
X2592305Y1495250D01*
X2593454Y1497428D01*
X2594161Y1499787D01*
X2594400Y1502238D01*
X1832398Y1406988D02*
X1829920Y1406744D01*
X1827538Y1406021D01*
X1825342Y1404848D01*
X1823417Y1403268D01*
X1821838Y1401344D01*
X1820664Y1399148D01*
X1819942Y1396766D01*
X1819698Y1394288D01*
X2594398Y1584788D02*
X2594154Y1587266D01*
X2593431Y1589648D01*
X2592257Y1591844D01*
X2590678Y1593768D01*
X2588753Y1595348D01*
X2586558Y1596521D01*
X2584175Y1597244D01*
X2581698Y1597488D01*
Y1610188D02*
X2584175Y1610432D01*
X2586558Y1611155D01*
X2588753Y1612328D01*
X2590678Y1613908D01*
X2592257Y1615832D01*
X2593431Y1618028D01*
X2594154Y1620410D01*
X2594398Y1622888D01*
X2619798Y1660988D02*
X2617320Y1660744D01*
X2614938Y1660021D01*
X2612742Y1658848D01*
X2610817Y1657268D01*
X2609238Y1655344D01*
X2608064Y1653148D01*
X2607342Y1650766D01*
X2607098Y1648288D01*
X2594398D02*
X2594154Y1650766D01*
X2593431Y1653148D01*
X2592257Y1655344D01*
X2590678Y1657268D01*
X2588753Y1658848D01*
X2586558Y1660021D01*
X2584175Y1660744D01*
X2581698Y1660988D01*
X1832398D02*
X1829920Y1660744D01*
X1827538Y1660021D01*
X1825342Y1658848D01*
X1823417Y1657268D01*
X1821838Y1655344D01*
X1820664Y1653148D01*
X1819942Y1650766D01*
X1819698Y1648288D01*
Y1622888D02*
X1819942Y1620410D01*
X1820664Y1618028D01*
X1821838Y1615832D01*
X1823417Y1613908D01*
X1825342Y1612328D01*
X1827538Y1611155D01*
X1829920Y1610432D01*
X1832398Y1610188D01*
Y1597488D02*
X1829920Y1597244D01*
X1827538Y1596521D01*
X1825342Y1595348D01*
X1823417Y1593768D01*
X1821838Y1591844D01*
X1820664Y1589648D01*
X1819942Y1587266D01*
X1819698Y1584788D01*
Y1527638D02*
X1819942Y1525161D01*
X1820664Y1522778D01*
X1821838Y1520582D01*
X1823417Y1518658D01*
X1825342Y1517079D01*
X1827538Y1515905D01*
X1829920Y1515182D01*
X1832398Y1514938D01*
Y1502238D02*
X1829920Y1501994D01*
X1827538Y1501271D01*
X1825342Y1500098D01*
X1823417Y1498518D01*
X1821838Y1496594D01*
X1820664Y1494398D01*
X1819942Y1492016D01*
X1819698Y1489538D01*
Y1432388D02*
X1819936Y1429938D01*
X1820643Y1427579D01*
X1821792Y1425402D01*
X1823339Y1423487D01*
X1825227Y1421906D01*
X1827384Y1420719D01*
X1829730Y1419971D01*
X1832176Y1419690D01*
X2060998Y1597488D02*
X2058520Y1597244D01*
X2056138Y1596521D01*
X2053942Y1595348D01*
X2052017Y1593768D01*
X2050438Y1591844D01*
X2049264Y1589648D01*
X2048542Y1587266D01*
X2048298Y1584788D01*
X2060998Y1476838D02*
X2058520Y1476594D01*
X2056138Y1475871D01*
X2053942Y1474698D01*
X2052017Y1473118D01*
X2050438Y1471194D01*
X2049264Y1468998D01*
X2048542Y1466616D01*
X2048298Y1464138D01*
X2504990Y1476838D02*
X2502533Y1476588D01*
X2500177Y1475848D01*
X2498018Y1474648D01*
X2496146Y1473039D01*
X2494636Y1471084D01*
X2493551Y1468866D01*
X2492936Y1466474D01*
X2492814Y1464008D01*
X2492798Y1432642D02*
X2493041Y1430143D01*
X2493762Y1427737D01*
X2494934Y1425516D01*
X2496512Y1423563D01*
X2498438Y1421950D01*
X2500638Y1420740D01*
X2503031Y1419977D01*
X2505526Y1419690D01*
X2467652Y1419688D02*
X2470106Y1419933D01*
X2472465Y1420656D01*
X2474634Y1421831D01*
X2476529Y1423411D01*
X2478075Y1425333D01*
X2479212Y1427522D01*
X2479894Y1429893D01*
X2480096Y1432351D01*
X2480098Y1464392D02*
X2479859Y1466820D01*
X2479150Y1469155D01*
X2478000Y1471307D01*
X2476452Y1473193D01*
X2474566Y1474741D01*
X2472415Y1475891D01*
X2470080Y1476599D01*
X2467652Y1476838D01*
X2023152Y1419688D02*
X2025580Y1419927D01*
X2027915Y1420636D01*
X2030066Y1421786D01*
X2031952Y1423333D01*
X2033500Y1425220D01*
X2034650Y1427371D01*
X2035358Y1429706D01*
X2035598Y1432134D01*
X2048298D02*
X2048537Y1429706D01*
X2049245Y1427371D01*
X2050395Y1425220D01*
X2051943Y1423333D01*
X2053829Y1421786D01*
X2055981Y1420636D01*
X2058316Y1419927D01*
X2060744Y1419688D01*
X2048298Y1501984D02*
X2048537Y1499556D01*
X2049245Y1497221D01*
X2050395Y1495069D01*
X2051943Y1493183D01*
X2053829Y1491636D01*
X2055981Y1490486D01*
X2058316Y1489777D01*
X2060744Y1489538D01*
X2035598Y1489792D02*
X2035348Y1492274D01*
X2034608Y1494655D01*
X2033409Y1496842D01*
X2031797Y1498745D01*
X2029839Y1500289D01*
X2027612Y1501411D01*
X2025206Y1502068D01*
X2022717Y1502231D01*
X2023406Y1514938D02*
X2025784Y1515172D01*
X2028071Y1515866D01*
X2030179Y1516993D01*
X2032027Y1518509D01*
X2033543Y1520357D01*
X2034670Y1522464D01*
X2035363Y1524752D01*
X2035598Y1527130D01*
Y1585042D02*
X2035358Y1587470D01*
X2034650Y1589805D01*
X2033500Y1591957D01*
X2031952Y1593843D01*
X2030066Y1595391D01*
X2027915Y1596541D01*
X2025580Y1597249D01*
X2023152Y1597488D01*
X2759498Y1406988D02*
X2757020Y1406744D01*
X2754637Y1406021D01*
X2752442Y1404848D01*
X2750517Y1403268D01*
X2748938Y1401344D01*
X2747764Y1399148D01*
X2747042Y1396766D01*
X2746798Y1394288D01*
Y1368634D02*
X2747042Y1366179D01*
X2747766Y1363821D01*
X2748941Y1361652D01*
X2750520Y1359757D01*
X2752442Y1358211D01*
X2754632Y1357074D01*
X2757002Y1356392D01*
X2759461Y1356190D01*
X2721693Y1356187D02*
X2724154Y1356395D01*
X2726523Y1357094D01*
X2728703Y1358255D01*
X2730604Y1359833D01*
X2732148Y1361761D01*
X2733271Y1363960D01*
X2733929Y1366341D01*
X2734093Y1368806D01*
X2734098Y1394288D02*
X2733854Y1396766D01*
X2733131Y1399148D01*
X2731957Y1401344D01*
X2730378Y1403268D01*
X2728453Y1404848D01*
X2726258Y1406021D01*
X2723875Y1406744D01*
X2721398Y1406988D01*
X2283248Y1368888D02*
X2283486Y1366438D01*
X2284193Y1364079D01*
X2285342Y1361902D01*
X2286889Y1359987D01*
X2288777Y1358406D01*
X2290934Y1357220D01*
X2293280Y1356472D01*
X2295726Y1356190D01*
X2295948Y1406988D02*
X2293470Y1406744D01*
X2291088Y1406021D01*
X2288892Y1404848D01*
X2286967Y1403268D01*
X2285388Y1401344D01*
X2284214Y1399148D01*
X2283492Y1396766D01*
X2283248Y1394288D01*
X2258143Y1356187D02*
X2260604Y1356395D01*
X2262973Y1357094D01*
X2265153Y1358255D01*
X2267054Y1359833D01*
X2268597Y1361761D01*
X2269721Y1363960D01*
X2270379Y1366341D01*
X2270543Y1368806D01*
X2270548Y1394288D02*
X2270304Y1396766D01*
X2269581Y1399148D01*
X2268407Y1401344D01*
X2266828Y1403268D01*
X2264903Y1404848D01*
X2262708Y1406021D01*
X2260325Y1406744D01*
X2257848Y1406988D01*
X2295948Y1356188D02*
X2721398D01*
X1832398D02*
X2257848D01*
X1832398Y1406988D02*
X2257848D01*
X2295948D02*
X2721398D01*
X2759498Y1356188D02*
X2899198D01*
X2759498Y1406988D02*
X2899198D01*
X1832398Y1660988D02*
X2581698D01*
X1832398Y1419688D02*
X2022898D01*
X1832398Y1502238D02*
X2022898D01*
X1832398Y1514938D02*
X2022898D01*
X1832398Y1597488D02*
X2022898D01*
X1832398Y1610188D02*
X2581698D01*
X2060998Y1597488D02*
X2581698D01*
X2060998Y1476838D02*
X2467398D01*
X2060998Y1419688D02*
X2467398D01*
X2505498D02*
X2581698D01*
X2505498Y1476838D02*
X2581698D01*
X2619798Y1419688D02*
X2899198D01*
X2619798Y1660988D02*
X2899198D01*
X2060998Y1489538D02*
X2581698D01*
X2619798D02*
X2899198D01*
X2619798Y1476838D02*
X2899198D01*
X2270548Y1368888D02*
Y1394288D01*
X2283248Y1368888D02*
Y1394288D01*
X2734098Y1368888D02*
Y1394288D01*
X2746798Y1368888D02*
Y1394288D01*
X1819698Y1432388D02*
Y1489538D01*
X2035598Y1432388D02*
Y1489538D01*
X1819698Y1527638D02*
Y1584788D01*
X2035598Y1527638D02*
Y1584788D01*
X1819698Y1622888D02*
Y1648288D01*
X2594398Y1622888D02*
Y1648288D01*
Y1502238D02*
Y1584788D01*
X2048298Y1502238D02*
Y1584788D01*
X2480098Y1432388D02*
Y1464138D01*
X2048298Y1432388D02*
Y1464138D01*
X2492798Y1432388D02*
Y1464138D01*
X2594398Y1432388D02*
Y1464138D01*
X2911898Y1368888D02*
Y1394288D01*
Y1432388D02*
Y1457788D01*
X1819698Y1368888D02*
Y1394288D01*
X2607098Y1502238D02*
Y1648288D01*
X2911898Y1502238D02*
Y1648288D01*
X2607098Y1432388D02*
Y1464138D01*
D30*
X1959398Y1883238D02*
X2559398D01*
X1959398Y2782398D02*
X2559398Y2783238D01*
Y1883238D02*
Y2783238D01*
X1959398Y1883238D02*
Y2782398D01*
D31*
X1902500Y2284739D02*
X1905039Y2287278D01*
Y2292357D01*
X1902500Y2294896D01*
X1892343D01*
X1889804Y2292357D01*
Y2287278D01*
X1892343Y2284739D01*
X1894883D01*
X1897422Y2287278D01*
Y2294896D01*
X1892343Y2299974D02*
X1889804Y2302514D01*
Y2307592D01*
X1892343Y2310131D01*
X1902500D01*
X1905039Y2307592D01*
Y2302514D01*
X1902500Y2299974D01*
X1892343D01*
X1905039Y2335523D02*
X1899961Y2330445D01*
X1894883D01*
X1889804Y2335523D01*
X1905039Y2343140D02*
X1894883D01*
Y2345680D01*
X1897422Y2348219D01*
X1905039D01*
X1897422D01*
X1894883Y2350758D01*
X1897422Y2353297D01*
X1905039D01*
Y2358376D02*
X1894883D01*
Y2360915D01*
X1897422Y2363454D01*
X1905039D01*
X1897422D01*
X1894883Y2365993D01*
X1897422Y2368532D01*
X1905039D01*
Y2373611D02*
X1899961Y2378689D01*
X1894883D01*
X1889804Y2373611D01*
X2221056Y1858852D02*
X2215977Y1856313D01*
X2210899Y1851234D01*
Y1846156D01*
X2213438Y1843617D01*
X2218516D01*
X2221056Y1846156D01*
Y1848695D01*
X2218516Y1851234D01*
X2210899D01*
X2226134Y1856313D02*
X2228673Y1858852D01*
X2233752D01*
X2236291Y1856313D01*
Y1846156D01*
X2233752Y1843617D01*
X2228673D01*
X2226134Y1846156D01*
Y1856313D01*
X2261682Y1843617D02*
X2256604Y1848695D01*
Y1853773D01*
X2261682Y1858852D01*
X2269300Y1843617D02*
Y1853773D01*
X2271839D01*
X2274378Y1851234D01*
Y1843617D01*
Y1851234D01*
X2276918Y1853773D01*
X2279457Y1851234D01*
Y1843617D01*
X2284535D02*
Y1853773D01*
X2287074D01*
X2289613Y1851234D01*
Y1843617D01*
Y1851234D01*
X2292153Y1853773D01*
X2294692Y1851234D01*
Y1843617D01*
X2299770D02*
X2304848Y1848695D01*
Y1853773D01*
X2299770Y1858852D01*
D32*
X2619798Y1466041D02*
Y1454613D01*
Y1466041D02*
X2623607D01*
X2625239Y1465497D01*
X2626328Y1464408D01*
X2626872Y1463320D01*
X2627416Y1461687D01*
Y1458967D01*
X2626872Y1457334D01*
X2626328Y1456246D01*
X2625239Y1455157D01*
X2623607Y1454613D01*
X2619798D01*
X2638680D02*
X2634327Y1466041D01*
X2629973Y1454613D01*
X2631606Y1458422D02*
X2637048D01*
X2645156Y1466041D02*
Y1454613D01*
X2641347Y1466041D02*
X2648965D01*
X2657400D02*
X2650326D01*
Y1454613D01*
X2657400D01*
X2650326Y1460599D02*
X2654679D01*
X2659849Y1462231D02*
X2659305Y1461687D01*
X2659849Y1461143D01*
X2660393Y1461687D01*
X2659849Y1462231D01*
Y1455701D02*
X2659305Y1455157D01*
X2659849Y1454613D01*
X2660393Y1455157D01*
X2659849Y1455701D01*
X2502323Y1466041D02*
Y1454613D01*
Y1466041D02*
X2507220D01*
X2508853Y1465497D01*
X2509397Y1464952D01*
X2509941Y1463864D01*
Y1462776D01*
X2509397Y1461687D01*
X2508853Y1461143D01*
X2507220Y1460599D01*
X2502323D01*
X2506132D02*
X2509941Y1454613D01*
X2519573Y1466041D02*
X2512499D01*
Y1454613D01*
X2519573D01*
X2512499Y1460599D02*
X2516852D01*
X2521477Y1466041D02*
X2525831Y1454613D01*
X2530184Y1466041D02*
X2525831Y1454613D01*
X2532198Y1462231D02*
X2531653Y1461687D01*
X2532198Y1461143D01*
X2532742Y1461687D01*
X2532198Y1462231D01*
Y1455701D02*
X2531653Y1455157D01*
X2532198Y1454613D01*
X2532742Y1455157D01*
X2532198Y1455701D01*
X1832398Y1529905D02*
X1837295D01*
X1838928Y1530449D01*
X1839472Y1530993D01*
X1840016Y1532081D01*
Y1533714D01*
X1839472Y1534802D01*
X1838928Y1535347D01*
X1837295Y1535891D01*
X1832398D01*
Y1524463D01*
X1842574Y1535891D02*
Y1524463D01*
X1850192Y1535891D02*
Y1524463D01*
X1842574Y1530449D02*
X1850192D01*
X1856613Y1535891D02*
X1855525Y1535347D01*
X1854436Y1534258D01*
X1853892Y1533170D01*
X1853348Y1531537D01*
Y1528817D01*
X1853892Y1527184D01*
X1854436Y1526096D01*
X1855525Y1525007D01*
X1856613Y1524463D01*
X1858790D01*
X1859878Y1525007D01*
X1860967Y1526096D01*
X1861511Y1527184D01*
X1862055Y1528817D01*
Y1531537D01*
X1861511Y1533170D01*
X1860967Y1534258D01*
X1859878Y1535347D01*
X1858790Y1535891D01*
X1856613D01*
X1864721D02*
Y1524463D01*
Y1535891D02*
X1872340Y1524463D01*
Y1535891D02*
Y1524463D01*
X1882570Y1535891D02*
X1875496D01*
Y1524463D01*
X1882570D01*
X1875496Y1530449D02*
X1879849D01*
X1885019Y1532081D02*
X1884475Y1531537D01*
X1885019Y1530993D01*
X1885563Y1531537D01*
X1885019Y1532081D01*
Y1525551D02*
X1884475Y1525007D01*
X1885019Y1524463D01*
X1885563Y1525007D01*
X1885019Y1525551D01*
X1832398Y1434655D02*
X1837295D01*
X1838928Y1435199D01*
X1839472Y1435743D01*
X1840016Y1436832D01*
Y1438464D01*
X1839472Y1439552D01*
X1838928Y1440096D01*
X1837295Y1440641D01*
X1832398D01*
Y1429213D01*
X1842574Y1440641D02*
Y1429213D01*
X1850192Y1440641D02*
Y1429213D01*
X1842574Y1435199D02*
X1850192D01*
X1856613Y1440641D02*
X1855525Y1440096D01*
X1854436Y1439008D01*
X1853892Y1437920D01*
X1853348Y1436287D01*
Y1433566D01*
X1853892Y1431934D01*
X1854436Y1430846D01*
X1855525Y1429757D01*
X1856613Y1429213D01*
X1858790D01*
X1859878Y1429757D01*
X1860967Y1430846D01*
X1861511Y1431934D01*
X1862055Y1433566D01*
Y1436287D01*
X1861511Y1437920D01*
X1860967Y1439008D01*
X1859878Y1440096D01*
X1858790Y1440641D01*
X1856613D01*
X1864721D02*
Y1429213D01*
Y1440641D02*
X1872340Y1429213D01*
Y1440641D02*
Y1429213D01*
X1882570Y1440641D02*
X1875496D01*
Y1429213D01*
X1882570D01*
X1875496Y1435199D02*
X1879849D01*
X1885019Y1436832D02*
X1884475Y1436287D01*
X1885019Y1435743D01*
X1885563Y1436287D01*
X1885019Y1436832D01*
Y1430302D02*
X1884475Y1429757D01*
X1885019Y1429213D01*
X1885563Y1429757D01*
X1885019Y1430302D01*
X2299758Y1395556D02*
Y1384128D01*
X2306288D01*
X2316246D02*
X2311893Y1395556D01*
X2307539Y1384128D01*
X2309172Y1387937D02*
X2314613D01*
X2318912Y1395556D02*
X2323266Y1390114D01*
Y1384128D01*
X2327619Y1395556D02*
X2323266Y1390114D01*
X2336163Y1395556D02*
X2329088D01*
Y1384128D01*
X2336163D01*
X2329088Y1390114D02*
X2333442D01*
X2338067Y1395556D02*
Y1384128D01*
Y1395556D02*
X2342965D01*
X2344597Y1395011D01*
X2345141Y1394467D01*
X2345686Y1393379D01*
Y1392291D01*
X2345141Y1391202D01*
X2344597Y1390658D01*
X2342965Y1390114D01*
X2338067D01*
X2341876D02*
X2345686Y1384128D01*
X2348787Y1391747D02*
X2348243Y1391202D01*
X2348787Y1390658D01*
X2349332Y1391202D01*
X2348787Y1391747D01*
Y1385217D02*
X2348243Y1384672D01*
X2348787Y1384128D01*
X2349332Y1384672D01*
X2348787Y1385217D01*
X1839472Y1583516D02*
X1832398D01*
Y1572088D01*
X1839472D01*
X1832398Y1578074D02*
X1836751D01*
X1841376Y1583516D02*
Y1572088D01*
Y1583516D02*
X1848995Y1572088D01*
Y1583516D02*
Y1572088D01*
X1860314Y1580795D02*
X1859769Y1581883D01*
X1858681Y1582971D01*
X1857593Y1583516D01*
X1855416D01*
X1854328Y1582971D01*
X1853239Y1581883D01*
X1852695Y1580795D01*
X1852151Y1579162D01*
Y1576441D01*
X1852695Y1574809D01*
X1853239Y1573721D01*
X1854328Y1572632D01*
X1855416Y1572088D01*
X1857593D01*
X1858681Y1572632D01*
X1859769Y1573721D01*
X1860314Y1574809D01*
Y1576441D01*
X1857593D02*
X1860314D01*
X1862926Y1583516D02*
Y1572088D01*
X1865320Y1583516D02*
Y1572088D01*
Y1583516D02*
X1872938Y1572088D01*
Y1583516D02*
Y1572088D01*
X1883169Y1583516D02*
X1876095D01*
Y1572088D01*
X1883169D01*
X1876095Y1578074D02*
X1880448D01*
X1892148Y1583516D02*
X1885073D01*
Y1572088D01*
X1892148D01*
X1885073Y1578074D02*
X1889427D01*
X1894052Y1583516D02*
Y1572088D01*
Y1583516D02*
X1898950D01*
X1900582Y1582971D01*
X1901126Y1582427D01*
X1901671Y1581339D01*
Y1580251D01*
X1901126Y1579162D01*
X1900582Y1578618D01*
X1898950Y1578074D01*
X1894052D01*
X1897861D02*
X1901671Y1572088D01*
X1904772Y1579707D02*
X1904228Y1579162D01*
X1904772Y1578618D01*
X1905316Y1579162D01*
X1904772Y1579707D01*
Y1573177D02*
X1904228Y1572632D01*
X1904772Y1572088D01*
X1905316Y1572632D01*
X1904772Y1573177D01*
X2060998Y1460055D02*
X2065895D01*
X2067528Y1460599D01*
X2068072Y1461143D01*
X2068616Y1462231D01*
Y1463864D01*
X2068072Y1464952D01*
X2067528Y1465497D01*
X2065895Y1466041D01*
X2060998D01*
Y1454613D01*
X2079880D02*
X2075527Y1466041D01*
X2071174Y1454613D01*
X2072806Y1458422D02*
X2078248D01*
X2082547Y1466041D02*
Y1454613D01*
Y1466041D02*
X2087444D01*
X2089077Y1465497D01*
X2089621Y1464952D01*
X2090165Y1463864D01*
Y1462776D01*
X2089621Y1461687D01*
X2089077Y1461143D01*
X2087444Y1460599D01*
X2082547D01*
X2086356D02*
X2090165Y1454613D01*
X2096532Y1466041D02*
Y1454613D01*
X2092723Y1466041D02*
X2100341D01*
X2110680D02*
Y1454613D01*
Y1466041D02*
X2118299Y1454613D01*
Y1466041D02*
Y1454613D01*
X2124720Y1466041D02*
X2123631Y1465497D01*
X2122543Y1464408D01*
X2121999Y1463320D01*
X2121455Y1461687D01*
Y1458967D01*
X2121999Y1457334D01*
X2122543Y1456246D01*
X2123631Y1455157D01*
X2124720Y1454613D01*
X2126897D01*
X2127985Y1455157D01*
X2129073Y1456246D01*
X2129617Y1457334D01*
X2130162Y1458967D01*
Y1461687D01*
X2129617Y1463320D01*
X2129073Y1464408D01*
X2127985Y1465497D01*
X2126897Y1466041D01*
X2124720D01*
X2133372Y1455701D02*
X2132828Y1455157D01*
X2133372Y1454613D01*
X2133916Y1455157D01*
X2133372Y1455701D01*
X2136964Y1462231D02*
X2136420Y1461687D01*
X2136964Y1461143D01*
X2137508Y1461687D01*
X2136964Y1462231D01*
Y1455701D02*
X2136420Y1455157D01*
X2136964Y1454613D01*
X2137508Y1455157D01*
X2136964Y1455701D01*
X2061632Y1586691D02*
Y1575263D01*
X2057823Y1586691D02*
X2065441D01*
X2066801D02*
Y1575263D01*
X2073005Y1586691D02*
Y1575263D01*
X2069196Y1586691D02*
X2076814D01*
X2078175D02*
Y1575263D01*
X2084705D01*
X2093031Y1586691D02*
X2085956D01*
Y1575263D01*
X2093031D01*
X2085956Y1581249D02*
X2090310D01*
X2095479Y1582881D02*
X2094935Y1582337D01*
X2095479Y1581793D01*
X2096023Y1582337D01*
X2095479Y1582881D01*
Y1576351D02*
X2094935Y1575807D01*
X2095479Y1575263D01*
X2096023Y1575807D01*
X2095479Y1576351D01*
X1839472Y1486996D02*
X1832398D01*
Y1475568D01*
X1839472D01*
X1832398Y1481554D02*
X1836751D01*
X1841376Y1486996D02*
Y1475568D01*
Y1486996D02*
X1848995Y1475568D01*
Y1486996D02*
Y1475568D01*
X1860314Y1484275D02*
X1859769Y1485363D01*
X1858681Y1486452D01*
X1857593Y1486996D01*
X1855416D01*
X1854328Y1486452D01*
X1853239Y1485363D01*
X1852695Y1484275D01*
X1852151Y1482642D01*
Y1479922D01*
X1852695Y1478289D01*
X1853239Y1477201D01*
X1854328Y1476112D01*
X1855416Y1475568D01*
X1857593D01*
X1858681Y1476112D01*
X1859769Y1477201D01*
X1860314Y1478289D01*
Y1479922D01*
X1857593D02*
X1860314D01*
X1862926Y1486996D02*
Y1475568D01*
X1865320Y1486996D02*
Y1475568D01*
Y1486996D02*
X1872938Y1475568D01*
Y1486996D02*
Y1475568D01*
X1883169Y1486996D02*
X1876095D01*
Y1475568D01*
X1883169D01*
X1876095Y1481554D02*
X1880448D01*
X1892148Y1486996D02*
X1885073D01*
Y1475568D01*
X1892148D01*
X1885073Y1481554D02*
X1889427D01*
X1894052Y1486996D02*
Y1475568D01*
Y1486996D02*
X1898950D01*
X1900582Y1486452D01*
X1901126Y1485907D01*
X1901671Y1484819D01*
Y1483731D01*
X1901126Y1482642D01*
X1900582Y1482098D01*
X1898950Y1481554D01*
X1894052D01*
X1897861D02*
X1901671Y1475568D01*
X1904772Y1483186D02*
X1904228Y1482642D01*
X1904772Y1482098D01*
X1905316Y1482642D01*
X1904772Y1483186D01*
Y1476656D02*
X1904228Y1476112D01*
X1904772Y1475568D01*
X1905316Y1476112D01*
X1904772Y1476656D01*
X1832398Y1395556D02*
Y1384128D01*
Y1395556D02*
X1839472D01*
X1832398Y1390114D02*
X1836751D01*
X1840778Y1395556D02*
Y1384128D01*
X1843172Y1395556D02*
Y1384128D01*
X1849702D01*
X1858028Y1395556D02*
X1850954D01*
Y1384128D01*
X1858028D01*
X1850954Y1390114D02*
X1855307D01*
X1868911Y1395556D02*
Y1384128D01*
Y1395556D02*
X1876530Y1384128D01*
Y1395556D02*
Y1384128D01*
X1888393D02*
X1884039Y1395556D01*
X1879686Y1384128D01*
X1881319Y1387937D02*
X1886760D01*
X1891059Y1395556D02*
Y1384128D01*
Y1395556D02*
X1895412Y1384128D01*
X1899766Y1395556D02*
X1895412Y1384128D01*
X1899766Y1395556D02*
Y1384128D01*
X1910105Y1395556D02*
X1903031D01*
Y1384128D01*
X1910105D01*
X1903031Y1390114D02*
X1907384D01*
X1912554Y1391747D02*
X1912010Y1391202D01*
X1912554Y1390658D01*
X1913098Y1391202D01*
X1912554Y1391747D01*
Y1385217D02*
X1912010Y1384672D01*
X1912554Y1384128D01*
X1913098Y1384672D01*
X1912554Y1385217D01*
X2770200Y1392835D02*
X2769656Y1393923D01*
X2768568Y1395011D01*
X2767479Y1395556D01*
X2765303D01*
X2764214Y1395011D01*
X2763126Y1393923D01*
X2762582Y1392835D01*
X2762038Y1391202D01*
Y1388481D01*
X2762582Y1386849D01*
X2763126Y1385761D01*
X2764214Y1384672D01*
X2765303Y1384128D01*
X2767479D01*
X2768568Y1384672D01*
X2769656Y1385761D01*
X2770200Y1386849D01*
Y1388481D01*
X2767479D02*
X2770200D01*
X2779886Y1395556D02*
X2772812D01*
Y1384128D01*
X2779886D01*
X2772812Y1390114D02*
X2777166D01*
X2781791Y1395556D02*
Y1384128D01*
Y1395556D02*
X2786689D01*
X2788321Y1395011D01*
X2788865Y1394467D01*
X2789409Y1393379D01*
Y1392291D01*
X2788865Y1391202D01*
X2788321Y1390658D01*
X2786689Y1390114D01*
X2781791D01*
X2785600D02*
X2789409Y1384128D01*
X2791967Y1395556D02*
Y1384128D01*
Y1395556D02*
X2796865D01*
X2798497Y1395011D01*
X2799041Y1394467D01*
X2799585Y1393379D01*
Y1392291D01*
X2799041Y1391202D01*
X2798497Y1390658D01*
X2796865Y1390114D01*
X2791967D02*
X2796865D01*
X2798497Y1389570D01*
X2799041Y1389026D01*
X2799585Y1387937D01*
Y1386305D01*
X2799041Y1385217D01*
X2798497Y1384672D01*
X2796865Y1384128D01*
X2791967D01*
X2809217Y1395556D02*
X2802143D01*
Y1384128D01*
X2809217D01*
X2802143Y1390114D02*
X2806496D01*
X2811122Y1395556D02*
Y1384128D01*
Y1395556D02*
X2816019D01*
X2817652Y1395011D01*
X2818196Y1394467D01*
X2818740Y1393379D01*
Y1392291D01*
X2818196Y1391202D01*
X2817652Y1390658D01*
X2816019Y1390114D01*
X2811122D01*
X2814931D02*
X2818740Y1384128D01*
X2821842Y1391747D02*
X2821298Y1391202D01*
X2821842Y1390658D01*
X2822386Y1391202D01*
X2821842Y1391747D01*
Y1385217D02*
X2821298Y1384672D01*
X2821842Y1384128D01*
X2822386Y1384672D01*
X2821842Y1385217D01*
X2017768Y2354368D02*
Y2364528D01*
X2027928D01*
Y2354368D01*
X2017768D01*
X1992368D02*
Y2364528D01*
X2002528D01*
Y2354368D01*
X1992368D01*
X2017768Y2379768D02*
Y2389928D01*
X2027928D01*
Y2379768D01*
X2017768D01*
Y2405168D02*
Y2415328D01*
X2027928D01*
Y2405168D01*
X2017768D01*
Y2430568D02*
Y2440728D01*
X2027928D01*
Y2430568D01*
X2017768D01*
X1992368D02*
Y2440728D01*
X2002528D01*
Y2430568D01*
X1992368D01*
Y2405168D02*
Y2415328D01*
X2002528D01*
Y2405168D01*
X1992368D01*
Y2379768D02*
Y2389928D01*
X2002528D01*
Y2379768D01*
X1992368D01*
X2324318Y2717068D02*
Y2727228D01*
X2334478D01*
Y2717068D01*
X2324318D01*
X2349718D02*
Y2727228D01*
X2359878D01*
Y2717068D01*
X2349718D01*
X2375118D02*
Y2727228D01*
X2385278D01*
Y2717068D01*
X2375118D01*
X2400518D02*
Y2727228D01*
X2410678D01*
Y2717068D01*
X2400518D01*
X2451318D02*
Y2727228D01*
X2461478D01*
Y2717068D01*
X2451318D01*
X2476718D02*
Y2727228D01*
X2486878D01*
Y2717068D01*
X2476718D01*
X2502118D02*
Y2727228D01*
X2512278D01*
Y2717068D01*
X2502118D01*
X2324318Y2742468D02*
Y2752628D01*
X2334478D01*
Y2742468D01*
X2324318D01*
X2349718D02*
Y2752628D01*
X2359878D01*
Y2742468D01*
X2349718D01*
X2375118D02*
Y2752628D01*
X2385278D01*
Y2742468D01*
X2375118D01*
X2400518D02*
Y2752628D01*
X2410678D01*
Y2742468D01*
X2400518D01*
X2425918D02*
Y2752628D01*
X2436078D01*
Y2742468D01*
X2425918D01*
X2451318D02*
Y2752628D01*
X2461478D01*
Y2742468D01*
X2451318D01*
X2476718D02*
Y2752628D01*
X2486878D01*
Y2742468D01*
X2476718D01*
X2502118D02*
Y2752628D01*
X2512278D01*
Y2742468D01*
X2502118D01*
X1994118Y1929668D02*
Y1939828D01*
X2004278D01*
Y1929668D01*
X1994118D01*
X2019518D02*
Y1939828D01*
X2029678D01*
Y1929668D01*
X2019518D01*
X2044918D02*
Y1939828D01*
X2055078D01*
Y1929668D01*
X2044918D01*
X2070318D02*
Y1939828D01*
X2080478D01*
Y1929668D01*
X2070318D01*
X2121118D02*
Y1939828D01*
X2131278D01*
Y1929668D01*
X2121118D01*
X2146518D02*
Y1939828D01*
X2156678D01*
Y1929668D01*
X2146518D01*
X1994118Y1955068D02*
Y1965228D01*
X2004278D01*
Y1955068D01*
X1994118D01*
X2019518D02*
Y1965228D01*
X2029678D01*
Y1955068D01*
X2019518D01*
X2044918D02*
Y1965228D01*
X2055078D01*
Y1955068D01*
X2044918D01*
X2070318D02*
Y1965228D01*
X2080478D01*
Y1955068D01*
X2070318D01*
X2095718D02*
Y1965228D01*
X2105878D01*
Y1955068D01*
X2095718D01*
X2121118D02*
Y1965228D01*
X2131278D01*
Y1955068D01*
X2121118D01*
X2146518D02*
Y1965228D01*
X2156678D01*
Y1955068D01*
X2146518D01*
X2324318Y1929668D02*
Y1939828D01*
X2334478D01*
Y1929668D01*
X2324318D01*
X2349718D02*
Y1939828D01*
X2359878D01*
Y1929668D01*
X2349718D01*
X2375118D02*
Y1939828D01*
X2385278D01*
Y1929668D01*
X2375118D01*
X2400518D02*
Y1939828D01*
X2410678D01*
Y1929668D01*
X2400518D01*
X2451318D02*
Y1939828D01*
X2461478D01*
Y1929668D01*
X2451318D01*
X2476718D02*
Y1939828D01*
X2486878D01*
Y1929668D01*
X2476718D01*
X2502118D02*
Y1939828D01*
X2512278D01*
Y1929668D01*
X2502118D01*
X2324318Y1955068D02*
Y1965228D01*
X2334478D01*
Y1955068D01*
X2324318D01*
X2349718D02*
Y1965228D01*
X2359878D01*
Y1955068D01*
X2349718D01*
X2375118D02*
Y1965228D01*
X2385278D01*
Y1955068D01*
X2375118D01*
X2400518D02*
Y1965228D01*
X2410678D01*
Y1955068D01*
X2400518D01*
X2425918D02*
Y1965228D01*
X2436078D01*
Y1955068D01*
X2425918D01*
X2451318D02*
Y1965228D01*
X2461478D01*
Y1955068D01*
X2451318D01*
X2476718D02*
Y1965228D01*
X2486878D01*
Y1955068D01*
X2476718D01*
X2502118D02*
Y1965228D01*
X2512278D01*
Y1955068D01*
X2502118D01*
X2523548Y2333318D02*
X2518468Y2343478D01*
X2528628D01*
X2523548Y2333318D01*
Y2478318D02*
X2518468Y2488478D01*
X2528628D01*
X2523548Y2478318D01*
X2178998Y2037118D02*
X2181538Y2039658D01*
X2184078D01*
X2181538Y2042198D01*
X2184078Y2044738D01*
X2181538D01*
X2178998Y2047278D01*
X2176458Y2044738D01*
X2173918D01*
X2176458Y2042198D01*
X2173918Y2039658D01*
X2176458D01*
X2178998Y2037118D01*
X2509198D02*
X2511738Y2039658D01*
X2514278D01*
X2511738Y2042198D01*
X2514278Y2044738D01*
X2511738D01*
X2509198Y2047278D01*
X2506658Y2044738D01*
X2504118D01*
X2506658Y2042198D01*
X2504118Y2039658D01*
X2506658D01*
X2509198Y2037118D01*
X2178998Y2627118D02*
X2181538Y2629658D01*
X2184078D01*
X2181538Y2632198D01*
X2184078Y2634738D01*
X2181538D01*
X2178998Y2637278D01*
X2176458Y2634738D01*
X2173918D01*
X2176458Y2632198D01*
X2173918Y2629658D01*
X2176458D01*
X2178998Y2627118D01*
X2509198D02*
X2511738Y2629658D01*
X2514278D01*
X2511738Y2632198D01*
X2514278Y2634738D01*
X2511738D01*
X2509198Y2637278D01*
X2506658Y2634738D01*
X2504118D01*
X2506658Y2632198D01*
X2504118Y2629658D01*
X2506658D01*
X2509198Y2627118D01*
X2171918Y2742468D02*
Y2752628D01*
X2182078D01*
Y2742468D01*
X2171918D01*
X2146518D02*
Y2752628D01*
X2156678D01*
Y2742468D01*
X2146518D01*
X2121118D02*
Y2752628D01*
X2131278D01*
Y2742468D01*
X2121118D01*
X2095718D02*
Y2752628D01*
X2105878D01*
Y2742468D01*
X2095718D01*
X2070318D02*
Y2752628D01*
X2080478D01*
Y2742468D01*
X2070318D01*
X2044918D02*
Y2752628D01*
X2055078D01*
Y2742468D01*
X2044918D01*
X2019518D02*
Y2752628D01*
X2029678D01*
Y2742468D01*
X2019518D01*
X1994118D02*
Y2752628D01*
X2004278D01*
Y2742468D01*
X1994118D01*
X2171918Y2717068D02*
Y2727228D01*
X2182078D01*
Y2717068D01*
X2171918D01*
X2146518D02*
Y2727228D01*
X2156678D01*
Y2717068D01*
X2146518D01*
X2121118D02*
Y2727228D01*
X2131278D01*
Y2717068D01*
X2121118D01*
X2070318D02*
Y2727228D01*
X2080478D01*
Y2717068D01*
X2070318D01*
X2044918D02*
Y2727228D01*
X2055078D01*
Y2717068D01*
X2044918D01*
X2019518D02*
Y2727228D01*
X2029678D01*
Y2717068D01*
X2019518D01*
X1994118D02*
Y2727228D01*
X2004278D01*
Y2717068D01*
X1994118D01*
X2171918Y1955068D02*
Y1965228D01*
X2182078D01*
Y1955068D01*
X2171918D01*
X2536118Y2164818D02*
Y2174978D01*
X2546278D01*
Y2164818D01*
X2536118D01*
X2535618Y2226318D02*
Y2236478D01*
X2545778D01*
Y2226318D01*
X2535618D01*
X2171918Y1929668D02*
Y1939828D01*
X2182078D01*
Y1929668D01*
X2171918D01*
X2392868Y2483068D02*
X2395408Y2488148D01*
X2392868Y2493228D01*
X2397948Y2490688D01*
X2403028Y2493228D01*
X2400488Y2488148D01*
X2403028Y2483068D01*
X2397948Y2485608D01*
X2392868Y2483068D01*
X2387868Y2447318D02*
X2390408Y2452398D01*
X2387868Y2457478D01*
X2392948Y2454938D01*
X2398028Y2457478D01*
X2395488Y2452398D01*
X2398028Y2447318D01*
X2392948Y2449858D01*
X2387868Y2447318D01*
X2386368Y2412568D02*
X2388908Y2417648D01*
X2386368Y2422728D01*
X2391448Y2420188D01*
X2396528Y2422728D01*
X2393988Y2417648D01*
X2396528Y2412568D01*
X2391448Y2415108D01*
X2386368Y2412568D01*
X2398868Y2379068D02*
X2401408Y2384148D01*
X2398868Y2389228D01*
X2403948Y2386688D01*
X2409028Y2389228D01*
X2406488Y2384148D01*
X2409028Y2379068D01*
X2403948Y2381608D01*
X2398868Y2379068D01*
X2404618Y2406818D02*
X2407158Y2411898D01*
X2404618Y2416978D01*
X2409698Y2414438D01*
X2414778Y2416978D01*
X2412238Y2411898D01*
X2414778Y2406818D01*
X2409698Y2409358D01*
X2404618Y2406818D01*
X2398368Y2349568D02*
X2400908Y2354648D01*
X2398368Y2359728D01*
X2403448Y2357188D01*
X2408528Y2359728D01*
X2405988Y2354648D01*
X2408528Y2349568D01*
X2403448Y2352108D01*
X2398368Y2349568D01*
X2272618Y2493318D02*
X2275158Y2498398D01*
X2272618Y2503478D01*
X2277698Y2500938D01*
X2282778Y2503478D01*
X2280238Y2498398D01*
X2282778Y2493318D01*
X2277698Y2495858D01*
X2272618Y2493318D01*
X2260118Y2501068D02*
X2262658Y2506148D01*
X2260118Y2511228D01*
X2265198Y2508688D01*
X2270278Y2511228D01*
X2267738Y2506148D01*
X2270278Y2501068D01*
X2265198Y2503608D01*
X2260118Y2501068D01*
X2477868Y2373568D02*
X2480408Y2378648D01*
X2477868Y2383728D01*
X2482948Y2381188D01*
X2488028Y2383728D01*
X2485488Y2378648D01*
X2488028Y2373568D01*
X2482948Y2376108D01*
X2477868Y2373568D01*
X2488868Y2380818D02*
X2491408Y2385898D01*
X2488868Y2390978D01*
X2493948Y2388438D01*
X2499028Y2390978D01*
X2496488Y2385898D01*
X2499028Y2380818D01*
X2493948Y2383358D01*
X2488868Y2380818D01*
X2149408Y2442108D02*
Y2439568D01*
X2154488D01*
Y2442108D01*
X2157028D01*
Y2447188D01*
X2154488D01*
Y2449728D01*
X2149408D01*
Y2447188D01*
X2146868D01*
Y2442108D01*
X2149408D01*
X2172158Y2473858D02*
Y2471318D01*
X2177238D01*
Y2473858D01*
X2179778D01*
Y2478938D01*
X2177238D01*
Y2481478D01*
X2172158D01*
Y2478938D01*
X2169618D01*
Y2473858D01*
X2172158D01*
X2140658Y2456358D02*
Y2453818D01*
X2145738D01*
Y2456358D01*
X2148278D01*
Y2461438D01*
X2145738D01*
Y2463978D01*
X2140658D01*
Y2461438D01*
X2138118D01*
Y2456358D01*
X2140658D01*
X2160158Y2473608D02*
Y2471068D01*
X2165238D01*
Y2473608D01*
X2167778D01*
Y2478688D01*
X2165238D01*
Y2481228D01*
X2160158D01*
Y2478688D01*
X2157618D01*
Y2473608D01*
X2160158D01*
X2140658Y2468108D02*
Y2465568D01*
X2145738D01*
Y2468108D01*
X2148278D01*
Y2473188D01*
X2145738D01*
Y2475728D01*
X2140658D01*
Y2473188D01*
X2138118D01*
Y2468108D01*
X2140658D01*
X2042408Y2445608D02*
Y2443068D01*
X2047488D01*
Y2445608D01*
X2050028D01*
Y2450688D01*
X2047488D01*
Y2453228D01*
X2042408D01*
Y2450688D01*
X2039868D01*
Y2445608D01*
X2042408D01*
X2089408Y2550358D02*
Y2547818D01*
X2094488D01*
Y2550358D01*
X2097028D01*
Y2555438D01*
X2094488D01*
Y2557978D01*
X2089408D01*
Y2555438D01*
X2086868D01*
Y2550358D01*
X2089408D01*
X2160158Y2559858D02*
Y2557318D01*
X2165238D01*
Y2559858D01*
X2167778D01*
Y2564938D01*
X2165238D01*
Y2567478D01*
X2160158D01*
Y2564938D01*
X2157618D01*
Y2559858D01*
X2160158D01*
X2309158Y2377858D02*
Y2375318D01*
X2314238D01*
Y2377858D01*
X2316778D01*
Y2382938D01*
X2314238D01*
Y2385478D01*
X2309158D01*
Y2382938D01*
X2306618D01*
Y2377858D01*
X2309158D01*
X2313908Y2511358D02*
Y2508818D01*
X2318988D01*
Y2511358D01*
X2321528D01*
Y2516438D01*
X2318988D01*
Y2518978D01*
X2313908D01*
Y2516438D01*
X2311368D01*
Y2511358D01*
X2313908D01*
X2305908Y2472858D02*
Y2470318D01*
X2310988D01*
Y2472858D01*
X2313528D01*
Y2477938D01*
X2310988D01*
Y2480478D01*
X2305908D01*
Y2477938D01*
X2303368D01*
Y2472858D01*
X2305908D01*
X2356908Y2339858D02*
Y2337318D01*
X2361988D01*
Y2339858D01*
X2364528D01*
Y2344938D01*
X2361988D01*
Y2347478D01*
X2356908D01*
Y2344938D01*
X2354368D01*
Y2339858D01*
X2356908D01*
X2337908Y2370108D02*
Y2367568D01*
X2342988D01*
Y2370108D01*
X2345528D01*
Y2375188D01*
X2342988D01*
Y2377728D01*
X2337908D01*
Y2375188D01*
X2335368D01*
Y2370108D01*
X2337908D01*
X2336658Y2408108D02*
Y2405568D01*
X2341738D01*
Y2408108D01*
X2344278D01*
Y2413188D01*
X2341738D01*
Y2415728D01*
X2336658D01*
Y2413188D01*
X2334118D01*
Y2408108D01*
X2336658D01*
X2338908Y2495608D02*
Y2493068D01*
X2343988D01*
Y2495608D01*
X2346528D01*
Y2500688D01*
X2343988D01*
Y2503228D01*
X2338908D01*
Y2500688D01*
X2336368D01*
Y2495608D01*
X2338908D01*
X2336408Y2443858D02*
Y2441318D01*
X2341488D01*
Y2443858D01*
X2344028D01*
Y2448938D01*
X2341488D01*
Y2451478D01*
X2336408D01*
Y2448938D01*
X2333868D01*
Y2443858D01*
X2336408D01*
X2472868Y2450318D02*
X2475408Y2455398D01*
X2472868Y2460478D01*
X2477948Y2457938D01*
X2483028Y2460478D01*
X2480488Y2455398D01*
X2483028Y2450318D01*
X2477948Y2452858D01*
X2472868Y2450318D01*
X2302408Y2510358D02*
Y2507818D01*
X2307488D01*
Y2510358D01*
X2310028D01*
Y2515438D01*
X2307488D01*
Y2517978D01*
X2302408D01*
Y2515438D01*
X2299868D01*
Y2510358D01*
X2302408D01*
X2179908Y2348858D02*
Y2346318D01*
X2184988D01*
Y2348858D01*
X2187528D01*
Y2353938D01*
X2184988D01*
Y2356478D01*
X2179908D01*
Y2353938D01*
X2177368D01*
Y2348858D01*
X2179908D01*
X2206408Y1959108D02*
Y1956568D01*
X2211488D01*
Y1959108D01*
X2214028D01*
Y1964188D01*
X2211488D01*
Y1966728D01*
X2206408D01*
Y1964188D01*
X2203868D01*
Y1959108D01*
X2206408D01*
X2387368Y2371318D02*
X2389908Y2376398D01*
X2387368Y2381478D01*
X2392448Y2378938D01*
X2397528Y2381478D01*
X2394988Y2376398D01*
X2397528Y2371318D01*
X2392448Y2373858D01*
X2387368Y2371318D01*
X2402868Y2444318D02*
X2405408Y2449398D01*
X2402868Y2454478D01*
X2407948Y2451938D01*
X2413028Y2454478D01*
X2410488Y2449398D01*
X2413028Y2444318D01*
X2407948Y2446858D01*
X2402868Y2444318D01*
X2031908Y2323108D02*
Y2320568D01*
X2036988D01*
Y2323108D01*
X2039528D01*
Y2328188D01*
X2036988D01*
Y2330728D01*
X2031908D01*
Y2328188D01*
X2029368D01*
Y2323108D01*
X2031908D01*
X2062158Y2321608D02*
Y2319068D01*
X2067238D01*
Y2321608D01*
X2069778D01*
Y2326688D01*
X2067238D01*
Y2329228D01*
X2062158D01*
Y2326688D01*
X2059618D01*
Y2321608D01*
X2062158D01*
X2079658D02*
Y2319068D01*
X2084738D01*
Y2321608D01*
X2087278D01*
Y2326688D01*
X2084738D01*
Y2329228D01*
X2079658D01*
Y2326688D01*
X2077118D01*
Y2321608D01*
X2079658D01*
X2047158Y2322358D02*
Y2319818D01*
X2052238D01*
Y2322358D01*
X2054778D01*
Y2327438D01*
X2052238D01*
Y2329978D01*
X2047158D01*
Y2327438D01*
X2044618D01*
Y2322358D01*
X2047158D01*
X2259618Y2544568D02*
X2262158Y2549648D01*
X2259618Y2554728D01*
X2264698Y2552188D01*
X2269778Y2554728D01*
X2267238Y2549648D01*
X2269778Y2544568D01*
X2264698Y2547108D01*
X2259618Y2544568D01*
X2123908Y2629108D02*
Y2626568D01*
X2128988D01*
Y2629108D01*
X2131528D01*
Y2634188D01*
X2128988D01*
Y2636728D01*
X2123908D01*
Y2634188D01*
X2121368D01*
Y2629108D01*
X2123908D01*
X2248908Y2531358D02*
Y2528818D01*
X2253988D01*
Y2531358D01*
X2256528D01*
Y2536438D01*
X2253988D01*
Y2538978D01*
X2248908D01*
Y2536438D01*
X2246368D01*
Y2531358D01*
X2248908D01*
X2225158Y2575608D02*
Y2573068D01*
X2230238D01*
Y2575608D01*
X2232778D01*
Y2580688D01*
X2230238D01*
Y2583228D01*
X2225158D01*
Y2580688D01*
X2222618D01*
Y2575608D01*
X2225158D01*
X2226908Y2466358D02*
Y2463818D01*
X2231988D01*
Y2466358D01*
X2234528D01*
Y2471438D01*
X2231988D01*
Y2473978D01*
X2226908D01*
Y2471438D01*
X2224368D01*
Y2466358D01*
X2226908D01*
X2205408Y2466108D02*
Y2463568D01*
X2210488D01*
Y2466108D01*
X2213028D01*
Y2471188D01*
X2210488D01*
Y2473728D01*
X2205408D01*
Y2471188D01*
X2202868D01*
Y2466108D01*
X2205408D01*
X2194408D02*
Y2463568D01*
X2199488D01*
Y2466108D01*
X2202028D01*
Y2471188D01*
X2199488D01*
Y2473728D01*
X2194408D01*
Y2471188D01*
X2191868D01*
Y2466108D01*
X2194408D01*
X2216158D02*
Y2463568D01*
X2221238D01*
Y2466108D01*
X2223778D01*
Y2471188D01*
X2221238D01*
Y2473728D01*
X2216158D01*
Y2471188D01*
X2213618D01*
Y2466108D01*
X2216158D01*
X2143158Y2304108D02*
Y2301568D01*
X2148238D01*
Y2304108D01*
X2150778D01*
Y2309188D01*
X2148238D01*
Y2311728D01*
X2143158D01*
Y2309188D01*
X2140618D01*
Y2304108D01*
X2143158D01*
X2150908Y2314608D02*
Y2312068D01*
X2155988D01*
Y2314608D01*
X2158528D01*
Y2319688D01*
X2155988D01*
Y2322228D01*
X2150908D01*
Y2319688D01*
X2148368D01*
Y2314608D01*
X2150908D01*
X2187658Y2307858D02*
Y2305318D01*
X2192738D01*
Y2307858D01*
X2195278D01*
Y2312938D01*
X2192738D01*
Y2315478D01*
X2187658D01*
Y2312938D01*
X2185118D01*
Y2307858D01*
X2187658D01*
X2142908Y2245108D02*
Y2242568D01*
X2147988D01*
Y2245108D01*
X2150528D01*
Y2250188D01*
X2147988D01*
Y2252728D01*
X2142908D01*
Y2250188D01*
X2140368D01*
Y2245108D01*
X2142908D01*
X2187658Y2251358D02*
Y2248818D01*
X2192738D01*
Y2251358D01*
X2195278D01*
Y2256438D01*
X2192738D01*
Y2258978D01*
X2187658D01*
Y2256438D01*
X2185118D01*
Y2251358D01*
X2187658D01*
X2124658Y2240608D02*
Y2238068D01*
X2129738D01*
Y2240608D01*
X2132278D01*
Y2245688D01*
X2129738D01*
Y2248228D01*
X2124658D01*
Y2245688D01*
X2122118D01*
Y2240608D01*
X2124658D01*
X2252868Y1901318D02*
X2255408Y1906398D01*
X2252868Y1911478D01*
X2257948Y1908938D01*
X2263028Y1911478D01*
X2260488Y1906398D01*
X2263028Y1901318D01*
X2257948Y1903858D01*
X2252868Y1901318D01*
X2253118Y2301068D02*
X2255658Y2306148D01*
X2253118Y2311228D01*
X2258198Y2308688D01*
X2263278Y2311228D01*
X2260738Y2306148D01*
X2263278Y2301068D01*
X2258198Y2303608D01*
X2253118Y2301068D01*
X2252908Y2472108D02*
Y2469568D01*
X2257988D01*
Y2472108D01*
X2260528D01*
Y2477188D01*
X2257988D01*
Y2479728D01*
X2252908D01*
Y2477188D01*
X2250368D01*
Y2472108D01*
X2252908D01*
X2264408Y2472358D02*
Y2469818D01*
X2269488D01*
Y2472358D01*
X2272028D01*
Y2477438D01*
X2269488D01*
Y2479978D01*
X2264408D01*
Y2477438D01*
X2261868D01*
Y2472358D01*
X2264408D01*
X2275908Y2444608D02*
Y2442068D01*
X2280988D01*
Y2444608D01*
X2283528D01*
Y2449688D01*
X2280988D01*
Y2452228D01*
X2275908D01*
Y2449688D01*
X2273368D01*
Y2444608D01*
X2275908D01*
X2189408Y2386608D02*
Y2384068D01*
X2194488D01*
Y2386608D01*
X2197028D01*
Y2391688D01*
X2194488D01*
Y2394228D01*
X2189408D01*
Y2391688D01*
X2186868D01*
Y2386608D01*
X2189408D01*
X2328118Y2533568D02*
X2330658Y2538648D01*
X2328118Y2543728D01*
X2333198Y2541188D01*
X2338278Y2543728D01*
X2335738Y2538648D01*
X2338278Y2533568D01*
X2333198Y2536108D01*
X2328118Y2533568D01*
X2034658Y1979858D02*
Y1977318D01*
X2039738D01*
Y1979858D01*
X2042278D01*
Y1984938D01*
X2039738D01*
Y1987478D01*
X2034658D01*
Y1984938D01*
X2032118D01*
Y1979858D01*
X2034658D01*
X2182158Y2519108D02*
Y2516568D01*
X2187238D01*
Y2519108D01*
X2189778D01*
Y2524188D01*
X2187238D01*
Y2526728D01*
X2182158D01*
Y2524188D01*
X2179618D01*
Y2519108D01*
X2182158D01*
X2366908Y2511608D02*
Y2509068D01*
X2371988D01*
Y2511608D01*
X2374528D01*
Y2516688D01*
X2371988D01*
Y2519228D01*
X2366908D01*
Y2516688D01*
X2364368D01*
Y2511608D01*
X2366908D01*
X2607658Y2121998D02*
Y2119458D01*
X2612738D01*
Y2121998D01*
X2615278D01*
Y2127078D01*
X2612738D01*
Y2129618D01*
X2607658D01*
Y2127078D01*
X2605118D01*
Y2121998D01*
X2607658D01*
X2605118Y2088978D02*
X2607658Y2094058D01*
X2605118Y2099138D01*
X2610198Y2096598D01*
X2615278Y2099138D01*
X2612738Y2094058D01*
X2615278Y2088978D01*
X2610198Y2091518D01*
X2605118Y2088978D01*
Y2058498D02*
Y2068658D01*
X2615278D01*
Y2058498D01*
X2605118D01*
X2610198Y2028018D02*
X2605118Y2038178D01*
X2615278D01*
X2610198Y2028018D01*
Y1967058D02*
X2612738Y1969598D01*
X2615278D01*
X2612738Y1972138D01*
X2615278Y1974678D01*
X2612738D01*
X2610198Y1977218D01*
X2607658Y1974678D01*
X2605118D01*
X2607658Y1972138D01*
X2605118Y1969598D01*
X2607658D01*
X2610198Y1967058D01*
D66*
X2469028Y2483398D02*
X2468446Y2485759D01*
X2466833Y2487579D01*
X2464560Y2488441D01*
X2462146Y2488148D01*
X2460145Y2486767D01*
X2459015Y2484614D01*
Y2482182D01*
X2460145Y2480029D01*
X2462146Y2478648D01*
X2464560Y2478355D01*
X2466833Y2479217D01*
X2468446Y2481037D01*
X2469028Y2483398D01*
Y2338398D02*
X2468446Y2340759D01*
X2466833Y2342579D01*
X2464560Y2343441D01*
X2462146Y2343148D01*
X2460145Y2341767D01*
X2459015Y2339614D01*
Y2337182D01*
X2460145Y2335029D01*
X2462146Y2333648D01*
X2464560Y2333355D01*
X2466833Y2334217D01*
X2468446Y2336037D01*
X2469028Y2338398D01*
X2615278Y2002618D02*
X2614696Y2004979D01*
X2613083Y2006799D01*
X2610810Y2007661D01*
X2608396Y2007368D01*
X2606395Y2005987D01*
X2605265Y2003834D01*
Y2001402D01*
X2606395Y1999250D01*
X2608396Y1997868D01*
X2610810Y1997575D01*
X2613083Y1998437D01*
X2614696Y2000257D01*
X2615278Y2002618D01*
M02*
