%FSLAX44Y44*%
%MOMM*%
G71*
G01*
G75*
%ADD10R,1.1000X0.6000*%
%ADD11R,0.6000X1.1000*%
%ADD12R,0.5000X0.5000*%
%ADD13R,1.6000X1.6000*%
%ADD14R,0.6350X0.5080*%
%ADD15R,2.6000X0.3000*%
%ADD16R,3.0000X1.6000*%
%ADD17R,6.7000X6.7000*%
%ADD18R,0.3000X0.9000*%
%ADD19R,0.9000X0.3000*%
%ADD20R,5.2000X5.2000*%
%ADD21R,1.4000X1.2000*%
%ADD22R,1.2700X1.5240*%
%ADD23C,0.2000*%
%ADD24C,0.5000*%
%ADD25C,0.3000*%
%ADD26C,0.2286*%
%ADD27C,0.2540*%
%ADD28C,0.2032*%
%ADD29C,0.6350*%
%ADD30C,0.2500*%
%ADD31C,0.1524*%
%ADD32C,0.1270*%
%ADD33C,2.0000*%
%ADD34R,2.0000X2.0000*%
%ADD35R,1.6000X2.0000*%
%ADD36O,1.6000X2.0000*%
%ADD37C,3.3000*%
%ADD38C,2.3000*%
%ADD39C,6.0000*%
%ADD40C,2.4000*%
%ADD41C,1.0000*%
%ADD42C,0.8000*%
D10*
X2369448Y2388398D02*
D03*
X2353448Y2383398D02*
D03*
X2390448Y2337648D02*
D03*
Y2347648D02*
D03*
X2374448Y2342648D02*
D03*
X2376698Y2425898D02*
D03*
X2360698Y2420898D02*
D03*
X2376698Y2415898D02*
D03*
X2369448Y2378398D02*
D03*
X2443698Y2354898D02*
D03*
X2427698Y2349898D02*
D03*
Y2359898D02*
D03*
X2360698Y2451898D02*
D03*
X2376698Y2456898D02*
D03*
Y2446898D02*
D03*
D11*
X2321448Y2498898D02*
D03*
X2331448D02*
D03*
X2326448Y2514898D02*
D03*
D12*
X2393198Y2356648D02*
D03*
X2383198D02*
D03*
X2398448Y2432398D02*
D03*
X2388448D02*
D03*
X2393198Y2365648D02*
D03*
X2383198D02*
D03*
X2398448Y2476648D02*
D03*
X2388448D02*
D03*
X2335948Y2479648D02*
D03*
X2345948D02*
D03*
X2336448Y2421648D02*
D03*
X2346448D02*
D03*
X2289448Y2314648D02*
D03*
X2299448D02*
D03*
X2264698Y2516648D02*
D03*
Y2526648D02*
D03*
X2273948Y2516398D02*
D03*
Y2526398D02*
D03*
X2304698Y2600648D02*
D03*
Y2590648D02*
D03*
X2388448Y2466898D02*
D03*
X2398448D02*
D03*
X2384448Y2405648D02*
D03*
X2394448D02*
D03*
X2384448Y2396648D02*
D03*
X2394448D02*
D03*
X2266448Y2343398D02*
D03*
Y2353398D02*
D03*
X2243448Y2344398D02*
D03*
Y2354398D02*
D03*
X2253198Y2332898D02*
D03*
X2243198D02*
D03*
X2310698Y2402398D02*
D03*
X2300698D02*
D03*
X2309698Y2463148D02*
D03*
Y2453148D02*
D03*
X2153198Y2461648D02*
D03*
Y2471648D02*
D03*
X2295448Y2482898D02*
D03*
Y2492898D02*
D03*
X2305448Y2431898D02*
D03*
X2315448D02*
D03*
X2254448Y2361148D02*
D03*
Y2351148D02*
D03*
X2193198Y2361648D02*
D03*
X2183198D02*
D03*
X2318198Y2480398D02*
D03*
Y2470398D02*
D03*
X2425948Y2371648D02*
D03*
X2435948D02*
D03*
X2388698Y2441648D02*
D03*
X2398698D02*
D03*
X2228448Y2598648D02*
D03*
Y2588648D02*
D03*
X2246948Y2523648D02*
D03*
Y2513648D02*
D03*
X2255948Y2523648D02*
D03*
Y2513648D02*
D03*
X2384448Y2516898D02*
D03*
X2394448D02*
D03*
X2160948Y2499898D02*
D03*
X2150948D02*
D03*
D13*
X2067698Y2571398D02*
D03*
Y2603398D02*
D03*
X2076948Y2464648D02*
D03*
X2044948D02*
D03*
X2208448Y2578148D02*
D03*
X2176448D02*
D03*
D14*
X2265998Y2329148D02*
D03*
X2278698D02*
D03*
D15*
X2456348Y2375898D02*
D03*
Y2430898D02*
D03*
Y2405898D02*
D03*
Y2415898D02*
D03*
Y2420898D02*
D03*
Y2410898D02*
D03*
Y2380898D02*
D03*
Y2390898D02*
D03*
Y2400898D02*
D03*
Y2395898D02*
D03*
Y2440898D02*
D03*
Y2435898D02*
D03*
Y2385898D02*
D03*
Y2445898D02*
D03*
Y2455898D02*
D03*
Y2425898D02*
D03*
Y2370898D02*
D03*
Y2365898D02*
D03*
Y2450898D02*
D03*
D16*
X2075948Y2489148D02*
D03*
Y2535148D02*
D03*
D17*
X2009448Y2512148D02*
D03*
D18*
X2200198Y2372898D02*
D03*
X2205198D02*
D03*
X2210198D02*
D03*
X2215198D02*
D03*
X2220198D02*
D03*
X2225198D02*
D03*
X2230198D02*
D03*
X2235198D02*
D03*
X2240198D02*
D03*
X2260197D02*
D03*
X2270197D02*
D03*
X2270197Y2487198D02*
D03*
X2265197D02*
D03*
X2260197D02*
D03*
X2255197D02*
D03*
X2250198D02*
D03*
X2245198D02*
D03*
X2240198D02*
D03*
X2235198D02*
D03*
X2230198D02*
D03*
X2225198D02*
D03*
X2220198D02*
D03*
X2215198D02*
D03*
X2210198D02*
D03*
X2205198D02*
D03*
X2200198D02*
D03*
X2195198Y2487198D02*
D03*
X2255197Y2372898D02*
D03*
X2265197D02*
D03*
X2250198D02*
D03*
X2195198D02*
D03*
X2245198D02*
D03*
D19*
X2289848Y2392548D02*
D03*
Y2397548D02*
D03*
Y2407548D02*
D03*
Y2412548D02*
D03*
Y2417548D02*
D03*
Y2422548D02*
D03*
Y2437548D02*
D03*
Y2442548D02*
D03*
Y2447548D02*
D03*
Y2452548D02*
D03*
Y2457548D02*
D03*
Y2467548D02*
D03*
X2175548D02*
D03*
Y2462548D02*
D03*
Y2452548D02*
D03*
Y2442548D02*
D03*
Y2437548D02*
D03*
Y2432548D02*
D03*
Y2427548D02*
D03*
Y2422548D02*
D03*
Y2417548D02*
D03*
Y2412548D02*
D03*
Y2407548D02*
D03*
Y2402548D02*
D03*
Y2397548D02*
D03*
Y2392548D02*
D03*
X2289848Y2427548D02*
D03*
Y2402548D02*
D03*
Y2432548D02*
D03*
Y2462548D02*
D03*
X2175548Y2457548D02*
D03*
Y2447548D02*
D03*
D20*
X2232698Y2430048D02*
D03*
D21*
X2279298Y2573148D02*
D03*
Y2551148D02*
D03*
X2304698D02*
D03*
Y2573148D02*
D03*
D22*
X2392948Y2538148D02*
D03*
Y2561008D02*
D03*
D23*
X2273948Y1979998D02*
Y2178148D01*
X2319198Y1934748D02*
X2329398D01*
X2273948Y1979998D02*
X2319198Y1934748D01*
X2442448Y2455898D02*
X2456348D01*
X2442448Y2445898D02*
X2455948D01*
X2437854Y2456148D02*
X2456198D01*
X2423605Y2470398D02*
X2437854Y2456148D01*
X2441948Y2426398D02*
X2455948D01*
X2442448Y2410898D02*
X2456348D01*
X2438948Y2407398D02*
X2442448Y2410898D01*
X2438948Y2407398D02*
Y2407648D01*
X2437854Y2400898D02*
X2456348D01*
X2438511Y2395898D02*
X2456348D01*
X2270197Y2487398D02*
Y2490898D01*
X2456348Y2385898D02*
X2471698D01*
X2472948Y2387148D01*
X2486948D01*
X2488198Y2385898D01*
X2493948D01*
X2456348Y2380898D02*
X2473198D01*
X2475448Y2378648D01*
X2482948D01*
X2289848Y2457548D02*
X2289948Y2457648D01*
X2269948Y2359648D02*
Y2373398D01*
X2104198Y2439698D02*
X2141348Y2402548D01*
X2104198Y2439698D02*
Y2599648D01*
X1999198Y2704648D02*
X2104198Y2599648D01*
X1999198Y2704648D02*
Y2723648D01*
X2108198Y2441355D02*
X2142005Y2407548D01*
X2108198Y2441355D02*
Y2601398D01*
X2011698Y2697898D02*
X2108198Y2601398D01*
X2011698Y2697898D02*
Y2735048D01*
X1999198Y2747548D02*
X2011698Y2735048D01*
X2112198Y2443012D02*
X2142661Y2412548D01*
X2112198Y2443012D02*
Y2603398D01*
X2024448Y2691148D02*
X2112198Y2603398D01*
X2024448Y2691148D02*
Y2722398D01*
X2116198Y2444669D02*
X2143318Y2417548D01*
X2116198Y2444669D02*
Y2605398D01*
X2037448Y2684148D02*
X2116198Y2605398D01*
X2037448Y2684148D02*
Y2734698D01*
X2024598Y2747548D02*
X2037448Y2734698D01*
X2120198Y2446326D02*
X2143975Y2422548D01*
X2120198Y2446326D02*
Y2607148D01*
X2049998Y2677348D02*
X2120198Y2607148D01*
X2049998Y2677348D02*
Y2722148D01*
X2124198Y2447982D02*
X2144632Y2427548D01*
X2124198Y2447982D02*
Y2608898D01*
X2062198Y2670898D02*
X2124198Y2608898D01*
X2062198Y2670898D02*
Y2734648D01*
X2049948Y2746898D02*
X2062198Y2734648D01*
X2128198Y2449639D02*
X2145289Y2432548D01*
X2128198Y2449639D02*
Y2610648D01*
X2075398Y2663355D02*
X2085583Y2653169D01*
X2075398Y2663355D02*
Y2722148D01*
X2085676Y2653169D02*
X2128198Y2610648D01*
X2085583Y2653169D02*
X2085676D01*
X2132198Y2451296D02*
X2145946Y2437548D01*
X2089948Y2654648D02*
X2132198Y2612398D01*
X2089948Y2654648D02*
Y2732998D01*
X2075398Y2747548D02*
X2089948Y2732998D01*
X2132198Y2451296D02*
Y2612398D01*
X2156604Y2455898D02*
X2159955Y2452548D01*
X2146198Y2455898D02*
X2156604D01*
X2143198Y2458898D02*
X2146198Y2455898D01*
X2209698Y2372898D02*
X2210198D01*
X1998448Y1960898D02*
X1998948Y1960398D01*
X2158948Y2461648D02*
X2163048Y2457548D01*
X2175548D01*
X2153198Y2471648D02*
Y2478148D01*
X2163198Y2488148D01*
X2178948D01*
X2151448Y2461648D02*
X2158948D01*
X2141348Y2402548D02*
X2175548D01*
X2142005Y2407548D02*
X2175848D01*
X2142661Y2412548D02*
X2175548D01*
X2143318Y2417548D02*
X2175548D01*
X2143975Y2422548D02*
X2175598D01*
X2175698Y2422648D01*
X2144632Y2427548D02*
X2175548D01*
X2145289Y2432548D02*
X2175548D01*
X2145946Y2437548D02*
X2175548D01*
X2151948Y2444648D02*
X2152198D01*
X2154298Y2442548D01*
X2175548D01*
X2159955Y2452548D02*
X2175548D01*
X2162448Y2467398D02*
X2167298Y2462548D01*
X2175548D01*
X2162448Y2467398D02*
Y2476148D01*
X2265197Y2506148D02*
X2265198Y2506148D01*
X2289848Y2427548D02*
X2289854Y2427555D01*
X2296098Y2407548D02*
X2297098Y2408548D01*
X2289848Y2407548D02*
X2296098D01*
X2323448Y2366648D02*
X2326448Y2363648D01*
X2295798Y2397548D02*
X2296798Y2396548D01*
X2331448Y2498898D02*
X2340698D01*
X2341448Y2498148D01*
X2456348Y2450898D02*
X2472448D01*
X2456348Y2420898D02*
X2471698D01*
X2456348Y2405898D02*
X2471948D01*
X2476948Y2455398D02*
X2477698D01*
X2316448Y2511648D02*
Y2513898D01*
Y2511648D02*
X2321448Y2506648D01*
X2309698Y2463148D02*
Y2467148D01*
X2308448Y2468398D02*
X2309698Y2467148D01*
X2289848Y2457548D02*
X2297348D01*
X2304198Y2464398D02*
Y2469398D01*
X2301448Y2472148D02*
X2304198Y2469398D01*
X2301448Y2472148D02*
Y2479148D01*
X2297348Y2457548D02*
X2304198Y2464398D01*
X2295448Y2492898D02*
Y2514148D01*
X2304948Y2523648D01*
X2330448D01*
X2289848Y2417548D02*
X2295798D01*
X2296798Y2416548D01*
X2296548Y2422548D02*
X2298548Y2420548D01*
X2289848Y2422548D02*
X2296548D01*
X2289848Y2427548D02*
X2295548D01*
X2296548Y2426548D01*
X2298548D01*
X2300548Y2424548D01*
X2318441D01*
X2327448Y2433555D01*
X2304048Y2432548D02*
X2304698Y2431898D01*
X2329948Y2446398D02*
X2338948D01*
X2289848Y2397548D02*
X2295798D01*
X2195198Y2379148D02*
X2199079Y2383030D01*
X2309548Y2392548D02*
X2319198Y2382898D01*
Y2365148D02*
Y2382898D01*
X2289848Y2392548D02*
X2309548D01*
X2311298Y2396548D02*
X2323448Y2384398D01*
X2296798Y2396548D02*
X2311298D01*
X2323448Y2366648D02*
Y2384398D01*
X2310698Y2402398D02*
X2311698D01*
X2300548Y2402548D02*
X2300648Y2402648D01*
X2254448Y2361148D02*
Y2368648D01*
X2255198Y2369398D01*
X2193198Y2361648D02*
Y2364648D01*
X2195198Y2366648D01*
X2248948Y2365148D02*
X2250198Y2366398D01*
Y2376898D01*
X2243448Y2358898D02*
X2245198Y2360648D01*
X2243448Y2354648D02*
Y2358898D01*
X2237948Y2359148D02*
X2240198Y2361398D01*
Y2372648D01*
X2233948Y2361398D02*
X2235198Y2362648D01*
Y2372898D01*
X2243198Y2332898D02*
Y2333148D01*
X2248948Y2338898D01*
Y2365148D01*
X2260197Y2334398D02*
X2265448Y2329148D01*
X2260197Y2334398D02*
Y2372898D01*
X2315441Y2437548D02*
X2330541Y2452648D01*
Y2460741D01*
X2289848Y2437548D02*
X2315441D01*
X2289848Y2442548D02*
X2297548D01*
X2298548Y2441548D01*
X2313784D01*
X2326541Y2454305D01*
X2301298Y2445548D02*
X2312127D01*
X2322541Y2455962D01*
X2299298Y2447548D02*
X2301298Y2445548D01*
X2326541Y2454305D02*
Y2462491D01*
X2328698Y2464648D02*
Y2468148D01*
X2326541Y2462491D02*
X2328698Y2464648D01*
Y2468148D02*
X2332948Y2472398D01*
X2322541Y2456398D02*
Y2464241D01*
X2324698Y2466398D02*
Y2469898D01*
X2334198Y2479398D01*
X2335698D01*
X2335948Y2479648D01*
X2322541Y2464241D02*
X2324698Y2466398D01*
X2342198Y2485398D02*
X2345948Y2481648D01*
Y2479648D02*
Y2481648D01*
X2304948Y2482648D02*
X2313448Y2491148D01*
X2317448D01*
X2321448Y2495148D01*
Y2506648D01*
X2308448Y2477398D02*
X2311448Y2480398D01*
X2318198D01*
X2308448Y2468398D02*
Y2477398D01*
X2315448Y2431898D02*
X2329948Y2446398D01*
X2311698Y2344398D02*
X2328948Y2327148D01*
X2311698Y2344398D02*
Y2380898D01*
X2427698Y2359898D02*
Y2365648D01*
Y2349398D02*
Y2349898D01*
Y2349398D02*
X2438698Y2338398D01*
X2463948D01*
X2425948Y2371648D02*
Y2375148D01*
X2428698Y2377898D01*
X2439948D01*
X2441948Y2375898D01*
X2456348D01*
X2435948Y2371648D02*
X2440198D01*
X2440948Y2370898D01*
X2456348D01*
X2278698Y2319648D02*
Y2321398D01*
Y2319648D02*
X2283698Y2314648D01*
X2289448D01*
X2270197Y2490898D02*
X2277698Y2498398D01*
X2273948Y2502148D02*
Y2516398D01*
Y2502148D02*
X2277698Y2498398D01*
X2264698Y2516648D02*
X2265197Y2516148D01*
Y2487198D02*
Y2516148D01*
X2279298Y2531898D02*
Y2551148D01*
Y2531898D02*
X2289848Y2521348D01*
Y2467548D02*
Y2521348D01*
X2330448Y2523648D02*
X2341448Y2512648D01*
Y2498148D02*
Y2512648D01*
X2304448Y2550898D02*
X2345198D01*
X2416948Y2343648D02*
Y2361148D01*
X2421698Y2365898D01*
X2456348D01*
X2394791Y2327148D02*
X2412948Y2345305D01*
Y2370334D02*
X2413482Y2370868D01*
X2412948Y2345305D02*
Y2370334D01*
X2413482Y2370868D01*
X2438511Y2395898D01*
X2328948Y2327148D02*
X2394791D01*
X2396198Y2322898D02*
X2416948Y2343648D01*
X2299448Y2314648D02*
X2303948D01*
X2269948Y2359648D02*
X2307948Y2321648D01*
X2303948Y2314648D02*
X2310698Y2321398D01*
X2394948Y2321648D02*
X2416948Y2343648D01*
X2307948Y2321648D02*
X2394948D01*
X2319198Y2365148D02*
X2319291D01*
X2381448Y2363648D02*
X2382198Y2364398D01*
X2319291Y2365148D02*
X2324791Y2359648D01*
X2390448Y2347648D02*
X2390948D01*
X2392448Y2349148D01*
Y2355898D01*
X2390448Y2337648D02*
X2395198D01*
X2326448Y2363648D02*
X2381448D01*
X2393198Y2356648D02*
X2393698D01*
X2400198Y2363148D01*
X2398698Y2361898D02*
X2400076Y2363271D01*
X2437854Y2400898D01*
X2396794Y2365648D02*
X2402794Y2371648D01*
X2402819D01*
X2398698Y2367648D02*
X2402771Y2371696D01*
X2438948Y2407648D01*
X2392448Y2366398D02*
Y2376398D01*
X2393198Y2365648D02*
X2396794D01*
X2392448Y2366398D02*
X2393448Y2365398D01*
X2395198Y2337648D02*
X2403448Y2345898D01*
Y2345398D02*
Y2354648D01*
X2359448Y2342398D02*
X2374198D01*
X2374448Y2342648D01*
X2339948Y2374148D02*
X2342948D01*
X2352198Y2383398D01*
X2311698Y2402398D02*
X2339948Y2374148D01*
X2369448Y2378398D02*
X2380948D01*
X2387198Y2384648D01*
X2403948D01*
X2394448Y2393148D02*
Y2396648D01*
X2389948Y2388648D02*
X2394448Y2393148D01*
X2369698Y2388648D02*
X2389948D01*
X2375198Y2400648D02*
X2380198Y2405648D01*
X2384448D01*
X2394448D02*
X2398448D01*
X2400868Y2403228D01*
X2418714Y2403164D02*
X2418778Y2403228D01*
X2400868D02*
X2418778D01*
X2418714Y2403164D02*
X2418778Y2403228D01*
X2441948Y2426398D01*
X2394448Y2396648D02*
X2398448D01*
X2400119Y2398320D01*
X2419869D01*
X2437448Y2415898D01*
X2437104D02*
X2456348D01*
X2394448Y2405648D02*
Y2408898D01*
X2397448Y2411898D01*
X2409698D01*
X2313798Y2408548D02*
X2325698Y2396648D01*
X2297098Y2408548D02*
X2313798D01*
X2325698Y2396648D02*
X2384448D01*
X2315798Y2412548D02*
X2327698Y2400648D01*
X2289848Y2412548D02*
X2315798D01*
X2327698Y2400648D02*
X2375198D01*
X2331348Y2416548D02*
X2336448Y2421648D01*
X2296798Y2416548D02*
X2331348D01*
X2327448Y2433555D02*
Y2433648D01*
X2332698Y2438898D01*
X2385948D01*
X2388698Y2441648D01*
X2320098Y2420548D02*
X2334448Y2434898D01*
X2385948D01*
X2388448Y2432398D01*
X2298548Y2420548D02*
X2320098D01*
X2376698Y2415898D02*
X2389698D01*
X2391448Y2417648D01*
X2376698Y2425898D02*
X2396448D01*
X2398448Y2427898D01*
Y2432398D01*
X2360698Y2413898D02*
Y2420898D01*
X2357448Y2410648D02*
X2360698Y2413898D01*
X2339198Y2410648D02*
X2357448D01*
X2346448Y2417898D02*
Y2421648D01*
X2339198Y2410648D02*
X2346448Y2417898D01*
X2398698Y2445398D02*
X2402698Y2449398D01*
X2408198D01*
X2398448Y2432398D02*
X2398698Y2432148D01*
Y2441648D02*
Y2445398D01*
X2441698Y2430898D02*
X2456348D01*
X2398448Y2432398D02*
X2400448D01*
X2437946Y2434650D02*
X2441698Y2430898D01*
X2400448Y2432398D02*
X2402698Y2434648D01*
X2402698D02*
X2437943D01*
X2398948Y2441648D02*
X2400948D01*
X2403948Y2438648D02*
X2437812D01*
X2440063Y2440898D01*
X2400948Y2441648D02*
X2403948Y2438648D01*
X2440063Y2440898D02*
X2456348D01*
X2384198Y2472398D02*
X2388448Y2476648D01*
X2332948Y2472398D02*
X2384198D01*
X2330541Y2460741D02*
X2332948Y2463148D01*
Y2466741D01*
X2334604Y2468398D01*
X2386948D01*
X2388448Y2466898D01*
X2376698Y2456898D02*
X2385198D01*
X2389198Y2460898D01*
X2395198D01*
X2398448Y2464148D01*
Y2466898D01*
X2397948Y2477148D02*
Y2488148D01*
X2376698Y2446898D02*
X2383198D01*
X2388698Y2452398D01*
X2392948D01*
X2423605Y2470398D02*
Y2470491D01*
X2420948Y2473148D02*
X2423605Y2470491D01*
X2401948Y2473148D02*
X2420948D01*
X2397948Y2477148D02*
X2401948Y2473148D01*
X2400698Y2469148D02*
X2419198D01*
X2398448Y2466898D02*
X2400698Y2469148D01*
X2419198D02*
X2442448Y2445898D01*
X2344448Y2451898D02*
X2360698D01*
X2338948Y2446398D02*
X2344448Y2451898D01*
X2229948Y2338262D02*
X2237948Y2346262D01*
X2229948Y2290898D02*
Y2338262D01*
X2204948Y2265898D02*
X2229948Y2290898D01*
X2077698Y2265898D02*
X2204948D01*
X2022848Y2320748D02*
X2077698Y2265898D01*
X2237948Y2346262D02*
Y2359148D01*
X2225948Y2339919D02*
X2233948Y2347919D01*
X2225948Y2292555D02*
Y2339919D01*
X2203291Y2269898D02*
X2225948Y2292555D01*
X2079448Y2269898D02*
X2203291D01*
X2233948Y2347919D02*
Y2361398D01*
X2201634Y2273898D02*
X2221198Y2293462D01*
X2081104Y2273898D02*
X2201634D01*
X2217198Y2342898D02*
X2224948Y2350648D01*
X2217198Y2295119D02*
Y2342898D01*
X2199977Y2277898D02*
X2217198Y2295119D01*
X2082761Y2277898D02*
X2199977D01*
X2198320Y2281898D02*
X2213198Y2296776D01*
X2084418Y2281898D02*
X2198320D01*
X2057698Y2308619D02*
X2084418Y2281898D01*
X2057698Y2308619D02*
Y2375398D01*
X2022848Y2410248D02*
X2057698Y2375398D01*
X2196664Y2285898D02*
X2209198Y2298432D01*
X2086075Y2285898D02*
X2196664D01*
X2210198Y2354305D02*
Y2372898D01*
X2205198Y2349305D02*
X2210198Y2354305D01*
X2205198Y2300089D02*
Y2349305D01*
X2195007Y2289898D02*
X2205198Y2300089D01*
X2087732Y2289898D02*
X2195007D01*
X2205198Y2354962D02*
Y2372898D01*
X2201198Y2350962D02*
X2205198Y2354962D01*
X2201198Y2301746D02*
Y2350962D01*
X2193350Y2293898D02*
X2201198Y2301746D01*
X2022848Y2320748D02*
Y2359448D01*
X2034448Y2314898D02*
X2079448Y2269898D01*
X2034448Y2314898D02*
Y2325648D01*
X2041448Y2313555D02*
X2081104Y2273898D01*
X2073965Y2303665D02*
X2087732Y2289898D01*
X2073948Y2303682D02*
Y2384398D01*
X2022848Y2435648D02*
X2066898Y2391598D01*
X2067448Y2390898D02*
X2073948Y2384398D01*
X2217698Y2342983D02*
X2225198Y2350482D01*
X2217698Y2342983D02*
Y2343148D01*
X2049698Y2310962D02*
Y2324898D01*
Y2310962D02*
X2082761Y2277898D01*
X2022848Y2384848D02*
X2035248D01*
X2035248D02*
X2041448Y2378648D01*
Y2313555D02*
Y2378648D01*
X2064698Y2307276D02*
Y2324148D01*
Y2307276D02*
X2068070Y2303903D01*
Y2303903D02*
X2086075Y2285898D01*
X2082198Y2301898D02*
Y2324148D01*
Y2301898D02*
X2090198Y2293898D01*
X2089389D02*
X2193350D01*
X2217698Y2343148D02*
X2225198Y2350648D01*
X2224948D02*
X2225198D01*
Y2350482D02*
Y2372898D01*
X2255948Y2502648D02*
X2260197Y2498398D01*
X2255948Y2502648D02*
Y2513648D01*
X2246948Y2505991D02*
X2255197Y2497742D01*
X2250198Y2487198D02*
Y2497085D01*
X2240948Y2506335D02*
X2250198Y2497085D01*
X2240948Y2506335D02*
Y2538148D01*
X2263948Y2561148D01*
Y2583398D01*
X2290948Y2610398D01*
X2388698D01*
X2418698Y2640398D01*
Y2734448D01*
X2405598Y2747548D02*
X2418698Y2734448D01*
X2245198Y2487198D02*
Y2496428D01*
X2236698Y2504928D02*
X2245198Y2496428D01*
X2236698Y2504928D02*
Y2539648D01*
X2259948Y2562898D01*
Y2585898D01*
X2405448Y2722398D02*
X2405698Y2722648D01*
X2387041Y2614991D02*
X2405698Y2633648D01*
Y2722648D01*
X2240198Y2487198D02*
Y2495771D01*
X2232698Y2503271D02*
X2240198Y2495771D01*
X2232698Y2503271D02*
Y2542148D01*
X2255948Y2565398D01*
Y2587648D01*
X2259948Y2585898D02*
X2289041Y2614991D01*
X2387041D01*
X2271375Y2602982D02*
X2287791Y2619398D01*
X2271281Y2602982D02*
X2271375D01*
X2255948Y2587648D02*
X2271281Y2602982D01*
X2380198Y2748148D02*
X2380341Y2748292D01*
X2287791Y2619398D02*
X2385791D01*
X2392448Y2626055D01*
X2235198Y2487198D02*
Y2495114D01*
X2228698Y2501614D02*
X2235198Y2495114D01*
X2228698Y2501614D02*
Y2544648D01*
X2251948Y2567898D01*
Y2589898D01*
X2285448Y2623398D01*
X2375198D01*
X2380198Y2628398D01*
Y2721648D01*
X2230198Y2487198D02*
Y2494457D01*
X2224698Y2499957D02*
X2230198Y2494457D01*
X2224698Y2499957D02*
Y2546398D01*
X2247948Y2569648D01*
Y2591648D01*
X2283698Y2627398D01*
X2354798Y2747548D02*
X2367198Y2735148D01*
X2360948Y2627398D02*
X2367198Y2633648D01*
Y2735148D01*
X2283698Y2627398D02*
X2360948D01*
X2246948Y2505991D02*
Y2513648D01*
X2225198Y2487198D02*
Y2493800D01*
X2220698Y2498300D02*
X2225198Y2493800D01*
X2220698Y2548398D02*
X2243948Y2571648D01*
Y2593398D02*
X2281948Y2631398D01*
X2352198D01*
X2354798Y2633998D01*
Y2722148D01*
X2220698Y2498300D02*
Y2548398D01*
X2243948Y2571648D02*
Y2593398D01*
X2220198Y2487198D02*
Y2493144D01*
X2216698Y2496644D02*
X2220198Y2493144D01*
X2216698Y2496644D02*
Y2551398D01*
X2239948Y2574648D01*
Y2595398D01*
X2279948Y2635398D01*
X2345948D01*
X2350448Y2639898D01*
X2342448Y2697398D02*
X2350448Y2689398D01*
X2342448Y2697398D02*
Y2734498D01*
X2329398Y2747548D02*
X2342448Y2734498D01*
X2350448Y2639898D02*
Y2689398D01*
X2215198Y2487198D02*
Y2492487D01*
X2212698Y2494987D02*
X2215198Y2492487D01*
X2212698Y2494987D02*
Y2553148D01*
X2235948Y2576398D01*
Y2597148D01*
X2278198Y2639398D01*
X2340948D01*
X2346448Y2644898D01*
Y2687741D01*
X2329398Y2704791D02*
X2346448Y2687741D01*
X2329398Y2704791D02*
Y2722148D01*
X2246948Y2523648D02*
Y2529398D01*
X2251448Y2533898D01*
X2252448D01*
X2255948Y2530398D01*
Y2523648D02*
Y2530398D01*
X2228448Y2578898D02*
Y2588648D01*
X2227698Y2578148D02*
X2228448Y2578898D01*
X2229448Y2468648D02*
Y2473648D01*
X2223698Y2479398D02*
X2229448Y2473648D01*
X2210198Y2481648D02*
Y2487198D01*
Y2481648D02*
X2212448Y2479398D01*
X2223698D01*
X2205198Y2480898D02*
X2210698Y2475398D01*
X2205198Y2480898D02*
Y2486898D01*
X2215448Y2475398D02*
X2218698Y2472148D01*
Y2468648D02*
Y2472148D01*
X2210698Y2475398D02*
X2215448D01*
X2200198Y2476398D02*
Y2487198D01*
Y2476398D02*
X2207948Y2468648D01*
X2195198Y2470398D02*
Y2487198D01*
Y2470398D02*
X2196948Y2468648D01*
X2229511Y2365398D02*
X2230198Y2366084D01*
X2221198Y2293462D02*
Y2340826D01*
X2229448Y2349076D01*
Y2365398D01*
X2230198Y2366148D01*
Y2366084D02*
Y2372898D01*
X2214948Y2372648D02*
X2215198Y2372898D01*
X2214948Y2353148D02*
Y2372648D01*
X2209198Y2298432D02*
Y2347398D01*
X2214948Y2353148D01*
X2219698Y2352148D02*
Y2372398D01*
X2213198Y2296776D02*
Y2345648D01*
X2219698Y2352148D01*
Y2372398D02*
X2220448Y2373148D01*
X2183198Y2352148D02*
Y2361648D01*
X2182448Y2351398D02*
X2183198Y2352148D01*
X2200198Y2355619D02*
Y2372898D01*
X2189948Y2345369D02*
X2200198Y2355619D01*
X2156848Y2397548D02*
X2175548D01*
X2145698Y2386398D02*
X2156848Y2397548D01*
X2157504Y2392548D02*
X2175548D01*
X2149698Y2384741D02*
X2157504Y2392548D01*
X2149698Y2334648D02*
Y2384741D01*
X2189948Y2308898D02*
Y2345369D01*
X2153448Y2317148D02*
Y2318398D01*
X2152948Y2318898D02*
X2153448Y2318398D01*
X2149873Y2334473D02*
X2152948Y2331398D01*
Y2318898D02*
Y2331398D01*
X2145698Y2304648D02*
Y2386398D01*
X2127198Y2229148D02*
Y2243148D01*
Y2229148D02*
X2141448Y2214898D01*
X2237198D02*
X2273948Y2178148D01*
X2141448Y2214898D02*
X2237198D01*
X2145448Y2229148D02*
Y2247648D01*
Y2229148D02*
X2155698Y2218898D01*
X2238948D01*
X2277948Y2179898D01*
Y1988148D02*
X2305948Y1960148D01*
X2277948Y1988148D02*
Y2179898D01*
X2305948Y1960148D02*
X2329398D01*
X2351598Y1934748D02*
X2354798D01*
X2340948Y1945398D02*
X2351598Y1934748D01*
X2340948Y1945398D02*
Y1968898D01*
X2323198Y1986648D02*
X2340948Y1968898D01*
X2285698Y1986648D02*
X2323198D01*
X2281948Y1990398D02*
X2285698Y1986648D01*
X2281948Y1990398D02*
Y2181898D01*
X2240698Y2223148D02*
X2281948Y2181898D01*
X2199948Y2223148D02*
X2240698D01*
X2190198Y2232898D02*
X2199948Y2223148D01*
X2190198Y2232898D02*
Y2253898D01*
X2260197Y2481898D02*
X2266948Y2475148D01*
X2255197Y2474898D02*
X2255448Y2474648D01*
X2278448Y2447148D02*
X2290048D01*
X2290448Y2447548D01*
X2289848D02*
X2299298D01*
X2255197Y2474898D02*
Y2497742D01*
X2260197Y2481898D02*
Y2498398D01*
X2199079Y2383030D02*
X2199448D01*
X2379198Y2359648D02*
X2382198Y2356648D01*
X2383198D01*
X2324791Y2359648D02*
X2379198D01*
X2265197Y2358741D02*
X2266448Y2357491D01*
Y2353398D02*
Y2357491D01*
X2265197Y2358741D02*
Y2387648D01*
X2174698Y2476398D02*
X2174948D01*
X2175548Y2475798D01*
Y2467548D02*
Y2475798D01*
X2304948Y2482648D02*
Y2482648D01*
X2301448Y2479148D02*
X2304948Y2482648D01*
X2291198Y2462548D02*
X2295984D01*
X2298698Y2465262D02*
Y2469241D01*
X2295448Y2472491D02*
X2298698Y2469241D01*
X2295448Y2472491D02*
Y2476648D01*
X2295948Y2462898D02*
X2296334D01*
X2295984Y2462548D02*
X2298698Y2465262D01*
X2456348Y2435898D02*
X2473698D01*
X2318198Y2458148D02*
Y2468898D01*
Y2470398D02*
X2319448D01*
X2332448Y2485398D02*
X2342198D01*
X2329448Y2480398D02*
Y2482398D01*
X2319448Y2470398D02*
X2329448Y2480398D01*
Y2482398D02*
X2332448Y2485398D01*
X2290448Y2452548D02*
X2309097D01*
X2309862Y2453313D02*
X2313362D01*
X2309097Y2452548D02*
X2309862Y2453313D01*
X2313198Y2453148D02*
X2318198Y2458148D01*
X2380198Y2747548D02*
X2381048D01*
X2392448Y2626055D02*
Y2736148D01*
X2381048Y2747548D02*
X2392448Y2736148D01*
X2024598Y1934748D02*
X2024898D01*
X2037198Y1947048D01*
Y1982398D01*
X2160948Y2499898D02*
X2183698D01*
X2136198Y2454148D02*
X2136448D01*
X2138698Y2451898D01*
X2154948D01*
X2159298Y2447548D01*
X2147198Y2499898D02*
X2150948D01*
X2136198Y2488898D02*
X2147198Y2499898D01*
X2136198Y2454148D02*
Y2488898D01*
X2150948Y2499898D02*
Y2502398D01*
X2170198Y2521648D02*
X2184698D01*
X2150948Y2502398D02*
X2170198Y2521648D01*
X2159298Y2447548D02*
X2175548D01*
X2245198Y2380148D02*
X2248079Y2383030D01*
X2255198Y2369398D02*
Y2381898D01*
X2279698Y2403398D02*
X2280548Y2402548D01*
X2195198Y2366648D02*
Y2379148D01*
X2245198Y2360648D02*
Y2380148D01*
X2250198Y2376898D02*
X2261448Y2388148D01*
X2280348Y2402548D02*
X2300548D01*
X2283098Y2432548D02*
X2304048D01*
X2183698Y2499898D02*
X2187198Y2496398D01*
X2178948Y2488148D02*
X2187198Y2496398D01*
X1870498Y1883238D02*
X1959398D01*
X1895898D02*
Y2282199D01*
Y2384277D02*
Y2783238D01*
X1890818Y1898478D02*
X1895898Y1883238D01*
X1900978Y1898478D01*
X1890818Y2767998D02*
X1895898Y2783238D01*
X1900978Y2767998D01*
X1893358Y1883238D02*
X1898438D01*
X1893358Y2783238D02*
X1898438D01*
X1959398Y1814658D02*
Y1883238D01*
Y1852758D02*
X2208359D01*
X2310437D02*
X2559398D01*
X1959398D02*
X1974638Y1857838D01*
X1959398Y1852758D02*
X1974638Y1847678D01*
X2544158Y1857838D02*
X2559398Y1852758D01*
X2544158Y1847678D02*
X2559398Y1852758D01*
X1959398Y1850218D02*
Y1855298D01*
X2559398Y1850218D02*
Y1855298D01*
D24*
X2126448Y2631648D02*
X2137948Y2614426D01*
X2086198Y2762148D02*
X2100798Y2747548D01*
X1993948Y2762148D02*
X2086198D01*
X1982948Y2751148D02*
X1993948Y2762148D01*
X1982948Y2651648D02*
Y2751148D01*
X2114198Y2770398D02*
X2126198Y2758398D01*
X1987448Y2770398D02*
X2114198D01*
X1973448Y2756398D02*
X1987448Y2770398D01*
X1973448Y2647398D02*
Y2756398D01*
Y2647398D02*
X2050698Y2570148D01*
Y2512898D02*
Y2570148D01*
Y2512898D02*
X2074698Y2488898D01*
X2009448Y2485648D02*
Y2512148D01*
Y2485648D02*
X2030448Y2464648D01*
X2044948D01*
X2086448Y2558398D02*
X2091948Y2552898D01*
X2126198Y1909898D02*
X2144608Y1891488D01*
X2242788D02*
X2258198Y1906898D01*
X2481798Y2747548D02*
Y2754748D01*
X2491698Y2764648D01*
X2533698D01*
X2513698Y2366398D02*
X2543948Y2396648D01*
X2478698Y2366398D02*
X2513698D01*
X2533698Y2764648D02*
X2543948Y2754398D01*
Y2396648D02*
Y2754398D01*
X2279298Y2590248D02*
X2289448Y2600398D01*
X2279298Y2573148D02*
Y2590248D01*
X2409198Y2600648D02*
X2456398Y2646848D01*
Y2722148D01*
X2304198Y2600648D02*
X2409198D01*
X2289698D02*
X2304698D01*
X2289448Y2600398D02*
X2289698Y2600648D01*
X2264698Y2526648D02*
Y2549648D01*
Y2526648D02*
X2273698D01*
X2273948Y2526398D01*
X2151598Y2747548D02*
Y2747798D01*
X2126198Y2747548D02*
Y2758398D01*
X2100798Y2721298D02*
Y2747548D01*
X2456398D02*
Y2747848D01*
X2435348Y2768898D02*
X2456398Y2747848D01*
X2304448Y2768898D02*
X2435348D01*
X2271698Y2736148D02*
X2304448Y2768898D01*
X2271698Y2666898D02*
Y2736148D01*
X2227448Y2589148D02*
X2227948Y2588648D01*
X2228198Y2623398D02*
X2229733Y2624933D01*
X2228198Y2598148D02*
Y2623398D01*
X2229448Y2624648D02*
X2271698Y2666898D01*
X2215698Y2596148D02*
X2222698Y2589148D01*
X2227448D01*
X2187198Y2451648D02*
X2208948Y2429898D01*
X2233198D01*
X2044948Y2448148D02*
Y2464898D01*
X2456398Y1919698D02*
X2478448Y1897648D01*
X2533448D01*
X2551148Y1915348D01*
X2522948Y2338998D02*
Y2339148D01*
X2523698Y2338398D02*
X2540698Y2321398D01*
X2551148Y1915348D02*
Y2067898D01*
X2540698Y2078348D02*
X2551148Y2067898D01*
X2522948Y2338998D02*
X2523548Y2338398D01*
X2466448D02*
X2523698D01*
X2304948Y2590398D02*
X2318948D01*
X2326033Y2583313D01*
Y2570313D02*
Y2583313D01*
X2357948Y2487898D02*
Y2538398D01*
X2349698Y2479648D02*
X2357948Y2487898D01*
X2345948Y2479648D02*
X2349698D01*
X2304698Y2590648D02*
X2304948Y2590398D01*
X2304698Y2573148D02*
Y2590648D01*
X2076198Y2534398D02*
Y2558398D01*
X2086448D01*
X2257948Y1906398D02*
X2259948D01*
X2274858Y1891488D01*
X2427738D01*
X2456398Y1920148D01*
X2144608Y1891488D02*
X2242788D01*
X2126198Y1909898D02*
Y1960148D01*
X2456398Y1919698D02*
Y1960148D01*
X2540698Y2078348D02*
Y2321398D01*
X2176448Y2577648D02*
Y2578148D01*
X2208448Y2578148D02*
X2227698D01*
X2208448Y2578148D02*
X2208448Y2578148D01*
X1982948Y2651648D02*
X2076198Y2558398D01*
X2202948Y2512148D02*
Y2551148D01*
X2333198Y2538648D02*
X2357698D01*
X2326033Y2570313D02*
X2357948Y2538398D01*
X2118013Y2704083D02*
X2125698Y2696398D01*
X2100798Y2721298D02*
X2118013Y2704083D01*
X2125698Y2696398D02*
X2180448D01*
Y2696148D02*
X2215698Y2660898D01*
Y2596148D02*
Y2660898D01*
X2176198Y2576234D02*
X2202948Y2551148D01*
X2145948Y2583648D02*
X2151698Y2577898D01*
X2137948Y2591898D02*
X2146698Y2583148D01*
X2145698Y2583648D02*
X2145948D01*
X2187198Y2496398D02*
X2202948Y2512148D01*
X2187198Y2451648D02*
Y2496648D01*
X2137948Y2591898D02*
Y2614426D01*
X2151698Y2577898D02*
X2176198D01*
D25*
X2143198Y2469898D02*
X2151448Y2461648D01*
X2472448Y2450898D02*
X2476948Y2455398D01*
X2471948Y2405898D02*
X2477698Y2411648D01*
X2242448Y2344398D02*
X2243448D01*
X2266448Y2343398D02*
Y2343648D01*
X2253198Y2332898D02*
X2254448Y2334148D01*
Y2351148D01*
X2235198Y2337148D02*
X2242448Y2344398D01*
X2076948Y2464648D02*
Y2486648D01*
X2074448Y2489148D02*
X2076948Y2486648D01*
X2093948D01*
X2099698Y2492398D01*
Y2590148D01*
X2086448Y2603398D02*
X2099698Y2590148D01*
X2067698Y2603398D02*
X2086448D01*
X2183448Y1891648D02*
X2208948Y1917148D01*
Y1917148D02*
Y1961648D01*
X2266448Y2343648D02*
X2272698D01*
X2278698Y2337648D01*
X2476698Y2366398D02*
X2478698D01*
X2472198Y2370898D02*
X2476698Y2366398D01*
X2456348Y2370898D02*
X2472198D01*
X2304448Y2600398D02*
X2304698Y2600648D01*
X2235198Y2315398D02*
X2244448Y2306148D01*
X2235198Y2315398D02*
Y2336648D01*
X2253198Y2315148D02*
X2257698Y2310648D01*
X2272698Y2315398D02*
X2278698Y2321398D01*
X2303448Y2504648D02*
X2304948Y2506148D01*
X2303448Y2487648D02*
Y2504648D01*
X2298698Y2482898D02*
X2303448Y2487648D01*
X2304948Y2506148D02*
Y2512898D01*
X2191948Y2389148D02*
X2193329D01*
X2275448Y2407648D02*
X2279698Y2403398D01*
X2193329Y2389148D02*
X2199448Y2383030D01*
X2255948D02*
X2261066Y2388148D01*
X2264698D02*
X2279698Y2403148D01*
X2275448Y2407648D02*
Y2425148D01*
X2282699Y2432399D02*
X2283299D01*
X2275448Y2425148D02*
X2282699Y2432399D01*
X2294948Y2482898D02*
X2298698D01*
X2295448Y2473398D02*
Y2482898D01*
X2471698Y2420898D02*
X2477698Y2426898D01*
X2473698Y2435898D02*
X2477698Y2439898D01*
Y2411648D02*
Y2455398D01*
X2183448Y1891488D02*
Y1891648D01*
X2257698Y2307498D02*
X2258198Y2306148D01*
X2253198Y2315398D02*
X2272698D01*
X2244448Y2306148D02*
X2258198D01*
X2253198Y2315148D02*
Y2332898D01*
X2257698Y2306148D02*
Y2310648D01*
X2278698Y2321398D02*
Y2337648D01*
X2283299Y2432399D02*
X2283448Y2432548D01*
X2199448Y2383030D02*
X2255948D01*
X2261066Y2388148D02*
X2264698D01*
X2369448Y2514148D02*
X2375948D01*
X2378698Y2516898D01*
X2384448D01*
X2394448D02*
Y2536648D01*
X2392948Y2538148D02*
X2394448Y2536648D01*
X2380058Y2561008D02*
X2392948D01*
X2357448Y2538648D02*
X2357698D01*
X2380058Y2561008D01*
D26*
X2829166Y1371065D02*
X2828078Y1369977D01*
X2829166Y1368888D01*
X2830255Y1369977D01*
X2829166Y1371065D01*
X2851586Y1386302D02*
X2850497Y1388478D01*
X2848321Y1390655D01*
X2846144Y1391743D01*
X2841791D01*
X2839614Y1390655D01*
X2837437Y1388478D01*
X2836349Y1386302D01*
X2835261Y1383036D01*
Y1377595D01*
X2836349Y1374330D01*
X2837437Y1372153D01*
X2839614Y1369977D01*
X2841791Y1368888D01*
X2846144D01*
X2848321Y1369977D01*
X2850497Y1372153D01*
X2851586Y1374330D01*
Y1377595D01*
X2846144D02*
X2851586D01*
X2864428Y1391743D02*
Y1368888D01*
X2856810Y1391743D02*
X2872047D01*
X2874767D02*
Y1368888D01*
X2887827D01*
X1559708Y2880728D02*
X1558619Y2882905D01*
X1555354Y2883993D01*
X1553178D01*
X1549913Y2882905D01*
X1547736Y2879640D01*
X1546648Y2874198D01*
Y2868756D01*
X1547736Y2864403D01*
X1549913Y2862227D01*
X1553178Y2861138D01*
X1554266D01*
X1557531Y2862227D01*
X1559708Y2864403D01*
X1560796Y2867668D01*
Y2868756D01*
X1559708Y2872021D01*
X1557531Y2874198D01*
X1554266Y2875287D01*
X1553178D01*
X1549913Y2874198D01*
X1547736Y2872021D01*
X1546648Y2868756D01*
X1566891Y2863315D02*
X1565802Y2862227D01*
X1566891Y2861138D01*
X1567979Y2862227D01*
X1566891Y2863315D01*
X1579516Y2883993D02*
X1576250Y2882905D01*
X1574074Y2879640D01*
X1572986Y2874198D01*
Y2870933D01*
X1574074Y2865492D01*
X1576250Y2862227D01*
X1579516Y2861138D01*
X1581692D01*
X1584957Y2862227D01*
X1587134Y2865492D01*
X1588222Y2870933D01*
Y2874198D01*
X1587134Y2879640D01*
X1584957Y2882905D01*
X1581692Y2883993D01*
X1579516D01*
X1557531Y2375993D02*
X1546648Y2360757D01*
X1562973D01*
X1557531Y2375993D02*
Y2353138D01*
X1568088Y2355315D02*
X1567000Y2354227D01*
X1568088Y2353138D01*
X1569176Y2354227D01*
X1568088Y2355315D01*
X1580713Y2375993D02*
X1577448Y2374905D01*
X1575271Y2371640D01*
X1574183Y2366198D01*
Y2362933D01*
X1575271Y2357491D01*
X1577448Y2354227D01*
X1580713Y2353138D01*
X1582889D01*
X1586154Y2354227D01*
X1588331Y2357491D01*
X1589419Y2362933D01*
Y2366198D01*
X1588331Y2371640D01*
X1586154Y2374905D01*
X1582889Y2375993D01*
X1580713D01*
X1547736Y1862552D02*
Y1863640D01*
X1548824Y1865817D01*
X1549913Y1866905D01*
X1552089Y1867993D01*
X1556443D01*
X1558619Y1866905D01*
X1559708Y1865817D01*
X1560796Y1863640D01*
Y1861463D01*
X1559708Y1859286D01*
X1557531Y1856022D01*
X1546648Y1845138D01*
X1561884D01*
X1568088Y1847315D02*
X1567000Y1846227D01*
X1568088Y1845138D01*
X1569176Y1846227D01*
X1568088Y1847315D01*
X1580713Y1867993D02*
X1577448Y1866905D01*
X1575271Y1863640D01*
X1574183Y1858198D01*
Y1854933D01*
X1575271Y1849491D01*
X1577448Y1846227D01*
X1580713Y1845138D01*
X1582889D01*
X1586154Y1846227D01*
X1588331Y1849491D01*
X1589419Y1854933D01*
Y1858198D01*
X1588331Y1863640D01*
X1586154Y1866905D01*
X1582889Y1867993D01*
X1580713D01*
X1581753Y1359993D02*
X1578488Y1358905D01*
X1576311Y1355640D01*
X1575223Y1350198D01*
Y1346933D01*
X1576311Y1341492D01*
X1578488Y1338226D01*
X1581753Y1337138D01*
X1583929D01*
X1587194Y1338226D01*
X1589371Y1341492D01*
X1590459Y1346933D01*
Y1350198D01*
X1589371Y1355640D01*
X1587194Y1358905D01*
X1583929Y1359993D01*
X1581753D01*
X1552998Y1609640D02*
X1555174Y1610728D01*
X1558439Y1613993D01*
Y1591138D01*
X1570846Y1593315D02*
X1569758Y1592227D01*
X1570846Y1591138D01*
X1571935Y1592227D01*
X1570846Y1593315D01*
X1583471Y1613993D02*
X1580206Y1612905D01*
X1578029Y1609640D01*
X1576941Y1604198D01*
Y1600933D01*
X1578029Y1595491D01*
X1580206Y1592227D01*
X1583471Y1591138D01*
X1585648D01*
X1588913Y1592227D01*
X1591089Y1595491D01*
X1592178Y1600933D01*
Y1604198D01*
X1591089Y1609640D01*
X1588913Y1612905D01*
X1585648Y1613993D01*
X1583471D01*
X1548824Y2121993D02*
X1560796D01*
X1554266Y2113286D01*
X1557531D01*
X1559708Y2112198D01*
X1560796Y2111110D01*
X1561884Y2107845D01*
Y2105668D01*
X1560796Y2102403D01*
X1558619Y2100226D01*
X1555354Y2099138D01*
X1552089D01*
X1548824Y2100226D01*
X1547736Y2101315D01*
X1546648Y2103492D01*
X1568088Y2101315D02*
X1567000Y2100226D01*
X1568088Y2099138D01*
X1569176Y2100226D01*
X1568088Y2101315D01*
X1580713Y2121993D02*
X1577448Y2120905D01*
X1575271Y2117640D01*
X1574183Y2112198D01*
Y2108933D01*
X1575271Y2103492D01*
X1577448Y2100226D01*
X1580713Y2099138D01*
X1582889D01*
X1586154Y2100226D01*
X1588331Y2103492D01*
X1589419Y2108933D01*
Y2112198D01*
X1588331Y2117640D01*
X1586154Y2120905D01*
X1582889Y2121993D01*
X1580713D01*
X1559708Y2629993D02*
X1548824D01*
X1547736Y2620198D01*
X1548824Y2621287D01*
X1552089Y2622375D01*
X1555354D01*
X1558619Y2621287D01*
X1560796Y2619110D01*
X1561884Y2615845D01*
Y2613668D01*
X1560796Y2610403D01*
X1558619Y2608227D01*
X1555354Y2607138D01*
X1552089D01*
X1548824Y2608227D01*
X1547736Y2609315D01*
X1546648Y2611491D01*
X1568088Y2609315D02*
X1567000Y2608227D01*
X1568088Y2607138D01*
X1569176Y2608227D01*
X1568088Y2609315D01*
X1580713Y2629993D02*
X1577448Y2628905D01*
X1575271Y2625640D01*
X1574183Y2620198D01*
Y2616933D01*
X1575271Y2611491D01*
X1577448Y2608227D01*
X1580713Y2607138D01*
X1582889D01*
X1586154Y2608227D01*
X1588331Y2611491D01*
X1589419Y2616933D01*
Y2620198D01*
X1588331Y2625640D01*
X1586154Y2628905D01*
X1582889Y2629993D01*
X1580713D01*
X3518953Y1194901D02*
X3496098Y1205785D01*
X3518953Y1210138D02*
Y1194901D01*
X3498275Y1188698D02*
X3497186Y1189786D01*
X3496098Y1188698D01*
X3497186Y1187609D01*
X3498275Y1188698D01*
X3518953Y1176073D02*
X3517864Y1179338D01*
X3514599Y1181515D01*
X3509158Y1182603D01*
X3505893D01*
X3500451Y1181515D01*
X3497186Y1179338D01*
X3496098Y1176073D01*
Y1173896D01*
X3497186Y1170631D01*
X3500451Y1168455D01*
X3505893Y1167366D01*
X3509158D01*
X3514599Y1168455D01*
X3517864Y1170631D01*
X3518953Y1173896D01*
Y1176073D01*
X3010953Y1197078D02*
Y1207962D01*
X3001158Y1209050D01*
X3002246Y1207962D01*
X3003334Y1204696D01*
Y1201431D01*
X3002246Y1198166D01*
X3000069Y1195990D01*
X2996805Y1194901D01*
X2994628D01*
X2991363Y1195990D01*
X2989186Y1198166D01*
X2988098Y1201431D01*
Y1204696D01*
X2989186Y1207962D01*
X2990274Y1209050D01*
X2992451Y1210138D01*
X2990274Y1188698D02*
X2989186Y1189786D01*
X2988098Y1188698D01*
X2989186Y1187609D01*
X2990274Y1188698D01*
X3010953Y1176073D02*
X3009865Y1179338D01*
X3006599Y1181515D01*
X3001158Y1182603D01*
X2997893D01*
X2992451Y1181515D01*
X2989186Y1179338D01*
X2988098Y1176073D01*
Y1173896D01*
X2989186Y1170631D01*
X2992451Y1168455D01*
X2997893Y1167366D01*
X3001158D01*
X3006599Y1168455D01*
X3009865Y1170631D01*
X3010953Y1173896D01*
Y1176073D01*
X2502953Y1207962D02*
Y1195990D01*
X2494246Y1202520D01*
Y1199255D01*
X2493158Y1197078D01*
X2492069Y1195990D01*
X2488804Y1194901D01*
X2486628D01*
X2483363Y1195990D01*
X2481186Y1198166D01*
X2480098Y1201431D01*
Y1204696D01*
X2481186Y1207962D01*
X2482274Y1209050D01*
X2484451Y1210138D01*
X2482274Y1188698D02*
X2481186Y1189786D01*
X2480098Y1188698D01*
X2481186Y1187609D01*
X2482274Y1188698D01*
X2502953Y1176073D02*
X2501864Y1179338D01*
X2498599Y1181515D01*
X2493158Y1182603D01*
X2489893D01*
X2484451Y1181515D01*
X2481186Y1179338D01*
X2480098Y1176073D01*
Y1173896D01*
X2481186Y1170631D01*
X2484451Y1168455D01*
X2489893Y1167366D01*
X2493158D01*
X2498599Y1168455D01*
X2501864Y1170631D01*
X2502953Y1173896D01*
Y1176073D01*
X1990599Y1210138D02*
X1991688Y1207962D01*
X1994953Y1204696D01*
X1972098D01*
X1974274Y1192289D02*
X1973186Y1193378D01*
X1972098Y1192289D01*
X1973186Y1191201D01*
X1974274Y1192289D01*
X1994953Y1179665D02*
X1993864Y1182930D01*
X1990599Y1185106D01*
X1985158Y1186195D01*
X1981893D01*
X1976451Y1185106D01*
X1973186Y1182930D01*
X1972098Y1179665D01*
Y1177488D01*
X1973186Y1174223D01*
X1976451Y1172046D01*
X1981893Y1170958D01*
X1985158D01*
X1990599Y1172046D01*
X1993864Y1174223D01*
X1994953Y1177488D01*
Y1179665D01*
X1740953Y1203608D02*
X1739864Y1206873D01*
X1736599Y1209050D01*
X1731158Y1210138D01*
X1727893D01*
X1722451Y1209050D01*
X1719186Y1206873D01*
X1718098Y1203608D01*
Y1201431D01*
X1719186Y1198166D01*
X1722451Y1195990D01*
X1727893Y1194901D01*
X1731158D01*
X1736599Y1195990D01*
X1739864Y1198166D01*
X1740953Y1201431D01*
Y1203608D01*
X2243511Y1209050D02*
X2244599D01*
X2246776Y1207962D01*
X2247864Y1206873D01*
X2248953Y1204696D01*
Y1200343D01*
X2247864Y1198166D01*
X2246776Y1197078D01*
X2244599Y1195990D01*
X2242423D01*
X2240246Y1197078D01*
X2236981Y1199255D01*
X2226098Y1210138D01*
Y1194901D01*
X2228274Y1188698D02*
X2227186Y1189786D01*
X2226098Y1188698D01*
X2227186Y1187609D01*
X2228274Y1188698D01*
X2248953Y1176073D02*
X2247864Y1179338D01*
X2244599Y1181515D01*
X2239158Y1182603D01*
X2235893D01*
X2230451Y1181515D01*
X2227186Y1179338D01*
X2226098Y1176073D01*
Y1173896D01*
X2227186Y1170631D01*
X2230451Y1168455D01*
X2235893Y1167366D01*
X2239158D01*
X2244599Y1168455D01*
X2247864Y1170631D01*
X2248953Y1173896D01*
Y1176073D01*
X2756953Y1199255D02*
X2741716Y1210138D01*
Y1193813D01*
X2756953Y1199255D02*
X2734098D01*
X2736274Y1188698D02*
X2735186Y1189786D01*
X2734098Y1188698D01*
X2735186Y1187609D01*
X2736274Y1188698D01*
X2756953Y1176073D02*
X2755864Y1179338D01*
X2752599Y1181515D01*
X2747158Y1182603D01*
X2743893D01*
X2738451Y1181515D01*
X2735186Y1179338D01*
X2734098Y1176073D01*
Y1173896D01*
X2735186Y1170631D01*
X2738451Y1168455D01*
X2743893Y1167366D01*
X2747158D01*
X2752599Y1168455D01*
X2755864Y1170631D01*
X2756953Y1173896D01*
Y1176073D01*
X3261688Y1197078D02*
X3263864Y1198166D01*
X3264953Y1201431D01*
Y1203608D01*
X3263864Y1206873D01*
X3260599Y1209050D01*
X3255158Y1210138D01*
X3249716D01*
X3245363Y1209050D01*
X3243186Y1206873D01*
X3242098Y1203608D01*
Y1202520D01*
X3243186Y1199255D01*
X3245363Y1197078D01*
X3248628Y1195990D01*
X3249716D01*
X3252981Y1197078D01*
X3255158Y1199255D01*
X3256246Y1202520D01*
Y1203608D01*
X3255158Y1206873D01*
X3252981Y1209050D01*
X3249716Y1210138D01*
X3244274Y1189895D02*
X3243186Y1190983D01*
X3242098Y1189895D01*
X3243186Y1188807D01*
X3244274Y1189895D01*
X3264953Y1177270D02*
X3263864Y1180535D01*
X3260599Y1182712D01*
X3255158Y1183800D01*
X3251893D01*
X3246451Y1182712D01*
X3243186Y1180535D01*
X3242098Y1177270D01*
Y1175094D01*
X3243186Y1171829D01*
X3246451Y1169652D01*
X3251893Y1168564D01*
X3255158D01*
X3260599Y1169652D01*
X3263864Y1171829D01*
X3264953Y1175094D01*
Y1177270D01*
X1683173Y1283793D02*
X1698409Y1260938D01*
Y1283793D02*
X1683173Y1260938D01*
X1664753Y1314913D02*
X1653869Y1306206D01*
X1641898D01*
X1664753Y1297500D02*
X1653869Y1306206D01*
X2690008Y1458418D02*
X2679124D01*
X2678036Y1448623D01*
X2679124Y1449711D01*
X2682390Y1450800D01*
X2685654D01*
X2688919Y1449711D01*
X2691096Y1447535D01*
X2692184Y1444270D01*
Y1442093D01*
X2691096Y1438828D01*
X2688919Y1436651D01*
X2685654Y1435563D01*
X2682390D01*
X2679124Y1436651D01*
X2678036Y1437740D01*
X2676948Y1439917D01*
X2697299Y1445358D02*
X2716890D01*
X2734521Y1458418D02*
Y1441005D01*
X2733433Y1437740D01*
X2732344Y1436651D01*
X2730168Y1435563D01*
X2727991D01*
X2725814Y1436651D01*
X2724726Y1437740D01*
X2723637Y1441005D01*
Y1443181D01*
X2740398Y1450800D02*
Y1439917D01*
X2741486Y1436651D01*
X2743663Y1435563D01*
X2746928D01*
X2749105Y1436651D01*
X2752370Y1439917D01*
Y1450800D02*
Y1435563D01*
X2758355Y1450800D02*
Y1435563D01*
Y1446447D02*
X2761620Y1449711D01*
X2763797Y1450800D01*
X2767062D01*
X2769239Y1449711D01*
X2770327Y1446447D01*
Y1435563D01*
X2776313Y1445358D02*
X2795903D01*
X2803739Y1452977D02*
Y1454065D01*
X2804827Y1456242D01*
X2805916Y1457330D01*
X2808093Y1458418D01*
X2812446D01*
X2814622Y1457330D01*
X2815711Y1456242D01*
X2816799Y1454065D01*
Y1451888D01*
X2815711Y1449711D01*
X2813534Y1446447D01*
X2802651Y1435563D01*
X2817888D01*
X2829533Y1458418D02*
X2826268Y1457330D01*
X2824091Y1454065D01*
X2823003Y1448623D01*
Y1445358D01*
X2824091Y1439917D01*
X2826268Y1436651D01*
X2829533Y1435563D01*
X2831709D01*
X2834974Y1436651D01*
X2837151Y1439917D01*
X2838239Y1445358D01*
Y1448623D01*
X2837151Y1454065D01*
X2834974Y1457330D01*
X2831709Y1458418D01*
X2829533D01*
X2843354Y1454065D02*
X2845531Y1455153D01*
X2848796Y1458418D01*
Y1435563D01*
X2861203Y1452977D02*
Y1454065D01*
X2862292Y1456242D01*
X2863380Y1457330D01*
X2865557Y1458418D01*
X2869910D01*
X2872087Y1457330D01*
X2873175Y1456242D01*
X2874263Y1454065D01*
Y1451888D01*
X2873175Y1449711D01*
X2870999Y1446447D01*
X2860115Y1435563D01*
X2875352D01*
X2701078Y1554303D02*
Y1531448D01*
X2716314Y1554303D02*
Y1531448D01*
X2701078Y1543420D02*
X2716314D01*
X2736775Y1554303D02*
X2722627D01*
Y1531448D01*
X2736775D01*
X2722627Y1543420D02*
X2731334D01*
X2740584Y1554303D02*
Y1531448D01*
Y1554303D02*
X2750379D01*
X2753644Y1553215D01*
X2754733Y1552127D01*
X2755821Y1549950D01*
Y1547773D01*
X2754733Y1545596D01*
X2753644Y1544508D01*
X2750379Y1543420D01*
X2740584D01*
X2748203D02*
X2755821Y1531448D01*
X2775085Y1554303D02*
X2760936D01*
Y1531448D01*
X2775085D01*
X2760936Y1543420D02*
X2769643D01*
X2701078Y1594943D02*
Y1572088D01*
X2714138D01*
X2723171Y1594943D02*
X2720994Y1593855D01*
X2718818Y1591678D01*
X2717729Y1589501D01*
X2716641Y1586237D01*
Y1580795D01*
X2717729Y1577530D01*
X2718818Y1575353D01*
X2720994Y1573177D01*
X2723171Y1572088D01*
X2727524D01*
X2729701Y1573177D01*
X2731878Y1575353D01*
X2732966Y1577530D01*
X2734054Y1580795D01*
Y1586237D01*
X2732966Y1589501D01*
X2731878Y1591678D01*
X2729701Y1593855D01*
X2727524Y1594943D01*
X2723171D01*
X2755712Y1589501D02*
X2754624Y1591678D01*
X2752447Y1593855D01*
X2750271Y1594943D01*
X2745917D01*
X2743741Y1593855D01*
X2741564Y1591678D01*
X2740475Y1589501D01*
X2739387Y1586237D01*
Y1580795D01*
X2740475Y1577530D01*
X2741564Y1575353D01*
X2743741Y1573177D01*
X2745917Y1572088D01*
X2750271D01*
X2752447Y1573177D01*
X2754624Y1575353D01*
X2755712Y1577530D01*
Y1580795D01*
X2750271D02*
X2755712D01*
X2767466Y1594943D02*
X2765290Y1593855D01*
X2763113Y1591678D01*
X2762025Y1589501D01*
X2760936Y1586237D01*
Y1580795D01*
X2762025Y1577530D01*
X2763113Y1575353D01*
X2765290Y1573177D01*
X2767466Y1572088D01*
X2771820D01*
X2773996Y1573177D01*
X2776173Y1575353D01*
X2777261Y1577530D01*
X2778350Y1580795D01*
Y1586237D01*
X2777261Y1589501D01*
X2776173Y1591678D01*
X2773996Y1593855D01*
X2771820Y1594943D01*
X2767466D01*
X2701078Y1618531D02*
X2710873D01*
X2714138Y1619620D01*
X2715226Y1620708D01*
X2716314Y1622885D01*
Y1626150D01*
X2715226Y1628327D01*
X2714138Y1629415D01*
X2710873Y1630503D01*
X2701078D01*
Y1607648D01*
X2721430Y1630503D02*
Y1607648D01*
X2734490D01*
X2754406D02*
X2745699Y1630503D01*
X2736993Y1607648D01*
X2740258Y1615267D02*
X2751141D01*
X2776064Y1625061D02*
X2774976Y1627238D01*
X2772799Y1629415D01*
X2770623Y1630503D01*
X2766269D01*
X2764092Y1629415D01*
X2761916Y1627238D01*
X2760827Y1625061D01*
X2759739Y1621797D01*
Y1616355D01*
X2760827Y1613090D01*
X2761916Y1610913D01*
X2764092Y1608737D01*
X2766269Y1607648D01*
X2770623D01*
X2772799Y1608737D01*
X2774976Y1610913D01*
X2776064Y1613090D01*
X2796634Y1630503D02*
X2782485D01*
Y1607648D01*
X2796634D01*
X2782485Y1619620D02*
X2791192D01*
X2553303Y1458418D02*
X2550038Y1457330D01*
X2547861Y1454065D01*
X2546773Y1448623D01*
Y1445358D01*
X2547861Y1439917D01*
X2550038Y1436651D01*
X2553303Y1435563D01*
X2555479D01*
X2558744Y1436651D01*
X2560921Y1439917D01*
X2562009Y1445358D01*
Y1448623D01*
X2560921Y1454065D01*
X2558744Y1457330D01*
X2555479Y1458418D01*
X2553303D01*
X2567125Y1454065D02*
X2569301Y1455153D01*
X2572566Y1458418D01*
Y1435563D01*
X2368336Y1391743D02*
Y1368888D01*
X2360718Y1391743D02*
X2375954D01*
X2384117Y1384125D02*
X2381940Y1383036D01*
X2379764Y1380860D01*
X2378675Y1377595D01*
Y1375418D01*
X2379764Y1372153D01*
X2381940Y1369977D01*
X2384117Y1368888D01*
X2387382D01*
X2389559Y1369977D01*
X2391735Y1372153D01*
X2392824Y1375418D01*
Y1377595D01*
X2391735Y1380860D01*
X2389559Y1383036D01*
X2387382Y1384125D01*
X2384117D01*
X2397830D02*
Y1361270D01*
Y1380860D02*
X2400007Y1383036D01*
X2402183Y1384125D01*
X2405448D01*
X2407625Y1383036D01*
X2409802Y1380860D01*
X2410890Y1377595D01*
Y1375418D01*
X2409802Y1372153D01*
X2407625Y1369977D01*
X2405448Y1368888D01*
X2402183D01*
X2400007Y1369977D01*
X2397830Y1372153D01*
X2415788Y1391743D02*
Y1368888D01*
X2428848D01*
X2444411Y1384125D02*
Y1368888D01*
Y1380860D02*
X2442234Y1383036D01*
X2440058Y1384125D01*
X2436792D01*
X2434616Y1383036D01*
X2432439Y1380860D01*
X2431351Y1377595D01*
Y1375418D01*
X2432439Y1372153D01*
X2434616Y1369977D01*
X2436792Y1368888D01*
X2440058D01*
X2442234Y1369977D01*
X2444411Y1372153D01*
X2451594Y1384125D02*
X2458124Y1368888D01*
X2464654Y1384125D02*
X2458124Y1368888D01*
X2455947Y1364535D01*
X2453771Y1362358D01*
X2451594Y1361270D01*
X2450506D01*
X2468463Y1377595D02*
X2481523D01*
Y1379772D01*
X2480435Y1381948D01*
X2479346Y1383036D01*
X2477170Y1384125D01*
X2473905D01*
X2471728Y1383036D01*
X2469552Y1380860D01*
X2468463Y1377595D01*
Y1375418D01*
X2469552Y1372153D01*
X2471728Y1369977D01*
X2473905Y1368888D01*
X2477170D01*
X2479346Y1369977D01*
X2481523Y1372153D01*
X2486421Y1384125D02*
Y1368888D01*
Y1377595D02*
X2487509Y1380860D01*
X2489686Y1383036D01*
X2491862Y1384125D01*
X2495127D01*
X1933998Y1379772D02*
X1943793D01*
X1947058Y1380860D01*
X1948146Y1381948D01*
X1949234Y1384125D01*
Y1387390D01*
X1948146Y1389567D01*
X1947058Y1390655D01*
X1943793Y1391743D01*
X1933998D01*
Y1368888D01*
X1970675Y1386302D02*
X1969586Y1388478D01*
X1967410Y1390655D01*
X1965233Y1391743D01*
X1960880D01*
X1958703Y1390655D01*
X1956526Y1388478D01*
X1955438Y1386302D01*
X1954350Y1383036D01*
Y1377595D01*
X1955438Y1374330D01*
X1956526Y1372153D01*
X1958703Y1369977D01*
X1960880Y1368888D01*
X1965233D01*
X1967410Y1369977D01*
X1969586Y1372153D01*
X1970675Y1374330D01*
X1977096Y1391743D02*
Y1368888D01*
Y1391743D02*
X1986891D01*
X1990156Y1390655D01*
X1991244Y1389567D01*
X1992333Y1387390D01*
Y1385213D01*
X1991244Y1383036D01*
X1990156Y1381948D01*
X1986891Y1380860D01*
X1977096D02*
X1986891D01*
X1990156Y1379772D01*
X1991244Y1378683D01*
X1992333Y1376507D01*
Y1373241D01*
X1991244Y1371065D01*
X1990156Y1369977D01*
X1986891Y1368888D01*
X1977096D01*
X1997448Y1387390D02*
X1999624Y1388478D01*
X2002890Y1391743D01*
Y1368888D01*
X2015297Y1371065D02*
X2014208Y1369977D01*
X2015297Y1368888D01*
X2016385Y1369977D01*
X2015297Y1371065D01*
X2021391Y1379772D02*
X2031186D01*
X2034451Y1380860D01*
X2035540Y1381948D01*
X2036628Y1384125D01*
Y1387390D01*
X2035540Y1389567D01*
X2034451Y1390655D01*
X2031186Y1391743D01*
X2021391D01*
Y1368888D01*
X2058068Y1386302D02*
X2056980Y1388478D01*
X2054803Y1390655D01*
X2052627Y1391743D01*
X2048273D01*
X2046096Y1390655D01*
X2043920Y1388478D01*
X2042832Y1386302D01*
X2041743Y1383036D01*
Y1377595D01*
X2042832Y1374330D01*
X2043920Y1372153D01*
X2046096Y1369977D01*
X2048273Y1368888D01*
X2052627D01*
X2054803Y1369977D01*
X2056980Y1372153D01*
X2058068Y1374330D01*
X2064489Y1391743D02*
Y1368888D01*
Y1391743D02*
X2074285D01*
X2077549Y1390655D01*
X2078638Y1389567D01*
X2079726Y1387390D01*
Y1385213D01*
X2078638Y1383036D01*
X2077549Y1381948D01*
X2074285Y1380860D01*
X2064489D02*
X2074285D01*
X2077549Y1379772D01*
X2078638Y1378683D01*
X2079726Y1376507D01*
Y1373241D01*
X2078638Y1371065D01*
X2077549Y1369977D01*
X2074285Y1368888D01*
X2064489D01*
X2233896Y1556843D02*
X2219748D01*
Y1533988D01*
X2233896D01*
X2219748Y1545960D02*
X2228454D01*
X2237705Y1556843D02*
X2252942Y1533988D01*
Y1556843D02*
X2237705Y1533988D01*
X2265676Y1556843D02*
Y1533988D01*
X2258057Y1556843D02*
X2273294D01*
X2276015Y1526370D02*
X2293428D01*
X2296367Y1556843D02*
Y1533988D01*
X2311603Y1556843D02*
Y1533988D01*
X2296367Y1545960D02*
X2311603D01*
X2317916Y1556843D02*
Y1533988D01*
Y1556843D02*
X2325534D01*
X2328799Y1555755D01*
X2330976Y1553578D01*
X2332064Y1551402D01*
X2333152Y1548136D01*
Y1542695D01*
X2332064Y1539430D01*
X2330976Y1537253D01*
X2328799Y1535076D01*
X2325534Y1533988D01*
X2317916D01*
X2338268Y1556843D02*
Y1533988D01*
Y1556843D02*
X2346974Y1533988D01*
X2355681Y1556843D02*
X2346974Y1533988D01*
X2355681Y1556843D02*
Y1533988D01*
X2362211Y1556843D02*
Y1533988D01*
X2101636Y1647013D02*
Y1624158D01*
X2094018Y1647013D02*
X2109254D01*
X2125035Y1639395D02*
Y1624158D01*
Y1636130D02*
X2122859Y1638306D01*
X2120682Y1639395D01*
X2117417D01*
X2115240Y1638306D01*
X2113064Y1636130D01*
X2111975Y1632865D01*
Y1630688D01*
X2113064Y1627423D01*
X2115240Y1625246D01*
X2117417Y1624158D01*
X2120682D01*
X2122859Y1625246D01*
X2125035Y1627423D01*
X2144190Y1636130D02*
X2142013Y1638306D01*
X2139837Y1639395D01*
X2136572D01*
X2134395Y1638306D01*
X2132218Y1636130D01*
X2131130Y1632865D01*
Y1630688D01*
X2132218Y1627423D01*
X2134395Y1625246D01*
X2136572Y1624158D01*
X2139837D01*
X2142013Y1625246D01*
X2144190Y1627423D01*
X2149088Y1647013D02*
Y1624158D01*
Y1635042D02*
X2152353Y1638306D01*
X2154529Y1639395D01*
X2157794D01*
X2159971Y1638306D01*
X2161059Y1635042D01*
Y1624158D01*
X2168134Y1639395D02*
X2174664Y1624158D01*
X2181194Y1639395D02*
X2174664Y1624158D01*
X2172487Y1619805D01*
X2170310Y1617628D01*
X2168134Y1616540D01*
X2167045D01*
X2196974Y1636130D02*
X2195886Y1638306D01*
X2192621Y1639395D01*
X2189356D01*
X2186091Y1638306D01*
X2185003Y1636130D01*
X2186091Y1633953D01*
X2188268Y1632865D01*
X2193709Y1631776D01*
X2195886Y1630688D01*
X2196974Y1628512D01*
Y1627423D01*
X2195886Y1625246D01*
X2192621Y1624158D01*
X2189356D01*
X2186091Y1625246D01*
X2185003Y1627423D01*
X2213735Y1636130D02*
X2212646Y1638306D01*
X2209382Y1639395D01*
X2206116D01*
X2202852Y1638306D01*
X2201763Y1636130D01*
X2202852Y1633953D01*
X2205028Y1632865D01*
X2210470Y1631776D01*
X2212646Y1630688D01*
X2213735Y1628512D01*
Y1627423D01*
X2212646Y1625246D01*
X2209382Y1624158D01*
X2206116D01*
X2202852Y1625246D01*
X2201763Y1627423D01*
X2218524Y1632865D02*
X2231584D01*
Y1635042D01*
X2230495Y1637218D01*
X2229407Y1638306D01*
X2227230Y1639395D01*
X2223965D01*
X2221789Y1638306D01*
X2219612Y1636130D01*
X2218524Y1632865D01*
Y1630688D01*
X2219612Y1627423D01*
X2221789Y1625246D01*
X2223965Y1624158D01*
X2227230D01*
X2229407Y1625246D01*
X2231584Y1627423D01*
X2236481Y1639395D02*
Y1624158D01*
Y1635042D02*
X2239746Y1638306D01*
X2241923Y1639395D01*
X2245188D01*
X2247365Y1638306D01*
X2248453Y1635042D01*
Y1624158D01*
Y1635042D02*
X2251718Y1638306D01*
X2253895Y1639395D01*
X2257159D01*
X2259336Y1638306D01*
X2260425Y1635042D01*
Y1624158D01*
X2280668Y1639395D02*
Y1624158D01*
Y1636130D02*
X2278491Y1638306D01*
X2276314Y1639395D01*
X2273049D01*
X2270873Y1638306D01*
X2268696Y1636130D01*
X2267608Y1632865D01*
Y1630688D01*
X2268696Y1627423D01*
X2270873Y1625246D01*
X2273049Y1624158D01*
X2276314D01*
X2278491Y1625246D01*
X2280668Y1627423D01*
D27*
X2520252Y2189805D02*
X2517713Y2187266D01*
Y2182187D01*
X2520252Y2179648D01*
X2530408D01*
X2532948Y2182187D01*
Y2187266D01*
X2530408Y2189805D01*
X2525330D01*
Y2184727D01*
X2532948Y2194883D02*
X2517713D01*
X2532948Y2205040D01*
X2517713D01*
Y2210118D02*
X2532948D01*
Y2217736D01*
X2530408Y2220275D01*
X2520252D01*
X2517713Y2217736D01*
Y2210118D01*
X2058448Y2698133D02*
Y2682898D01*
Y2690516D01*
X2068604D01*
Y2698133D01*
Y2682898D01*
X2083840Y2698133D02*
X2073683D01*
Y2682898D01*
X2083840D01*
X2073683Y2690516D02*
X2078761D01*
X2088918Y2695594D02*
X2091457Y2698133D01*
X2096535D01*
X2099075Y2695594D01*
Y2693055D01*
X2096535Y2690516D01*
X2093996D01*
X2096535D01*
X2099075Y2687976D01*
Y2685437D01*
X2096535Y2682898D01*
X2091457D01*
X2088918Y2685437D01*
X2412948Y2700633D02*
Y2685398D01*
Y2693016D01*
X2423104D01*
Y2700633D01*
Y2685398D01*
X2438340Y2700633D02*
X2428183D01*
Y2685398D01*
X2438340D01*
X2428183Y2693016D02*
X2433261D01*
X2443418Y2685398D02*
X2448496D01*
X2445957D01*
Y2700633D01*
X2443418Y2698094D01*
X2080448Y2000133D02*
Y1984898D01*
Y1992516D01*
X2090604D01*
Y2000133D01*
Y1984898D01*
X2105840Y2000133D02*
X2095683D01*
Y1984898D01*
X2105840D01*
X2095683Y1992516D02*
X2100761D01*
X2118535Y1984898D02*
Y2000133D01*
X2110918Y1992516D01*
X2121075D01*
X2400198Y1999133D02*
Y1983898D01*
Y1991516D01*
X2410354D01*
Y1999133D01*
Y1983898D01*
X2425589Y1999133D02*
X2415433D01*
Y1983898D01*
X2425589D01*
X2415433Y1991516D02*
X2420511D01*
X2440825Y1983898D02*
X2430668D01*
X2440825Y1994055D01*
Y1996594D01*
X2438285Y1999133D01*
X2433207D01*
X2430668Y1996594D01*
X2449463Y2289305D02*
Y2284227D01*
Y2286766D01*
X2462159D01*
X2464698Y2284227D01*
Y2281687D01*
X2462159Y2279148D01*
X2464698Y2294383D02*
Y2299462D01*
Y2296922D01*
X2449463D01*
X2452002Y2294383D01*
X2173183Y2382648D02*
X2160487D01*
X2157948Y2380109D01*
Y2375031D01*
X2160487Y2372491D01*
X2173183D01*
X2157948Y2367413D02*
Y2362335D01*
Y2364874D01*
X2173183D01*
X2170644Y2367413D01*
X1984463Y2560898D02*
X1997159D01*
X1999698Y2563437D01*
Y2568516D01*
X1997159Y2571055D01*
X1984463D01*
X1999698Y2576133D02*
Y2581212D01*
Y2578672D01*
X1984463D01*
X1987002Y2576133D01*
Y2588829D02*
X1984463Y2591368D01*
Y2596447D01*
X1987002Y2598986D01*
X1997159D01*
X1999698Y2596447D01*
Y2591368D01*
X1997159Y2588829D01*
X1987002D01*
X2336948Y2586383D02*
Y2573687D01*
X2339487Y2571148D01*
X2344565D01*
X2347104Y2573687D01*
Y2586383D01*
X2352183Y2573687D02*
X2354722Y2571148D01*
X2359800D01*
X2362339Y2573687D01*
Y2583844D01*
X2359800Y2586383D01*
X2354722D01*
X2352183Y2583844D01*
Y2581305D01*
X2354722Y2578766D01*
X2362339D01*
X1989463Y2322055D02*
Y2316976D01*
Y2319516D01*
X2002159D01*
X2004698Y2316976D01*
Y2314437D01*
X2002159Y2311898D01*
X2004698Y2337290D02*
Y2327133D01*
X1994541Y2337290D01*
X1992002D01*
X1989463Y2334751D01*
Y2329672D01*
X1992002Y2327133D01*
X2393463Y2064898D02*
Y2075055D01*
Y2069977D01*
X2408698D01*
X2398541Y2082672D02*
Y2087751D01*
X2401080Y2090290D01*
X2408698D01*
Y2082672D01*
X2406158Y2080133D01*
X2403619Y2082672D01*
Y2090290D01*
X2398541Y2105525D02*
Y2097908D01*
X2401080Y2095368D01*
X2406158D01*
X2408698Y2097908D01*
Y2105525D01*
X2393463Y2110603D02*
X2408698D01*
X2401080D01*
X2398541Y2113143D01*
Y2118221D01*
X2401080Y2120760D01*
X2408698D01*
X2398541Y2125838D02*
X2406158D01*
X2408698Y2128378D01*
Y2135995D01*
X2411237D01*
X2413776Y2133456D01*
Y2130917D01*
X2408698Y2135995D02*
X2398541D01*
X2408698Y2141073D02*
Y2148691D01*
X2406158Y2151230D01*
X2403619Y2148691D01*
Y2143613D01*
X2401080Y2141073D01*
X2398541Y2143613D01*
Y2151230D01*
X2408698Y2156309D02*
Y2163926D01*
X2406158Y2166465D01*
X2403619Y2163926D01*
Y2158848D01*
X2401080Y2156309D01*
X2398541Y2158848D01*
Y2166465D01*
X2408698Y2179161D02*
Y2174083D01*
X2406158Y2171544D01*
X2401080D01*
X2398541Y2174083D01*
Y2179161D01*
X2401080Y2181700D01*
X2403619D01*
Y2171544D01*
X2408698Y2186779D02*
X2398541D01*
Y2189318D01*
X2401080Y2191857D01*
X2408698D01*
X2401080D01*
X2398541Y2194396D01*
X2401080Y2196935D01*
X2408698D01*
X2398541Y2204553D02*
Y2209631D01*
X2401080Y2212171D01*
X2408698D01*
Y2204553D01*
X2406158Y2202014D01*
X2403619Y2204553D01*
Y2212171D01*
X2394198Y2172648D02*
X2387533Y2179313D01*
X2423713Y2079055D02*
Y2068898D01*
X2438948D01*
Y2079055D01*
X2431330Y2068898D02*
Y2073976D01*
X2423713Y2084133D02*
X2438948Y2094290D01*
X2423713D02*
X2438948Y2084133D01*
X2423713Y2099368D02*
Y2109525D01*
Y2104447D01*
X2438948D01*
Y2114603D02*
Y2119682D01*
Y2117143D01*
X2423713D01*
X2426252Y2114603D01*
X2438948Y2127299D02*
Y2132378D01*
Y2129838D01*
X2423713D01*
X2426252Y2127299D01*
X2438948Y2155230D02*
Y2160309D01*
Y2157769D01*
X2423713D01*
X2426252Y2155230D01*
X2438948Y2178083D02*
Y2167926D01*
X2428791Y2178083D01*
X2426252D01*
X2423713Y2175544D01*
Y2170465D01*
X2426252Y2167926D01*
X2438948Y2193318D02*
Y2183161D01*
X2428791Y2193318D01*
X2426252D01*
X2423713Y2190779D01*
Y2185700D01*
X2426252Y2183161D01*
X2438948Y2198396D02*
Y2203475D01*
Y2200935D01*
X2423713D01*
X2426252Y2198396D01*
X1832398Y1673688D02*
X1829908Y1673566D01*
X1827442Y1673200D01*
X1825024Y1672594D01*
X1822677Y1671755D01*
X1820424Y1670689D01*
X1818286Y1669408D01*
X1816284Y1667923D01*
X1814437Y1666249D01*
X1812763Y1664402D01*
X1811278Y1662400D01*
X1809997Y1660262D01*
X1808931Y1658008D01*
X1808091Y1655661D01*
X1807486Y1653243D01*
X1807120Y1650778D01*
X1806998Y1648288D01*
Y1369142D02*
X1807119Y1366655D01*
X1807480Y1364192D01*
X1808078Y1361776D01*
X1808908Y1359428D01*
X1809961Y1357173D01*
X1811228Y1355029D01*
X1812697Y1353019D01*
X1814354Y1351161D01*
X1816183Y1349472D01*
X1818167Y1347968D01*
X1820288Y1346664D01*
X1822525Y1345571D01*
X1824857Y1344701D01*
X1827263Y1344060D01*
X1829720Y1343656D01*
X1832204Y1343492D01*
X2899198Y1343488D02*
X2901687Y1343610D01*
X2904153Y1343976D01*
X2906571Y1344582D01*
X2908918Y1345422D01*
X2911171Y1346487D01*
X2913309Y1347769D01*
X2915311Y1349254D01*
X2917158Y1350928D01*
X2918832Y1352775D01*
X2920317Y1354777D01*
X2921599Y1356915D01*
X2922664Y1359168D01*
X2923504Y1361515D01*
X2924109Y1363933D01*
X2924475Y1366398D01*
X2924598Y1368888D01*
Y1648288D02*
X2924475Y1650778D01*
X2924109Y1653243D01*
X2923504Y1655661D01*
X2922664Y1658008D01*
X2921599Y1660262D01*
X2920317Y1662400D01*
X2918832Y1664402D01*
X2917158Y1666249D01*
X2915311Y1667923D01*
X2913309Y1669408D01*
X2911171Y1670689D01*
X2908918Y1671755D01*
X2906571Y1672594D01*
X2904153Y1673200D01*
X2901687Y1673566D01*
X2899198Y1673688D01*
X1832398Y1343488D02*
X2899198D01*
X1832398Y1673688D02*
X2899198D01*
X2924598Y1368888D02*
Y1648288D01*
X1806998Y1368888D02*
Y1648288D01*
D28*
X3521500Y1349836D02*
X3521240Y1352392D01*
X3520471Y1354844D01*
X3519224Y1357091D01*
X3517550Y1359041D01*
X3515518Y1360613D01*
X3513211Y1361745D01*
X3510723Y1362389D01*
X3508157Y1362519D01*
X3505617Y1362130D01*
X3503207Y1361238D01*
X3501027Y1359879D01*
X3499164Y1358108D01*
X3497696Y1355999D01*
X3496683Y1353638D01*
X3496165Y1351120D01*
Y1348551D01*
X3496683Y1346034D01*
X3497696Y1343672D01*
X3499164Y1341563D01*
X3501027Y1339793D01*
X3503207Y1338434D01*
X3505617Y1337541D01*
X3508157Y1337152D01*
X3510723Y1337282D01*
X3513211Y1337926D01*
X3515518Y1339058D01*
X3517550Y1340631D01*
X3519224Y1342581D01*
X3520471Y1344827D01*
X3521240Y1347279D01*
X3521500Y1349836D01*
X3527850D02*
X3527680Y1352375D01*
X3527173Y1354868D01*
X3526339Y1357272D01*
X3525191Y1359544D01*
X3523751Y1361642D01*
X3522043Y1363529D01*
X3520100Y1365172D01*
X3517955Y1366541D01*
X3515647Y1367613D01*
X3513216Y1368367D01*
X3510707Y1368790D01*
X3508164Y1368875D01*
X3505632Y1368620D01*
X3503156Y1368030D01*
X3500781Y1367116D01*
X3498550Y1365893D01*
X3496501Y1364383D01*
X3494672Y1362614D01*
X3493094Y1360617D01*
X3491798Y1358427D01*
X3490804Y1356084D01*
X3490132Y1353630D01*
X3489793Y1351108D01*
Y1348563D01*
X3490132Y1346041D01*
X3490804Y1343587D01*
X3491798Y1341244D01*
X3493094Y1339054D01*
X3494672Y1337057D01*
X3496501Y1335288D01*
X3498550Y1333779D01*
X3500781Y1332556D01*
X3503156Y1331641D01*
X3505632Y1331051D01*
X3508164Y1330796D01*
X3510707Y1330881D01*
X3513216Y1331305D01*
X3515647Y1332059D01*
X3517955Y1333130D01*
X3520100Y1334499D01*
X3522044Y1336142D01*
X3523751Y1338029D01*
X3525191Y1340127D01*
X3526339Y1342399D01*
X3527173Y1344803D01*
X3527680Y1347296D01*
X3527850Y1349836D01*
X3509435D02*
X3508165D01*
X3509435D01*
X3510070D02*
X3508165Y1350935D01*
Y1348736D01*
X3510070Y1349836D01*
X3513880D02*
X3513298Y1352196D01*
X3511686Y1354016D01*
X3509413Y1354879D01*
X3506999Y1354586D01*
X3504998Y1353204D01*
X3503868Y1351051D01*
Y1348620D01*
X3504998Y1346467D01*
X3506999Y1345086D01*
X3509413Y1344793D01*
X3511686Y1345655D01*
X3513298Y1347475D01*
X3513880Y1349836D01*
X3512610D02*
X3511719Y1352285D01*
X3509462Y1353588D01*
X3506895Y1353135D01*
X3505220Y1351139D01*
Y1348533D01*
X3506895Y1346536D01*
X3509462Y1346084D01*
X3511719Y1347387D01*
X3512610Y1349836D01*
X3511340D02*
X3510070Y1352035D01*
X3507530D01*
X3506260Y1349836D01*
X3507530Y1347636D01*
X3510070D01*
X3511340Y1349836D01*
X1749848Y2873838D02*
X1749678Y2876377D01*
X1749171Y2878871D01*
X1748336Y2881275D01*
X1747188Y2883546D01*
X1745748Y2885645D01*
X1744041Y2887532D01*
X1742098Y2889175D01*
X1739953Y2890544D01*
X1737644Y2891615D01*
X1735214Y2892369D01*
X1732704Y2892792D01*
X1730161Y2892878D01*
X1727629Y2892623D01*
X1725154Y2892033D01*
X1722779Y2891118D01*
X1720547Y2889895D01*
X1718499Y2888386D01*
X1716669Y2886617D01*
X1715092Y2884619D01*
X1713795Y2882430D01*
X1712802Y2880087D01*
X1712129Y2877633D01*
X1711790Y2875110D01*
Y2872566D01*
X1712129Y2870044D01*
X1712802Y2867589D01*
X1713795Y2865246D01*
X1715092Y2863057D01*
X1716669Y2861060D01*
X1718499Y2859290D01*
X1720547Y2857781D01*
X1722779Y2856558D01*
X1725154Y2855643D01*
X1727629Y2855053D01*
X1730161Y2854799D01*
X1732704Y2854884D01*
X1735214Y2855307D01*
X1737644Y2856061D01*
X1739953Y2857132D01*
X1742098Y2858502D01*
X1744041Y2860145D01*
X1745748Y2862032D01*
X1747188Y2864130D01*
X1748336Y2866401D01*
X1749171Y2868805D01*
X1749678Y2871299D01*
X1749848Y2873838D01*
X1731433D02*
X1730163D01*
X1731433D01*
X1732068D02*
X1730163Y2874938D01*
Y2872738D01*
X1732068Y2873838D01*
X1733338D02*
X1732068Y2876038D01*
X1729528D01*
X1728258Y2873838D01*
X1729528Y2871638D01*
X1732068D01*
X1733338Y2873838D01*
X1734608D02*
X1733716Y2876287D01*
X1731459Y2877590D01*
X1728893Y2877138D01*
X1727217Y2875141D01*
Y2872535D01*
X1728893Y2870539D01*
X1731459Y2870086D01*
X1733716Y2871389D01*
X1734608Y2873838D01*
X1735878D02*
X1735296Y2876199D01*
X1733683Y2878019D01*
X1731410Y2878881D01*
X1728996Y2878588D01*
X1726995Y2877207D01*
X1725865Y2875054D01*
Y2872622D01*
X1726995Y2870469D01*
X1728996Y2869088D01*
X1731410Y2868795D01*
X1733683Y2869657D01*
X1735296Y2871477D01*
X1735878Y2873838D01*
X1743498D02*
X1743238Y2876395D01*
X1742468Y2878846D01*
X1741221Y2881093D01*
X1739547Y2883043D01*
X1737516Y2884616D01*
X1735208Y2885748D01*
X1732721Y2886392D01*
X1730154Y2886522D01*
X1727614Y2886133D01*
X1725205Y2885240D01*
X1723024Y2883881D01*
X1721161Y2882111D01*
X1719693Y2880002D01*
X1718680Y2877640D01*
X1718163Y2875123D01*
Y2872553D01*
X1718680Y2870036D01*
X1719693Y2867675D01*
X1721161Y2865566D01*
X1723024Y2863795D01*
X1725205Y2862436D01*
X1727614Y2861544D01*
X1730154Y2861154D01*
X1732721Y2861284D01*
X1735208Y2861929D01*
X1737516Y2863060D01*
X1739548Y2864633D01*
X1741221Y2866583D01*
X1742468Y2868830D01*
X1743238Y2871282D01*
X1743498Y2873838D01*
X1743500Y1349836D02*
X1743240Y1352392D01*
X1742471Y1354844D01*
X1741224Y1357091D01*
X1739550Y1359041D01*
X1737518Y1360613D01*
X1735211Y1361745D01*
X1732723Y1362389D01*
X1730157Y1362519D01*
X1727617Y1362130D01*
X1725207Y1361238D01*
X1723026Y1359879D01*
X1721164Y1358108D01*
X1719696Y1355999D01*
X1718683Y1353638D01*
X1718165Y1351120D01*
Y1348551D01*
X1718683Y1346034D01*
X1719696Y1343672D01*
X1721164Y1341563D01*
X1723026Y1339793D01*
X1725207Y1338434D01*
X1727617Y1337541D01*
X1730157Y1337152D01*
X1732723Y1337282D01*
X1735211Y1337926D01*
X1737518Y1339058D01*
X1739550Y1340631D01*
X1741224Y1342581D01*
X1742471Y1344827D01*
X1743240Y1347279D01*
X1743500Y1349836D01*
X1749850D02*
X1749680Y1352375D01*
X1749173Y1354868D01*
X1748339Y1357272D01*
X1747191Y1359544D01*
X1745751Y1361642D01*
X1744044Y1363529D01*
X1742100Y1365172D01*
X1739955Y1366541D01*
X1737647Y1367613D01*
X1735216Y1368367D01*
X1732707Y1368790D01*
X1730164Y1368875D01*
X1727632Y1368620D01*
X1725156Y1368030D01*
X1722781Y1367116D01*
X1720550Y1365893D01*
X1718501Y1364383D01*
X1716672Y1362614D01*
X1715095Y1360617D01*
X1713798Y1358427D01*
X1712804Y1356084D01*
X1712132Y1353630D01*
X1711793Y1351108D01*
Y1348563D01*
X1712132Y1346041D01*
X1712804Y1343587D01*
X1713798Y1341244D01*
X1715095Y1339054D01*
X1716672Y1337057D01*
X1718501Y1335288D01*
X1720550Y1333779D01*
X1722781Y1332556D01*
X1725156Y1331641D01*
X1727632Y1331051D01*
X1730164Y1330796D01*
X1732707Y1330881D01*
X1735216Y1331305D01*
X1737647Y1332059D01*
X1739955Y1333130D01*
X1742100Y1334499D01*
X1744044Y1336142D01*
X1745751Y1338029D01*
X1747191Y1340127D01*
X1748339Y1342399D01*
X1749173Y1344803D01*
X1749680Y1347296D01*
X1749850Y1349836D01*
X1731435D02*
X1730165D01*
X1731435D01*
X1732070D02*
X1730165Y1350935D01*
Y1348736D01*
X1732070Y1349836D01*
X1735880D02*
X1735298Y1352196D01*
X1733686Y1354016D01*
X1731413Y1354879D01*
X1728999Y1354586D01*
X1726998Y1353204D01*
X1725868Y1351051D01*
Y1348620D01*
X1726998Y1346467D01*
X1728999Y1345086D01*
X1731413Y1344793D01*
X1733686Y1345655D01*
X1735298Y1347475D01*
X1735880Y1349836D01*
X1733340D02*
X1732070Y1352035D01*
X1729530D01*
X1728260Y1349836D01*
X1729530Y1347636D01*
X1732070D01*
X1733340Y1349836D01*
X1734610D02*
X1733719Y1352285D01*
X1731462Y1353588D01*
X1728895Y1353135D01*
X1727220Y1351139D01*
Y1348533D01*
X1728895Y1346536D01*
X1731462Y1346084D01*
X1733719Y1347387D01*
X1734610Y1349836D01*
X1749850D02*
X1762550D01*
X1673650D02*
X1711750D01*
X1654598Y1273638D02*
X1673648D01*
X1648248Y1330788D02*
X1660948D01*
X1650915Y1332820D02*
X1658281D01*
X1652185Y1333709D02*
X1657011D01*
X1649645Y1331931D02*
X1659551D01*
X1653455Y1334598D02*
X1655741D01*
X1705398Y1273638D02*
X1711748D01*
X1603798Y1349838D02*
X1654598D01*
X1635548Y1375238D02*
X1654598D01*
X1635548Y1400638D02*
X1654598D01*
X1635548Y1426038D02*
X1654598D01*
X1635548Y1451438D02*
X1654598D01*
X1616498Y1476838D02*
X1654598D01*
X1635548Y1502238D02*
X1654598D01*
X1635548Y1527638D02*
X1654598D01*
X1635548Y1553038D02*
X1654598D01*
X1635548Y1578438D02*
X1654598D01*
X1603798Y1603838D02*
X1654598D01*
X1635548Y1629238D02*
X1654598D01*
X1635548Y1654638D02*
X1654598D01*
X1635548Y1680038D02*
X1654598D01*
X1635548Y1705438D02*
X1654598D01*
X1616498Y1730838D02*
X1654598D01*
X1635548Y1756238D02*
X1654598D01*
X1635548Y1781638D02*
X1654598D01*
X1635548Y1807038D02*
X1654598D01*
X1635548Y1832438D02*
X1654598D01*
X1603798Y1857838D02*
X1654598D01*
X1635548Y1883238D02*
X1654598D01*
X1635548Y1908638D02*
X1654598D01*
X1635548Y1934038D02*
X1654598D01*
X1635548Y1959438D02*
X1654598D01*
X1616498Y1984838D02*
X1654598D01*
X1635548Y2010238D02*
X1654598D01*
X1635548Y2035638D02*
X1654598D01*
X1635548Y2061038D02*
X1654598D01*
X1635548Y2086438D02*
X1654598D01*
X1603798Y2111838D02*
X1654598D01*
X1635548Y2137238D02*
X1654598D01*
X1635548Y2162638D02*
X1654598D01*
X1635548Y2188038D02*
X1654598D01*
X1635548Y2213438D02*
X1654598D01*
X1616498Y2238838D02*
X1654598D01*
X1635548Y2264238D02*
X1654598D01*
X1635548Y2289638D02*
X1654598D01*
X1635548Y2315038D02*
X1654598D01*
X1635548Y2340438D02*
X1654598D01*
X1603798Y2365838D02*
X1654598D01*
X1635548Y2391238D02*
X1654598D01*
X1635548Y2416638D02*
X1654598D01*
X1635548Y2442038D02*
X1654598D01*
X1635548Y2467438D02*
X1654598D01*
X1616498Y2492838D02*
X1654598D01*
X1635548Y2518238D02*
X1654598D01*
X1635548Y2543638D02*
X1654598D01*
X1635548Y2569038D02*
X1654598D01*
X1635548Y2594438D02*
X1654598D01*
X1603798Y2619838D02*
X1654598D01*
X1635548Y2645238D02*
X1654598D01*
X1635548Y2670638D02*
X1654598D01*
X1635548Y2696038D02*
X1654598D01*
X1635548Y2721438D02*
X1654598D01*
X1616498Y2746838D02*
X1654598D01*
X1635548Y2772238D02*
X1654598D01*
X1635548Y2797638D02*
X1654598D01*
X1635548Y2823038D02*
X1654598D01*
X1635548Y2848438D02*
X1654598D01*
X1603798Y2873838D02*
X1654598D01*
X1730798D02*
X1743498D01*
X1718098D02*
X1730798D01*
X1673648D02*
X1711748D01*
X1749848D02*
X1762548D01*
X3477050Y1349836D02*
X3489750D01*
X3527850D02*
X3540550D01*
X1730800Y1292686D02*
Y1330786D01*
Y1368886D02*
Y1381586D01*
X1654598Y1273638D02*
Y1292688D01*
X1711748Y1267288D02*
Y1279988D01*
X1713780Y1269955D02*
Y1277321D01*
X1654598Y1324438D02*
Y1330788D01*
X1714669Y1271225D02*
Y1276051D01*
X1712891Y1268685D02*
Y1278591D01*
X1715558Y1272495D02*
Y1274781D01*
X1730798Y1222838D02*
Y1273638D01*
X1756198Y1254588D02*
Y1273638D01*
X1781598Y1254588D02*
Y1273638D01*
X1806998Y1254588D02*
Y1273638D01*
X1832398Y1254588D02*
Y1273638D01*
X1857798Y1235538D02*
Y1273638D01*
X1883198Y1254588D02*
Y1273638D01*
X1908598Y1254588D02*
Y1273638D01*
X1933998Y1254588D02*
Y1273638D01*
X1959398Y1254588D02*
Y1273638D01*
X1984798Y1222838D02*
Y1273638D01*
X2010198Y1254588D02*
Y1273638D01*
X2035598Y1254588D02*
Y1273638D01*
X2060998Y1254588D02*
Y1273638D01*
X2086398Y1254588D02*
Y1273638D01*
X2111798Y1235538D02*
Y1273638D01*
X2137198Y1254588D02*
Y1273638D01*
X2162598Y1254588D02*
Y1273638D01*
X2187998Y1254588D02*
Y1273638D01*
X2213398Y1254588D02*
Y1273638D01*
X2238798Y1222838D02*
Y1273638D01*
X2264198Y1254588D02*
Y1273638D01*
X2289598Y1254588D02*
Y1273638D01*
X2314998Y1254588D02*
Y1273638D01*
X2340398Y1254588D02*
Y1273638D01*
X2365798Y1235538D02*
Y1273638D01*
X2391198Y1254588D02*
Y1273638D01*
X2416598Y1254588D02*
Y1273638D01*
X2441998Y1254588D02*
Y1273638D01*
X2467398Y1254588D02*
Y1273638D01*
X2492798Y1222838D02*
Y1273638D01*
X2518198Y1254588D02*
Y1273638D01*
X2543598Y1254588D02*
Y1273638D01*
X2568998Y1254588D02*
Y1273638D01*
X2594398Y1254588D02*
Y1273638D01*
X2619798Y1235538D02*
Y1273638D01*
X2645198Y1254588D02*
Y1273638D01*
X2670598Y1254588D02*
Y1273638D01*
X2695998Y1254588D02*
Y1273638D01*
X2721398Y1254588D02*
Y1273638D01*
X2746798Y1222838D02*
Y1273638D01*
X2772198Y1254588D02*
Y1273638D01*
X2797598Y1254588D02*
Y1273638D01*
X2822998Y1254588D02*
Y1273638D01*
X2848398Y1254588D02*
Y1273638D01*
X2873798Y1235538D02*
Y1273638D01*
X2899198Y1254588D02*
Y1273638D01*
X2924598Y1254588D02*
Y1273638D01*
X2949998Y1254588D02*
Y1273638D01*
X2975398Y1254588D02*
Y1273638D01*
X3000798Y1222838D02*
Y1273638D01*
X3026198Y1254588D02*
Y1273638D01*
X3051598Y1254588D02*
Y1273638D01*
X3076998Y1254588D02*
Y1273638D01*
X3102398Y1254588D02*
Y1273638D01*
X3127798Y1235538D02*
Y1273638D01*
X3153198Y1254588D02*
Y1273638D01*
X3178598Y1254588D02*
Y1273638D01*
X3203998Y1254588D02*
Y1273638D01*
X3229398Y1254588D02*
Y1273638D01*
X3254798Y1222838D02*
Y1273638D01*
X3280198Y1254588D02*
Y1273638D01*
X3305598Y1254588D02*
Y1273638D01*
X3330998Y1254588D02*
Y1273638D01*
X3356398Y1254588D02*
Y1273638D01*
X3381798Y1235538D02*
Y1273638D01*
X3407198Y1254588D02*
Y1273638D01*
X3432598Y1254588D02*
Y1273638D01*
X3457998Y1254588D02*
Y1273638D01*
X3483398Y1254588D02*
Y1273638D01*
X3508798Y1222838D02*
Y1273638D01*
X1730798Y2861138D02*
Y2873838D01*
Y2886538D01*
Y2892888D02*
Y2905588D01*
Y2842088D02*
Y2854788D01*
X3508800Y1368886D02*
Y1381586D01*
Y1292686D02*
Y1330786D01*
X1730798Y1349838D02*
X1739688Y1358728D01*
X1721908Y1340948D02*
X1730798Y1349838D01*
X3499908Y1340948D02*
X3508798Y1349838D01*
X3517688Y1358728D01*
X1730798Y1349838D02*
X1739688Y1340948D01*
X1721908Y1358728D02*
X1730798Y1349838D01*
X3508798D02*
X3517688Y1340948D01*
X3499908Y1358728D02*
X3508798Y1349838D01*
X1711748Y1267288D02*
X1730798Y1273638D01*
X1711748Y1279988D02*
X1730798Y1273638D01*
X1713780Y1277321D02*
X1724702Y1273638D01*
X1713780Y1269955D02*
X1724702Y1273638D01*
X1654598Y1349838D02*
X1660948Y1330788D01*
X1648248D02*
X1654598Y1349838D01*
X1650915Y1332820D02*
X1654598Y1343742D01*
X1658281Y1332820D01*
X1652185Y1333709D02*
X1654598Y1340821D01*
X1657011Y1333709D01*
X1649645Y1331931D02*
X1654598Y1346663D01*
X1659551Y1331931D01*
X1653455Y1334598D02*
X1654598Y1337900D01*
X1655741Y1334598D01*
X1714669Y1276051D02*
X1721781Y1273638D01*
X1714669Y1271225D02*
X1721781Y1273638D01*
X1712891Y1278591D02*
X1727623Y1273638D01*
X1712891Y1268685D02*
X1727623Y1273638D01*
X1715558Y1274781D02*
X1718860Y1273638D01*
X1715558Y1272495D02*
X1718860Y1273638D01*
X1842556Y1559748D02*
X1841104Y1561199D01*
X1838928Y1561925D01*
X1836026D01*
X1833849Y1561199D01*
X1832398Y1559748D01*
Y1558297D01*
X1833123Y1556846D01*
X1833849Y1556120D01*
X1835300Y1555395D01*
X1839653Y1553944D01*
X1841104Y1553218D01*
X1841830Y1552493D01*
X1842556Y1551042D01*
Y1548865D01*
X1841104Y1547414D01*
X1838928Y1546688D01*
X1836026D01*
X1833849Y1547414D01*
X1832398Y1548865D01*
X1845966Y1561925D02*
Y1546688D01*
Y1561925D02*
X1851044D01*
X1853221Y1561199D01*
X1854672Y1559748D01*
X1855398Y1558297D01*
X1856123Y1556120D01*
Y1552493D01*
X1855398Y1550316D01*
X1854672Y1548865D01*
X1853221Y1547414D01*
X1851044Y1546688D01*
X1845966D01*
D29*
X2911898Y1464392D02*
X2911659Y1466820D01*
X2910950Y1469155D01*
X2909800Y1471307D01*
X2908252Y1473193D01*
X2906366Y1474741D01*
X2904214Y1475891D01*
X2901880Y1476599D01*
X2899452Y1476838D01*
X2619798D02*
X2617320Y1476594D01*
X2614938Y1475871D01*
X2612742Y1474698D01*
X2610817Y1473118D01*
X2609238Y1471194D01*
X2608064Y1468998D01*
X2607342Y1466616D01*
X2607098Y1464138D01*
X2899198Y1489538D02*
X2901675Y1489782D01*
X2904058Y1490505D01*
X2906253Y1491678D01*
X2908178Y1493258D01*
X2909757Y1495182D01*
X2910931Y1497378D01*
X2911654Y1499760D01*
X2911898Y1502238D01*
X2607098D02*
X2607342Y1499760D01*
X2608064Y1497378D01*
X2609238Y1495182D01*
X2610817Y1493258D01*
X2612742Y1491678D01*
X2614938Y1490505D01*
X2617320Y1489782D01*
X2619798Y1489538D01*
X2911898Y1648542D02*
X2911648Y1651024D01*
X2910908Y1653405D01*
X2909709Y1655592D01*
X2908098Y1657495D01*
X2906139Y1659039D01*
X2903912Y1660161D01*
X2901506Y1660818D01*
X2899017Y1660981D01*
X2899198Y1419688D02*
X2901675Y1419932D01*
X2904058Y1420655D01*
X2906253Y1421828D01*
X2908178Y1423408D01*
X2909757Y1425332D01*
X2910931Y1427528D01*
X2911654Y1429910D01*
X2911898Y1432388D01*
X2911898Y1394510D02*
X2911617Y1396956D01*
X2910869Y1399302D01*
X2909682Y1401460D01*
X2908101Y1403348D01*
X2906186Y1404896D01*
X2904008Y1406045D01*
X2901649Y1406752D01*
X2899198Y1406991D01*
Y1356188D02*
X2901675Y1356432D01*
X2904058Y1357155D01*
X2906253Y1358329D01*
X2908178Y1359908D01*
X2909757Y1361832D01*
X2910931Y1364028D01*
X2911654Y1366411D01*
X2911898Y1368888D01*
X2581698Y1419688D02*
X2584175Y1419932D01*
X2586558Y1420655D01*
X2588753Y1421828D01*
X2590678Y1423408D01*
X2592257Y1425332D01*
X2593431Y1427528D01*
X2594154Y1429910D01*
X2594398Y1432388D01*
X2607098Y1432134D02*
X2607342Y1429679D01*
X2608066Y1427321D01*
X2609241Y1425152D01*
X2610820Y1423257D01*
X2612742Y1421711D01*
X2614932Y1420574D01*
X2617302Y1419892D01*
X2619761Y1419690D01*
X2594398Y1464392D02*
X2594159Y1466820D01*
X2593450Y1469155D01*
X2592300Y1471307D01*
X2590752Y1473193D01*
X2588866Y1474741D01*
X2586714Y1475891D01*
X2584380Y1476599D01*
X2581952Y1476838D01*
X1819698Y1368888D02*
X1819936Y1366438D01*
X1820643Y1364079D01*
X1821792Y1361902D01*
X1823339Y1359987D01*
X1825227Y1358406D01*
X1827384Y1357220D01*
X1829730Y1356472D01*
X1832176Y1356190D01*
X2581919Y1489538D02*
X2584366Y1489819D01*
X2586712Y1490567D01*
X2588870Y1491754D01*
X2590758Y1493335D01*
X2592305Y1495250D01*
X2593454Y1497428D01*
X2594161Y1499787D01*
X2594400Y1502238D01*
X1832398Y1406988D02*
X1829920Y1406744D01*
X1827538Y1406021D01*
X1825342Y1404848D01*
X1823417Y1403268D01*
X1821838Y1401344D01*
X1820664Y1399148D01*
X1819942Y1396766D01*
X1819698Y1394288D01*
X2594398Y1584788D02*
X2594154Y1587266D01*
X2593431Y1589648D01*
X2592257Y1591844D01*
X2590678Y1593768D01*
X2588753Y1595348D01*
X2586558Y1596521D01*
X2584175Y1597244D01*
X2581698Y1597488D01*
Y1610188D02*
X2584175Y1610432D01*
X2586558Y1611155D01*
X2588753Y1612328D01*
X2590678Y1613908D01*
X2592257Y1615832D01*
X2593431Y1618028D01*
X2594154Y1620410D01*
X2594398Y1622888D01*
X2619798Y1660988D02*
X2617320Y1660744D01*
X2614938Y1660021D01*
X2612742Y1658848D01*
X2610817Y1657268D01*
X2609238Y1655344D01*
X2608064Y1653148D01*
X2607342Y1650766D01*
X2607098Y1648288D01*
X2594398D02*
X2594154Y1650766D01*
X2593431Y1653148D01*
X2592257Y1655344D01*
X2590678Y1657268D01*
X2588753Y1658848D01*
X2586558Y1660021D01*
X2584175Y1660744D01*
X2581698Y1660988D01*
X1832398D02*
X1829920Y1660744D01*
X1827538Y1660021D01*
X1825342Y1658848D01*
X1823417Y1657268D01*
X1821838Y1655344D01*
X1820664Y1653148D01*
X1819942Y1650766D01*
X1819698Y1648288D01*
Y1622888D02*
X1819942Y1620410D01*
X1820664Y1618028D01*
X1821838Y1615832D01*
X1823417Y1613908D01*
X1825342Y1612328D01*
X1827538Y1611155D01*
X1829920Y1610432D01*
X1832398Y1610188D01*
Y1597488D02*
X1829920Y1597244D01*
X1827538Y1596521D01*
X1825342Y1595348D01*
X1823417Y1593768D01*
X1821838Y1591844D01*
X1820664Y1589648D01*
X1819942Y1587266D01*
X1819698Y1584788D01*
Y1527638D02*
X1819942Y1525161D01*
X1820664Y1522778D01*
X1821838Y1520582D01*
X1823417Y1518658D01*
X1825342Y1517079D01*
X1827538Y1515905D01*
X1829920Y1515182D01*
X1832398Y1514938D01*
Y1502238D02*
X1829920Y1501994D01*
X1827538Y1501271D01*
X1825342Y1500098D01*
X1823417Y1498518D01*
X1821838Y1496594D01*
X1820664Y1494398D01*
X1819942Y1492016D01*
X1819698Y1489538D01*
Y1432388D02*
X1819936Y1429938D01*
X1820643Y1427579D01*
X1821792Y1425402D01*
X1823339Y1423487D01*
X1825227Y1421906D01*
X1827384Y1420719D01*
X1829730Y1419971D01*
X1832176Y1419690D01*
X2060998Y1597488D02*
X2058520Y1597244D01*
X2056138Y1596521D01*
X2053942Y1595348D01*
X2052017Y1593768D01*
X2050438Y1591844D01*
X2049264Y1589648D01*
X2048542Y1587266D01*
X2048298Y1584788D01*
X2060998Y1476838D02*
X2058520Y1476594D01*
X2056138Y1475871D01*
X2053942Y1474698D01*
X2052017Y1473118D01*
X2050438Y1471194D01*
X2049264Y1468998D01*
X2048542Y1466616D01*
X2048298Y1464138D01*
X2504990Y1476838D02*
X2502533Y1476588D01*
X2500177Y1475848D01*
X2498018Y1474648D01*
X2496146Y1473039D01*
X2494636Y1471084D01*
X2493551Y1468866D01*
X2492936Y1466474D01*
X2492814Y1464008D01*
X2492798Y1432642D02*
X2493041Y1430143D01*
X2493762Y1427737D01*
X2494934Y1425516D01*
X2496512Y1423563D01*
X2498438Y1421950D01*
X2500638Y1420740D01*
X2503031Y1419977D01*
X2505526Y1419690D01*
X2467652Y1419688D02*
X2470106Y1419933D01*
X2472465Y1420656D01*
X2474634Y1421831D01*
X2476529Y1423411D01*
X2478075Y1425333D01*
X2479212Y1427522D01*
X2479894Y1429893D01*
X2480096Y1432351D01*
X2480098Y1464392D02*
X2479859Y1466820D01*
X2479150Y1469155D01*
X2478000Y1471307D01*
X2476452Y1473193D01*
X2474566Y1474741D01*
X2472415Y1475891D01*
X2470080Y1476599D01*
X2467652Y1476838D01*
X2023152Y1419688D02*
X2025580Y1419927D01*
X2027915Y1420636D01*
X2030066Y1421786D01*
X2031952Y1423333D01*
X2033500Y1425220D01*
X2034650Y1427371D01*
X2035358Y1429706D01*
X2035598Y1432134D01*
X2048298D02*
X2048537Y1429706D01*
X2049245Y1427371D01*
X2050395Y1425220D01*
X2051943Y1423333D01*
X2053829Y1421786D01*
X2055981Y1420636D01*
X2058316Y1419927D01*
X2060744Y1419688D01*
X2048298Y1501984D02*
X2048537Y1499556D01*
X2049245Y1497221D01*
X2050395Y1495069D01*
X2051943Y1493183D01*
X2053829Y1491636D01*
X2055981Y1490486D01*
X2058316Y1489777D01*
X2060744Y1489538D01*
X2035598Y1489792D02*
X2035348Y1492274D01*
X2034608Y1494655D01*
X2033409Y1496842D01*
X2031797Y1498745D01*
X2029839Y1500289D01*
X2027612Y1501411D01*
X2025206Y1502068D01*
X2022717Y1502231D01*
X2023406Y1514938D02*
X2025784Y1515172D01*
X2028071Y1515866D01*
X2030179Y1516993D01*
X2032027Y1518509D01*
X2033543Y1520357D01*
X2034670Y1522464D01*
X2035363Y1524752D01*
X2035598Y1527130D01*
Y1585042D02*
X2035358Y1587470D01*
X2034650Y1589805D01*
X2033500Y1591957D01*
X2031952Y1593843D01*
X2030066Y1595391D01*
X2027915Y1596541D01*
X2025580Y1597249D01*
X2023152Y1597488D01*
X2759498Y1406988D02*
X2757020Y1406744D01*
X2754637Y1406021D01*
X2752442Y1404848D01*
X2750517Y1403268D01*
X2748938Y1401344D01*
X2747764Y1399148D01*
X2747042Y1396766D01*
X2746798Y1394288D01*
Y1368634D02*
X2747042Y1366179D01*
X2747766Y1363821D01*
X2748941Y1361652D01*
X2750520Y1359757D01*
X2752442Y1358211D01*
X2754632Y1357074D01*
X2757002Y1356392D01*
X2759461Y1356190D01*
X2721693Y1356187D02*
X2724154Y1356395D01*
X2726523Y1357094D01*
X2728703Y1358255D01*
X2730604Y1359833D01*
X2732148Y1361761D01*
X2733271Y1363960D01*
X2733929Y1366341D01*
X2734093Y1368806D01*
X2734098Y1394288D02*
X2733854Y1396766D01*
X2733131Y1399148D01*
X2731957Y1401344D01*
X2730378Y1403268D01*
X2728453Y1404848D01*
X2726258Y1406021D01*
X2723875Y1406744D01*
X2721398Y1406988D01*
X2283248Y1368888D02*
X2283486Y1366438D01*
X2284193Y1364079D01*
X2285342Y1361902D01*
X2286889Y1359987D01*
X2288777Y1358406D01*
X2290934Y1357220D01*
X2293280Y1356472D01*
X2295726Y1356190D01*
X2295948Y1406988D02*
X2293470Y1406744D01*
X2291088Y1406021D01*
X2288892Y1404848D01*
X2286967Y1403268D01*
X2285388Y1401344D01*
X2284214Y1399148D01*
X2283492Y1396766D01*
X2283248Y1394288D01*
X2258143Y1356187D02*
X2260604Y1356395D01*
X2262973Y1357094D01*
X2265153Y1358255D01*
X2267054Y1359833D01*
X2268597Y1361761D01*
X2269721Y1363960D01*
X2270379Y1366341D01*
X2270543Y1368806D01*
X2270548Y1394288D02*
X2270304Y1396766D01*
X2269581Y1399148D01*
X2268407Y1401344D01*
X2266828Y1403268D01*
X2264903Y1404848D01*
X2262708Y1406021D01*
X2260325Y1406744D01*
X2257848Y1406988D01*
X2295948Y1356188D02*
X2721398D01*
X1832398D02*
X2257848D01*
X1832398Y1406988D02*
X2257848D01*
X2295948D02*
X2721398D01*
X2759498Y1356188D02*
X2899198D01*
X2759498Y1406988D02*
X2899198D01*
X1832398Y1660988D02*
X2581698D01*
X1832398Y1419688D02*
X2022898D01*
X1832398Y1502238D02*
X2022898D01*
X1832398Y1514938D02*
X2022898D01*
X1832398Y1597488D02*
X2022898D01*
X1832398Y1610188D02*
X2581698D01*
X2060998Y1597488D02*
X2581698D01*
X2060998Y1476838D02*
X2467398D01*
X2060998Y1419688D02*
X2467398D01*
X2505498D02*
X2581698D01*
X2505498Y1476838D02*
X2581698D01*
X2619798Y1419688D02*
X2899198D01*
X2619798Y1660988D02*
X2899198D01*
X2060998Y1489538D02*
X2581698D01*
X2619798D02*
X2899198D01*
X2619798Y1476838D02*
X2899198D01*
X2270548Y1368888D02*
Y1394288D01*
X2283248Y1368888D02*
Y1394288D01*
X2734098Y1368888D02*
Y1394288D01*
X2746798Y1368888D02*
Y1394288D01*
X1819698Y1432388D02*
Y1489538D01*
X2035598Y1432388D02*
Y1489538D01*
X1819698Y1527638D02*
Y1584788D01*
X2035598Y1527638D02*
Y1584788D01*
X1819698Y1622888D02*
Y1648288D01*
X2594398Y1622888D02*
Y1648288D01*
Y1502238D02*
Y1584788D01*
X2048298Y1502238D02*
Y1584788D01*
X2480098Y1432388D02*
Y1464138D01*
X2048298Y1432388D02*
Y1464138D01*
X2492798Y1432388D02*
Y1464138D01*
X2594398Y1432388D02*
Y1464138D01*
X2911898Y1368888D02*
Y1394288D01*
Y1432388D02*
Y1457788D01*
X1819698Y1368888D02*
Y1394288D01*
X2607098Y1502238D02*
Y1648288D01*
X2911898Y1502238D02*
Y1648288D01*
X2607098Y1432388D02*
Y1464138D01*
D30*
X1959398Y1883238D02*
X2559398D01*
X1959398Y2782398D02*
X2559398Y2783238D01*
Y1883238D02*
Y2783238D01*
X1959398Y1883238D02*
Y2782398D01*
D31*
X1902500Y2284739D02*
X1905039Y2287278D01*
Y2292357D01*
X1902500Y2294896D01*
X1892343D01*
X1889804Y2292357D01*
Y2287278D01*
X1892343Y2284739D01*
X1894883D01*
X1897422Y2287278D01*
Y2294896D01*
X1892343Y2299974D02*
X1889804Y2302514D01*
Y2307592D01*
X1892343Y2310131D01*
X1902500D01*
X1905039Y2307592D01*
Y2302514D01*
X1902500Y2299974D01*
X1892343D01*
X1905039Y2335523D02*
X1899961Y2330445D01*
X1894883D01*
X1889804Y2335523D01*
X1905039Y2343140D02*
X1894883D01*
Y2345680D01*
X1897422Y2348219D01*
X1905039D01*
X1897422D01*
X1894883Y2350758D01*
X1897422Y2353297D01*
X1905039D01*
Y2358376D02*
X1894883D01*
Y2360915D01*
X1897422Y2363454D01*
X1905039D01*
X1897422D01*
X1894883Y2365993D01*
X1897422Y2368532D01*
X1905039D01*
Y2373611D02*
X1899961Y2378689D01*
X1894883D01*
X1889804Y2373611D01*
X2221056Y1858852D02*
X2215977Y1856313D01*
X2210899Y1851234D01*
Y1846156D01*
X2213438Y1843617D01*
X2218516D01*
X2221056Y1846156D01*
Y1848695D01*
X2218516Y1851234D01*
X2210899D01*
X2226134Y1856313D02*
X2228673Y1858852D01*
X2233752D01*
X2236291Y1856313D01*
Y1846156D01*
X2233752Y1843617D01*
X2228673D01*
X2226134Y1846156D01*
Y1856313D01*
X2261682Y1843617D02*
X2256604Y1848695D01*
Y1853773D01*
X2261682Y1858852D01*
X2269300Y1843617D02*
Y1853773D01*
X2271839D01*
X2274378Y1851234D01*
Y1843617D01*
Y1851234D01*
X2276918Y1853773D01*
X2279457Y1851234D01*
Y1843617D01*
X2284535D02*
Y1853773D01*
X2287074D01*
X2289613Y1851234D01*
Y1843617D01*
Y1851234D01*
X2292153Y1853773D01*
X2294692Y1851234D01*
Y1843617D01*
X2299770D02*
X2304848Y1848695D01*
Y1853773D01*
X2299770Y1858852D01*
D32*
X2619798Y1466041D02*
Y1454613D01*
Y1466041D02*
X2623607D01*
X2625239Y1465497D01*
X2626328Y1464408D01*
X2626872Y1463320D01*
X2627416Y1461687D01*
Y1458967D01*
X2626872Y1457334D01*
X2626328Y1456246D01*
X2625239Y1455157D01*
X2623607Y1454613D01*
X2619798D01*
X2638680D02*
X2634327Y1466041D01*
X2629973Y1454613D01*
X2631606Y1458422D02*
X2637048D01*
X2645156Y1466041D02*
Y1454613D01*
X2641347Y1466041D02*
X2648965D01*
X2657400D02*
X2650326D01*
Y1454613D01*
X2657400D01*
X2650326Y1460599D02*
X2654679D01*
X2659849Y1462231D02*
X2659305Y1461687D01*
X2659849Y1461143D01*
X2660393Y1461687D01*
X2659849Y1462231D01*
Y1455701D02*
X2659305Y1455157D01*
X2659849Y1454613D01*
X2660393Y1455157D01*
X2659849Y1455701D01*
X2502323Y1466041D02*
Y1454613D01*
Y1466041D02*
X2507220D01*
X2508853Y1465497D01*
X2509397Y1464952D01*
X2509941Y1463864D01*
Y1462776D01*
X2509397Y1461687D01*
X2508853Y1461143D01*
X2507220Y1460599D01*
X2502323D01*
X2506132D02*
X2509941Y1454613D01*
X2519573Y1466041D02*
X2512499D01*
Y1454613D01*
X2519573D01*
X2512499Y1460599D02*
X2516852D01*
X2521477Y1466041D02*
X2525831Y1454613D01*
X2530184Y1466041D02*
X2525831Y1454613D01*
X2532198Y1462231D02*
X2531653Y1461687D01*
X2532198Y1461143D01*
X2532742Y1461687D01*
X2532198Y1462231D01*
Y1455701D02*
X2531653Y1455157D01*
X2532198Y1454613D01*
X2532742Y1455157D01*
X2532198Y1455701D01*
X1832398Y1529905D02*
X1837295D01*
X1838928Y1530449D01*
X1839472Y1530993D01*
X1840016Y1532081D01*
Y1533714D01*
X1839472Y1534802D01*
X1838928Y1535347D01*
X1837295Y1535891D01*
X1832398D01*
Y1524463D01*
X1842574Y1535891D02*
Y1524463D01*
X1850192Y1535891D02*
Y1524463D01*
X1842574Y1530449D02*
X1850192D01*
X1856613Y1535891D02*
X1855525Y1535347D01*
X1854436Y1534258D01*
X1853892Y1533170D01*
X1853348Y1531537D01*
Y1528817D01*
X1853892Y1527184D01*
X1854436Y1526096D01*
X1855525Y1525007D01*
X1856613Y1524463D01*
X1858790D01*
X1859878Y1525007D01*
X1860967Y1526096D01*
X1861511Y1527184D01*
X1862055Y1528817D01*
Y1531537D01*
X1861511Y1533170D01*
X1860967Y1534258D01*
X1859878Y1535347D01*
X1858790Y1535891D01*
X1856613D01*
X1864721D02*
Y1524463D01*
Y1535891D02*
X1872340Y1524463D01*
Y1535891D02*
Y1524463D01*
X1882570Y1535891D02*
X1875496D01*
Y1524463D01*
X1882570D01*
X1875496Y1530449D02*
X1879849D01*
X1885019Y1532081D02*
X1884475Y1531537D01*
X1885019Y1530993D01*
X1885563Y1531537D01*
X1885019Y1532081D01*
Y1525551D02*
X1884475Y1525007D01*
X1885019Y1524463D01*
X1885563Y1525007D01*
X1885019Y1525551D01*
X1832398Y1434655D02*
X1837295D01*
X1838928Y1435199D01*
X1839472Y1435743D01*
X1840016Y1436832D01*
Y1438464D01*
X1839472Y1439552D01*
X1838928Y1440096D01*
X1837295Y1440641D01*
X1832398D01*
Y1429213D01*
X1842574Y1440641D02*
Y1429213D01*
X1850192Y1440641D02*
Y1429213D01*
X1842574Y1435199D02*
X1850192D01*
X1856613Y1440641D02*
X1855525Y1440096D01*
X1854436Y1439008D01*
X1853892Y1437920D01*
X1853348Y1436287D01*
Y1433566D01*
X1853892Y1431934D01*
X1854436Y1430846D01*
X1855525Y1429757D01*
X1856613Y1429213D01*
X1858790D01*
X1859878Y1429757D01*
X1860967Y1430846D01*
X1861511Y1431934D01*
X1862055Y1433566D01*
Y1436287D01*
X1861511Y1437920D01*
X1860967Y1439008D01*
X1859878Y1440096D01*
X1858790Y1440641D01*
X1856613D01*
X1864721D02*
Y1429213D01*
Y1440641D02*
X1872340Y1429213D01*
Y1440641D02*
Y1429213D01*
X1882570Y1440641D02*
X1875496D01*
Y1429213D01*
X1882570D01*
X1875496Y1435199D02*
X1879849D01*
X1885019Y1436832D02*
X1884475Y1436287D01*
X1885019Y1435743D01*
X1885563Y1436287D01*
X1885019Y1436832D01*
Y1430302D02*
X1884475Y1429757D01*
X1885019Y1429213D01*
X1885563Y1429757D01*
X1885019Y1430302D01*
X2299758Y1395556D02*
Y1384128D01*
X2306288D01*
X2316246D02*
X2311893Y1395556D01*
X2307539Y1384128D01*
X2309172Y1387937D02*
X2314613D01*
X2318912Y1395556D02*
X2323266Y1390114D01*
Y1384128D01*
X2327619Y1395556D02*
X2323266Y1390114D01*
X2336163Y1395556D02*
X2329088D01*
Y1384128D01*
X2336163D01*
X2329088Y1390114D02*
X2333442D01*
X2338067Y1395556D02*
Y1384128D01*
Y1395556D02*
X2342965D01*
X2344597Y1395011D01*
X2345141Y1394467D01*
X2345686Y1393379D01*
Y1392291D01*
X2345141Y1391202D01*
X2344597Y1390658D01*
X2342965Y1390114D01*
X2338067D01*
X2341876D02*
X2345686Y1384128D01*
X2348787Y1391747D02*
X2348243Y1391202D01*
X2348787Y1390658D01*
X2349332Y1391202D01*
X2348787Y1391747D01*
Y1385217D02*
X2348243Y1384672D01*
X2348787Y1384128D01*
X2349332Y1384672D01*
X2348787Y1385217D01*
X1839472Y1583516D02*
X1832398D01*
Y1572088D01*
X1839472D01*
X1832398Y1578074D02*
X1836751D01*
X1841376Y1583516D02*
Y1572088D01*
Y1583516D02*
X1848995Y1572088D01*
Y1583516D02*
Y1572088D01*
X1860314Y1580795D02*
X1859769Y1581883D01*
X1858681Y1582971D01*
X1857593Y1583516D01*
X1855416D01*
X1854328Y1582971D01*
X1853239Y1581883D01*
X1852695Y1580795D01*
X1852151Y1579162D01*
Y1576441D01*
X1852695Y1574809D01*
X1853239Y1573721D01*
X1854328Y1572632D01*
X1855416Y1572088D01*
X1857593D01*
X1858681Y1572632D01*
X1859769Y1573721D01*
X1860314Y1574809D01*
Y1576441D01*
X1857593D02*
X1860314D01*
X1862926Y1583516D02*
Y1572088D01*
X1865320Y1583516D02*
Y1572088D01*
Y1583516D02*
X1872938Y1572088D01*
Y1583516D02*
Y1572088D01*
X1883169Y1583516D02*
X1876095D01*
Y1572088D01*
X1883169D01*
X1876095Y1578074D02*
X1880448D01*
X1892148Y1583516D02*
X1885073D01*
Y1572088D01*
X1892148D01*
X1885073Y1578074D02*
X1889427D01*
X1894052Y1583516D02*
Y1572088D01*
Y1583516D02*
X1898950D01*
X1900582Y1582971D01*
X1901126Y1582427D01*
X1901671Y1581339D01*
Y1580251D01*
X1901126Y1579162D01*
X1900582Y1578618D01*
X1898950Y1578074D01*
X1894052D01*
X1897861D02*
X1901671Y1572088D01*
X1904772Y1579707D02*
X1904228Y1579162D01*
X1904772Y1578618D01*
X1905316Y1579162D01*
X1904772Y1579707D01*
Y1573177D02*
X1904228Y1572632D01*
X1904772Y1572088D01*
X1905316Y1572632D01*
X1904772Y1573177D01*
X2060998Y1460055D02*
X2065895D01*
X2067528Y1460599D01*
X2068072Y1461143D01*
X2068616Y1462231D01*
Y1463864D01*
X2068072Y1464952D01*
X2067528Y1465497D01*
X2065895Y1466041D01*
X2060998D01*
Y1454613D01*
X2079880D02*
X2075527Y1466041D01*
X2071174Y1454613D01*
X2072806Y1458422D02*
X2078248D01*
X2082547Y1466041D02*
Y1454613D01*
Y1466041D02*
X2087444D01*
X2089077Y1465497D01*
X2089621Y1464952D01*
X2090165Y1463864D01*
Y1462776D01*
X2089621Y1461687D01*
X2089077Y1461143D01*
X2087444Y1460599D01*
X2082547D01*
X2086356D02*
X2090165Y1454613D01*
X2096532Y1466041D02*
Y1454613D01*
X2092723Y1466041D02*
X2100341D01*
X2110680D02*
Y1454613D01*
Y1466041D02*
X2118299Y1454613D01*
Y1466041D02*
Y1454613D01*
X2124720Y1466041D02*
X2123631Y1465497D01*
X2122543Y1464408D01*
X2121999Y1463320D01*
X2121455Y1461687D01*
Y1458967D01*
X2121999Y1457334D01*
X2122543Y1456246D01*
X2123631Y1455157D01*
X2124720Y1454613D01*
X2126897D01*
X2127985Y1455157D01*
X2129073Y1456246D01*
X2129617Y1457334D01*
X2130162Y1458967D01*
Y1461687D01*
X2129617Y1463320D01*
X2129073Y1464408D01*
X2127985Y1465497D01*
X2126897Y1466041D01*
X2124720D01*
X2133372Y1455701D02*
X2132828Y1455157D01*
X2133372Y1454613D01*
X2133916Y1455157D01*
X2133372Y1455701D01*
X2136964Y1462231D02*
X2136420Y1461687D01*
X2136964Y1461143D01*
X2137508Y1461687D01*
X2136964Y1462231D01*
Y1455701D02*
X2136420Y1455157D01*
X2136964Y1454613D01*
X2137508Y1455157D01*
X2136964Y1455701D01*
X2061632Y1586691D02*
Y1575263D01*
X2057823Y1586691D02*
X2065441D01*
X2066801D02*
Y1575263D01*
X2073005Y1586691D02*
Y1575263D01*
X2069196Y1586691D02*
X2076814D01*
X2078175D02*
Y1575263D01*
X2084705D01*
X2093031Y1586691D02*
X2085956D01*
Y1575263D01*
X2093031D01*
X2085956Y1581249D02*
X2090310D01*
X2095479Y1582881D02*
X2094935Y1582337D01*
X2095479Y1581793D01*
X2096023Y1582337D01*
X2095479Y1582881D01*
Y1576351D02*
X2094935Y1575807D01*
X2095479Y1575263D01*
X2096023Y1575807D01*
X2095479Y1576351D01*
X1839472Y1486996D02*
X1832398D01*
Y1475568D01*
X1839472D01*
X1832398Y1481554D02*
X1836751D01*
X1841376Y1486996D02*
Y1475568D01*
Y1486996D02*
X1848995Y1475568D01*
Y1486996D02*
Y1475568D01*
X1860314Y1484275D02*
X1859769Y1485363D01*
X1858681Y1486452D01*
X1857593Y1486996D01*
X1855416D01*
X1854328Y1486452D01*
X1853239Y1485363D01*
X1852695Y1484275D01*
X1852151Y1482642D01*
Y1479922D01*
X1852695Y1478289D01*
X1853239Y1477201D01*
X1854328Y1476112D01*
X1855416Y1475568D01*
X1857593D01*
X1858681Y1476112D01*
X1859769Y1477201D01*
X1860314Y1478289D01*
Y1479922D01*
X1857593D02*
X1860314D01*
X1862926Y1486996D02*
Y1475568D01*
X1865320Y1486996D02*
Y1475568D01*
Y1486996D02*
X1872938Y1475568D01*
Y1486996D02*
Y1475568D01*
X1883169Y1486996D02*
X1876095D01*
Y1475568D01*
X1883169D01*
X1876095Y1481554D02*
X1880448D01*
X1892148Y1486996D02*
X1885073D01*
Y1475568D01*
X1892148D01*
X1885073Y1481554D02*
X1889427D01*
X1894052Y1486996D02*
Y1475568D01*
Y1486996D02*
X1898950D01*
X1900582Y1486452D01*
X1901126Y1485907D01*
X1901671Y1484819D01*
Y1483731D01*
X1901126Y1482642D01*
X1900582Y1482098D01*
X1898950Y1481554D01*
X1894052D01*
X1897861D02*
X1901671Y1475568D01*
X1904772Y1483186D02*
X1904228Y1482642D01*
X1904772Y1482098D01*
X1905316Y1482642D01*
X1904772Y1483186D01*
Y1476656D02*
X1904228Y1476112D01*
X1904772Y1475568D01*
X1905316Y1476112D01*
X1904772Y1476656D01*
X1832398Y1395556D02*
Y1384128D01*
Y1395556D02*
X1839472D01*
X1832398Y1390114D02*
X1836751D01*
X1840778Y1395556D02*
Y1384128D01*
X1843172Y1395556D02*
Y1384128D01*
X1849702D01*
X1858028Y1395556D02*
X1850954D01*
Y1384128D01*
X1858028D01*
X1850954Y1390114D02*
X1855307D01*
X1868911Y1395556D02*
Y1384128D01*
Y1395556D02*
X1876530Y1384128D01*
Y1395556D02*
Y1384128D01*
X1888393D02*
X1884039Y1395556D01*
X1879686Y1384128D01*
X1881319Y1387937D02*
X1886760D01*
X1891059Y1395556D02*
Y1384128D01*
Y1395556D02*
X1895412Y1384128D01*
X1899766Y1395556D02*
X1895412Y1384128D01*
X1899766Y1395556D02*
Y1384128D01*
X1910105Y1395556D02*
X1903031D01*
Y1384128D01*
X1910105D01*
X1903031Y1390114D02*
X1907384D01*
X1912554Y1391747D02*
X1912010Y1391202D01*
X1912554Y1390658D01*
X1913098Y1391202D01*
X1912554Y1391747D01*
Y1385217D02*
X1912010Y1384672D01*
X1912554Y1384128D01*
X1913098Y1384672D01*
X1912554Y1385217D01*
X2770200Y1392835D02*
X2769656Y1393923D01*
X2768568Y1395011D01*
X2767479Y1395556D01*
X2765303D01*
X2764214Y1395011D01*
X2763126Y1393923D01*
X2762582Y1392835D01*
X2762038Y1391202D01*
Y1388481D01*
X2762582Y1386849D01*
X2763126Y1385761D01*
X2764214Y1384672D01*
X2765303Y1384128D01*
X2767479D01*
X2768568Y1384672D01*
X2769656Y1385761D01*
X2770200Y1386849D01*
Y1388481D01*
X2767479D02*
X2770200D01*
X2779886Y1395556D02*
X2772812D01*
Y1384128D01*
X2779886D01*
X2772812Y1390114D02*
X2777166D01*
X2781791Y1395556D02*
Y1384128D01*
Y1395556D02*
X2786689D01*
X2788321Y1395011D01*
X2788865Y1394467D01*
X2789409Y1393379D01*
Y1392291D01*
X2788865Y1391202D01*
X2788321Y1390658D01*
X2786689Y1390114D01*
X2781791D01*
X2785600D02*
X2789409Y1384128D01*
X2791967Y1395556D02*
Y1384128D01*
Y1395556D02*
X2796865D01*
X2798497Y1395011D01*
X2799041Y1394467D01*
X2799585Y1393379D01*
Y1392291D01*
X2799041Y1391202D01*
X2798497Y1390658D01*
X2796865Y1390114D01*
X2791967D02*
X2796865D01*
X2798497Y1389570D01*
X2799041Y1389026D01*
X2799585Y1387937D01*
Y1386305D01*
X2799041Y1385217D01*
X2798497Y1384672D01*
X2796865Y1384128D01*
X2791967D01*
X2809217Y1395556D02*
X2802143D01*
Y1384128D01*
X2809217D01*
X2802143Y1390114D02*
X2806496D01*
X2811122Y1395556D02*
Y1384128D01*
Y1395556D02*
X2816019D01*
X2817652Y1395011D01*
X2818196Y1394467D01*
X2818740Y1393379D01*
Y1392291D01*
X2818196Y1391202D01*
X2817652Y1390658D01*
X2816019Y1390114D01*
X2811122D01*
X2814931D02*
X2818740Y1384128D01*
X2821842Y1391747D02*
X2821298Y1391202D01*
X2821842Y1390658D01*
X2822386Y1391202D01*
X2821842Y1391747D01*
Y1385217D02*
X2821298Y1384672D01*
X2821842Y1384128D01*
X2822386Y1384672D01*
X2821842Y1385217D01*
D33*
X2022848Y2359448D02*
D03*
X1997448D02*
D03*
X2022848Y2384848D02*
D03*
Y2410248D02*
D03*
Y2435648D02*
D03*
X1997448Y2410248D02*
D03*
Y2384848D02*
D03*
D34*
Y2435648D02*
D03*
D35*
X2329398Y2722148D02*
D03*
X1999198Y1934748D02*
D03*
X2329398D02*
D03*
X1999198Y2722148D02*
D03*
D36*
X2354798D02*
D03*
X2380198D02*
D03*
X2405598D02*
D03*
X2456398D02*
D03*
X2481798D02*
D03*
X2507198D02*
D03*
X2329398Y2747548D02*
D03*
X2354798D02*
D03*
X2380198D02*
D03*
X2405598D02*
D03*
X2430998D02*
D03*
X2456398D02*
D03*
X2481798D02*
D03*
X2507198D02*
D03*
X2024598Y1934748D02*
D03*
X2049998D02*
D03*
X2075398D02*
D03*
X2126198D02*
D03*
X2151598D02*
D03*
X1999198Y1960148D02*
D03*
X2024598D02*
D03*
X2049998D02*
D03*
X2075398D02*
D03*
X2100798D02*
D03*
X2126198D02*
D03*
X2151598D02*
D03*
X2354798Y1934748D02*
D03*
X2380198D02*
D03*
X2405598D02*
D03*
X2456398D02*
D03*
X2481798D02*
D03*
X2507198D02*
D03*
X2329398Y1960148D02*
D03*
X2354798D02*
D03*
X2380198D02*
D03*
X2405598D02*
D03*
X2430998D02*
D03*
X2456398D02*
D03*
X2481798D02*
D03*
X2507198D02*
D03*
X2176998Y2747548D02*
D03*
X2151598D02*
D03*
X2126198D02*
D03*
X2100798D02*
D03*
X2075398D02*
D03*
X2049998D02*
D03*
X2024598D02*
D03*
X1999198D02*
D03*
X2176998Y2722148D02*
D03*
X2151598D02*
D03*
X2126198D02*
D03*
X2075398D02*
D03*
X2049998D02*
D03*
X2024598D02*
D03*
X2176998Y1960148D02*
D03*
Y1934748D02*
D03*
D37*
X2463948Y2483398D02*
D03*
Y2338398D02*
D03*
D38*
X2523548D02*
D03*
Y2483398D02*
D03*
D39*
X2178998Y2042198D02*
D03*
X2509198D02*
D03*
X2178998Y2632198D02*
D03*
X2509198D02*
D03*
D40*
X2541198Y2169898D02*
D03*
X2540698Y2231398D02*
D03*
D41*
X2397948Y2488148D02*
D03*
X2392948Y2452398D02*
D03*
X2391448Y2417648D02*
D03*
X2403948Y2384148D02*
D03*
X2409698Y2411898D02*
D03*
X2403448Y2354648D02*
D03*
X2277698Y2498398D02*
D03*
X2265198Y2506148D02*
D03*
X2482948Y2378648D02*
D03*
X2493948Y2385898D02*
D03*
X2477948Y2455398D02*
D03*
X2392448Y2376398D02*
D03*
X2407948Y2449398D02*
D03*
X2264698Y2549648D02*
D03*
X2257948Y1906398D02*
D03*
X2258198Y2306148D02*
D03*
X2333198Y2538648D02*
D03*
D42*
X2151948Y2444648D02*
D03*
X2174698Y2476398D02*
D03*
X2143198Y2458898D02*
D03*
X2162698Y2476148D02*
D03*
X2143198Y2470648D02*
D03*
X2044948Y2448148D02*
D03*
X2091948Y2552898D02*
D03*
X2162698Y2562398D02*
D03*
X2311698Y2380398D02*
D03*
X2316448Y2513898D02*
D03*
X2308448Y2475398D02*
D03*
X2359448Y2342398D02*
D03*
X2340448Y2372648D02*
D03*
X2339198Y2410648D02*
D03*
X2341448Y2498148D02*
D03*
X2338948Y2446398D02*
D03*
X2304948Y2512898D02*
D03*
X2182448Y2351398D02*
D03*
X2208948Y1961648D02*
D03*
X2034448Y2325648D02*
D03*
X2064698Y2324148D02*
D03*
X2082198D02*
D03*
X2049698Y2324898D02*
D03*
X2126448Y2631648D02*
D03*
X2251448Y2533898D02*
D03*
X2227698Y2578148D02*
D03*
X2229448Y2468898D02*
D03*
X2207948Y2468648D02*
D03*
X2196948D02*
D03*
X2218698D02*
D03*
X2145698Y2306648D02*
D03*
X2153448Y2317148D02*
D03*
X2190198Y2310398D02*
D03*
X2145448Y2247648D02*
D03*
X2190198Y2253898D02*
D03*
X2127198Y2243148D02*
D03*
X2255448Y2474648D02*
D03*
X2266948Y2474898D02*
D03*
X2278448Y2447148D02*
D03*
X2191948Y2389148D02*
D03*
X2037198Y1982398D02*
D03*
X2184698Y2521648D02*
D03*
X2369448Y2514148D02*
D03*
M02*
