M71
M48
T1F00S00C0.4000
T2F00S00C0.5000
T3F00S00C1.0000
T4F00S00C1.7000
T5F00S00C2.7000
T6F00S00C3.0000
%
T01
X-003505Y-00009
X-0039525Y-0001525
X-004135Y-0001975
X-00395Y0004375
X-003505Y000475
X-0033175Y-0030125
X-005035Y-002805
X-00229Y001175
X-0020025Y0010975
X-002015Y0014775
X-0020175Y001835
X-0019925Y0023525
X-0022425Y00251
X-0023575Y0025
X-0023225Y002125
X-0027375Y00212
X-0028525Y0021175
X-0026225Y0018425
X-0028925Y00271
X-0018125Y000795
X-0035825Y000885
X-0034875Y0012625
X-0034375Y0020575
X-0033275
X-00322
X-0031125Y00206
X-00366Y002135
X-00378Y0021325
X-003975Y0020775
Y00196
X-0038875Y0018175
X-00388Y0025
X-00377Y0026225
X-00351Y0026025
X-0035075Y00271
X-00378Y002995
X-0044875Y0029
X-0041425Y0036875
X-00313Y0031525
X-0049575Y0018525
X-00491Y00062
X-00476Y0006125
X-004585
X-0050625Y0006275
X-0038725Y0005425
T02
X-0028275Y-003565
X-002825Y0004325
X-0013725Y0009175
X-0013675Y0012125
X-0014825Y001135
X-0014925Y0015475
X-00131Y00149
X-0013275Y001865
X-0014775Y001895
X-0014275Y0022525
X-0006275Y001925
X-0005775Y0011575
X-0004675Y00123
X-002075Y0027575
X-00276Y0028675
X-002755Y0024325
X-00263Y002355
T03
X-003637Y-0030275
X-003891
X-004145
X-004399
X-004653
X-004907
X-005161
X-005415
Y-0032815
X-005161
X-004907
X-004653
X-004145
X-003891
X-003637
X-002113
Y-0030275
X-001859
X-001605
X-001351
X-001097
X-000843
X-000589
X-000335
Y-0032815
X-000589
X-000843
X-001351
X-001605
X-001859
X0Y-0012
Y-000005
X-0051785Y0009655
Y0012195
X-0054325
Y0014735
Y0017275
X-0051785
Y0014735
X-0054325Y0009655
X-005415Y0045925
X-005161
X-004907
X-004653
Y0048465
X-004907
X-005161
X-005415
X-004399
X-004145
Y0045925
X-003891
X-003637
Y0048465
X-003891
X-002113
X-001859
X-001605
X-001351
X-001097
X-000843
X-000589
X-000335
Y0045925
X-000589
X-000843
X-001351
X-001605
X-001859
X-002113
T04
X-0001715Y000755
Y002205
T05
X-0007675Y000755
Y002205
T06
X-003617Y-002207
X-000315
Y003693
X-003617
M30
