M71
M48
T1F00S00C0.4000
T2F00S00C0.5000
T3F00S00C1.0000
T4F00S00C1.7000
T5F00S00C2.7000
T6F00S00C3.0000
%
T01
X000112Y-003218
X-000333Y-0032555
X-0003355Y-0038455
X-000518Y-0038905
X000112Y-003783
X0002995Y-0067055
X-001418Y-006498
X001327Y-002518
X0016145Y-0025955
X001602Y-0022155
X0015995Y-001858
X0016245Y-0013405
X0013745Y-001183
X0012595Y-001193
X0012945Y-001568
X0008795Y-001573
X0007645Y-0015755
X0009945Y-0018505
X0007245Y-000983
X0019045Y-0011805
X0018045Y-002898
X0000345Y-002808
X0001295Y-0024305
X0001795Y-0016355
X0002895
X000397
X0005045Y-001633
X-000043Y-001558
X-000163Y-0015605
X-000358Y-0016155
Y-001733
X-0002705Y-0018755
X000057Y-0011055
X-000163Y-000698
X-0008705Y-000793
X-0005255Y-0000055
X000487Y-0005405
X-0013405Y-0018405
X-001293Y-003073
X-001143Y-0030805
X-000968
X-0014455Y-0030655
X-0002555Y-0031505
T02
X0007895Y-007258
X000792Y-0032605
X0022445Y-0027755
X0022495Y-0024805
X0021345Y-002558
X0021245Y-0021455
X002307Y-002203
X0022895Y-001828
X0021395Y-001798
X0021895Y-0014405
X0029895Y-001768
X0030395Y-0025355
X0031495Y-002463
X001542Y-0009355
X000857Y-0008255
X000862Y-0012605
X000987Y-001338
T03
X-00002Y-0067205
X-000274
Y-0069745
X-000528
Y-0067205
X-000782
X-001036
Y-0069745
X-00129
X-001544
X-001798
Y-0067205
X-001544
X-00129
X-00002Y-0069745
X001504
X001758
X002012
X002266
Y-0067205
X002012
X001758
X001504
X00252
X002774
Y-0069745
X003028
X003282
Y-0067205
X003028
X003622Y-004623
X003617Y-004008
X-0015615Y-0027275
X-0018155
Y-0024735
X-0015615
Y-0022195
Y-0019655
X-0018155
Y-0022195
X-001798Y0008995
Y0011535
X-001544
X-00129
X-001036
X-000782
X-000528
X-000274
X-00002
Y0008995
X-000274
X-000528
X-001036
X-00129
X-001544
X001504
X001758
X002012
X002266
Y0011535
X002012
X001758
X001504
X00252
X002774
Y0008995
X003028
X003282
Y0011535
X003028
T04
X0034455Y-001488
Y-002938
T05
X0028495Y-001488
Y-002938
T06
X0Y-0059
X003302
Y0
X0
M30
