%FSLAX44Y44*%
%MOMM*%
G71*
G01*
G75*
%ADD10R,2.5400X1.2700*%
%ADD11R,1.5240X1.5240*%
%ADD12R,1.5240X1.2700*%
%ADD13R,1.6000X1.6000*%
%ADD14R,0.9000X0.3000*%
%ADD15R,0.3000X0.9000*%
%ADD16R,5.2000X5.2000*%
%ADD17R,0.6000X1.1000*%
%ADD18R,1.1000X0.6000*%
%ADD19R,6.7000X6.7000*%
%ADD20R,3.0000X1.6000*%
%ADD21R,2.6000X0.3000*%
%ADD22R,1.2700X1.5240*%
%ADD23R,1.4000X1.2000*%
%ADD24C,0.2000*%
%ADD25C,0.5000*%
%ADD26C,0.3000*%
%ADD27C,0.2286*%
%ADD28C,2.4000*%
%ADD29O,1.6000X2.0000*%
%ADD30R,1.6000X2.0000*%
%ADD31C,6.0000*%
%ADD32C,2.3000*%
%ADD33C,3.3000*%
%ADD34C,2.0000*%
%ADD35R,2.0000X2.0000*%
%ADD36C,0.8000*%
%ADD37C,1.0000*%
%ADD38C,0.4000*%
%ADD39C,0.2540*%
%ADD40C,1.0000*%
%ADD41C,0.3048*%
%ADD42C,0.0254*%
%ADD43C,0.1000*%
D24*
X2218448Y2571148D02*
Y2585148D01*
X2185398Y2392598D02*
X2195248Y2382748D01*
X2185398Y2392598D02*
Y2477348D01*
X2279998D01*
Y2382748D02*
Y2477348D01*
X2195248Y2382748D02*
X2279998D01*
X2034948Y2457648D02*
Y2471648D01*
X2060698Y2561398D02*
X2074698D01*
X2273659Y2653152D02*
X2276991D01*
X2278658Y2654818D01*
Y2661482D01*
X2276991Y2663148D01*
X2273659D01*
X2271993Y2661482D01*
Y2654818D01*
X2273659Y2653152D01*
X2261996Y2654818D02*
X2263663Y2653152D01*
X2266995D01*
X2268661Y2654818D01*
Y2656483D01*
X2266995Y2658150D01*
X2263663D01*
X2261996Y2659816D01*
Y2661482D01*
X2263663Y2663148D01*
X2266995D01*
X2268661Y2661482D01*
X2252000Y2654818D02*
X2253666Y2653152D01*
X2256998D01*
X2258664Y2654818D01*
Y2661482D01*
X2256998Y2663148D01*
X2253666D01*
X2252000Y2661482D01*
X2248667Y2658150D02*
X2242003D01*
X2238671Y2654818D02*
X2237004Y2653152D01*
X2233672D01*
X2232006Y2654818D01*
Y2656483D01*
X2233672Y2658150D01*
X2235338D01*
X2233672D01*
X2232006Y2659816D01*
Y2661482D01*
X2233672Y2663148D01*
X2237004D01*
X2238671Y2661482D01*
X2228674Y2663148D02*
Y2661482D01*
X2227008D01*
Y2663148D01*
X2228674D01*
X2220343Y2654818D02*
X2218677Y2653152D01*
X2215345D01*
X2213679Y2654818D01*
Y2656483D01*
X2215345Y2658150D01*
X2217011D01*
X2215345D01*
X2213679Y2659816D01*
Y2661482D01*
X2215345Y2663148D01*
X2218677D01*
X2220343Y2661482D01*
X2278658Y2627751D02*
Y2636082D01*
X2276991Y2637748D01*
X2273659D01*
X2271993Y2636082D01*
Y2627751D01*
X2268661Y2629417D02*
X2266995Y2627751D01*
X2263663D01*
X2261996Y2629417D01*
Y2631084D01*
X2263663Y2632750D01*
X2261996Y2634416D01*
Y2636082D01*
X2263663Y2637748D01*
X2266995D01*
X2268661Y2636082D01*
Y2634416D01*
X2266995Y2632750D01*
X2268661Y2631084D01*
Y2629417D01*
X2266995Y2632750D02*
X2263663D01*
X2229082Y2684769D02*
X2227416Y2686435D01*
X2224084D01*
X2222418Y2684769D01*
Y2678104D01*
X2224084Y2676438D01*
X2227416D01*
X2229082Y2678104D01*
X2239079Y2684769D02*
X2237413Y2686435D01*
X2234081D01*
X2232415Y2684769D01*
Y2678104D01*
X2234081Y2676438D01*
X2237413D01*
X2239079Y2678104D01*
X2252408Y2676438D02*
X2255740D01*
X2254074D01*
Y2686435D01*
X2252408Y2684769D01*
X2260739D02*
X2262405Y2686435D01*
X2265737D01*
X2267403Y2684769D01*
Y2678104D01*
X2265737Y2676438D01*
X2262405D01*
X2260739Y2678104D01*
Y2684769D01*
X2270735D02*
X2272402Y2686435D01*
X2275734D01*
X2277400Y2684769D01*
Y2678104D01*
X2275734Y2676438D01*
X2272402D01*
X2270735Y2678104D01*
Y2684769D01*
X2280732Y2676438D02*
Y2686435D01*
X2287397Y2676438D01*
Y2686435D01*
X2297393D02*
X2290729D01*
Y2681436D01*
X2294061D01*
X2290729D01*
Y2676438D01*
X2229082Y2710169D02*
X2227416Y2711835D01*
X2224084D01*
X2222418Y2710169D01*
Y2703504D01*
X2224084Y2701838D01*
X2227416D01*
X2229082Y2703504D01*
X2232415Y2701838D02*
X2235747D01*
X2234081D01*
Y2711835D01*
X2232415Y2710169D01*
X2245744Y2701838D02*
Y2711835D01*
X2240745Y2706837D01*
X2247410D01*
D26*
X1982208Y2344208D02*
Y2450888D01*
Y2344208D02*
X2038088D01*
Y2450888D01*
X1982208D02*
X2038088D01*
D27*
X2829166Y1371065D02*
X2828078Y1369977D01*
X2829166Y1368888D01*
X2830255Y1369977D01*
X2829166Y1371065D01*
X2851586Y1386302D02*
X2850497Y1388478D01*
X2848321Y1390655D01*
X2846144Y1391743D01*
X2841791D01*
X2839614Y1390655D01*
X2837437Y1388478D01*
X2836349Y1386302D01*
X2835261Y1383036D01*
Y1377595D01*
X2836349Y1374330D01*
X2837437Y1372153D01*
X2839614Y1369977D01*
X2841791Y1368888D01*
X2846144D01*
X2848321Y1369977D01*
X2850497Y1372153D01*
X2851586Y1374330D01*
Y1377595D01*
X2846144D02*
X2851586D01*
X2864428Y1391743D02*
Y1368888D01*
X2856810Y1391743D02*
X2872047D01*
X2881297D02*
X2879121Y1390655D01*
X2876944Y1388478D01*
X2875856Y1386302D01*
X2874767Y1383036D01*
Y1377595D01*
X2875856Y1374330D01*
X2876944Y1372153D01*
X2879121Y1369977D01*
X2881297Y1368888D01*
X2885651D01*
X2887827Y1369977D01*
X2890004Y1372153D01*
X2891093Y1374330D01*
X2892181Y1377595D01*
Y1383036D01*
X2891093Y1386302D01*
X2890004Y1388478D01*
X2887827Y1390655D01*
X2885651Y1391743D01*
X2881297D01*
D39*
X2248178Y2672038D02*
X2247694Y2674468D01*
X2246318Y2676528D01*
X2244258Y2677905D01*
X2241828Y2678388D01*
X2239398Y2677905D01*
X2237337Y2676528D01*
X2235961Y2674468D01*
X2235478Y2672038D01*
X2186038Y2372898D02*
X2184038D01*
X2186038D01*
X2248178Y2672038D02*
X2268498Y2672198D01*
X2215498D02*
X2235478Y2672038D01*
X2215498Y2692198D02*
Y2723198D01*
Y2742198D02*
X2268498D01*
Y2692198D02*
Y2723198D01*
X2559448Y2338398D02*
Y2483398D01*
X2323848Y2553698D02*
Y2593698D01*
X2370248D01*
X2323848Y2553698D02*
X2370248D01*
Y2593698D01*
D40*
X2423228Y2463158D02*
X2422558Y2465658D01*
X2420728Y2467488D01*
X2418228Y2468158D01*
X2415728Y2467488D01*
X2413898Y2465658D01*
X2413228Y2463158D01*
X2413898Y2460658D01*
X2415728Y2458828D01*
X2418228Y2458158D01*
X2420728Y2458828D01*
X2422558Y2460658D01*
X2423228Y2463158D01*
D41*
X2356058Y2399018D02*
Y2421878D01*
X2307798Y2399018D02*
Y2421878D01*
X2337008D02*
X2356058D01*
X2337008Y2399018D02*
X2356058D01*
X2307798D02*
X2326848D01*
X2307798Y2421878D02*
X2326848D01*
X2442548Y2520128D02*
Y2542988D01*
X2490808Y2520128D02*
Y2542988D01*
X2442548Y2520128D02*
X2461598D01*
X2442548Y2542988D02*
X2461598D01*
X2471758D02*
X2490808D01*
X2471758Y2520128D02*
X2490808D01*
X2145048Y2552128D02*
X2164098D01*
X2145048Y2529268D02*
X2164098D01*
X2174258D02*
X2193308D01*
X2174258Y2552128D02*
X2193308D01*
X2145048Y2529268D02*
Y2552128D01*
X2193308Y2529268D02*
Y2552128D01*
X2301398Y2282518D02*
X2320448D01*
X2301398Y2305378D02*
X2320448D01*
X2272188D02*
X2291238D01*
X2272188Y2282518D02*
X2291238D01*
X2320448D02*
Y2305378D01*
X2272188Y2282518D02*
Y2305378D01*
X2287178Y2527598D02*
Y2546648D01*
X2264318Y2527598D02*
Y2546648D01*
Y2498388D02*
Y2517438D01*
X2287178Y2498388D02*
Y2517438D01*
X2264318Y2546648D02*
X2287178D01*
X2264318Y2498388D02*
X2287178D01*
X2267178Y2527098D02*
Y2546148D01*
X2244318Y2527098D02*
Y2546148D01*
Y2497888D02*
Y2516938D01*
X2267178Y2497888D02*
Y2516938D01*
X2244318Y2546148D02*
X2267178D01*
X2244318Y2497888D02*
X2267178D01*
X2368678Y2519598D02*
Y2538648D01*
X2345818Y2519598D02*
Y2538648D01*
Y2490388D02*
Y2509438D01*
X2368678Y2490388D02*
Y2509438D01*
X2345818Y2538648D02*
X2368678D01*
X2345818Y2490388D02*
X2368678D01*
X2382548Y2529628D02*
X2401598D01*
X2382548Y2506768D02*
X2401598D01*
X2411758D02*
X2430808D01*
X2411758Y2529628D02*
X2430808D01*
X2382548Y2506768D02*
Y2529628D01*
X2430808Y2506768D02*
Y2529628D01*
X2366548Y2457878D02*
X2385598D01*
X2366548Y2435018D02*
X2385598D01*
X2395758D02*
X2414808D01*
X2395758Y2457878D02*
X2414808D01*
X2366548Y2435018D02*
Y2457878D01*
X2414808Y2435018D02*
Y2457878D01*
X2358298Y2385878D02*
X2377348D01*
X2358298Y2363018D02*
X2377348D01*
X2387508D02*
X2406558D01*
X2387508Y2385878D02*
X2406558D01*
X2358298Y2363018D02*
Y2385878D01*
X2406558Y2363018D02*
Y2385878D01*
X2345798Y2312128D02*
X2364848D01*
X2345798Y2289268D02*
X2364848D01*
X2375008D02*
X2394058D01*
X2375008Y2312128D02*
X2394058D01*
X2345798Y2289268D02*
Y2312128D01*
X2394058Y2289268D02*
Y2312128D01*
X2377048Y2431378D02*
X2396098D01*
X2377048Y2408518D02*
X2396098D01*
X2406258D02*
X2425308D01*
X2406258Y2431378D02*
X2425308D01*
X2377048Y2408518D02*
Y2431378D01*
X2425308Y2408518D02*
Y2431378D01*
X2341548Y2358878D02*
X2360598D01*
X2341548Y2336018D02*
X2360598D01*
X2370758D02*
X2389808D01*
X2370758Y2358878D02*
X2389808D01*
X2341548Y2336018D02*
Y2358878D01*
X2389808Y2336018D02*
Y2358878D01*
X2382298Y2505128D02*
X2401348D01*
X2382298Y2482268D02*
X2401348D01*
X2411508D02*
X2430558D01*
X2411508Y2505128D02*
X2430558D01*
X2382298Y2482268D02*
Y2505128D01*
X2430558Y2482268D02*
Y2505128D01*
X2346048Y2285878D02*
X2365098D01*
X2346048Y2263018D02*
X2365098D01*
X2375258D02*
X2394308D01*
X2375258Y2285878D02*
X2394308D01*
X2346048Y2263018D02*
Y2285878D01*
X2394308Y2263018D02*
Y2285878D01*
X2442548Y2574378D02*
X2461598D01*
X2442548Y2551518D02*
X2461598D01*
X2471758D02*
X2490808D01*
X2471758Y2574378D02*
X2490808D01*
X2442548Y2551518D02*
Y2574378D01*
X2490808Y2551518D02*
Y2574378D01*
X2271068Y2549638D02*
X2293928D01*
X2271068Y2597898D02*
X2293928D01*
Y2549638D02*
Y2568688D01*
X2271068Y2549638D02*
Y2568688D01*
Y2578848D02*
Y2597898D01*
X2293928Y2578848D02*
Y2597898D01*
X2297818Y2549388D02*
X2320678D01*
X2297818Y2597648D02*
X2320678D01*
Y2549388D02*
Y2568438D01*
X2297818Y2549388D02*
Y2568438D01*
Y2578598D02*
Y2597648D01*
X2320678Y2578598D02*
Y2597648D01*
X2320558Y2253768D02*
Y2276628D01*
X2272298Y2253768D02*
Y2276628D01*
X2301508D02*
X2320558D01*
X2301508Y2253768D02*
X2320558D01*
X2272298D02*
X2291348D01*
X2272298Y2276628D02*
X2291348D01*
D42*
X2183448Y2588148D02*
X2203448D01*
X2183448Y2568148D02*
X2203448D01*
X2049948Y2474648D02*
X2069948D01*
X2049948Y2454648D02*
X2069948D01*
X2077698Y2576398D02*
Y2596398D01*
X2057698Y2576398D02*
Y2596398D01*
D43*
X2531800Y2194454D02*
X2535132D01*
X2533466D01*
Y2189456D01*
X2536798D02*
Y2194454D01*
X2539297D01*
X2540130Y2193622D01*
Y2191955D01*
X2539297Y2191122D01*
X2536798D01*
X2531800Y2219854D02*
X2535132D01*
X2533466D01*
Y2214856D01*
X2536798D02*
Y2219854D01*
X2539297D01*
X2540130Y2219021D01*
Y2217355D01*
X2539297Y2216522D01*
X2536798D01*
X2545129Y2214856D02*
X2541796D01*
X2545129Y2218188D01*
Y2219021D01*
X2544296Y2219854D01*
X2542630D01*
X2541796Y2219021D01*
X2531300Y2255954D02*
X2534632D01*
X2532966D01*
Y2250956D01*
X2536298D02*
Y2255954D01*
X2538797D01*
X2539630Y2255121D01*
Y2253455D01*
X2538797Y2252622D01*
X2536298D01*
X2531300Y2281355D02*
X2534632D01*
X2532966D01*
Y2276356D01*
X2536298D02*
Y2281355D01*
X2538797D01*
X2539630Y2280522D01*
Y2278855D01*
X2538797Y2278022D01*
X2536298D01*
X2541296Y2276356D02*
X2542962D01*
X2542130D01*
Y2281355D01*
X2541296Y2280522D01*
X2494248Y2559948D02*
Y2564947D01*
X2496747D01*
X2497580Y2564113D01*
Y2562447D01*
X2496747Y2561614D01*
X2494248D01*
X2495914D02*
X2497580Y2559948D01*
X2507577D02*
X2504244D01*
X2507577Y2563280D01*
Y2564113D01*
X2506744Y2564947D01*
X2505078D01*
X2504244Y2564113D01*
X2509243Y2564947D02*
X2512575D01*
Y2564113D01*
X2509243Y2560781D01*
Y2559948D01*
X2514241Y2564947D02*
Y2559948D01*
Y2561614D01*
X2517573Y2564947D01*
X2515074Y2562447D01*
X2517573Y2559948D01*
X2441748Y2577698D02*
Y2582697D01*
X2444247D01*
X2445080Y2581863D01*
Y2580197D01*
X2444247Y2579364D01*
X2441748D01*
X2443414D02*
X2445080Y2577698D01*
X2446746D02*
X2448412D01*
X2447579D01*
Y2582697D01*
X2446746Y2581863D01*
X2450911D02*
X2451744Y2582697D01*
X2453410D01*
X2454244Y2581863D01*
Y2581030D01*
X2453410Y2580197D01*
X2454244Y2579364D01*
Y2578531D01*
X2453410Y2577698D01*
X2451744D01*
X2450911Y2578531D01*
Y2579364D01*
X2451744Y2580197D01*
X2450911Y2581030D01*
Y2581863D01*
X2451744Y2580197D02*
X2453410D01*
X2471108Y2547310D02*
Y2552308D01*
X2468609D01*
X2467775Y2551475D01*
Y2548143D01*
X2468609Y2547310D01*
X2471108D01*
X2466109D02*
X2464443D01*
X2465276D01*
Y2552308D01*
X2466109D01*
X2464443D01*
X2459445Y2547310D02*
X2461111D01*
X2461944Y2548143D01*
Y2551475D01*
X2461111Y2552308D01*
X2459445D01*
X2458612Y2551475D01*
Y2548143D01*
X2459445Y2547310D01*
X2456946D02*
Y2552308D01*
X2454446D01*
X2453613Y2551475D01*
Y2548143D01*
X2454446Y2547310D01*
X2456946D01*
X2437858Y2528810D02*
Y2533808D01*
X2435358D01*
X2434525Y2532975D01*
Y2529643D01*
X2435358Y2528810D01*
X2437858D01*
X2432859Y2533808D02*
X2431193D01*
X2432026D01*
Y2528810D01*
X2432859Y2529643D01*
X2266416Y2533448D02*
X2271414D01*
Y2530949D01*
X2270581Y2530116D01*
X2268915D01*
X2268082Y2530949D01*
Y2533448D01*
Y2531782D02*
X2266416Y2530116D01*
Y2520119D02*
Y2523451D01*
X2269748Y2520119D01*
X2270581D01*
X2271414Y2520952D01*
Y2522618D01*
X2270581Y2523451D01*
X2271414Y2518453D02*
X2266416D01*
X2268082D01*
X2271414Y2515121D01*
X2268915Y2517620D01*
X2266416Y2515121D01*
Y2510122D02*
Y2513455D01*
X2269748Y2510122D01*
X2270581D01*
X2271414Y2510956D01*
Y2512622D01*
X2270581Y2513455D01*
X2291816Y2533448D02*
X2296814D01*
Y2530949D01*
X2295981Y2530116D01*
X2294315D01*
X2293482Y2530949D01*
Y2533448D01*
Y2531782D02*
X2291816Y2530116D01*
Y2528450D02*
Y2526784D01*
Y2527617D01*
X2296814D01*
X2295981Y2528450D01*
X2296814Y2524285D02*
Y2520952D01*
X2295981D01*
X2292649Y2524285D01*
X2291816D01*
X2286416Y2533948D02*
X2291414D01*
Y2531449D01*
X2290581Y2530616D01*
X2288915D01*
X2288082Y2531449D01*
Y2533948D01*
Y2532282D02*
X2286416Y2530616D01*
Y2520619D02*
Y2523951D01*
X2289748Y2520619D01*
X2290581D01*
X2291414Y2521452D01*
Y2523118D01*
X2290581Y2523951D01*
X2291414Y2518953D02*
X2286416D01*
X2288082D01*
X2291414Y2515621D01*
X2288915Y2518120D01*
X2286416Y2515621D01*
Y2510622D02*
Y2513955D01*
X2289748Y2510622D01*
X2290581D01*
X2291414Y2511456D01*
Y2513122D01*
X2290581Y2513955D01*
X2313066Y2534198D02*
X2318064D01*
Y2531699D01*
X2317231Y2530866D01*
X2315565D01*
X2314732Y2531699D01*
Y2534198D01*
Y2532532D02*
X2313066Y2530866D01*
Y2529200D02*
Y2527534D01*
Y2528367D01*
X2318064D01*
X2317231Y2529200D01*
X2318064Y2521702D02*
X2317231Y2523368D01*
X2315565Y2525034D01*
X2313899D01*
X2313066Y2524201D01*
Y2522535D01*
X2313899Y2521702D01*
X2314732D01*
X2315565Y2522535D01*
Y2525034D01*
X2214664Y2615530D02*
X2213831Y2614697D01*
Y2613031D01*
X2214664Y2612198D01*
X2217997D01*
X2218830Y2613031D01*
Y2614697D01*
X2217997Y2615530D01*
X2214664Y2620529D02*
X2213831Y2619696D01*
Y2618029D01*
X2214664Y2617196D01*
X2217997D01*
X2218830Y2618029D01*
Y2619696D01*
X2217997Y2620529D01*
X2218830Y2627193D02*
Y2628859D01*
Y2628026D01*
X2213831D01*
X2214664Y2627193D01*
Y2631359D02*
X2213831Y2632191D01*
Y2633858D01*
X2214664Y2634691D01*
X2217997D01*
X2218830Y2633858D01*
Y2632191D01*
X2217997Y2631359D01*
X2214664D01*
X2218830Y2636357D02*
X2213831D01*
X2218830Y2639689D01*
X2213831D01*
Y2644688D02*
Y2641355D01*
X2216331D01*
Y2643022D01*
Y2641355D01*
X2218830D01*
X2189264Y2615530D02*
X2188431Y2614697D01*
Y2613031D01*
X2189264Y2612198D01*
X2192597D01*
X2193430Y2613031D01*
Y2614697D01*
X2192597Y2615530D01*
X2193430Y2620529D02*
Y2617196D01*
X2190097Y2620529D01*
X2189264D01*
X2188431Y2619696D01*
Y2618029D01*
X2189264Y2617196D01*
Y2622195D02*
X2188431Y2623028D01*
Y2624694D01*
X2189264Y2625527D01*
X2192597D01*
X2193430Y2624694D01*
Y2623028D01*
X2192597Y2622195D01*
X2189264D01*
X2083526Y2708859D02*
X2086858D01*
X2085192D01*
Y2703860D01*
X2088524D02*
X2090190D01*
X2089357D01*
Y2708859D01*
X2088524Y2708026D01*
X2184995Y2314393D02*
X2185829Y2313560D01*
X2187495D01*
X2188328Y2314393D01*
Y2317725D01*
X2187495Y2318558D01*
X2185829D01*
X2184995Y2317725D01*
X2183329Y2318558D02*
X2181663D01*
X2182496D01*
Y2313560D01*
X2183329Y2314393D01*
X2407245Y2517143D02*
X2408078Y2516310D01*
X2409745D01*
X2410578Y2517143D01*
Y2520475D01*
X2409745Y2521308D01*
X2408078D01*
X2407245Y2520475D01*
X2402247Y2521308D02*
X2405579D01*
X2402247Y2517976D01*
Y2517143D01*
X2403080Y2516310D01*
X2404746D01*
X2405579Y2517143D01*
X2500000Y2347254D02*
X2499167Y2348087D01*
X2497501D01*
X2496668Y2347254D01*
Y2343921D01*
X2497501Y2343088D01*
X2499167D01*
X2500000Y2343921D01*
X2501666Y2347254D02*
X2502499Y2348087D01*
X2504165D01*
X2504998Y2347254D01*
Y2346420D01*
X2504165Y2345587D01*
X2503332D01*
X2504165D01*
X2504998Y2344754D01*
Y2343921D01*
X2504165Y2343088D01*
X2502499D01*
X2501666Y2343921D01*
X2305553Y2347696D02*
X2306386Y2348529D01*
Y2350195D01*
X2305553Y2351028D01*
X2302221D01*
X2301388Y2350195D01*
Y2348529D01*
X2302221Y2347696D01*
X2301388Y2343531D02*
X2306386D01*
X2303887Y2346030D01*
Y2342697D01*
X2328053Y2342946D02*
X2328886Y2343779D01*
Y2345445D01*
X2328053Y2346278D01*
X2324721D01*
X2323888Y2345445D01*
Y2343779D01*
X2324721Y2342946D01*
X2328886Y2337948D02*
Y2341280D01*
X2326387D01*
X2327220Y2339614D01*
Y2338781D01*
X2326387Y2337948D01*
X2324721D01*
X2323888Y2338781D01*
Y2340447D01*
X2324721Y2341280D01*
X2282053Y2325446D02*
X2282886Y2326279D01*
Y2327945D01*
X2282053Y2328778D01*
X2278721D01*
X2277888Y2327945D01*
Y2326279D01*
X2278721Y2325446D01*
X2282886Y2320448D02*
X2282053Y2322114D01*
X2280387Y2323780D01*
X2278721D01*
X2277888Y2322947D01*
Y2321281D01*
X2278721Y2320448D01*
X2279554D01*
X2280387Y2321281D01*
Y2323780D01*
X2359303Y2344946D02*
X2360136Y2345779D01*
Y2347445D01*
X2359303Y2348278D01*
X2355971D01*
X2355138Y2347445D01*
Y2345779D01*
X2355971Y2344946D01*
X2360136Y2343280D02*
Y2339948D01*
X2359303D01*
X2355971Y2343280D01*
X2355138D01*
X2325330Y2368363D02*
X2324497Y2369196D01*
X2322831D01*
X2321998Y2368363D01*
Y2365031D01*
X2322831Y2364198D01*
X2324497D01*
X2325330Y2365031D01*
X2326996Y2368363D02*
X2327829Y2369196D01*
X2329495D01*
X2330328Y2368363D01*
Y2367530D01*
X2329495Y2366697D01*
X2330328Y2365864D01*
Y2365031D01*
X2329495Y2364198D01*
X2327829D01*
X2326996Y2365031D01*
Y2365864D01*
X2327829Y2366697D01*
X2326996Y2367530D01*
Y2368363D01*
X2327829Y2366697D02*
X2329495D01*
X2327330Y2451363D02*
X2326497Y2452197D01*
X2324831D01*
X2323998Y2451363D01*
Y2448031D01*
X2324831Y2447198D01*
X2326497D01*
X2327330Y2448031D01*
X2328996D02*
X2329829Y2447198D01*
X2331495D01*
X2332328Y2448031D01*
Y2451363D01*
X2331495Y2452197D01*
X2329829D01*
X2328996Y2451363D01*
Y2450530D01*
X2329829Y2449697D01*
X2332328D01*
X2256142Y2488700D02*
X2255309Y2487867D01*
Y2486201D01*
X2256142Y2485368D01*
X2259475D01*
X2260308Y2486201D01*
Y2487867D01*
X2259475Y2488700D01*
X2260308Y2490366D02*
Y2492033D01*
Y2491199D01*
X2255309D01*
X2256142Y2490366D01*
Y2494532D02*
X2255309Y2495365D01*
Y2497031D01*
X2256142Y2497864D01*
X2259475D01*
X2260308Y2497031D01*
Y2495365D01*
X2259475Y2494532D01*
X2256142D01*
X2103942Y2492200D02*
X2103109Y2491367D01*
Y2489701D01*
X2103942Y2488868D01*
X2107275D01*
X2108108Y2489701D01*
Y2491367D01*
X2107275Y2492200D01*
X2108108Y2493866D02*
Y2495533D01*
Y2494700D01*
X2103109D01*
X2103942Y2493866D01*
X2108108Y2498032D02*
Y2499698D01*
Y2498865D01*
X2103109D01*
X2103942Y2498032D01*
X2348080Y2491364D02*
X2347247Y2492197D01*
X2345581D01*
X2344748Y2491364D01*
Y2488031D01*
X2345581Y2487198D01*
X2347247D01*
X2348080Y2488031D01*
X2349746Y2487198D02*
X2351412D01*
X2350579D01*
Y2492197D01*
X2349746Y2491364D01*
X2357244Y2487198D02*
X2353911D01*
X2357244Y2490530D01*
Y2491364D01*
X2356411Y2492197D01*
X2354744D01*
X2353911Y2491364D01*
X2210195Y2533343D02*
X2211028Y2532510D01*
X2212695D01*
X2213528Y2533343D01*
Y2536675D01*
X2212695Y2537508D01*
X2211028D01*
X2210195Y2536675D01*
X2208529Y2537508D02*
X2206863D01*
X2207696D01*
Y2532510D01*
X2208529Y2533343D01*
X2204364D02*
X2203531Y2532510D01*
X2201865D01*
X2201032Y2533343D01*
Y2534176D01*
X2201865Y2535009D01*
X2202698D01*
X2201865D01*
X2201032Y2535842D01*
Y2536675D01*
X2201865Y2537508D01*
X2203531D01*
X2204364Y2536675D01*
X2020352Y2566348D02*
X2019519Y2565515D01*
Y2563849D01*
X2020352Y2563016D01*
X2023685D01*
X2024518Y2563849D01*
Y2565515D01*
X2023685Y2566348D01*
X2024518Y2568015D02*
Y2569680D01*
Y2568848D01*
X2019519D01*
X2020352Y2568015D01*
X2019519Y2572180D02*
Y2575512D01*
X2020352D01*
X2023685Y2572180D01*
X2024518D01*
X2039898Y2511994D02*
X2039065Y2512827D01*
X2037399D01*
X2036566Y2511994D01*
Y2508661D01*
X2037399Y2507828D01*
X2039065D01*
X2039898Y2508661D01*
X2041564Y2507828D02*
X2043230D01*
X2042397D01*
Y2512827D01*
X2041564Y2511994D01*
X2045729D02*
X2046562Y2512827D01*
X2048228D01*
X2049062Y2511994D01*
Y2511160D01*
X2048228Y2510327D01*
X2049062Y2509494D01*
Y2508661D01*
X2048228Y2507828D01*
X2046562D01*
X2045729Y2508661D01*
Y2509494D01*
X2046562Y2510327D01*
X2045729Y2511160D01*
Y2511994D01*
X2046562Y2510327D02*
X2048228D01*
X2391580Y2627181D02*
X2390747Y2628015D01*
X2389081D01*
X2388248Y2627181D01*
Y2623849D01*
X2389081Y2623016D01*
X2390747D01*
X2391580Y2623849D01*
X2393246Y2623016D02*
X2394912D01*
X2394079D01*
Y2628015D01*
X2393246Y2627181D01*
X2397411Y2623849D02*
X2398244Y2623016D01*
X2399910D01*
X2400744Y2623849D01*
Y2627181D01*
X2399910Y2628015D01*
X2398244D01*
X2397411Y2627181D01*
Y2626348D01*
X2398244Y2625515D01*
X2400744D01*
X1953305Y2714782D02*
X1958304D01*
X1955804D01*
Y2718114D01*
X1953305D01*
X1958304D01*
X1953305Y2723113D02*
Y2719781D01*
X1958304D01*
Y2723113D01*
X1955804Y2719781D02*
Y2721447D01*
X1954138Y2724779D02*
X1953305Y2725612D01*
Y2727278D01*
X1954138Y2728111D01*
X1954971D01*
X1955804Y2727278D01*
Y2726445D01*
Y2727278D01*
X1956638Y2728111D01*
X1957471D01*
X1958304Y2727278D01*
Y2725612D01*
X1957471Y2724779D01*
X1953305Y1927382D02*
X1958304D01*
X1955804D01*
Y1930714D01*
X1953305D01*
X1958304D01*
X1953305Y1935713D02*
Y1932381D01*
X1958304D01*
Y1935713D01*
X1955804Y1932381D02*
Y1934047D01*
X1958304Y1939878D02*
X1953305D01*
X1955804Y1937379D01*
Y1940711D01*
X2283505Y2714782D02*
X2288504D01*
X2286004D01*
Y2718114D01*
X2283505D01*
X2288504D01*
X2283505Y2723113D02*
Y2719781D01*
X2288504D01*
Y2723113D01*
X2286004Y2719781D02*
Y2721447D01*
X2288504Y2724779D02*
Y2726445D01*
Y2725612D01*
X2283505D01*
X2284338Y2724779D01*
X2283505Y1927382D02*
X2288504D01*
X2286004D01*
Y1930714D01*
X2283505D01*
X2288504D01*
X2283505Y1935713D02*
Y1932381D01*
X2288504D01*
Y1935713D01*
X2286004Y1932381D02*
Y1934047D01*
X2288504Y1940711D02*
Y1937379D01*
X2285171Y1940711D01*
X2284338D01*
X2283505Y1939878D01*
Y1938212D01*
X2284338Y1937379D01*
X2431449Y2416730D02*
Y2415064D01*
Y2415897D01*
X2435615D01*
X2436448Y2415064D01*
Y2414231D01*
X2435615Y2413398D01*
X2436448Y2418396D02*
Y2420063D01*
Y2419230D01*
X2431449D01*
X2432282Y2418396D01*
X2077630Y2446540D02*
Y2448206D01*
Y2447373D01*
X2073465D01*
X2072632Y2448206D01*
Y2449039D01*
X2073465Y2449872D01*
X2072632Y2441541D02*
Y2444874D01*
X2075964Y2441541D01*
X2076797D01*
X2077630Y2442375D01*
Y2444041D01*
X2076797Y2444874D01*
X2159907Y2550814D02*
Y2555813D01*
X2162406D01*
X2163239Y2554979D01*
Y2553313D01*
X2162406Y2552480D01*
X2159907D01*
X2161573D02*
X2163239Y2550814D01*
X2164905D02*
X2166571D01*
X2165738D01*
Y2555813D01*
X2164905Y2554979D01*
X2346498Y2271948D02*
Y2276947D01*
X2348997D01*
X2349830Y2276113D01*
Y2274447D01*
X2348997Y2273614D01*
X2346498D01*
X2348164D02*
X2349830Y2271948D01*
X2354828D02*
X2351496D01*
X2354828Y2275280D01*
Y2276113D01*
X2353995Y2276947D01*
X2352329D01*
X2351496Y2276113D01*
X2398998Y2482448D02*
Y2487446D01*
X2401497D01*
X2402330Y2486613D01*
Y2484947D01*
X2401497Y2484114D01*
X2398998D01*
X2400664D02*
X2402330Y2482448D01*
X2403996Y2486613D02*
X2404829Y2487446D01*
X2406495D01*
X2407328Y2486613D01*
Y2485780D01*
X2406495Y2484947D01*
X2405662D01*
X2406495D01*
X2407328Y2484114D01*
Y2483281D01*
X2406495Y2482448D01*
X2404829D01*
X2403996Y2483281D01*
X2361748Y2356948D02*
Y2361947D01*
X2364247D01*
X2365080Y2361113D01*
Y2359447D01*
X2364247Y2358614D01*
X2361748D01*
X2363414D02*
X2365080Y2356948D01*
X2369245D02*
Y2361947D01*
X2366746Y2359447D01*
X2370078D01*
X2404248Y2417448D02*
Y2422446D01*
X2406747D01*
X2407580Y2421613D01*
Y2419947D01*
X2406747Y2419114D01*
X2404248D01*
X2405914D02*
X2407580Y2417448D01*
X2412578Y2422446D02*
X2409246D01*
Y2419947D01*
X2410912Y2420780D01*
X2411745D01*
X2412578Y2419947D01*
Y2418281D01*
X2411745Y2417448D01*
X2410079D01*
X2409246Y2418281D01*
X2372998Y2298448D02*
Y2303447D01*
X2375497D01*
X2376330Y2302614D01*
Y2300947D01*
X2375497Y2300114D01*
X2372998D01*
X2374664D02*
X2376330Y2298448D01*
X2381328Y2303447D02*
X2379662Y2302614D01*
X2377996Y2300947D01*
Y2299281D01*
X2378829Y2298448D01*
X2380495D01*
X2381328Y2299281D01*
Y2300114D01*
X2380495Y2300947D01*
X2377996D01*
X2358498Y2371448D02*
Y2376447D01*
X2360997D01*
X2361830Y2375613D01*
Y2373947D01*
X2360997Y2373114D01*
X2358498D01*
X2360164D02*
X2361830Y2371448D01*
X2363496Y2376447D02*
X2366828D01*
Y2375613D01*
X2363496Y2372281D01*
Y2371448D01*
X2366498Y2443948D02*
Y2448947D01*
X2368997D01*
X2369830Y2448114D01*
Y2446447D01*
X2368997Y2445614D01*
X2366498D01*
X2368164D02*
X2369830Y2443948D01*
X2371496Y2448114D02*
X2372329Y2448947D01*
X2373995D01*
X2374828Y2448114D01*
Y2447280D01*
X2373995Y2446447D01*
X2374828Y2445614D01*
Y2444781D01*
X2373995Y2443948D01*
X2372329D01*
X2371496Y2444781D01*
Y2445614D01*
X2372329Y2446447D01*
X2371496Y2447280D01*
Y2448114D01*
X2372329Y2446447D02*
X2373995D01*
X2380748Y2516448D02*
Y2521447D01*
X2383247D01*
X2384080Y2520613D01*
Y2518947D01*
X2383247Y2518114D01*
X2380748D01*
X2382414D02*
X2384080Y2516448D01*
X2385746Y2517281D02*
X2386579Y2516448D01*
X2388245D01*
X2389078Y2517281D01*
Y2520613D01*
X2388245Y2521447D01*
X2386579D01*
X2385746Y2520613D01*
Y2519780D01*
X2386579Y2518947D01*
X2389078D01*
X2393248Y2525948D02*
X2398246D01*
Y2523449D01*
X2397413Y2522616D01*
X2395747D01*
X2394914Y2523449D01*
Y2525948D01*
Y2524282D02*
X2393248Y2522616D01*
Y2520950D02*
Y2519284D01*
Y2520117D01*
X2398246D01*
X2397413Y2520950D01*
Y2516785D02*
X2398246Y2515951D01*
Y2514285D01*
X2397413Y2513452D01*
X2394081D01*
X2393248Y2514285D01*
Y2515951D01*
X2394081Y2516785D01*
X2397413D01*
X2312998Y2390198D02*
Y2395197D01*
X2315497D01*
X2316330Y2394364D01*
Y2392697D01*
X2315497Y2391864D01*
X2312998D01*
X2314664D02*
X2316330Y2390198D01*
X2317996D02*
X2319662D01*
X2318829D01*
Y2395197D01*
X2317996Y2394364D01*
X2322161Y2390198D02*
X2323828D01*
X2322994D01*
Y2395197D01*
X2322161Y2394364D01*
X2254748Y2289198D02*
Y2294196D01*
X2257247D01*
X2258080Y2293363D01*
Y2291697D01*
X2257247Y2290864D01*
X2254748D01*
X2256414D02*
X2258080Y2289198D01*
X2259746D02*
X2261412D01*
X2260579D01*
Y2294196D01*
X2259746Y2293363D01*
X2267244Y2289198D02*
X2263911D01*
X2267244Y2292530D01*
Y2293363D01*
X2266411Y2294196D01*
X2264744D01*
X2263911Y2293363D01*
X2276748Y2244198D02*
Y2249196D01*
X2279247D01*
X2280080Y2248363D01*
Y2246697D01*
X2279247Y2245864D01*
X2276748D01*
X2278414D02*
X2280080Y2244198D01*
X2281746D02*
X2283412D01*
X2282579D01*
Y2249196D01*
X2281746Y2248363D01*
X2285911D02*
X2286744Y2249196D01*
X2288410D01*
X2289244Y2248363D01*
Y2247530D01*
X2288410Y2246697D01*
X2287578D01*
X2288410D01*
X2289244Y2245864D01*
Y2245031D01*
X2288410Y2244198D01*
X2286744D01*
X2285911Y2245031D01*
X2304748Y2609448D02*
Y2614446D01*
X2307247D01*
X2308080Y2613614D01*
Y2611947D01*
X2307247Y2611114D01*
X2304748D01*
X2306414D02*
X2308080Y2609448D01*
X2309746D02*
X2311412D01*
X2310579D01*
Y2614446D01*
X2309746Y2613614D01*
X2316411Y2609448D02*
Y2614446D01*
X2313911Y2611947D01*
X2317244D01*
X2318566Y2585198D02*
X2323564D01*
Y2582699D01*
X2322731Y2581866D01*
X2321065D01*
X2320232Y2582699D01*
Y2585198D01*
Y2583532D02*
X2318566Y2581866D01*
Y2580200D02*
Y2578534D01*
Y2579367D01*
X2323564D01*
X2322731Y2580200D01*
X2323564Y2572702D02*
Y2576035D01*
X2321065D01*
X2321898Y2574368D01*
Y2573535D01*
X2321065Y2572702D01*
X2319399D01*
X2318566Y2573535D01*
Y2575201D01*
X2319399Y2576035D01*
X2181249Y2376698D02*
X2185415D01*
X2186248Y2377531D01*
Y2379197D01*
X2185415Y2380030D01*
X2181249D01*
X2186248Y2381696D02*
Y2383363D01*
Y2382530D01*
X2181249D01*
X2182082Y2381696D01*
X2349749Y2318448D02*
X2353915D01*
X2354748Y2319281D01*
Y2320947D01*
X2353915Y2321780D01*
X2349749D01*
X2354748Y2326779D02*
Y2323447D01*
X2351415Y2326779D01*
X2350582D01*
X2349749Y2325946D01*
Y2324280D01*
X2350582Y2323447D01*
X2353999Y2245448D02*
X2358165D01*
X2358998Y2246281D01*
Y2247947D01*
X2358165Y2248780D01*
X2353999D01*
X2354832Y2250446D02*
X2353999Y2251279D01*
Y2252946D01*
X2354832Y2253779D01*
X2355665D01*
X2356499Y2252946D01*
Y2252113D01*
Y2252946D01*
X2357332Y2253779D01*
X2358165D01*
X2358998Y2252946D01*
Y2251279D01*
X2358165Y2250446D01*
X2320940Y2558506D02*
Y2554341D01*
X2321773Y2553508D01*
X2323439D01*
X2324272Y2554341D01*
Y2558506D01*
X2328437Y2553508D02*
Y2558506D01*
X2325938Y2556007D01*
X2329270D01*
X2359499Y2391448D02*
X2363665D01*
X2364498Y2392281D01*
Y2393947D01*
X2363665Y2394780D01*
X2359499D01*
Y2399779D02*
Y2396447D01*
X2361998D01*
X2361165Y2398113D01*
Y2398946D01*
X2361998Y2399779D01*
X2363665D01*
X2364498Y2398946D01*
Y2397280D01*
X2363665Y2396447D01*
X2358139Y2465940D02*
X2362305D01*
X2363138Y2466773D01*
Y2468439D01*
X2362305Y2469272D01*
X2358139D01*
Y2474271D02*
X2358972Y2472605D01*
X2360638Y2470939D01*
X2362305D01*
X2363138Y2471772D01*
Y2473438D01*
X2362305Y2474271D01*
X2361472D01*
X2360638Y2473438D01*
Y2470939D01*
X2425490Y2342556D02*
Y2338391D01*
X2426323Y2337558D01*
X2427989D01*
X2428822Y2338391D01*
Y2342556D01*
X2430488D02*
X2433820D01*
Y2341723D01*
X2430488Y2338391D01*
Y2337558D01*
X2357978Y2504868D02*
Y2509033D01*
X2357145Y2509866D01*
X2355479D01*
X2354645Y2509033D01*
Y2504868D01*
X2352979Y2509033D02*
X2352146Y2509866D01*
X2350480D01*
X2349647Y2509033D01*
Y2505701D01*
X2350480Y2504868D01*
X2352146D01*
X2352979Y2505701D01*
Y2506534D01*
X2352146Y2507367D01*
X2349647D01*
X1975699Y2457398D02*
X1979865D01*
X1980698Y2458231D01*
Y2459897D01*
X1979865Y2460730D01*
X1975699D01*
X1980698Y2462397D02*
Y2464063D01*
Y2463230D01*
X1975699D01*
X1976532Y2462397D01*
Y2466562D02*
X1975699Y2467395D01*
Y2469061D01*
X1976532Y2469894D01*
X1979865D01*
X1980698Y2469061D01*
Y2467395D01*
X1979865Y2466562D01*
X1976532D01*
M02*
