%FSLAX44Y44*%
%MOMM*%
G71*
G01*
G75*
%ADD10R,1.5240X1.5240*%
%ADD11R,0.2500X1.8000*%
%ADD12R,3.0320X1.7780*%
%ADD13O,0.3000X2.5000*%
%ADD14R,0.3000X2.5000*%
%ADD15O,2.5000X0.3000*%
%ADD16R,2.5000X0.3000*%
%ADD17R,1.8000X0.2500*%
%ADD18R,5.5000X5.5000*%
%ADD19R,0.6000X1.1000*%
%ADD20R,0.3000X1.2000*%
%ADD21R,2.0000X0.5000*%
%ADD22R,1.0000X0.5000*%
%ADD23C,0.2500*%
%ADD24C,0.5000*%
%ADD25C,0.2286*%
%ADD26C,0.2000*%
%ADD27C,0.4000*%
%ADD28C,0.6350*%
%ADD29C,0.2540*%
%ADD30C,0.2032*%
%ADD31C,0.1524*%
%ADD32C,0.1270*%
%ADD33C,2.0000*%
%ADD34C,1.5000*%
%ADD35C,3.0000*%
%ADD36O,1.8000X2.0000*%
%ADD37R,1.8000X2.0000*%
%ADD38C,5.0000*%
%ADD39C,1.6000*%
%ADD40C,1.1500*%
%ADD41O,1.2000X1.4000*%
%ADD42O,1.1000X1.6000*%
%ADD43O,1.4000X1.2000*%
%ADD44C,1.0000*%
%ADD45C,1.2700*%
D23*
X2321001Y2314525D02*
X2373001Y2366525D01*
X2443081D01*
X2418081Y2336275D02*
X2454001D01*
X2267331Y2591275D02*
X2289001Y2612945D01*
Y2624275D01*
X2237001Y2591275D02*
X2267331D01*
X2612081Y2437275D02*
X2616081Y2441275D01*
Y2454025D01*
X2996251Y2598025D02*
Y2620275D01*
X2996001Y2548275D02*
Y2570775D01*
Y2497275D02*
Y2519275D01*
X2321001Y2226775D02*
X2343501Y2204275D01*
X2321001Y2226775D02*
Y2314525D01*
X2428673Y2559695D02*
X2438928D01*
X2237001Y2605275D02*
X2261001D01*
X2607581Y2384025D02*
X2619331Y2372275D01*
X2627001D01*
X2607581Y2384025D02*
Y2444775D01*
X2615195Y2382775D02*
X2620501D01*
X2612081Y2385889D02*
X2615195Y2382775D01*
X2612081Y2385889D02*
Y2437275D01*
X3036851Y2583585D02*
Y2586585D01*
X3037101Y2586335D01*
Y2584085D02*
Y2586335D01*
Y2584085D02*
X3113851D01*
X3122101Y2527335D02*
Y2575835D01*
X3113851Y2584085D02*
X3122101Y2575835D01*
X3088601Y2493835D02*
X3122101Y2527335D01*
X3062351Y2360585D02*
Y2386035D01*
X3071201Y2394885D01*
X3050947Y2393682D02*
X3052151Y2394885D01*
X3042351Y2348835D02*
X3048351Y2342835D01*
X3042351Y2348835D02*
Y2385585D01*
X3051651Y2394885D01*
X3079101Y2342835D02*
X3084351Y2348085D01*
X3048351Y2342835D02*
X3079101D01*
X3079851Y2390585D02*
X3088601Y2399335D01*
Y2493835D01*
X3084351Y2348085D02*
Y2388585D01*
X3093101Y2397335D01*
X3071201Y2490135D02*
Y2490935D01*
X3080601Y2500335D01*
Y2515085D01*
X3071351Y2524335D02*
X3080601Y2515085D01*
X3020351Y2524335D02*
X3071351D01*
X3007601Y2511585D02*
X3020351Y2524335D01*
X2981851Y2474335D02*
X2991121Y2465065D01*
X2981851Y2519835D02*
X2993601Y2531585D01*
X2981851Y2474335D02*
Y2519835D01*
X2991121Y2465065D02*
X2995831D01*
X2993601Y2531585D02*
X3002601D01*
X3013601Y2542585D01*
X3069101Y2575335D02*
X3091101Y2553335D01*
Y2542335D02*
Y2553335D01*
X3061851Y2461085D02*
X3071201Y2470435D01*
X3042851Y2414185D02*
Y2480835D01*
X3052151Y2490135D01*
X3042851Y2414185D02*
X3043101Y2413935D01*
X3061851D02*
Y2461085D01*
X3033101Y2413935D02*
X3071201D01*
X2971101Y2263335D02*
X2971541Y2267775D01*
X3006101Y2320335D02*
Y2354835D01*
X3013961Y2530445D02*
Y2530835D01*
X3007351Y2523835D02*
X3013961Y2530445D01*
X2969940Y2536335D02*
X2970751Y2535525D01*
X3027351Y2593835D02*
X3042351D01*
X3028851Y2575335D02*
X3069101D01*
X3046851Y2370535D02*
X3052151Y2375835D01*
X3046851Y2350699D02*
Y2370535D01*
Y2350699D02*
X3050215Y2347335D01*
X3077237D02*
X3079851Y2349949D01*
X3050215Y2347335D02*
X3077237D01*
X3079851Y2349949D02*
Y2390585D01*
X3126601Y2525471D02*
Y2577835D01*
X3115851Y2588585D02*
X3126601Y2577835D01*
X3093101Y2397335D02*
Y2491971D01*
X3126601Y2525471D01*
X3047601Y2588585D02*
X3115851D01*
X3042351Y2593835D02*
X3047601Y2588585D01*
X3069487Y2519835D02*
X3071201Y2518121D01*
X3022215Y2519835D02*
X3069487D01*
X3012101Y2509721D02*
X3022215Y2519835D01*
X3012101Y2439085D02*
Y2509721D01*
X3071201Y2509185D02*
Y2518121D01*
X3005427Y2438775D02*
X3007601Y2440949D01*
X2997501Y2438775D02*
X3005427D01*
X3007601Y2440949D02*
Y2511585D01*
X2970601Y2425335D02*
X2975601Y2430335D01*
X3003351D02*
X3012101Y2439085D01*
X2975601Y2430335D02*
X3003351D01*
X3006101Y2354835D02*
X3017101Y2365835D01*
X3021601Y2341085D02*
Y2459585D01*
X3033101Y2471085D01*
X3017101Y2474135D02*
X3033101Y2490135D01*
X3017101Y2365835D02*
Y2474135D01*
X3013601Y2542585D02*
Y2560085D01*
X3028851Y2575335D01*
X2958851Y2464835D02*
X2969351D01*
X2958851Y2536335D02*
X2969940D01*
X2468831Y2050025D02*
Y2084525D01*
X2947581Y2307275D02*
X2994081D01*
Y2353025D01*
X2947581Y2353025D02*
X2994081D01*
X2947581Y2330775D02*
X2993831D01*
X2774081Y2477275D02*
X2805581D01*
X1715441Y1270032D02*
X1718743Y1271175D01*
X1715441Y1272318D02*
X1718743Y1271175D01*
X1712774Y1266222D02*
X1727506Y1271175D01*
X1712774Y1276128D02*
X1727506Y1271175D01*
X1714552Y1268762D02*
X1721664Y1271175D01*
X1714552Y1273588D02*
X1721664Y1271175D01*
X1654481Y1335437D02*
X1655624Y1332135D01*
X1653338D02*
X1654481Y1335437D01*
Y1344200D02*
X1659434Y1329468D01*
X1649528D02*
X1654481Y1344200D01*
Y1338358D02*
X1656894Y1331246D01*
X1652068D02*
X1654481Y1338358D01*
Y1341279D02*
X1658164Y1330357D01*
X1650798D02*
X1654481Y1341279D01*
X1648131Y1328325D02*
X1654481Y1347375D01*
X1660831Y1328325D01*
X1713663Y1267492D02*
X1724585Y1271175D01*
X1713663Y1274858D02*
X1724585Y1271175D01*
X1711631Y1277525D02*
X1730681Y1271175D01*
X1711631Y1264825D02*
X1730681Y1271175D01*
X3499791Y1356265D02*
X3508681Y1347375D01*
X3517571Y1338485D01*
X1721791Y1356265D02*
X1730681Y1347375D01*
X1739571Y1338485D01*
X3508681Y1347375D02*
X3517571Y1356265D01*
X3499791Y1338485D02*
X3508681Y1347375D01*
X1721791Y1338485D02*
X1730681Y1347375D01*
X1739571Y1356265D01*
X2606981Y1429925D02*
Y1461675D01*
X2911781Y1499775D02*
Y1645825D01*
X2606981Y1499775D02*
Y1645825D01*
X1806881Y1366425D02*
Y1645825D01*
X1819581Y1366425D02*
Y1391825D01*
X2911781Y1429925D02*
Y1455325D01*
Y1366425D02*
Y1391825D01*
X2594281Y1429925D02*
Y1461675D01*
X2492681Y1429925D02*
Y1461675D01*
X2048181Y1429925D02*
Y1461675D01*
X2479981Y1429925D02*
Y1461675D01*
X2048181Y1499775D02*
Y1582325D01*
X2594281Y1499775D02*
Y1582325D01*
Y1620425D02*
Y1645825D01*
X1819581Y1620425D02*
Y1645825D01*
X2035481Y1525175D02*
Y1582325D01*
X1819581Y1525175D02*
Y1582325D01*
X2035481Y1429925D02*
Y1487075D01*
X1819581Y1429925D02*
Y1487075D01*
X2924481Y1366425D02*
Y1645825D01*
X2746681Y1366425D02*
Y1391825D01*
X2733981Y1366425D02*
Y1391825D01*
X2283131Y1366425D02*
Y1391825D01*
X2270431Y1366425D02*
Y1391825D01*
X3508683Y1290223D02*
Y1328323D01*
Y1366423D02*
Y1379123D01*
X1730681Y2839625D02*
Y2852325D01*
Y2890425D02*
Y2903125D01*
Y2871375D02*
Y2884075D01*
Y2858675D02*
Y2871375D01*
X3508681Y1220375D02*
Y1271175D01*
X3483281Y1252125D02*
Y1271175D01*
X3457881Y1252125D02*
Y1271175D01*
X3432481Y1252125D02*
Y1271175D01*
X3407081Y1252125D02*
Y1271175D01*
X3381681Y1233075D02*
Y1271175D01*
X3356281Y1252125D02*
Y1271175D01*
X3330881Y1252125D02*
Y1271175D01*
X3305481Y1252125D02*
Y1271175D01*
X3280081Y1252125D02*
Y1271175D01*
X3254681Y1220375D02*
Y1271175D01*
X3229281Y1252125D02*
Y1271175D01*
X3203881Y1252125D02*
Y1271175D01*
X3178481Y1252125D02*
Y1271175D01*
X3153081Y1252125D02*
Y1271175D01*
X3127681Y1233075D02*
Y1271175D01*
X3102281Y1252125D02*
Y1271175D01*
X3076881Y1252125D02*
Y1271175D01*
X3051481Y1252125D02*
Y1271175D01*
X3026081Y1252125D02*
Y1271175D01*
X3000681Y1220375D02*
Y1271175D01*
X2975281Y1252125D02*
Y1271175D01*
X2949881Y1252125D02*
Y1271175D01*
X2924481Y1252125D02*
Y1271175D01*
X2899081Y1252125D02*
Y1271175D01*
X2873681Y1233075D02*
Y1271175D01*
X2848281Y1252125D02*
Y1271175D01*
X2822881Y1252125D02*
Y1271175D01*
X2797481Y1252125D02*
Y1271175D01*
X2772081Y1252125D02*
Y1271175D01*
X2746681Y1220375D02*
Y1271175D01*
X2721281Y1252125D02*
Y1271175D01*
X2695881Y1252125D02*
Y1271175D01*
X2670481Y1252125D02*
Y1271175D01*
X2645081Y1252125D02*
Y1271175D01*
X2619681Y1233075D02*
Y1271175D01*
X2594281Y1252125D02*
Y1271175D01*
X2568881Y1252125D02*
Y1271175D01*
X2543481Y1252125D02*
Y1271175D01*
X2518081Y1252125D02*
Y1271175D01*
X2492681Y1220375D02*
Y1271175D01*
X2467281Y1252125D02*
Y1271175D01*
X2441881Y1252125D02*
Y1271175D01*
X2416481Y1252125D02*
Y1271175D01*
X2391081Y1252125D02*
Y1271175D01*
X2365681Y1233075D02*
Y1271175D01*
X2340281Y1252125D02*
Y1271175D01*
X2314881Y1252125D02*
Y1271175D01*
X2289481Y1252125D02*
Y1271175D01*
X2264081Y1252125D02*
Y1271175D01*
X2238681Y1220375D02*
Y1271175D01*
X2213281Y1252125D02*
Y1271175D01*
X2187881Y1252125D02*
Y1271175D01*
X2162481Y1252125D02*
Y1271175D01*
X2137081Y1252125D02*
Y1271175D01*
X2111681Y1233075D02*
Y1271175D01*
X2086281Y1252125D02*
Y1271175D01*
X2060881Y1252125D02*
Y1271175D01*
X2035481Y1252125D02*
Y1271175D01*
X2010081Y1252125D02*
Y1271175D01*
X1984681Y1220375D02*
Y1271175D01*
X1959281Y1252125D02*
Y1271175D01*
X1933881Y1252125D02*
Y1271175D01*
X1908481Y1252125D02*
Y1271175D01*
X1883081Y1252125D02*
Y1271175D01*
X1857681Y1233075D02*
Y1271175D01*
X1832281Y1252125D02*
Y1271175D01*
X1806881Y1252125D02*
Y1271175D01*
X1781481Y1252125D02*
Y1271175D01*
X1756081Y1252125D02*
Y1271175D01*
X1730681Y1220375D02*
Y1271175D01*
X1715441Y1270032D02*
Y1272318D01*
X1712774Y1266222D02*
Y1276128D01*
X1714552Y1268762D02*
Y1273588D01*
X1654481Y1321975D02*
Y1328325D01*
X1713663Y1267492D02*
Y1274858D01*
X1711631Y1264825D02*
Y1277525D01*
X1654481Y1271175D02*
Y1290225D01*
X1730683Y1366423D02*
Y1379123D01*
Y1290223D02*
Y1328323D01*
X2619681Y1474375D02*
X2899081D01*
X2619681Y1487075D02*
X2899081D01*
X2060881D02*
X2581581D01*
X2619681Y1658525D02*
X2899081D01*
X2619681Y1417225D02*
X2899081D01*
X2505381Y1474375D02*
X2581581D01*
X2505381Y1417225D02*
X2581581D01*
X2060881D02*
X2467281D01*
X2060881Y1474375D02*
X2467281D01*
X2060881Y1595025D02*
X2581581D01*
X1832281Y1607725D02*
X2581581D01*
X1832281Y1595025D02*
X2022781D01*
X1832281Y1512475D02*
X2022781D01*
X1832281Y1499775D02*
X2022781D01*
X1832281Y1417225D02*
X2022781D01*
X1832281Y1671225D02*
X2899081D01*
X1832281Y1341025D02*
X2899081D01*
X1832281Y1658525D02*
X2581581D01*
X2759381Y1404525D02*
X2899081D01*
X2759381Y1353725D02*
X2899081D01*
X2295831Y1404525D02*
X2721281D01*
X1832281D02*
X2257731D01*
X1832281Y1353725D02*
X2257731D01*
X2295831D02*
X2721281D01*
X3527733Y1347373D02*
X3540433D01*
X3476933D02*
X3489633D01*
X1749731Y2871375D02*
X1762431D01*
X1673531D02*
X1711631D01*
X1717981D02*
X1730681D01*
X1743381D01*
X1603681D02*
X1654481D01*
X1635431Y2845975D02*
X1654481D01*
X1635431Y2820575D02*
X1654481D01*
X1635431Y2795175D02*
X1654481D01*
X1635431Y2769775D02*
X1654481D01*
X1616381Y2744375D02*
X1654481D01*
X1635431Y2718975D02*
X1654481D01*
X1635431Y2693575D02*
X1654481D01*
X1635431Y2668175D02*
X1654481D01*
X1635431Y2642775D02*
X1654481D01*
X1603681Y2617375D02*
X1654481D01*
X1635431Y2591975D02*
X1654481D01*
X1635431Y2566575D02*
X1654481D01*
X1635431Y2541175D02*
X1654481D01*
X1635431Y2515775D02*
X1654481D01*
X1616381Y2490375D02*
X1654481D01*
X1635431Y2464975D02*
X1654481D01*
X1635431Y2439575D02*
X1654481D01*
X1635431Y2414175D02*
X1654481D01*
X1635431Y2388775D02*
X1654481D01*
X1603681Y2363375D02*
X1654481D01*
X1635431Y2337975D02*
X1654481D01*
X1635431Y2312575D02*
X1654481D01*
X1635431Y2287175D02*
X1654481D01*
X1635431Y2261775D02*
X1654481D01*
X1616381Y2236375D02*
X1654481D01*
X1635431Y2210975D02*
X1654481D01*
X1635431Y2185575D02*
X1654481D01*
X1635431Y2160175D02*
X1654481D01*
X1635431Y2134775D02*
X1654481D01*
X1603681Y2109375D02*
X1654481D01*
X1635431Y2083975D02*
X1654481D01*
X1635431Y2058575D02*
X1654481D01*
X1635431Y2033175D02*
X1654481D01*
X1635431Y2007775D02*
X1654481D01*
X1616381Y1982375D02*
X1654481D01*
X1635431Y1956975D02*
X1654481D01*
X1635431Y1931575D02*
X1654481D01*
X1635431Y1906175D02*
X1654481D01*
X1635431Y1880775D02*
X1654481D01*
X1603681Y1855375D02*
X1654481D01*
X1635431Y1829975D02*
X1654481D01*
X1635431Y1804575D02*
X1654481D01*
X1635431Y1779175D02*
X1654481D01*
X1635431Y1753775D02*
X1654481D01*
X1616381Y1728375D02*
X1654481D01*
X1635431Y1702975D02*
X1654481D01*
X1635431Y1677575D02*
X1654481D01*
X1635431Y1652175D02*
X1654481D01*
X1635431Y1626775D02*
X1654481D01*
X1603681Y1601375D02*
X1654481D01*
X1635431Y1575975D02*
X1654481D01*
X1635431Y1550575D02*
X1654481D01*
X1635431Y1525175D02*
X1654481D01*
X1635431Y1499775D02*
X1654481D01*
X1616381Y1474375D02*
X1654481D01*
X1635431Y1448975D02*
X1654481D01*
X1635431Y1423575D02*
X1654481D01*
X1635431Y1398175D02*
X1654481D01*
X1635431Y1372775D02*
X1654481D01*
X1603681Y1347375D02*
X1654481D01*
X1705281Y1271175D02*
X1711631D01*
X1653338Y1332135D02*
X1655624D01*
X1649528Y1329468D02*
X1659434D01*
X1652068Y1331246D02*
X1656894D01*
X1650798Y1330357D02*
X1658164D01*
X1648131Y1328325D02*
X1660831D01*
X1654481Y1271175D02*
X1673531D01*
X1673533Y1347373D02*
X1711633D01*
X1749733D02*
X1762433D01*
X2194831Y1944525D02*
X3135081D01*
X2194831Y2844275D02*
X3135201D01*
X2194831Y1944525D02*
Y2844275D01*
X3135201Y1944395D02*
Y2844395D01*
X2525001Y1944395D02*
Y2844395D01*
D24*
X2397201Y2022395D02*
Y2233475D01*
X2326529Y2042267D02*
Y2090747D01*
X3118751Y2480775D02*
X3125751Y2473775D01*
X2336521Y2698795D02*
X2408401D01*
X2364501Y2543895D02*
Y2698795D01*
Y2543895D02*
X2383001Y2525395D01*
X2676601Y1993675D02*
X2693501Y1976775D01*
X2988751D01*
X3006801Y1994825D01*
Y2022395D01*
X2676601Y2779875D02*
Y2809795D01*
X2988071Y2828525D02*
X3006801Y2809795D01*
X2695331Y2828525D02*
X2988071D01*
X2676601Y2809795D02*
X2695331Y2828525D01*
X2866751Y2614775D02*
X2867501Y2615525D01*
X2702001Y1996995D02*
Y2022395D01*
X2973501Y2234275D02*
Y2246775D01*
X2652751Y2348775D02*
X2670751Y2366775D01*
X2790001Y2520995D02*
Y2591025D01*
X2797001Y2645025D02*
X2817001Y2625025D01*
X3032201Y2759475D02*
Y2784395D01*
X2670751Y2753145D02*
X2702001Y2784395D01*
X2970751Y2535525D02*
Y2586275D01*
X2267001Y2356275D02*
X2349501D01*
X2265001Y2354275D02*
X2267001Y2356275D01*
X2344001Y2296775D02*
X2368501Y2272275D01*
X2399767Y2311508D02*
X2439001Y2272275D01*
X2381751Y2329525D02*
X2399767Y2311508D01*
X2358251Y2329525D02*
X2381751D01*
X2344001Y2315275D02*
X2358251Y2329525D01*
X2344001Y2296775D02*
Y2315275D01*
X2469001Y2019525D02*
Y2170775D01*
X2429501Y1980025D02*
X2469001Y2019525D01*
X2388771Y1980025D02*
X2429501D01*
X2371801Y1996995D02*
X2388771Y1980025D01*
X2451751Y2569945D02*
Y2803525D01*
X2441501Y2559695D02*
X2451751Y2569945D01*
X2438928Y2559695D02*
X2441501D01*
X2408401D02*
X2428673D01*
X2428001Y2827275D02*
X2451751Y2803525D01*
X2414681Y2827275D02*
X2428001D01*
X2397201Y2809795D02*
X2414681Y2827275D01*
X2397201Y2233475D02*
X2436001Y2272275D01*
X2368501Y2025695D02*
X2371801Y2022395D01*
X2265001Y2152275D02*
X2326529Y2090747D01*
Y2042267D02*
X2346401Y2022395D01*
X2265001Y2152275D02*
Y2354275D01*
X2315001Y2580275D02*
X2317001Y2582275D01*
X2230001Y2580275D02*
X2315001D01*
X2225001Y2585275D02*
X2230001Y2580275D01*
X2225001Y2585275D02*
Y2598275D01*
X2346401Y2740675D02*
Y2809795D01*
X2214001Y2528275D02*
Y2608275D01*
X2346401Y2740675D01*
X2408401Y2582595D02*
Y2747795D01*
X2329001Y2691275D02*
X2336521Y2698795D01*
X2371801Y2784395D02*
X2408401Y2747795D01*
X2371801Y2784395D02*
Y2809795D01*
X2408401Y2448795D02*
Y2536795D01*
X2383001Y2525395D02*
X2408281D01*
X2368501Y2305775D02*
X2383001Y2291275D01*
Y2218775D02*
Y2291275D01*
X2368501Y2204275D02*
X2383001Y2218775D01*
X2368501Y2025695D02*
Y2204275D01*
Y2170775D02*
X2369801Y2169475D01*
X2371801Y1996995D02*
Y2022395D01*
X2397201D02*
X2399001Y2024195D01*
X2683581Y2348775D02*
X2686001Y2351195D01*
X2585581Y2620275D02*
X2669751D01*
X2733001Y2469275D02*
Y2591025D01*
X2817001D02*
Y2625025D01*
X2595831Y2472525D02*
X2670581D01*
X2670751Y2366775D02*
Y2753145D01*
X2866751Y2563275D02*
Y2614775D01*
X2670751Y2591025D02*
X2866751D01*
X2566251Y2547775D02*
Y2669525D01*
X2676601Y2779875D01*
X2896750Y2199745D02*
X2905471Y2191025D01*
X2896750Y2199745D02*
Y2394775D01*
X2829001Y2182805D02*
Y2372525D01*
X2676601Y1993675D02*
Y2030405D01*
X2829001Y2182805D01*
X2686251Y2390775D02*
X2727831D01*
X2686001Y2351195D02*
Y2507025D01*
X3057601Y2022395D02*
X3092656Y2057450D01*
X3125751Y2090545D01*
X2958911Y2409025D02*
X2981501D01*
X2971101Y2263335D02*
Y2267775D01*
X2958851Y2282425D02*
X2973501Y2267775D01*
X3039811Y2624735D02*
X3071201D01*
X2970751Y2586275D02*
X3001351D01*
X3039811Y2624735D01*
X2958851Y2282425D02*
Y2626335D01*
X3013331Y2680815D01*
X3012581Y2740775D02*
X3013331Y2740025D01*
X3012751Y2740025D02*
X3032201Y2759475D01*
X3013331Y2680815D02*
Y2740025D01*
X3044001Y2234275D02*
Y2247525D01*
X2896971D02*
X3125751D01*
Y2090545D02*
Y2473775D01*
X3013331Y2705525D02*
Y2724275D01*
D25*
X2829049Y1368602D02*
X2827961Y1367513D01*
X2829049Y1366425D01*
X2830137Y1367513D01*
X2829049Y1368602D01*
X2851469Y1383839D02*
X2850381Y1386015D01*
X2848204Y1388192D01*
X2846027Y1389280D01*
X2841674D01*
X2839497Y1388192D01*
X2837320Y1386015D01*
X2836232Y1383839D01*
X2835144Y1380573D01*
Y1375132D01*
X2836232Y1371867D01*
X2837320Y1369690D01*
X2839497Y1367513D01*
X2841674Y1366425D01*
X2846027D01*
X2848204Y1367513D01*
X2850381Y1369690D01*
X2851469Y1371867D01*
Y1375132D01*
X2846027D02*
X2851469D01*
X2856693Y1389280D02*
Y1366425D01*
Y1389280D02*
X2866488D01*
X2869753Y1388192D01*
X2870841Y1387103D01*
X2871930Y1384927D01*
Y1382750D01*
X2870841Y1380573D01*
X2869753Y1379485D01*
X2866488Y1378397D01*
X2856693D02*
X2866488D01*
X2869753Y1377309D01*
X2870841Y1376220D01*
X2871930Y1374043D01*
Y1370779D01*
X2870841Y1368602D01*
X2869753Y1367513D01*
X2866488Y1366425D01*
X2856693D01*
X2877045Y1389280D02*
Y1366425D01*
X2890105D01*
X2097166Y1644550D02*
Y1626048D01*
X2098254Y1622783D01*
X2100431Y1621695D01*
X2102607D01*
X2093901Y1636932D02*
X2101519D01*
X2118932D02*
Y1621695D01*
Y1633667D02*
X2116756Y1635844D01*
X2114579Y1636932D01*
X2111314D01*
X2109137Y1635844D01*
X2106961Y1633667D01*
X2105872Y1630402D01*
Y1628225D01*
X2106961Y1624960D01*
X2109137Y1622783D01*
X2111314Y1621695D01*
X2114579D01*
X2116756Y1622783D01*
X2118932Y1624960D01*
X2138087Y1633667D02*
X2135911Y1635844D01*
X2133734Y1636932D01*
X2130469D01*
X2128292Y1635844D01*
X2126116Y1633667D01*
X2125027Y1630402D01*
Y1628225D01*
X2126116Y1624960D01*
X2128292Y1622783D01*
X2130469Y1621695D01*
X2133734D01*
X2135911Y1622783D01*
X2138087Y1624960D01*
X2142985Y1644550D02*
Y1621695D01*
Y1632578D02*
X2146250Y1635844D01*
X2148426Y1636932D01*
X2151691D01*
X2153868Y1635844D01*
X2154957Y1632578D01*
Y1621695D01*
X2162031Y1636932D02*
X2168561Y1621695D01*
X2175091Y1636932D02*
X2168561Y1621695D01*
X2166384Y1617342D01*
X2164207Y1615165D01*
X2162031Y1614077D01*
X2160942D01*
X2190872Y1633667D02*
X2189783Y1635844D01*
X2186518Y1636932D01*
X2183253D01*
X2179988Y1635844D01*
X2178900Y1633667D01*
X2179988Y1631490D01*
X2182165Y1630402D01*
X2187607Y1629314D01*
X2189783Y1628225D01*
X2190872Y1626048D01*
Y1624960D01*
X2189783Y1622783D01*
X2186518Y1621695D01*
X2183253D01*
X2179988Y1622783D01*
X2178900Y1624960D01*
X2207632Y1633667D02*
X2206544Y1635844D01*
X2203279Y1636932D01*
X2200014D01*
X2196749Y1635844D01*
X2195660Y1633667D01*
X2196749Y1631490D01*
X2198925Y1630402D01*
X2204367Y1629314D01*
X2206544Y1628225D01*
X2207632Y1626048D01*
Y1624960D01*
X2206544Y1622783D01*
X2203279Y1621695D01*
X2200014D01*
X2196749Y1622783D01*
X2195660Y1624960D01*
X2212421Y1630402D02*
X2225481D01*
Y1632578D01*
X2224393Y1634755D01*
X2223304Y1635844D01*
X2221127Y1636932D01*
X2217862D01*
X2215686Y1635844D01*
X2213509Y1633667D01*
X2212421Y1630402D01*
Y1628225D01*
X2213509Y1624960D01*
X2215686Y1622783D01*
X2217862Y1621695D01*
X2221127D01*
X2223304Y1622783D01*
X2225481Y1624960D01*
X2230378Y1636932D02*
Y1621695D01*
Y1632578D02*
X2233643Y1635844D01*
X2235820Y1636932D01*
X2239085D01*
X2241262Y1635844D01*
X2242350Y1632578D01*
Y1621695D01*
Y1632578D02*
X2245615Y1635844D01*
X2247792Y1636932D01*
X2251057D01*
X2253233Y1635844D01*
X2254322Y1632578D01*
Y1621695D01*
X2274565Y1636932D02*
Y1621695D01*
Y1633667D02*
X2272388Y1635844D01*
X2270211Y1636932D01*
X2266947D01*
X2264770Y1635844D01*
X2262593Y1633667D01*
X2261505Y1630402D01*
Y1628225D01*
X2262593Y1624960D01*
X2264770Y1622783D01*
X2266947Y1621695D01*
X2270211D01*
X2272388Y1622783D01*
X2274565Y1624960D01*
X2219631Y1554380D02*
X2228337Y1531525D01*
X2237044Y1554380D02*
X2228337Y1531525D01*
X2239983Y1554380D02*
Y1531525D01*
X2244771Y1554380D02*
Y1531525D01*
Y1554380D02*
X2252390D01*
X2255655Y1553292D01*
X2257831Y1551115D01*
X2258920Y1548938D01*
X2260008Y1545674D01*
Y1540232D01*
X2258920Y1536967D01*
X2257831Y1534790D01*
X2255655Y1532613D01*
X2252390Y1531525D01*
X2244771D01*
X2279272Y1554380D02*
X2265123D01*
Y1531525D01*
X2279272D01*
X2265123Y1543497D02*
X2273830D01*
X2289611Y1554380D02*
X2287434Y1553292D01*
X2285258Y1551115D01*
X2284169Y1548938D01*
X2283081Y1545674D01*
Y1540232D01*
X2284169Y1536967D01*
X2285258Y1534790D01*
X2287434Y1532613D01*
X2289611Y1531525D01*
X2293964D01*
X2296141Y1532613D01*
X2298318Y1534790D01*
X2299406Y1536967D01*
X2300494Y1540232D01*
Y1545674D01*
X2299406Y1548938D01*
X2298318Y1551115D01*
X2296141Y1553292D01*
X2293964Y1554380D01*
X2289611D01*
X2337933D02*
X2323785D01*
Y1531525D01*
X2337933D01*
X2323785Y1543497D02*
X2332491D01*
X2341742Y1554380D02*
X2356979Y1531525D01*
Y1554380D02*
X2341742Y1531525D01*
X2369713Y1554380D02*
Y1531525D01*
X2362094Y1554380D02*
X2377331D01*
X2394200D02*
X2380052D01*
Y1531525D01*
X2394200D01*
X2380052Y1543497D02*
X2388758D01*
X2398009Y1554380D02*
Y1531525D01*
Y1554380D02*
X2413246Y1531525D01*
Y1554380D02*
Y1531525D01*
X2434795Y1551115D02*
X2432619Y1553292D01*
X2429353Y1554380D01*
X2425000D01*
X2421735Y1553292D01*
X2419558Y1551115D01*
Y1548938D01*
X2420647Y1546762D01*
X2421735Y1545674D01*
X2423912Y1544585D01*
X2430442Y1542408D01*
X2432619Y1541320D01*
X2433707Y1540232D01*
X2434795Y1538055D01*
Y1534790D01*
X2432619Y1532613D01*
X2429353Y1531525D01*
X2425000D01*
X2421735Y1532613D01*
X2419558Y1534790D01*
X2439910Y1554380D02*
Y1531525D01*
X2451229Y1554380D02*
X2449052Y1553292D01*
X2446876Y1551115D01*
X2445787Y1548938D01*
X2444699Y1545674D01*
Y1540232D01*
X2445787Y1536967D01*
X2446876Y1534790D01*
X2449052Y1532613D01*
X2451229Y1531525D01*
X2455582D01*
X2457759Y1532613D01*
X2459936Y1534790D01*
X2461024Y1536967D01*
X2462112Y1540232D01*
Y1545674D01*
X2461024Y1548938D01*
X2459936Y1551115D01*
X2457759Y1553292D01*
X2455582Y1554380D01*
X2451229D01*
X2467445D02*
Y1531525D01*
Y1554380D02*
X2482682Y1531525D01*
Y1554380D02*
Y1531525D01*
X2506952Y1554380D02*
Y1531525D01*
Y1554380D02*
X2516747D01*
X2520012Y1553292D01*
X2521100Y1552204D01*
X2522189Y1550027D01*
Y1547850D01*
X2521100Y1545674D01*
X2520012Y1544585D01*
X2516747Y1543497D01*
X2506952D02*
X2516747D01*
X2520012Y1542408D01*
X2521100Y1541320D01*
X2522189Y1539144D01*
Y1535878D01*
X2521100Y1533702D01*
X2520012Y1532613D01*
X2516747Y1531525D01*
X2506952D01*
X2533834Y1554380D02*
X2531657Y1553292D01*
X2529480Y1551115D01*
X2528392Y1548938D01*
X2527304Y1545674D01*
Y1540232D01*
X2528392Y1536967D01*
X2529480Y1534790D01*
X2531657Y1532613D01*
X2533834Y1531525D01*
X2538187D01*
X2540364Y1532613D01*
X2542541Y1534790D01*
X2543629Y1536967D01*
X2544717Y1540232D01*
Y1545674D01*
X2543629Y1548938D01*
X2542541Y1551115D01*
X2540364Y1553292D01*
X2538187Y1554380D01*
X2533834D01*
X2567463Y1531525D02*
X2558757Y1554380D01*
X2550050Y1531525D01*
X2553315Y1539144D02*
X2564199D01*
X2572796Y1554380D02*
Y1531525D01*
Y1554380D02*
X2582591D01*
X2585856Y1553292D01*
X2586945Y1552204D01*
X2588033Y1550027D01*
Y1547850D01*
X2586945Y1545674D01*
X2585856Y1544585D01*
X2582591Y1543497D01*
X2572796D01*
X2580415D02*
X2588033Y1531525D01*
X2593148Y1554380D02*
Y1531525D01*
Y1554380D02*
X2600767D01*
X2604032Y1553292D01*
X2606208Y1551115D01*
X2607297Y1548938D01*
X2608385Y1545674D01*
Y1540232D01*
X2607297Y1536967D01*
X2606208Y1534790D01*
X2604032Y1532613D01*
X2600767Y1531525D01*
X2593148D01*
X2628737Y1551115D02*
X2626560Y1553292D01*
X2623295Y1554380D01*
X2618942D01*
X2615677Y1553292D01*
X2613500Y1551115D01*
Y1548938D01*
X2614589Y1546762D01*
X2615677Y1545674D01*
X2617854Y1544585D01*
X2624384Y1542408D01*
X2626560Y1541320D01*
X2627649Y1540232D01*
X2628737Y1538055D01*
Y1534790D01*
X2626560Y1532613D01*
X2623295Y1531525D01*
X2618942D01*
X2615677Y1532613D01*
X2613500Y1534790D01*
X1933881Y1377309D02*
X1943676D01*
X1946941Y1378397D01*
X1948029Y1379485D01*
X1949117Y1381662D01*
Y1384927D01*
X1948029Y1387103D01*
X1946941Y1388192D01*
X1943676Y1389280D01*
X1933881D01*
Y1366425D01*
X1970558Y1383839D02*
X1969469Y1386015D01*
X1967293Y1388192D01*
X1965116Y1389280D01*
X1960763D01*
X1958586Y1388192D01*
X1956409Y1386015D01*
X1955321Y1383839D01*
X1954233Y1380573D01*
Y1375132D01*
X1955321Y1371867D01*
X1956409Y1369690D01*
X1958586Y1367513D01*
X1960763Y1366425D01*
X1965116D01*
X1967293Y1367513D01*
X1969469Y1369690D01*
X1970558Y1371867D01*
X1976979Y1389280D02*
Y1366425D01*
Y1389280D02*
X1986774D01*
X1990039Y1388192D01*
X1991127Y1387103D01*
X1992216Y1384927D01*
Y1382750D01*
X1991127Y1380573D01*
X1990039Y1379485D01*
X1986774Y1378397D01*
X1976979D02*
X1986774D01*
X1990039Y1377309D01*
X1991127Y1376220D01*
X1992216Y1374043D01*
Y1370779D01*
X1991127Y1368602D01*
X1990039Y1367513D01*
X1986774Y1366425D01*
X1976979D01*
X1997331Y1384927D02*
X1999507Y1386015D01*
X2002773Y1389280D01*
Y1366425D01*
X2015180Y1368602D02*
X2014091Y1367513D01*
X2015180Y1366425D01*
X2016268Y1367513D01*
X2015180Y1368602D01*
X2021274Y1377309D02*
X2031069D01*
X2034334Y1378397D01*
X2035423Y1379485D01*
X2036511Y1381662D01*
Y1384927D01*
X2035423Y1387103D01*
X2034334Y1388192D01*
X2031069Y1389280D01*
X2021274D01*
Y1366425D01*
X2057951Y1383839D02*
X2056863Y1386015D01*
X2054686Y1388192D01*
X2052510Y1389280D01*
X2048156D01*
X2045980Y1388192D01*
X2043803Y1386015D01*
X2042715Y1383839D01*
X2041626Y1380573D01*
Y1375132D01*
X2042715Y1371867D01*
X2043803Y1369690D01*
X2045980Y1367513D01*
X2048156Y1366425D01*
X2052510D01*
X2054686Y1367513D01*
X2056863Y1369690D01*
X2057951Y1371867D01*
X2064373Y1389280D02*
Y1366425D01*
Y1389280D02*
X2074167D01*
X2077433Y1388192D01*
X2078521Y1387103D01*
X2079609Y1384927D01*
Y1382750D01*
X2078521Y1380573D01*
X2077433Y1379485D01*
X2074167Y1378397D01*
X2064373D02*
X2074167D01*
X2077433Y1377309D01*
X2078521Y1376220D01*
X2079609Y1374043D01*
Y1370779D01*
X2078521Y1368602D01*
X2077433Y1367513D01*
X2074167Y1366425D01*
X2064373D01*
X2360601Y1389280D02*
Y1366425D01*
Y1389280D02*
X2370396D01*
X2373661Y1388192D01*
X2374749Y1387103D01*
X2375837Y1384927D01*
Y1382750D01*
X2374749Y1380573D01*
X2373661Y1379485D01*
X2370396Y1378397D01*
X2360601D02*
X2370396D01*
X2373661Y1377309D01*
X2374749Y1376220D01*
X2375837Y1374043D01*
Y1370779D01*
X2374749Y1368602D01*
X2373661Y1367513D01*
X2370396Y1366425D01*
X2360601D01*
X2386394Y1381662D02*
X2384218Y1380573D01*
X2382041Y1378397D01*
X2380953Y1375132D01*
Y1372955D01*
X2382041Y1369690D01*
X2384218Y1367513D01*
X2386394Y1366425D01*
X2389659D01*
X2391836Y1367513D01*
X2394013Y1369690D01*
X2395101Y1372955D01*
Y1375132D01*
X2394013Y1378397D01*
X2391836Y1380573D01*
X2389659Y1381662D01*
X2386394D01*
X2403372Y1389280D02*
Y1370779D01*
X2404461Y1367513D01*
X2406637Y1366425D01*
X2408814D01*
X2400107Y1381662D02*
X2407726D01*
X2415344Y1389280D02*
Y1370779D01*
X2416432Y1367513D01*
X2418609Y1366425D01*
X2420786D01*
X2412079Y1381662D02*
X2419698D01*
X2429492D02*
X2427316Y1380573D01*
X2425139Y1378397D01*
X2424051Y1375132D01*
Y1372955D01*
X2425139Y1369690D01*
X2427316Y1367513D01*
X2429492Y1366425D01*
X2432758D01*
X2434934Y1367513D01*
X2437111Y1369690D01*
X2438199Y1372955D01*
Y1375132D01*
X2437111Y1378397D01*
X2434934Y1380573D01*
X2432758Y1381662D01*
X2429492D01*
X2443206D02*
Y1366425D01*
Y1377309D02*
X2446471Y1380573D01*
X2448647Y1381662D01*
X2451912D01*
X2454089Y1380573D01*
X2455177Y1377309D01*
Y1366425D01*
Y1377309D02*
X2458442Y1380573D01*
X2460619Y1381662D01*
X2463884D01*
X2466061Y1380573D01*
X2467149Y1377309D01*
Y1366425D01*
X2474332Y1389280D02*
Y1366425D01*
X2487392D01*
X2502955Y1381662D02*
Y1366425D01*
Y1378397D02*
X2500779Y1380573D01*
X2498602Y1381662D01*
X2495337D01*
X2493160Y1380573D01*
X2490984Y1378397D01*
X2489895Y1375132D01*
Y1372955D01*
X2490984Y1369690D01*
X2493160Y1367513D01*
X2495337Y1366425D01*
X2498602D01*
X2500779Y1367513D01*
X2502955Y1369690D01*
X2510138Y1381662D02*
X2516668Y1366425D01*
X2523198Y1381662D02*
X2516668Y1366425D01*
X2514492Y1362072D01*
X2512315Y1359895D01*
X2510138Y1358807D01*
X2509050D01*
X2527008Y1375132D02*
X2540068D01*
Y1377309D01*
X2538979Y1379485D01*
X2537891Y1380573D01*
X2535714Y1381662D01*
X2532449D01*
X2530273Y1380573D01*
X2528096Y1378397D01*
X2527008Y1375132D01*
Y1372955D01*
X2528096Y1369690D01*
X2530273Y1367513D01*
X2532449Y1366425D01*
X2535714D01*
X2537891Y1367513D01*
X2540068Y1369690D01*
X2544965Y1381662D02*
Y1366425D01*
Y1375132D02*
X2546053Y1378397D01*
X2548230Y1380573D01*
X2550407Y1381662D01*
X2553672D01*
X2553186Y1455955D02*
X2549921Y1454867D01*
X2547744Y1451602D01*
X2546656Y1446160D01*
Y1442895D01*
X2547744Y1437453D01*
X2549921Y1434188D01*
X2553186Y1433100D01*
X2555362D01*
X2558627Y1434188D01*
X2560804Y1437453D01*
X2561892Y1442895D01*
Y1446160D01*
X2560804Y1451602D01*
X2558627Y1454867D01*
X2555362Y1455955D01*
X2553186D01*
X2567008Y1451602D02*
X2569184Y1452690D01*
X2572449Y1455955D01*
Y1433100D01*
X2700961Y1616069D02*
X2710756D01*
X2714021Y1617157D01*
X2715109Y1618245D01*
X2716198Y1620422D01*
Y1623687D01*
X2715109Y1625863D01*
X2714021Y1626952D01*
X2710756Y1628040D01*
X2700961D01*
Y1605185D01*
X2721313Y1628040D02*
Y1605185D01*
X2734373D01*
X2754289D02*
X2745583Y1628040D01*
X2736876Y1605185D01*
X2740141Y1612803D02*
X2751024D01*
X2775947Y1622599D02*
X2774859Y1624775D01*
X2772682Y1626952D01*
X2770505Y1628040D01*
X2766152D01*
X2763976Y1626952D01*
X2761799Y1624775D01*
X2760710Y1622599D01*
X2759622Y1619333D01*
Y1613892D01*
X2760710Y1610627D01*
X2761799Y1608450D01*
X2763976Y1606273D01*
X2766152Y1605185D01*
X2770505D01*
X2772682Y1606273D01*
X2774859Y1608450D01*
X2775947Y1610627D01*
X2796517Y1628040D02*
X2782368D01*
Y1605185D01*
X2796517D01*
X2782368Y1617157D02*
X2791075D01*
X2700961Y1592480D02*
Y1569625D01*
X2714021D01*
X2723054Y1592480D02*
X2720877Y1591392D01*
X2718701Y1589215D01*
X2717612Y1587039D01*
X2716524Y1583773D01*
Y1578332D01*
X2717612Y1575067D01*
X2718701Y1572890D01*
X2720877Y1570713D01*
X2723054Y1569625D01*
X2727407D01*
X2729584Y1570713D01*
X2731761Y1572890D01*
X2732849Y1575067D01*
X2733937Y1578332D01*
Y1583773D01*
X2732849Y1587039D01*
X2731761Y1589215D01*
X2729584Y1591392D01*
X2727407Y1592480D01*
X2723054D01*
X2755595Y1587039D02*
X2754507Y1589215D01*
X2752330Y1591392D01*
X2750154Y1592480D01*
X2745800D01*
X2743623Y1591392D01*
X2741447Y1589215D01*
X2740359Y1587039D01*
X2739270Y1583773D01*
Y1578332D01*
X2740359Y1575067D01*
X2741447Y1572890D01*
X2743623Y1570713D01*
X2745800Y1569625D01*
X2750154D01*
X2752330Y1570713D01*
X2754507Y1572890D01*
X2755595Y1575067D01*
Y1578332D01*
X2750154D02*
X2755595D01*
X2767349Y1592480D02*
X2765173Y1591392D01*
X2762996Y1589215D01*
X2761908Y1587039D01*
X2760819Y1583773D01*
Y1578332D01*
X2761908Y1575067D01*
X2762996Y1572890D01*
X2765173Y1570713D01*
X2767349Y1569625D01*
X2771703D01*
X2773879Y1570713D01*
X2776056Y1572890D01*
X2777144Y1575067D01*
X2778233Y1578332D01*
Y1583773D01*
X2777144Y1587039D01*
X2776056Y1589215D01*
X2773879Y1591392D01*
X2771703Y1592480D01*
X2767349D01*
X2700961Y1551840D02*
Y1528985D01*
X2716198Y1551840D02*
Y1528985D01*
X2700961Y1540957D02*
X2716198D01*
X2736658Y1551840D02*
X2722510D01*
Y1528985D01*
X2736658D01*
X2722510Y1540957D02*
X2731216D01*
X2740468Y1551840D02*
Y1528985D01*
Y1551840D02*
X2750262D01*
X2753528Y1550752D01*
X2754616Y1549664D01*
X2755704Y1547487D01*
Y1545310D01*
X2754616Y1543134D01*
X2753528Y1542045D01*
X2750262Y1540957D01*
X2740468D01*
X2748086D02*
X2755704Y1528985D01*
X2774968Y1551840D02*
X2760819D01*
Y1528985D01*
X2774968D01*
X2760819Y1540957D02*
X2769526D01*
X2679007Y1455955D02*
X2690979D01*
X2684449Y1447249D01*
X2687714D01*
X2689891Y1446160D01*
X2690979Y1445072D01*
X2692067Y1441807D01*
Y1439630D01*
X2690979Y1436365D01*
X2688802Y1434188D01*
X2685537Y1433100D01*
X2682272D01*
X2679007Y1434188D01*
X2677919Y1435277D01*
X2676831Y1437453D01*
X2703713Y1455955D02*
X2700448Y1454867D01*
X2698271Y1451602D01*
X2697183Y1446160D01*
Y1442895D01*
X2698271Y1437453D01*
X2700448Y1434188D01*
X2703713Y1433100D01*
X2705889D01*
X2709154Y1434188D01*
X2711331Y1437453D01*
X2712419Y1442895D01*
Y1446160D01*
X2711331Y1451602D01*
X2709154Y1454867D01*
X2705889Y1455955D01*
X2703713D01*
X2717534Y1442895D02*
X2737125D01*
X2761286Y1433100D02*
X2752579Y1455955D01*
X2743872Y1433100D01*
X2747137Y1440719D02*
X2758021D01*
X2766619Y1448337D02*
Y1425482D01*
Y1445072D02*
X2768795Y1447249D01*
X2770972Y1448337D01*
X2774237D01*
X2776414Y1447249D01*
X2778590Y1445072D01*
X2779679Y1441807D01*
Y1439630D01*
X2778590Y1436365D01*
X2776414Y1434188D01*
X2774237Y1433100D01*
X2770972D01*
X2768795Y1434188D01*
X2766619Y1436365D01*
X2784576Y1448337D02*
Y1433100D01*
Y1441807D02*
X2785664Y1445072D01*
X2787841Y1447249D01*
X2790018Y1448337D01*
X2793283D01*
X2795351Y1442895D02*
X2814941D01*
X2822777Y1450513D02*
Y1451602D01*
X2823865Y1453779D01*
X2824954Y1454867D01*
X2827130Y1455955D01*
X2831483D01*
X2833660Y1454867D01*
X2834749Y1453779D01*
X2835837Y1451602D01*
Y1449425D01*
X2834749Y1447249D01*
X2832572Y1443983D01*
X2821689Y1433100D01*
X2836925D01*
X2848571Y1455955D02*
X2845305Y1454867D01*
X2843129Y1451602D01*
X2842040Y1446160D01*
Y1442895D01*
X2843129Y1437453D01*
X2845305Y1434188D01*
X2848571Y1433100D01*
X2850747D01*
X2854012Y1434188D01*
X2856189Y1437453D01*
X2857277Y1442895D01*
Y1446160D01*
X2856189Y1451602D01*
X2854012Y1454867D01*
X2850747Y1455955D01*
X2848571D01*
X2862392Y1451602D02*
X2864569Y1452690D01*
X2867834Y1455955D01*
Y1433100D01*
X2880241Y1450513D02*
Y1451602D01*
X2881330Y1453779D01*
X2882418Y1454867D01*
X2884594Y1455955D01*
X2888948D01*
X2891125Y1454867D01*
X2892213Y1453779D01*
X2893301Y1451602D01*
Y1449425D01*
X2892213Y1447249D01*
X2890036Y1443983D01*
X2879153Y1433100D01*
X2894390D01*
X1664636Y1312450D02*
X1653752Y1303743D01*
X1641781D01*
X1664636Y1295037D02*
X1653752Y1303743D01*
X1683056Y1281330D02*
X1698292Y1258475D01*
Y1281330D02*
X1683056Y1258475D01*
X3261571Y1194615D02*
X3263747Y1195703D01*
X3264836Y1198968D01*
Y1201145D01*
X3263747Y1204410D01*
X3260482Y1206587D01*
X3255041Y1207675D01*
X3249599D01*
X3245246Y1206587D01*
X3243069Y1204410D01*
X3241981Y1201145D01*
Y1200057D01*
X3243069Y1196792D01*
X3245246Y1194615D01*
X3248511Y1193527D01*
X3249599D01*
X3252864Y1194615D01*
X3255041Y1196792D01*
X3256129Y1200057D01*
Y1201145D01*
X3255041Y1204410D01*
X3252864Y1206587D01*
X3249599Y1207675D01*
X3244157Y1187432D02*
X3243069Y1188520D01*
X3241981Y1187432D01*
X3243069Y1186344D01*
X3244157Y1187432D01*
X3264836Y1174807D02*
X3263747Y1178072D01*
X3260482Y1180249D01*
X3255041Y1181337D01*
X3251776D01*
X3246334Y1180249D01*
X3243069Y1178072D01*
X3241981Y1174807D01*
Y1172631D01*
X3243069Y1169366D01*
X3246334Y1167189D01*
X3251776Y1166101D01*
X3255041D01*
X3260482Y1167189D01*
X3263747Y1169366D01*
X3264836Y1172631D01*
Y1174807D01*
X2756836Y1196792D02*
X2741599Y1207675D01*
Y1191350D01*
X2756836Y1196792D02*
X2733981D01*
X2736158Y1186235D02*
X2735069Y1187323D01*
X2733981Y1186235D01*
X2735069Y1185146D01*
X2736158Y1186235D01*
X2756836Y1173610D02*
X2755747Y1176875D01*
X2752482Y1179052D01*
X2747041Y1180140D01*
X2743776D01*
X2738334Y1179052D01*
X2735069Y1176875D01*
X2733981Y1173610D01*
Y1171433D01*
X2735069Y1168168D01*
X2738334Y1165992D01*
X2743776Y1164903D01*
X2747041D01*
X2752482Y1165992D01*
X2755747Y1168168D01*
X2756836Y1171433D01*
Y1173610D01*
X2243394Y1206587D02*
X2244482D01*
X2246659Y1205498D01*
X2247747Y1204410D01*
X2248836Y1202233D01*
Y1197880D01*
X2247747Y1195703D01*
X2246659Y1194615D01*
X2244482Y1193527D01*
X2242306D01*
X2240129Y1194615D01*
X2236864Y1196792D01*
X2225981Y1207675D01*
Y1192438D01*
X2228157Y1186235D02*
X2227069Y1187323D01*
X2225981Y1186235D01*
X2227069Y1185146D01*
X2228157Y1186235D01*
X2248836Y1173610D02*
X2247747Y1176875D01*
X2244482Y1179052D01*
X2239041Y1180140D01*
X2235776D01*
X2230334Y1179052D01*
X2227069Y1176875D01*
X2225981Y1173610D01*
Y1171433D01*
X2227069Y1168168D01*
X2230334Y1165992D01*
X2235776Y1164903D01*
X2239041D01*
X2244482Y1165992D01*
X2247747Y1168168D01*
X2248836Y1171433D01*
Y1173610D01*
X1740836Y1201145D02*
X1739747Y1204410D01*
X1736482Y1206587D01*
X1731041Y1207675D01*
X1727776D01*
X1722334Y1206587D01*
X1719069Y1204410D01*
X1717981Y1201145D01*
Y1198968D01*
X1719069Y1195703D01*
X1722334Y1193527D01*
X1727776Y1192438D01*
X1731041D01*
X1736482Y1193527D01*
X1739747Y1195703D01*
X1740836Y1198968D01*
Y1201145D01*
X1990482Y1207675D02*
X1991571Y1205498D01*
X1994836Y1202233D01*
X1971981D01*
X1974157Y1189826D02*
X1973069Y1190915D01*
X1971981Y1189826D01*
X1973069Y1188738D01*
X1974157Y1189826D01*
X1994836Y1177202D02*
X1993747Y1180467D01*
X1990482Y1182643D01*
X1985041Y1183732D01*
X1981776D01*
X1976334Y1182643D01*
X1973069Y1180467D01*
X1971981Y1177202D01*
Y1175025D01*
X1973069Y1171760D01*
X1976334Y1169583D01*
X1981776Y1168495D01*
X1985041D01*
X1990482Y1169583D01*
X1993747Y1171760D01*
X1994836Y1175025D01*
Y1177202D01*
X2502836Y1205498D02*
Y1193527D01*
X2494129Y1200057D01*
Y1196792D01*
X2493041Y1194615D01*
X2491952Y1193527D01*
X2488687Y1192438D01*
X2486511D01*
X2483246Y1193527D01*
X2481069Y1195703D01*
X2479981Y1198968D01*
Y1202233D01*
X2481069Y1205498D01*
X2482157Y1206587D01*
X2484334Y1207675D01*
X2482157Y1186235D02*
X2481069Y1187323D01*
X2479981Y1186235D01*
X2481069Y1185146D01*
X2482157Y1186235D01*
X2502836Y1173610D02*
X2501747Y1176875D01*
X2498482Y1179052D01*
X2493041Y1180140D01*
X2489776D01*
X2484334Y1179052D01*
X2481069Y1176875D01*
X2479981Y1173610D01*
Y1171433D01*
X2481069Y1168168D01*
X2484334Y1165992D01*
X2489776Y1164903D01*
X2493041D01*
X2498482Y1165992D01*
X2501747Y1168168D01*
X2502836Y1171433D01*
Y1173610D01*
X3010836Y1194615D02*
Y1205498D01*
X3001041Y1206587D01*
X3002129Y1205498D01*
X3003217Y1202233D01*
Y1198968D01*
X3002129Y1195703D01*
X2999952Y1193527D01*
X2996687Y1192438D01*
X2994511D01*
X2991246Y1193527D01*
X2989069Y1195703D01*
X2987981Y1198968D01*
Y1202233D01*
X2989069Y1205498D01*
X2990157Y1206587D01*
X2992334Y1207675D01*
X2990157Y1186235D02*
X2989069Y1187323D01*
X2987981Y1186235D01*
X2989069Y1185146D01*
X2990157Y1186235D01*
X3010836Y1173610D02*
X3009747Y1176875D01*
X3006483Y1179052D01*
X3001041Y1180140D01*
X2997776D01*
X2992334Y1179052D01*
X2989069Y1176875D01*
X2987981Y1173610D01*
Y1171433D01*
X2989069Y1168168D01*
X2992334Y1165992D01*
X2997776Y1164903D01*
X3001041D01*
X3006483Y1165992D01*
X3009747Y1168168D01*
X3010836Y1171433D01*
Y1173610D01*
X3518836Y1192438D02*
X3495981Y1203322D01*
X3518836Y1207675D02*
Y1192438D01*
X3498157Y1186235D02*
X3497069Y1187323D01*
X3495981Y1186235D01*
X3497069Y1185146D01*
X3498157Y1186235D01*
X3518836Y1173610D02*
X3517747Y1176875D01*
X3514482Y1179052D01*
X3509041Y1180140D01*
X3505776D01*
X3500334Y1179052D01*
X3497069Y1176875D01*
X3495981Y1173610D01*
Y1171433D01*
X3497069Y1168168D01*
X3500334Y1165992D01*
X3505776Y1164903D01*
X3509041D01*
X3514482Y1165992D01*
X3517747Y1168168D01*
X3518836Y1171433D01*
Y1173610D01*
X1559591Y2627530D02*
X1548707D01*
X1547619Y2617735D01*
X1548707Y2618824D01*
X1551972Y2619912D01*
X1555237D01*
X1558502Y2618824D01*
X1560679Y2616647D01*
X1561767Y2613382D01*
Y2611205D01*
X1560679Y2607940D01*
X1558502Y2605764D01*
X1555237Y2604675D01*
X1551972D01*
X1548707Y2605764D01*
X1547619Y2606852D01*
X1546531Y2609029D01*
X1567971Y2606852D02*
X1566883Y2605764D01*
X1567971Y2604675D01*
X1569059Y2605764D01*
X1567971Y2606852D01*
X1580596Y2627530D02*
X1577331Y2626442D01*
X1575154Y2623177D01*
X1574066Y2617735D01*
Y2614470D01*
X1575154Y2609029D01*
X1577331Y2605764D01*
X1580596Y2604675D01*
X1582772D01*
X1586037Y2605764D01*
X1588214Y2609029D01*
X1589302Y2614470D01*
Y2617735D01*
X1588214Y2623177D01*
X1586037Y2626442D01*
X1582772Y2627530D01*
X1580596D01*
X1548707Y2119530D02*
X1560679D01*
X1554149Y2110824D01*
X1557414D01*
X1559591Y2109735D01*
X1560679Y2108647D01*
X1561767Y2105382D01*
Y2103205D01*
X1560679Y2099940D01*
X1558502Y2097763D01*
X1555237Y2096675D01*
X1551972D01*
X1548707Y2097763D01*
X1547619Y2098852D01*
X1546531Y2101028D01*
X1567971Y2098852D02*
X1566883Y2097763D01*
X1567971Y2096675D01*
X1569059Y2097763D01*
X1567971Y2098852D01*
X1580596Y2119530D02*
X1577331Y2118442D01*
X1575154Y2115177D01*
X1574066Y2109735D01*
Y2106470D01*
X1575154Y2101028D01*
X1577331Y2097763D01*
X1580596Y2096675D01*
X1582772D01*
X1586037Y2097763D01*
X1588214Y2101028D01*
X1589302Y2106470D01*
Y2109735D01*
X1588214Y2115177D01*
X1586037Y2118442D01*
X1582772Y2119530D01*
X1580596D01*
X1552881Y1607177D02*
X1555057Y1608265D01*
X1558322Y1611530D01*
Y1588675D01*
X1570729Y1590852D02*
X1569641Y1589763D01*
X1570729Y1588675D01*
X1571818Y1589763D01*
X1570729Y1590852D01*
X1583354Y1611530D02*
X1580089Y1610442D01*
X1577912Y1607177D01*
X1576824Y1601735D01*
Y1598470D01*
X1577912Y1593029D01*
X1580089Y1589763D01*
X1583354Y1588675D01*
X1585531D01*
X1588796Y1589763D01*
X1590972Y1593029D01*
X1592061Y1598470D01*
Y1601735D01*
X1590972Y1607177D01*
X1588796Y1610442D01*
X1585531Y1611530D01*
X1583354D01*
X1581636Y1357530D02*
X1578371Y1356442D01*
X1576194Y1353177D01*
X1575106Y1347735D01*
Y1344470D01*
X1576194Y1339028D01*
X1578371Y1335763D01*
X1581636Y1334675D01*
X1583812D01*
X1587077Y1335763D01*
X1589254Y1339028D01*
X1590342Y1344470D01*
Y1347735D01*
X1589254Y1353177D01*
X1587077Y1356442D01*
X1583812Y1357530D01*
X1581636D01*
X1547619Y1860089D02*
Y1861177D01*
X1548707Y1863353D01*
X1549796Y1864442D01*
X1551972Y1865530D01*
X1556326D01*
X1558502Y1864442D01*
X1559591Y1863353D01*
X1560679Y1861177D01*
Y1859000D01*
X1559591Y1856823D01*
X1557414Y1853559D01*
X1546531Y1842675D01*
X1561767D01*
X1567971Y1844852D02*
X1566883Y1843763D01*
X1567971Y1842675D01*
X1569059Y1843763D01*
X1567971Y1844852D01*
X1580596Y1865530D02*
X1577331Y1864442D01*
X1575154Y1861177D01*
X1574066Y1855735D01*
Y1852470D01*
X1575154Y1847029D01*
X1577331Y1843763D01*
X1580596Y1842675D01*
X1582772D01*
X1586037Y1843763D01*
X1588214Y1847029D01*
X1589302Y1852470D01*
Y1855735D01*
X1588214Y1861177D01*
X1586037Y1864442D01*
X1582772Y1865530D01*
X1580596D01*
X1557414Y2373530D02*
X1546531Y2358293D01*
X1562856D01*
X1557414Y2373530D02*
Y2350675D01*
X1567971Y2352852D02*
X1566883Y2351763D01*
X1567971Y2350675D01*
X1569059Y2351763D01*
X1567971Y2352852D01*
X1580596Y2373530D02*
X1577331Y2372442D01*
X1575154Y2369177D01*
X1574066Y2363735D01*
Y2360470D01*
X1575154Y2355029D01*
X1577331Y2351763D01*
X1580596Y2350675D01*
X1582772D01*
X1586037Y2351763D01*
X1588214Y2355029D01*
X1589302Y2360470D01*
Y2363735D01*
X1588214Y2369177D01*
X1586037Y2372442D01*
X1582772Y2373530D01*
X1580596D01*
X1559591Y2878265D02*
X1558502Y2880442D01*
X1555237Y2881530D01*
X1553061D01*
X1549796Y2880442D01*
X1547619Y2877177D01*
X1546531Y2871735D01*
Y2866294D01*
X1547619Y2861940D01*
X1549796Y2859763D01*
X1553061Y2858675D01*
X1554149D01*
X1557414Y2859763D01*
X1559591Y2861940D01*
X1560679Y2865205D01*
Y2866294D01*
X1559591Y2869558D01*
X1557414Y2871735D01*
X1554149Y2872823D01*
X1553061D01*
X1549796Y2871735D01*
X1547619Y2869558D01*
X1546531Y2866294D01*
X1566774Y2860852D02*
X1565685Y2859763D01*
X1566774Y2858675D01*
X1567862Y2859763D01*
X1566774Y2860852D01*
X1579398Y2881530D02*
X1576134Y2880442D01*
X1573957Y2877177D01*
X1572868Y2871735D01*
Y2868470D01*
X1573957Y2863029D01*
X1576134Y2859763D01*
X1579398Y2858675D01*
X1581575D01*
X1584840Y2859763D01*
X1587017Y2863029D01*
X1588105Y2868470D01*
Y2871735D01*
X1587017Y2877177D01*
X1584840Y2880442D01*
X1581575Y2881530D01*
X1579398D01*
D26*
X2947581Y2307275D02*
Y2353025D01*
X3109834Y2674189D02*
Y2667525D01*
X3119831D01*
Y2674189D01*
X3114832Y2667525D02*
Y2670858D01*
X3109834Y2677522D02*
X3119831Y2684186D01*
X3109834D02*
X3119831Y2677522D01*
X3109834Y2687519D02*
Y2694183D01*
Y2690851D01*
X3119831D01*
Y2697516D02*
Y2700848D01*
Y2699182D01*
X3109834D01*
X3111500Y2697516D01*
Y2705846D02*
X3109834Y2707512D01*
Y2710844D01*
X3111500Y2712511D01*
X3118165D01*
X3119831Y2710844D01*
Y2707512D01*
X3118165Y2705846D01*
X3111500D01*
X3114832Y2725840D02*
Y2732504D01*
X3119831Y2745833D02*
Y2749166D01*
Y2747499D01*
X3109834D01*
X3111500Y2745833D01*
X3119831Y2760829D02*
Y2754164D01*
X3113166Y2760829D01*
X3111500D01*
X3109834Y2759162D01*
Y2755830D01*
X3111500Y2754164D01*
X3119831Y2764160D02*
Y2767493D01*
Y2765827D01*
X3109834D01*
X3111500Y2764160D01*
Y2772491D02*
X3109834Y2774157D01*
Y2777490D01*
X3111500Y2779156D01*
X3113166D01*
X3114832Y2777490D01*
X3116498Y2779156D01*
X3118165D01*
X3119831Y2777490D01*
Y2774157D01*
X3118165Y2772491D01*
X3116498D01*
X3114832Y2774157D01*
X3113166Y2772491D01*
X3111500D01*
X3114832Y2774157D02*
Y2777490D01*
X2569084Y2094440D02*
Y2087775D01*
X2579081D01*
Y2094440D01*
X2574082Y2087775D02*
Y2091107D01*
X2569084Y2097772D02*
X2579081Y2104436D01*
X2569084D02*
X2579081Y2097772D01*
X2569084Y2107769D02*
Y2114433D01*
Y2111101D01*
X2579081D01*
Y2117766D02*
Y2121098D01*
Y2119432D01*
X2569084D01*
X2570750Y2117766D01*
Y2126096D02*
X2569084Y2127762D01*
Y2131095D01*
X2570750Y2132761D01*
X2577415D01*
X2579081Y2131095D01*
Y2127762D01*
X2577415Y2126096D01*
X2570750D01*
X2574082Y2146090D02*
Y2152754D01*
X2579081Y2166083D02*
Y2169415D01*
Y2167749D01*
X2569084D01*
X2570750Y2166083D01*
X2579081Y2181078D02*
Y2174414D01*
X2572416Y2181078D01*
X2570750D01*
X2569084Y2179412D01*
Y2176080D01*
X2570750Y2174414D01*
X2579081Y2184411D02*
Y2187743D01*
Y2186077D01*
X2569084D01*
X2570750Y2184411D01*
Y2192741D02*
X2569084Y2194407D01*
Y2197740D01*
X2570750Y2199406D01*
X2572416D01*
X2574082Y2197740D01*
X2575748Y2199406D01*
X2577415D01*
X2579081Y2197740D01*
Y2194407D01*
X2577415Y2192741D01*
X2575748D01*
X2574082Y2194407D01*
X2572416Y2192741D01*
X2570750D01*
X2574082Y2194407D02*
Y2197740D01*
X2695081Y2758772D02*
Y2748775D01*
Y2753773D01*
X2701745D01*
Y2758772D01*
Y2748775D01*
X2711742Y2758772D02*
X2705078D01*
Y2748775D01*
X2711742D01*
X2705078Y2753773D02*
X2708410D01*
X2715074Y2757106D02*
X2716740Y2758772D01*
X2720073D01*
X2721739Y2757106D01*
Y2755439D01*
X2720073Y2753773D01*
X2718406D01*
X2720073D01*
X2721739Y2752107D01*
Y2750441D01*
X2720073Y2748775D01*
X2716740D01*
X2715074Y2750441D01*
X2937831Y2756022D02*
Y2746025D01*
Y2751024D01*
X2944495D01*
Y2756022D01*
Y2746025D01*
X2954492Y2756022D02*
X2947827D01*
Y2746025D01*
X2954492D01*
X2947827Y2751024D02*
X2951160D01*
X2957824Y2746025D02*
X2961157D01*
X2959490D01*
Y2756022D01*
X2957824Y2754356D01*
X2988831Y2061772D02*
Y2051775D01*
Y2056774D01*
X2995495D01*
Y2061772D01*
Y2051775D01*
X3005492Y2061772D02*
X2998828D01*
Y2051775D01*
X3005492D01*
X2998828Y2056774D02*
X3002160D01*
X3015489Y2051775D02*
X3008824D01*
X3015489Y2058440D01*
Y2060106D01*
X3013823Y2061772D01*
X3010490D01*
X3008824Y2060106D01*
X2645581Y2063522D02*
Y2053525D01*
Y2058523D01*
X2652245D01*
Y2063522D01*
Y2053525D01*
X2662242Y2063522D02*
X2655577D01*
Y2053525D01*
X2662242D01*
X2655577Y2058523D02*
X2658910D01*
X2670573Y2053525D02*
Y2063522D01*
X2665574Y2058523D01*
X2672239D01*
X2296081Y2245025D02*
Y2255022D01*
X2301079D01*
X2302745Y2253356D01*
Y2250023D01*
X2301079Y2248357D01*
X2296081D01*
X2312742Y2255022D02*
X2306078D01*
Y2250023D01*
X2309410Y2251690D01*
X2311076D01*
X2312742Y2250023D01*
Y2246691D01*
X2311076Y2245025D01*
X2307744D01*
X2306078Y2246691D01*
X2312331Y2084106D02*
X2313997Y2085772D01*
X2317329D01*
X2318995Y2084106D01*
Y2082440D01*
X2317329Y2080773D01*
X2315663D01*
X2317329D01*
X2318995Y2079107D01*
Y2077441D01*
X2317329Y2075775D01*
X2313997D01*
X2312331Y2077441D01*
X2322328Y2075775D02*
Y2085772D01*
X2327326D01*
X2328992Y2084106D01*
Y2080773D01*
X2327326Y2079107D01*
X2322328D01*
X2325660D02*
X2328992Y2075775D01*
X2332324Y2084106D02*
X2333990Y2085772D01*
X2337323D01*
X2338989Y2084106D01*
Y2082440D01*
X2337323Y2080773D01*
X2335656D01*
X2337323D01*
X2338989Y2079107D01*
Y2077441D01*
X2337323Y2075775D01*
X2333990D01*
X2332324Y2077441D01*
X2454500Y2060690D02*
X2452834Y2059023D01*
Y2055691D01*
X2454500Y2054025D01*
X2461165D01*
X2462831Y2055691D01*
Y2059023D01*
X2461165Y2060690D01*
X2457832D01*
Y2057357D01*
X2462831Y2064022D02*
X2452834D01*
X2462831Y2070686D01*
X2452834D01*
Y2074019D02*
X2462831D01*
Y2079017D01*
X2461165Y2080683D01*
X2454500D01*
X2452834Y2079017D01*
Y2074019D01*
X2547735Y2158941D02*
X2545069Y2163559D01*
X2222735Y2155441D02*
X2220069Y2160059D01*
X2548084Y2089275D02*
Y2095940D01*
Y2092607D01*
X2558081D01*
X2551416Y2100938D02*
Y2104270D01*
X2553082Y2105936D01*
X2558081D01*
Y2100938D01*
X2556414Y2099272D01*
X2554748Y2100938D01*
Y2105936D01*
X2551416Y2115933D02*
Y2110935D01*
X2553082Y2109269D01*
X2556414D01*
X2558081Y2110935D01*
Y2115933D01*
X2548084Y2119265D02*
X2558081D01*
X2553082D01*
X2551416Y2120932D01*
Y2124264D01*
X2553082Y2125930D01*
X2558081D01*
X2551416Y2129262D02*
X2556414D01*
X2558081Y2130928D01*
Y2135927D01*
X2559747D01*
X2561413Y2134261D01*
Y2132594D01*
X2558081Y2135927D02*
X2551416D01*
X2558081Y2139259D02*
Y2144257D01*
X2556414Y2145923D01*
X2554748Y2144257D01*
Y2140925D01*
X2553082Y2139259D01*
X2551416Y2140925D01*
Y2145923D01*
X2558081Y2149256D02*
Y2154254D01*
X2556414Y2155920D01*
X2554748Y2154254D01*
Y2150922D01*
X2553082Y2149256D01*
X2551416Y2150922D01*
Y2155920D01*
X2558081Y2164251D02*
Y2160919D01*
X2556414Y2159252D01*
X2553082D01*
X2551416Y2160919D01*
Y2164251D01*
X2553082Y2165917D01*
X2554748D01*
Y2159252D01*
X2558081Y2169249D02*
X2551416D01*
Y2170915D01*
X2553082Y2172582D01*
X2558081D01*
X2553082D01*
X2551416Y2174248D01*
X2553082Y2175914D01*
X2558081D01*
X2551416Y2180912D02*
Y2184245D01*
X2553082Y2185911D01*
X2558081D01*
Y2180912D01*
X2556414Y2179246D01*
X2554748Y2180912D01*
Y2185911D01*
X2222834Y2085775D02*
Y2092440D01*
Y2089107D01*
X2232831D01*
X2226166Y2097438D02*
Y2100770D01*
X2227832Y2102436D01*
X2232831D01*
Y2097438D01*
X2231165Y2095772D01*
X2229498Y2097438D01*
Y2102436D01*
X2226166Y2112433D02*
Y2107435D01*
X2227832Y2105769D01*
X2231165D01*
X2232831Y2107435D01*
Y2112433D01*
X2222834Y2115765D02*
X2232831D01*
X2227832D01*
X2226166Y2117431D01*
Y2120764D01*
X2227832Y2122430D01*
X2232831D01*
X2226166Y2125762D02*
X2231165D01*
X2232831Y2127428D01*
Y2132427D01*
X2234497D01*
X2236163Y2130761D01*
Y2129094D01*
X2232831Y2132427D02*
X2226166D01*
X2232831Y2135759D02*
Y2140757D01*
X2231165Y2142424D01*
X2229498Y2140757D01*
Y2137425D01*
X2227832Y2135759D01*
X2226166Y2137425D01*
Y2142424D01*
X2232831Y2145756D02*
Y2150754D01*
X2231165Y2152420D01*
X2229498Y2150754D01*
Y2147422D01*
X2227832Y2145756D01*
X2226166Y2147422D01*
Y2152420D01*
X2232831Y2160751D02*
Y2157419D01*
X2231165Y2155753D01*
X2227832D01*
X2226166Y2157419D01*
Y2160751D01*
X2227832Y2162417D01*
X2229498D01*
Y2155753D01*
X2232831Y2165749D02*
X2226166D01*
Y2167415D01*
X2227832Y2169082D01*
X2232831D01*
X2227832D01*
X2226166Y2170748D01*
X2227832Y2172414D01*
X2232831D01*
X2226166Y2177412D02*
Y2180744D01*
X2227832Y2182411D01*
X2232831D01*
Y2177412D01*
X2231165Y2175746D01*
X2229498Y2177412D01*
Y2182411D01*
X2245584Y2092939D02*
Y2086275D01*
X2255581D01*
Y2092939D01*
X2250582Y2086275D02*
Y2089607D01*
X2245584Y2096272D02*
X2255581Y2102936D01*
X2245584D02*
X2255581Y2096272D01*
X2245584Y2106269D02*
Y2112933D01*
Y2109601D01*
X2255581D01*
X2247250Y2116265D02*
X2245584Y2117932D01*
Y2121264D01*
X2247250Y2122930D01*
X2253914D01*
X2255581Y2121264D01*
Y2117932D01*
X2253914Y2116265D01*
X2247250D01*
X2253914Y2126262D02*
X2255581Y2127928D01*
Y2131261D01*
X2253914Y2132927D01*
X2247250D01*
X2245584Y2131261D01*
Y2127928D01*
X2247250Y2126262D01*
X2248916D01*
X2250582Y2127928D01*
Y2132927D01*
Y2146256D02*
Y2152920D01*
X2255581Y2166249D02*
Y2169581D01*
Y2167915D01*
X2245584D01*
X2247250Y2166249D01*
X2255581Y2181244D02*
Y2174580D01*
X2248916Y2181244D01*
X2247250D01*
X2245584Y2179578D01*
Y2176246D01*
X2247250Y2174580D01*
X2255581Y2184577D02*
Y2187909D01*
Y2186243D01*
X2245584D01*
X2247250Y2184577D01*
Y2192907D02*
X2245584Y2194573D01*
Y2197906D01*
X2247250Y2199572D01*
X2248916D01*
X2250582Y2197906D01*
X2252248Y2199572D01*
X2253914D01*
X2255581Y2197906D01*
Y2194573D01*
X2253914Y2192907D01*
X2252248D01*
X2250582Y2194573D01*
X2248916Y2192907D01*
X2247250D01*
X2250582Y2194573D02*
Y2197906D01*
X2960745Y2299022D02*
X2954081D01*
Y2289025D01*
X2960745D01*
X2954081Y2294023D02*
X2957413D01*
X2964077Y2299022D02*
Y2289025D01*
X2969076D01*
X2970742Y2290691D01*
Y2297356D01*
X2969076Y2299022D01*
X2964077D01*
X2974074D02*
X2977407D01*
X2975740D01*
Y2289025D01*
X2974074D01*
X2977407D01*
X2982405Y2299022D02*
Y2289025D01*
X2987403D01*
X2989070Y2290691D01*
Y2297356D01*
X2987403Y2299022D01*
X2982405D01*
X2553331Y2693356D02*
X2554997Y2695022D01*
X2558329D01*
X2559995Y2693356D01*
Y2691689D01*
X2558329Y2690023D01*
X2556663D01*
X2558329D01*
X2559995Y2688357D01*
Y2686691D01*
X2558329Y2685025D01*
X2554997D01*
X2553331Y2686691D01*
X2563328Y2685025D02*
Y2695022D01*
X2568326D01*
X2569992Y2693356D01*
Y2690023D01*
X2568326Y2688357D01*
X2563328D01*
X2566660D02*
X2569992Y2685025D01*
X2573324Y2693356D02*
X2574991Y2695022D01*
X2578322D01*
X2579989Y2693356D01*
Y2691689D01*
X2578322Y2690023D01*
X2576656D01*
X2578322D01*
X2579989Y2688357D01*
Y2686691D01*
X2578322Y2685025D01*
X2574991D01*
X2573324Y2686691D01*
X2990250Y2707190D02*
X2988584Y2705523D01*
Y2702191D01*
X2990250Y2700525D01*
X2996915D01*
X2998581Y2702191D01*
Y2705523D01*
X2996915Y2707190D01*
X2993582D01*
Y2703857D01*
X2998581Y2710522D02*
X2988584D01*
X2998581Y2717186D01*
X2988584D01*
Y2720518D02*
X2998581D01*
Y2725517D01*
X2996915Y2727183D01*
X2990250D01*
X2988584Y2725517D01*
Y2720518D01*
X3082831Y2072275D02*
Y2082272D01*
X3087829D01*
X3089495Y2080606D01*
Y2077273D01*
X3087829Y2075607D01*
X3082831D01*
X3099492Y2082272D02*
X3092827D01*
Y2077273D01*
X3096160Y2078940D01*
X3097826D01*
X3099492Y2077273D01*
Y2073941D01*
X3097826Y2072275D01*
X3094494D01*
X3092827Y2073941D01*
D27*
X2287087Y2192604D02*
Y2185940D01*
Y2189272D01*
X2303748D01*
X2307081Y2185940D01*
Y2182607D01*
X2303748Y2179275D01*
X2290419Y2199269D02*
X2287087Y2202601D01*
Y2209265D01*
X2290419Y2212598D01*
X2293752D01*
X2297084Y2209265D01*
Y2205933D01*
Y2209265D01*
X2300416Y2212598D01*
X2303748D01*
X2307081Y2209265D01*
Y2202601D01*
X2303748Y2199269D01*
X2326087Y2483104D02*
Y2476440D01*
Y2479772D01*
X2342749D01*
X2346081Y2476440D01*
Y2473107D01*
X2342749Y2469775D01*
X2346081Y2499765D02*
X2326087D01*
X2336084Y2489769D01*
Y2503098D01*
X2894337Y2230354D02*
Y2223690D01*
Y2227022D01*
X2910999D01*
X2914331Y2223690D01*
Y2220357D01*
X2910999Y2217025D01*
X2914331Y2250348D02*
Y2237019D01*
X2901002Y2250348D01*
X2897669D01*
X2894337Y2247015D01*
Y2240351D01*
X2897669Y2237019D01*
X2977837Y2379354D02*
Y2372690D01*
Y2376022D01*
X2994499D01*
X2997831Y2372690D01*
Y2369357D01*
X2994499Y2366025D01*
X2997831Y2386019D02*
Y2392683D01*
Y2389351D01*
X2977837D01*
X2981169Y2386019D01*
D28*
X2270431Y1391825D02*
X2270187Y1394303D01*
X2269464Y1396685D01*
X2268290Y1398881D01*
X2266711Y1400805D01*
X2264786Y1402385D01*
X2262591Y1403558D01*
X2260208Y1404281D01*
X2257731Y1404525D01*
X2258026Y1353724D02*
X2260487Y1353931D01*
X2262856Y1354630D01*
X2265036Y1355792D01*
X2266936Y1357370D01*
X2268481Y1359298D01*
X2269604Y1361497D01*
X2270262Y1363878D01*
X2270426Y1366343D01*
X2295831Y1404525D02*
X2293353Y1404281D01*
X2290971Y1403558D01*
X2288775Y1402385D01*
X2286850Y1400805D01*
X2285271Y1398881D01*
X2284097Y1396685D01*
X2283375Y1394303D01*
X2283131Y1391825D01*
Y1366425D02*
X2283369Y1363975D01*
X2284076Y1361616D01*
X2285225Y1359439D01*
X2286772Y1357523D01*
X2288660Y1355943D01*
X2290817Y1354756D01*
X2293163Y1354008D01*
X2295609Y1353727D01*
X2733981Y1391825D02*
X2733737Y1394303D01*
X2733014Y1396685D01*
X2731841Y1398881D01*
X2730261Y1400805D01*
X2728336Y1402385D01*
X2726141Y1403558D01*
X2723758Y1404281D01*
X2721281Y1404525D01*
X2721576Y1353724D02*
X2724037Y1353931D01*
X2726406Y1354630D01*
X2728586Y1355792D01*
X2730486Y1357370D01*
X2732031Y1359298D01*
X2733154Y1361497D01*
X2733812Y1363878D01*
X2733976Y1366343D01*
X2746681Y1366171D02*
X2746925Y1363716D01*
X2747649Y1361358D01*
X2748824Y1359189D01*
X2750403Y1357294D01*
X2752325Y1355748D01*
X2754515Y1354611D01*
X2756885Y1353929D01*
X2759344Y1353727D01*
X2759381Y1404525D02*
X2756903Y1404281D01*
X2754521Y1403558D01*
X2752325Y1402385D01*
X2750400Y1400805D01*
X2748821Y1398881D01*
X2747647Y1396685D01*
X2746925Y1394303D01*
X2746681Y1391825D01*
X2035481Y1582579D02*
X2035242Y1585007D01*
X2034533Y1587342D01*
X2033383Y1589494D01*
X2031835Y1591380D01*
X2029949Y1592928D01*
X2027798Y1594078D01*
X2025463Y1594786D01*
X2023035Y1595025D01*
X2023289Y1512475D02*
X2025667Y1512709D01*
X2027954Y1513403D01*
X2030062Y1514530D01*
X2031910Y1516046D01*
X2033426Y1517894D01*
X2034553Y1520001D01*
X2035246Y1522289D01*
X2035481Y1524667D01*
Y1487329D02*
X2035231Y1489810D01*
X2034491Y1492192D01*
X2033292Y1494379D01*
X2031680Y1496282D01*
X2029722Y1497826D01*
X2027495Y1498948D01*
X2025089Y1499604D01*
X2022600Y1499767D01*
X2048181Y1499521D02*
X2048420Y1497093D01*
X2049128Y1494758D01*
X2050278Y1492607D01*
X2051826Y1490721D01*
X2053712Y1489173D01*
X2055864Y1488022D01*
X2058199Y1487314D01*
X2060627Y1487075D01*
X2048181Y1429671D02*
X2048420Y1427243D01*
X2049128Y1424908D01*
X2050278Y1422757D01*
X2051826Y1420871D01*
X2053712Y1419323D01*
X2055864Y1418172D01*
X2058199Y1417464D01*
X2060627Y1417225D01*
X2023035D02*
X2025463Y1417464D01*
X2027798Y1418172D01*
X2029949Y1419323D01*
X2031835Y1420871D01*
X2033383Y1422757D01*
X2034533Y1424908D01*
X2035242Y1427243D01*
X2035481Y1429671D01*
X2479981Y1461929D02*
X2479742Y1464357D01*
X2479033Y1466692D01*
X2477883Y1468844D01*
X2476335Y1470730D01*
X2474449Y1472278D01*
X2472298Y1473428D01*
X2469963Y1474136D01*
X2467535Y1474375D01*
Y1417225D02*
X2469989Y1417470D01*
X2472348Y1418193D01*
X2474517Y1419368D01*
X2476412Y1420948D01*
X2477958Y1422870D01*
X2479095Y1425059D01*
X2479777Y1427430D01*
X2479979Y1429888D01*
X2492681Y1430179D02*
X2492924Y1427680D01*
X2493645Y1425274D01*
X2494817Y1423053D01*
X2496395Y1421100D01*
X2498321Y1419487D01*
X2500521Y1418277D01*
X2502914Y1417514D01*
X2505409Y1417227D01*
X2504873Y1474375D02*
X2502416Y1474125D01*
X2500060Y1473385D01*
X2497901Y1472185D01*
X2496029Y1470576D01*
X2494519Y1468621D01*
X2493434Y1466403D01*
X2492819Y1464012D01*
X2492697Y1461545D01*
X2060881Y1474375D02*
X2058403Y1474131D01*
X2056021Y1473408D01*
X2053825Y1472235D01*
X2051900Y1470655D01*
X2050321Y1468731D01*
X2049147Y1466535D01*
X2048425Y1464153D01*
X2048181Y1461675D01*
X2060881Y1595025D02*
X2058403Y1594781D01*
X2056021Y1594058D01*
X2053825Y1592885D01*
X2051900Y1591305D01*
X2050321Y1589381D01*
X2049147Y1587185D01*
X2048425Y1584803D01*
X2048181Y1582325D01*
X1819581Y1429925D02*
X1819819Y1427475D01*
X1820526Y1425116D01*
X1821675Y1422939D01*
X1823222Y1421024D01*
X1825110Y1419443D01*
X1827267Y1418256D01*
X1829613Y1417508D01*
X1832059Y1417227D01*
X1832281Y1499775D02*
X1829803Y1499531D01*
X1827421Y1498808D01*
X1825225Y1497635D01*
X1823300Y1496055D01*
X1821721Y1494131D01*
X1820547Y1491935D01*
X1819825Y1489553D01*
X1819581Y1487075D01*
Y1525175D02*
X1819825Y1522697D01*
X1820547Y1520315D01*
X1821721Y1518119D01*
X1823300Y1516195D01*
X1825225Y1514615D01*
X1827421Y1513442D01*
X1829803Y1512719D01*
X1832281Y1512475D01*
Y1595025D02*
X1829803Y1594781D01*
X1827421Y1594058D01*
X1825225Y1592885D01*
X1823300Y1591305D01*
X1821721Y1589381D01*
X1820547Y1587185D01*
X1819825Y1584803D01*
X1819581Y1582325D01*
Y1620425D02*
X1819825Y1617948D01*
X1820547Y1615565D01*
X1821721Y1613369D01*
X1823300Y1611445D01*
X1825225Y1609865D01*
X1827421Y1608692D01*
X1829803Y1607969D01*
X1832281Y1607725D01*
Y1658525D02*
X1829803Y1658281D01*
X1827421Y1657558D01*
X1825225Y1656385D01*
X1823300Y1654805D01*
X1821721Y1652881D01*
X1820547Y1650685D01*
X1819825Y1648303D01*
X1819581Y1645825D01*
X2594281D02*
X2594037Y1648303D01*
X2593314Y1650685D01*
X2592141Y1652881D01*
X2590561Y1654805D01*
X2588636Y1656385D01*
X2586441Y1657558D01*
X2584058Y1658281D01*
X2581581Y1658525D01*
X2619681D02*
X2617203Y1658281D01*
X2614821Y1657558D01*
X2612625Y1656385D01*
X2610700Y1654805D01*
X2609121Y1652881D01*
X2607947Y1650685D01*
X2607225Y1648303D01*
X2606981Y1645825D01*
X2581581Y1607725D02*
X2584058Y1607969D01*
X2586441Y1608692D01*
X2588636Y1609865D01*
X2590561Y1611445D01*
X2592141Y1613369D01*
X2593314Y1615565D01*
X2594037Y1617948D01*
X2594281Y1620425D01*
Y1582325D02*
X2594037Y1584803D01*
X2593314Y1587185D01*
X2592141Y1589381D01*
X2590561Y1591305D01*
X2588636Y1592885D01*
X2586441Y1594058D01*
X2584058Y1594781D01*
X2581581Y1595025D01*
X1832281Y1404525D02*
X1829803Y1404281D01*
X1827421Y1403558D01*
X1825225Y1402385D01*
X1823300Y1400805D01*
X1821721Y1398881D01*
X1820547Y1396685D01*
X1819825Y1394303D01*
X1819581Y1391825D01*
X2581802Y1487074D02*
X2584249Y1487356D01*
X2586595Y1488104D01*
X2588753Y1489291D01*
X2590641Y1490872D01*
X2592188Y1492787D01*
X2593337Y1494965D01*
X2594044Y1497324D01*
X2594283Y1499775D01*
X1819581Y1366425D02*
X1819819Y1363975D01*
X1820526Y1361616D01*
X1821675Y1359439D01*
X1823222Y1357523D01*
X1825110Y1355943D01*
X1827267Y1354756D01*
X1829613Y1354008D01*
X1832059Y1353727D01*
X2594281Y1461929D02*
X2594041Y1464357D01*
X2593333Y1466692D01*
X2592183Y1468844D01*
X2590635Y1470730D01*
X2588749Y1472278D01*
X2586598Y1473428D01*
X2584263Y1474136D01*
X2581835Y1474375D01*
X2606981Y1429671D02*
X2607225Y1427216D01*
X2607949Y1424858D01*
X2609124Y1422689D01*
X2610703Y1420794D01*
X2612625Y1419248D01*
X2614815Y1418111D01*
X2617185Y1417429D01*
X2619644Y1417227D01*
X2581581Y1417225D02*
X2584058Y1417469D01*
X2586441Y1418192D01*
X2588636Y1419365D01*
X2590561Y1420945D01*
X2592141Y1422869D01*
X2593314Y1425065D01*
X2594037Y1427448D01*
X2594281Y1429925D01*
X2899081Y1353725D02*
X2901558Y1353969D01*
X2903941Y1354692D01*
X2906136Y1355865D01*
X2908061Y1357445D01*
X2909641Y1359369D01*
X2910814Y1361565D01*
X2911537Y1363947D01*
X2911781Y1366425D01*
X2911781Y1392047D02*
X2911500Y1394493D01*
X2910752Y1396839D01*
X2909565Y1398997D01*
X2907984Y1400885D01*
X2906069Y1402433D01*
X2903890Y1403582D01*
X2901532Y1404289D01*
X2899081Y1404528D01*
Y1417225D02*
X2901558Y1417469D01*
X2903941Y1418192D01*
X2906136Y1419365D01*
X2908061Y1420945D01*
X2909641Y1422869D01*
X2910814Y1425065D01*
X2911537Y1427448D01*
X2911781Y1429925D01*
Y1646079D02*
X2911531Y1648560D01*
X2910791Y1650942D01*
X2909592Y1653129D01*
X2907980Y1655032D01*
X2906022Y1656576D01*
X2903795Y1657698D01*
X2901389Y1658354D01*
X2898900Y1658517D01*
X2606981Y1499775D02*
X2607225Y1497298D01*
X2607947Y1494915D01*
X2609121Y1492719D01*
X2610700Y1490795D01*
X2612625Y1489215D01*
X2614821Y1488042D01*
X2617203Y1487319D01*
X2619681Y1487075D01*
X2899081D02*
X2901558Y1487319D01*
X2903941Y1488042D01*
X2906136Y1489215D01*
X2908061Y1490795D01*
X2909641Y1492719D01*
X2910814Y1494915D01*
X2911537Y1497298D01*
X2911781Y1499775D01*
X2619681Y1474375D02*
X2617203Y1474131D01*
X2614821Y1473408D01*
X2612625Y1472235D01*
X2610700Y1470655D01*
X2609121Y1468731D01*
X2607947Y1466535D01*
X2607225Y1464153D01*
X2606981Y1461675D01*
X2911781Y1461929D02*
X2911541Y1464357D01*
X2910833Y1466692D01*
X2909683Y1468844D01*
X2908135Y1470730D01*
X2906249Y1472278D01*
X2904098Y1473428D01*
X2901763Y1474136D01*
X2899335Y1474375D01*
D29*
X2924481Y1645825D02*
X2924359Y1648315D01*
X2923993Y1650780D01*
X2923387Y1653198D01*
X2922547Y1655545D01*
X2921482Y1657799D01*
X2920200Y1659937D01*
X2918715Y1661939D01*
X2917041Y1663786D01*
X2915194Y1665460D01*
X2913192Y1666944D01*
X2911054Y1668226D01*
X2908801Y1669292D01*
X2906454Y1670131D01*
X2904036Y1670737D01*
X2901570Y1671103D01*
X2899081Y1671225D01*
Y1341025D02*
X2901570Y1341147D01*
X2904036Y1341513D01*
X2906454Y1342119D01*
X2908801Y1342959D01*
X2911054Y1344024D01*
X2913192Y1345306D01*
X2915194Y1346791D01*
X2917041Y1348465D01*
X2918715Y1350311D01*
X2920200Y1352314D01*
X2921482Y1354452D01*
X2922547Y1356705D01*
X2923387Y1359052D01*
X2923993Y1361470D01*
X2924359Y1363936D01*
X2924481Y1366425D01*
X1806881Y1366679D02*
X1807001Y1364192D01*
X1807363Y1361729D01*
X1807961Y1359312D01*
X1808791Y1356965D01*
X1809844Y1354709D01*
X1811111Y1352566D01*
X1812580Y1350556D01*
X1814237Y1348698D01*
X1816066Y1347009D01*
X1818050Y1345505D01*
X1820171Y1344201D01*
X1822408Y1343108D01*
X1824740Y1342238D01*
X1827146Y1341597D01*
X1829603Y1341193D01*
X1832087Y1341029D01*
X1832281Y1671225D02*
X1829791Y1671103D01*
X1827325Y1670737D01*
X1824908Y1670131D01*
X1822560Y1669292D01*
X1820307Y1668226D01*
X1818169Y1666944D01*
X1816167Y1665460D01*
X1814320Y1663786D01*
X1812646Y1661939D01*
X1811161Y1659937D01*
X1809880Y1657799D01*
X1808814Y1655545D01*
X1807974Y1653198D01*
X1807369Y1650780D01*
X1807003Y1648315D01*
X1806881Y1645825D01*
X2194831Y1921545D02*
X2584716D01*
X2745195D02*
X3135081D01*
X2194831D02*
X2210071Y1926625D01*
X2194831Y1921545D02*
X2210071Y1916465D01*
X3119841Y1926625D02*
X3135081Y1921545D01*
X3119841Y1916465D02*
X3135081Y1921545D01*
X2194831Y1919005D02*
Y1924085D01*
X3135081Y1919005D02*
Y1924085D01*
X2147081Y1944525D02*
Y2314161D01*
Y2474639D02*
Y2844275D01*
X2142001Y1959765D02*
X2147081Y1944525D01*
X2152161Y1959765D01*
X2142001Y2829035D02*
X2147081Y2844275D01*
X2152161Y2829035D01*
X2144541Y1944525D02*
X2149621D01*
X2144541Y2844275D02*
X2149621D01*
D30*
X1734493Y1347373D02*
X1733602Y1349822D01*
X1731345Y1351125D01*
X1728778Y1350672D01*
X1727103Y1348676D01*
Y1346069D01*
X1728778Y1344073D01*
X1731345Y1343620D01*
X1733602Y1344924D01*
X1734493Y1347373D01*
X1733223D02*
X1731953Y1349572D01*
X1729413D01*
X1728143Y1347373D01*
X1729413Y1345173D01*
X1731953D01*
X1733223Y1347373D01*
X1735763D02*
X1735181Y1349733D01*
X1733569Y1351553D01*
X1731295Y1352415D01*
X1728882Y1352122D01*
X1726881Y1350741D01*
X1725751Y1348588D01*
Y1346157D01*
X1726881Y1344004D01*
X1728882Y1342623D01*
X1731295Y1342330D01*
X1733569Y1343192D01*
X1735181Y1345012D01*
X1735763Y1347373D01*
X1731953D02*
X1730048Y1348472D01*
Y1346273D01*
X1731953Y1347373D01*
X1731318D02*
X1730048D01*
X1731318D01*
X1749733D02*
X1749563Y1349912D01*
X1749056Y1352406D01*
X1748222Y1354810D01*
X1747074Y1357081D01*
X1745634Y1359179D01*
X1743927Y1361066D01*
X1741983Y1362709D01*
X1739838Y1364079D01*
X1737530Y1365150D01*
X1735099Y1365904D01*
X1732590Y1366327D01*
X1730047Y1366412D01*
X1727515Y1366157D01*
X1725039Y1365567D01*
X1722664Y1364653D01*
X1720433Y1363430D01*
X1718384Y1361920D01*
X1716555Y1360151D01*
X1714978Y1358154D01*
X1713681Y1355964D01*
X1712687Y1353621D01*
X1712015Y1351167D01*
X1711676Y1348645D01*
Y1346100D01*
X1712015Y1343578D01*
X1712687Y1341124D01*
X1713681Y1338781D01*
X1714978Y1336591D01*
X1716555Y1334594D01*
X1718384Y1332825D01*
X1720433Y1331315D01*
X1722664Y1330092D01*
X1725039Y1329178D01*
X1727515Y1328588D01*
X1730047Y1328333D01*
X1732590Y1328418D01*
X1735099Y1328842D01*
X1737530Y1329595D01*
X1739838Y1330667D01*
X1741983Y1332036D01*
X1743927Y1333679D01*
X1745634Y1335566D01*
X1747074Y1337664D01*
X1748222Y1339936D01*
X1749056Y1342340D01*
X1749563Y1344834D01*
X1749733Y1347373D01*
X1743383D02*
X1743123Y1349929D01*
X1742354Y1352381D01*
X1741107Y1354628D01*
X1739433Y1356577D01*
X1737401Y1358150D01*
X1735094Y1359282D01*
X1732606Y1359926D01*
X1730040Y1360056D01*
X1727500Y1359667D01*
X1725090Y1358775D01*
X1722910Y1357415D01*
X1721047Y1355645D01*
X1719579Y1353536D01*
X1718566Y1351174D01*
X1718048Y1348657D01*
Y1346088D01*
X1718566Y1343571D01*
X1719579Y1341209D01*
X1721047Y1339100D01*
X1722910Y1337330D01*
X1725090Y1335970D01*
X1727500Y1335078D01*
X1730040Y1334689D01*
X1732606Y1334819D01*
X1735094Y1335463D01*
X1737401Y1336595D01*
X1739433Y1338168D01*
X1741107Y1340117D01*
X1742354Y1342364D01*
X1743123Y1344816D01*
X1743383Y1347373D01*
X1743381Y2871375D02*
X1743121Y2873932D01*
X1742352Y2876383D01*
X1741104Y2878630D01*
X1739431Y2880580D01*
X1737399Y2882153D01*
X1735092Y2883285D01*
X1732604Y2883929D01*
X1730037Y2884059D01*
X1727497Y2883670D01*
X1725088Y2882777D01*
X1722907Y2881418D01*
X1721044Y2879648D01*
X1719577Y2877538D01*
X1718563Y2875177D01*
X1718046Y2872660D01*
Y2870090D01*
X1718563Y2867573D01*
X1719577Y2865212D01*
X1721044Y2863103D01*
X1722907Y2861332D01*
X1725088Y2859973D01*
X1727497Y2859081D01*
X1730037Y2858691D01*
X1732604Y2858822D01*
X1735092Y2859466D01*
X1737399Y2860597D01*
X1739431Y2862170D01*
X1741104Y2864120D01*
X1742352Y2866367D01*
X1743121Y2868819D01*
X1743381Y2871375D01*
X1735761D02*
X1735179Y2873736D01*
X1733566Y2875556D01*
X1731293Y2876418D01*
X1728879Y2876125D01*
X1726878Y2874744D01*
X1725748Y2872591D01*
Y2870159D01*
X1726878Y2868006D01*
X1728879Y2866625D01*
X1731293Y2866332D01*
X1733566Y2867194D01*
X1735179Y2869014D01*
X1735761Y2871375D01*
X1734491D02*
X1733599Y2873824D01*
X1731342Y2875127D01*
X1728776Y2874675D01*
X1727101Y2872678D01*
Y2870072D01*
X1728776Y2868076D01*
X1731342Y2867623D01*
X1733599Y2868926D01*
X1734491Y2871375D01*
X1733221D02*
X1731951Y2873575D01*
X1729411D01*
X1728141Y2871375D01*
X1729411Y2869175D01*
X1731951D01*
X1733221Y2871375D01*
X1731951D02*
X1730046Y2872475D01*
Y2870275D01*
X1731951Y2871375D01*
X1731316D02*
X1730046D01*
X1731316D01*
X1749731D02*
X1749561Y2873914D01*
X1749054Y2876408D01*
X1748219Y2878812D01*
X1747071Y2881083D01*
X1745631Y2883181D01*
X1743924Y2885069D01*
X1741981Y2886712D01*
X1739836Y2888081D01*
X1737527Y2889152D01*
X1735097Y2889906D01*
X1732587Y2890329D01*
X1730044Y2890414D01*
X1727512Y2890160D01*
X1725037Y2889570D01*
X1722662Y2888655D01*
X1720430Y2887432D01*
X1718382Y2885923D01*
X1716552Y2884153D01*
X1714975Y2882156D01*
X1713678Y2879967D01*
X1712685Y2877624D01*
X1712012Y2875170D01*
X1711673Y2872647D01*
Y2870103D01*
X1712012Y2867581D01*
X1712685Y2865126D01*
X1713678Y2862784D01*
X1714975Y2860594D01*
X1716552Y2858596D01*
X1718382Y2856827D01*
X1720430Y2855318D01*
X1722662Y2854095D01*
X1725037Y2853181D01*
X1727512Y2852591D01*
X1730044Y2852336D01*
X1732587Y2852421D01*
X1735097Y2852844D01*
X1737527Y2853598D01*
X1739836Y2854669D01*
X1741981Y2856039D01*
X1743924Y2857682D01*
X1745631Y2859569D01*
X1747071Y2861667D01*
X1748219Y2863938D01*
X1749054Y2866342D01*
X1749561Y2868836D01*
X1749731Y2871375D01*
X3511223Y1347373D02*
X3509953Y1349572D01*
X3507413D01*
X3506143Y1347373D01*
X3507413Y1345173D01*
X3509953D01*
X3511223Y1347373D01*
X3512493D02*
X3511602Y1349822D01*
X3509345Y1351125D01*
X3506778Y1350672D01*
X3505103Y1348676D01*
Y1346069D01*
X3506778Y1344073D01*
X3509345Y1343620D01*
X3511602Y1344924D01*
X3512493Y1347373D01*
X3513763D02*
X3513181Y1349733D01*
X3511569Y1351553D01*
X3509295Y1352415D01*
X3506882Y1352122D01*
X3504881Y1350741D01*
X3503751Y1348588D01*
Y1346157D01*
X3504881Y1344004D01*
X3506882Y1342623D01*
X3509295Y1342330D01*
X3511569Y1343192D01*
X3513181Y1345012D01*
X3513763Y1347373D01*
X3509953D02*
X3508048Y1348472D01*
Y1346273D01*
X3509953Y1347373D01*
X3509318D02*
X3508048D01*
X3509318D01*
X3527733D02*
X3527563Y1349912D01*
X3527056Y1352406D01*
X3526222Y1354810D01*
X3525074Y1357081D01*
X3523634Y1359179D01*
X3521927Y1361066D01*
X3519983Y1362709D01*
X3517838Y1364079D01*
X3515530Y1365150D01*
X3513099Y1365904D01*
X3510590Y1366327D01*
X3508047Y1366412D01*
X3505515Y1366157D01*
X3503039Y1365567D01*
X3500664Y1364653D01*
X3498433Y1363430D01*
X3496384Y1361920D01*
X3494555Y1360151D01*
X3492978Y1358154D01*
X3491681Y1355964D01*
X3490687Y1353621D01*
X3490015Y1351167D01*
X3489676Y1348645D01*
Y1346100D01*
X3490015Y1343578D01*
X3490687Y1341124D01*
X3491681Y1338781D01*
X3492978Y1336591D01*
X3494555Y1334594D01*
X3496384Y1332825D01*
X3498433Y1331315D01*
X3500664Y1330092D01*
X3503039Y1329178D01*
X3505515Y1328588D01*
X3508047Y1328333D01*
X3510590Y1328418D01*
X3513099Y1328842D01*
X3515530Y1329595D01*
X3517838Y1330667D01*
X3519983Y1332036D01*
X3521927Y1333679D01*
X3523634Y1335566D01*
X3525074Y1337664D01*
X3526222Y1339936D01*
X3527056Y1342340D01*
X3527563Y1344834D01*
X3527733Y1347373D01*
X3521383D02*
X3521123Y1349929D01*
X3520354Y1352381D01*
X3519107Y1354628D01*
X3517433Y1356577D01*
X3515401Y1358150D01*
X3513094Y1359282D01*
X3510606Y1359926D01*
X3508040Y1360056D01*
X3505500Y1359667D01*
X3503090Y1358775D01*
X3500909Y1357415D01*
X3499047Y1355645D01*
X3497579Y1353536D01*
X3496566Y1351174D01*
X3496048Y1348657D01*
Y1346088D01*
X3496566Y1343571D01*
X3497579Y1341209D01*
X3499047Y1339100D01*
X3500909Y1337330D01*
X3503090Y1335970D01*
X3505500Y1335078D01*
X3508040Y1334689D01*
X3510606Y1334819D01*
X3513094Y1335463D01*
X3515401Y1336595D01*
X3517433Y1338168D01*
X3519107Y1340117D01*
X3520354Y1342364D01*
X3521123Y1344816D01*
X3521383Y1347373D01*
X1832281Y1559462D02*
Y1544225D01*
X1840987D01*
X1844107Y1559462D02*
X1844833Y1558736D01*
X1845558Y1559462D01*
X1844833Y1560187D01*
X1844107Y1559462D01*
X1844833Y1554383D02*
Y1544225D01*
X1848243Y1554383D02*
Y1544225D01*
Y1551481D02*
X1850420Y1553657D01*
X1851871Y1554383D01*
X1854047D01*
X1855499Y1553657D01*
X1856224Y1551481D01*
Y1544225D01*
X1872186Y1559462D02*
Y1544225D01*
Y1559462D02*
X1878716D01*
X1880893Y1558736D01*
X1881619Y1558011D01*
X1882344Y1556560D01*
Y1555108D01*
X1881619Y1553657D01*
X1880893Y1552932D01*
X1878716Y1552206D01*
X1872186D02*
X1878716D01*
X1880893Y1551481D01*
X1881619Y1550755D01*
X1882344Y1549304D01*
Y1547127D01*
X1881619Y1545676D01*
X1880893Y1544951D01*
X1878716Y1544225D01*
X1872186D01*
X1885754Y1559462D02*
Y1544225D01*
Y1559462D02*
X1892284D01*
X1894461Y1558736D01*
X1895187Y1558011D01*
X1895912Y1556560D01*
Y1555108D01*
X1895187Y1553657D01*
X1894461Y1552932D01*
X1892284Y1552206D01*
X1885754D01*
X1890833D02*
X1895912Y1544225D01*
X1899322Y1559462D02*
Y1548578D01*
X1900048Y1546402D01*
X1901499Y1544951D01*
X1903676Y1544225D01*
X1905127D01*
X1907303Y1544951D01*
X1908755Y1546402D01*
X1909480Y1548578D01*
Y1559462D01*
X1913688D02*
Y1544225D01*
Y1559462D02*
X1923846Y1544225D01*
Y1559462D02*
Y1544225D01*
X1937487Y1559462D02*
X1928055D01*
Y1544225D01*
X1937487D01*
X1928055Y1552206D02*
X1933859D01*
X1940026Y1559462D02*
Y1544225D01*
X1948733D01*
D31*
X2587256Y1914943D02*
X2589796Y1912404D01*
X2594874D01*
X2597413Y1914943D01*
Y1925099D01*
X2594874Y1927639D01*
X2589796D01*
X2587256Y1925099D01*
Y1922560D01*
X2589796Y1920021D01*
X2597413D01*
X2610109Y1912404D02*
Y1927639D01*
X2602491Y1920021D01*
X2612648D01*
X2617726Y1912404D02*
Y1914943D01*
X2620266D01*
Y1912404D01*
X2617726D01*
X2630422Y1925099D02*
X2632962Y1927639D01*
X2638040D01*
X2640579Y1925099D01*
Y1914943D01*
X2638040Y1912404D01*
X2632962D01*
X2630422Y1914943D01*
Y1925099D01*
X2655814Y1912404D02*
X2645657D01*
X2655814Y1922560D01*
Y1925099D01*
X2653275Y1927639D01*
X2648197D01*
X2645657Y1925099D01*
X2671049Y1927639D02*
X2660893D01*
Y1920021D01*
X2665971Y1922560D01*
X2668510D01*
X2671049Y1920021D01*
Y1914943D01*
X2668510Y1912404D01*
X2663432D01*
X2660893Y1914943D01*
X2696441Y1912404D02*
X2691363Y1917482D01*
Y1922560D01*
X2696441Y1927639D01*
X2704059Y1912404D02*
Y1922560D01*
X2706598D01*
X2709137Y1920021D01*
Y1912404D01*
Y1920021D01*
X2711676Y1922560D01*
X2714215Y1920021D01*
Y1912404D01*
X2719294D02*
Y1922560D01*
X2721833D01*
X2724372Y1920021D01*
Y1912404D01*
Y1920021D01*
X2726911Y1922560D01*
X2729450Y1920021D01*
Y1912404D01*
X2734529D02*
X2739607Y1917482D01*
Y1922560D01*
X2734529Y1927639D01*
X2143526Y2316701D02*
X2140987Y2319240D01*
Y2324318D01*
X2143526Y2326857D01*
X2146066D01*
X2148605Y2324318D01*
X2151144Y2326857D01*
X2153683D01*
X2156222Y2324318D01*
Y2319240D01*
X2153683Y2316701D01*
X2151144D01*
X2148605Y2319240D01*
X2146066Y2316701D01*
X2143526D01*
X2148605Y2319240D02*
Y2324318D01*
X2153683Y2331936D02*
X2156222Y2334475D01*
Y2339553D01*
X2153683Y2342092D01*
X2143526D01*
X2140987Y2339553D01*
Y2334475D01*
X2143526Y2331936D01*
X2146066D01*
X2148605Y2334475D01*
Y2342092D01*
X2156222Y2347171D02*
X2153683D01*
Y2349710D01*
X2156222D01*
Y2347171D01*
X2153683Y2359867D02*
X2156222Y2362406D01*
Y2367484D01*
X2153683Y2370023D01*
X2143526D01*
X2140987Y2367484D01*
Y2362406D01*
X2143526Y2359867D01*
X2146066D01*
X2148605Y2362406D01*
Y2370023D01*
X2140987Y2375102D02*
Y2385258D01*
X2143526D01*
X2153683Y2375102D01*
X2156222D01*
X2140987Y2400494D02*
Y2390337D01*
X2148605D01*
X2146066Y2395415D01*
Y2397954D01*
X2148605Y2400494D01*
X2153683D01*
X2156222Y2397954D01*
Y2392876D01*
X2153683Y2390337D01*
X2156222Y2425885D02*
X2151144Y2420807D01*
X2146066D01*
X2140987Y2425885D01*
X2156222Y2433503D02*
X2146066D01*
Y2436042D01*
X2148605Y2438581D01*
X2156222D01*
X2148605D01*
X2146066Y2441120D01*
X2148605Y2443660D01*
X2156222D01*
Y2448738D02*
X2146066D01*
Y2451277D01*
X2148605Y2453816D01*
X2156222D01*
X2148605D01*
X2146066Y2456355D01*
X2148605Y2458895D01*
X2156222D01*
Y2463973D02*
X2151144Y2469051D01*
X2146066D01*
X2140987Y2463973D01*
D32*
X2770083Y1390372D02*
X2769539Y1391460D01*
X2768451Y1392549D01*
X2767362Y1393093D01*
X2765186D01*
X2764097Y1392549D01*
X2763009Y1391460D01*
X2762465Y1390372D01*
X2761921Y1388739D01*
Y1386019D01*
X2762465Y1384386D01*
X2763009Y1383298D01*
X2764097Y1382209D01*
X2765186Y1381665D01*
X2767362D01*
X2768451Y1382209D01*
X2769539Y1383298D01*
X2770083Y1384386D01*
Y1386019D01*
X2767362D02*
X2770083D01*
X2779769Y1393093D02*
X2772695D01*
Y1381665D01*
X2779769D01*
X2772695Y1387651D02*
X2777049D01*
X2781674Y1393093D02*
Y1381665D01*
Y1393093D02*
X2786572D01*
X2788204Y1392549D01*
X2788748Y1392004D01*
X2789292Y1390916D01*
Y1389828D01*
X2788748Y1388739D01*
X2788204Y1388195D01*
X2786572Y1387651D01*
X2781674D01*
X2785483D02*
X2789292Y1381665D01*
X2791850Y1393093D02*
Y1381665D01*
Y1393093D02*
X2796747D01*
X2798380Y1392549D01*
X2798924Y1392004D01*
X2799468Y1390916D01*
Y1389828D01*
X2798924Y1388739D01*
X2798380Y1388195D01*
X2796747Y1387651D01*
X2791850D02*
X2796747D01*
X2798380Y1387107D01*
X2798924Y1386563D01*
X2799468Y1385474D01*
Y1383842D01*
X2798924Y1382753D01*
X2798380Y1382209D01*
X2796747Y1381665D01*
X2791850D01*
X2809100Y1393093D02*
X2802026D01*
Y1381665D01*
X2809100D01*
X2802026Y1387651D02*
X2806379D01*
X2811005Y1393093D02*
Y1381665D01*
Y1393093D02*
X2815902D01*
X2817535Y1392549D01*
X2818079Y1392004D01*
X2818623Y1390916D01*
Y1389828D01*
X2818079Y1388739D01*
X2817535Y1388195D01*
X2815902Y1387651D01*
X2811005D01*
X2814814D02*
X2818623Y1381665D01*
X2821725Y1389283D02*
X2821181Y1388739D01*
X2821725Y1388195D01*
X2822269Y1388739D01*
X2821725Y1389283D01*
Y1382753D02*
X2821181Y1382209D01*
X2821725Y1381665D01*
X2822269Y1382209D01*
X2821725Y1382753D01*
X1832281Y1393093D02*
Y1381665D01*
Y1393093D02*
X1839355D01*
X1832281Y1387651D02*
X1836634D01*
X1840661Y1393093D02*
Y1381665D01*
X1843055Y1393093D02*
Y1381665D01*
X1849585D01*
X1857911Y1393093D02*
X1850837D01*
Y1381665D01*
X1857911D01*
X1850837Y1387651D02*
X1855190D01*
X1868795Y1393093D02*
Y1381665D01*
Y1393093D02*
X1876413Y1381665D01*
Y1393093D02*
Y1381665D01*
X1888276D02*
X1883922Y1393093D01*
X1879569Y1381665D01*
X1881201Y1385474D02*
X1886643D01*
X1890942Y1393093D02*
Y1381665D01*
Y1393093D02*
X1895296Y1381665D01*
X1899649Y1393093D02*
X1895296Y1381665D01*
X1899649Y1393093D02*
Y1381665D01*
X1909988Y1393093D02*
X1902914D01*
Y1381665D01*
X1909988D01*
X1902914Y1387651D02*
X1907267D01*
X1912437Y1389283D02*
X1911893Y1388739D01*
X1912437Y1388195D01*
X1912981Y1388739D01*
X1912437Y1389283D01*
Y1382753D02*
X1911893Y1382209D01*
X1912437Y1381665D01*
X1912981Y1382209D01*
X1912437Y1382753D01*
X1839355Y1484533D02*
X1832281D01*
Y1473105D01*
X1839355D01*
X1832281Y1479091D02*
X1836634D01*
X1841259Y1484533D02*
Y1473105D01*
Y1484533D02*
X1848878Y1473105D01*
Y1484533D02*
Y1473105D01*
X1860197Y1481812D02*
X1859652Y1482900D01*
X1858564Y1483988D01*
X1857476Y1484533D01*
X1855299D01*
X1854211Y1483988D01*
X1853122Y1482900D01*
X1852578Y1481812D01*
X1852034Y1480179D01*
Y1477458D01*
X1852578Y1475826D01*
X1853122Y1474738D01*
X1854211Y1473649D01*
X1855299Y1473105D01*
X1857476D01*
X1858564Y1473649D01*
X1859652Y1474738D01*
X1860197Y1475826D01*
Y1477458D01*
X1857476D02*
X1860197D01*
X1862809Y1484533D02*
Y1473105D01*
X1865203Y1484533D02*
Y1473105D01*
Y1484533D02*
X1872821Y1473105D01*
Y1484533D02*
Y1473105D01*
X1883052Y1484533D02*
X1875977D01*
Y1473105D01*
X1883052D01*
X1875977Y1479091D02*
X1880331D01*
X1892030Y1484533D02*
X1884956D01*
Y1473105D01*
X1892030D01*
X1884956Y1479091D02*
X1889310D01*
X1893935Y1484533D02*
Y1473105D01*
Y1484533D02*
X1898833D01*
X1900465Y1483988D01*
X1901009Y1483444D01*
X1901553Y1482356D01*
Y1481268D01*
X1901009Y1480179D01*
X1900465Y1479635D01*
X1898833Y1479091D01*
X1893935D01*
X1897744D02*
X1901553Y1473105D01*
X1904655Y1480724D02*
X1904111Y1480179D01*
X1904655Y1479635D01*
X1905199Y1480179D01*
X1904655Y1480724D01*
Y1474193D02*
X1904111Y1473649D01*
X1904655Y1473105D01*
X1905199Y1473649D01*
X1904655Y1474193D01*
X2061515Y1584228D02*
Y1572800D01*
X2057706Y1584228D02*
X2065324D01*
X2066685D02*
Y1572800D01*
X2072888Y1584228D02*
Y1572800D01*
X2069079Y1584228D02*
X2076697D01*
X2078058D02*
Y1572800D01*
X2084588D01*
X2092914Y1584228D02*
X2085839D01*
Y1572800D01*
X2092914D01*
X2085839Y1578786D02*
X2090193D01*
X2095362Y1580419D02*
X2094818Y1579874D01*
X2095362Y1579330D01*
X2095906Y1579874D01*
X2095362Y1580419D01*
Y1573888D02*
X2094818Y1573344D01*
X2095362Y1572800D01*
X2095906Y1573344D01*
X2095362Y1573888D01*
X2060881Y1457592D02*
X2065778D01*
X2067411Y1458136D01*
X2067955Y1458680D01*
X2068499Y1459769D01*
Y1461401D01*
X2067955Y1462489D01*
X2067411Y1463033D01*
X2065778Y1463578D01*
X2060881D01*
Y1452150D01*
X2079763D02*
X2075410Y1463578D01*
X2071057Y1452150D01*
X2072689Y1455959D02*
X2078131D01*
X2082430Y1463578D02*
Y1452150D01*
Y1463578D02*
X2087327D01*
X2088960Y1463033D01*
X2089504Y1462489D01*
X2090048Y1461401D01*
Y1460313D01*
X2089504Y1459224D01*
X2088960Y1458680D01*
X2087327Y1458136D01*
X2082430D01*
X2086239D02*
X2090048Y1452150D01*
X2096415Y1463578D02*
Y1452150D01*
X2092606Y1463578D02*
X2100224D01*
X2110563D02*
Y1452150D01*
Y1463578D02*
X2118182Y1452150D01*
Y1463578D02*
Y1452150D01*
X2124603Y1463578D02*
X2123515Y1463033D01*
X2122426Y1461945D01*
X2121882Y1460857D01*
X2121338Y1459224D01*
Y1456503D01*
X2121882Y1454871D01*
X2122426Y1453783D01*
X2123515Y1452694D01*
X2124603Y1452150D01*
X2126780D01*
X2127868Y1452694D01*
X2128956Y1453783D01*
X2129500Y1454871D01*
X2130045Y1456503D01*
Y1459224D01*
X2129500Y1460857D01*
X2128956Y1461945D01*
X2127868Y1463033D01*
X2126780Y1463578D01*
X2124603D01*
X2133255Y1453238D02*
X2132711Y1452694D01*
X2133255Y1452150D01*
X2133799Y1452694D01*
X2133255Y1453238D01*
X2136847Y1459769D02*
X2136302Y1459224D01*
X2136847Y1458680D01*
X2137391Y1459224D01*
X2136847Y1459769D01*
Y1453238D02*
X2136302Y1452694D01*
X2136847Y1452150D01*
X2137391Y1452694D01*
X2136847Y1453238D01*
X1839355Y1581053D02*
X1832281D01*
Y1569625D01*
X1839355D01*
X1832281Y1575611D02*
X1836634D01*
X1841259Y1581053D02*
Y1569625D01*
Y1581053D02*
X1848878Y1569625D01*
Y1581053D02*
Y1569625D01*
X1860197Y1578332D02*
X1859652Y1579420D01*
X1858564Y1580509D01*
X1857476Y1581053D01*
X1855299D01*
X1854211Y1580509D01*
X1853122Y1579420D01*
X1852578Y1578332D01*
X1852034Y1576699D01*
Y1573978D01*
X1852578Y1572346D01*
X1853122Y1571258D01*
X1854211Y1570169D01*
X1855299Y1569625D01*
X1857476D01*
X1858564Y1570169D01*
X1859652Y1571258D01*
X1860197Y1572346D01*
Y1573978D01*
X1857476D02*
X1860197D01*
X1862809Y1581053D02*
Y1569625D01*
X1865203Y1581053D02*
Y1569625D01*
Y1581053D02*
X1872821Y1569625D01*
Y1581053D02*
Y1569625D01*
X1883052Y1581053D02*
X1875977D01*
Y1569625D01*
X1883052D01*
X1875977Y1575611D02*
X1880331D01*
X1892030Y1581053D02*
X1884956D01*
Y1569625D01*
X1892030D01*
X1884956Y1575611D02*
X1889310D01*
X1893935Y1581053D02*
Y1569625D01*
Y1581053D02*
X1898833D01*
X1900465Y1580509D01*
X1901009Y1579964D01*
X1901553Y1578876D01*
Y1577788D01*
X1901009Y1576699D01*
X1900465Y1576155D01*
X1898833Y1575611D01*
X1893935D01*
X1897744D02*
X1901553Y1569625D01*
X1904655Y1577243D02*
X1904111Y1576699D01*
X1904655Y1576155D01*
X1905199Y1576699D01*
X1904655Y1577243D01*
Y1570713D02*
X1904111Y1570169D01*
X1904655Y1569625D01*
X1905199Y1570169D01*
X1904655Y1570713D01*
X2299641Y1393093D02*
Y1381665D01*
X2306171D01*
X2316129D02*
X2311776Y1393093D01*
X2307422Y1381665D01*
X2309055Y1385474D02*
X2314496D01*
X2318795Y1393093D02*
X2323149Y1387651D01*
Y1381665D01*
X2327502Y1393093D02*
X2323149Y1387651D01*
X2336046Y1393093D02*
X2328971D01*
Y1381665D01*
X2336046D01*
X2328971Y1387651D02*
X2333325D01*
X2337950Y1393093D02*
Y1381665D01*
Y1393093D02*
X2342848D01*
X2344480Y1392549D01*
X2345024Y1392004D01*
X2345569Y1390916D01*
Y1389828D01*
X2345024Y1388739D01*
X2344480Y1388195D01*
X2342848Y1387651D01*
X2337950D01*
X2341759D02*
X2345569Y1381665D01*
X2348670Y1389283D02*
X2348126Y1388739D01*
X2348670Y1388195D01*
X2349214Y1388739D01*
X2348670Y1389283D01*
Y1382753D02*
X2348126Y1382209D01*
X2348670Y1381665D01*
X2349214Y1382209D01*
X2348670Y1382753D01*
X1832281Y1432192D02*
X1837178D01*
X1838811Y1432736D01*
X1839355Y1433280D01*
X1839899Y1434368D01*
Y1436001D01*
X1839355Y1437089D01*
X1838811Y1437634D01*
X1837178Y1438178D01*
X1832281D01*
Y1426750D01*
X1842457Y1438178D02*
Y1426750D01*
X1850075Y1438178D02*
Y1426750D01*
X1842457Y1432736D02*
X1850075D01*
X1856496Y1438178D02*
X1855408Y1437634D01*
X1854319Y1436545D01*
X1853775Y1435457D01*
X1853231Y1433824D01*
Y1431104D01*
X1853775Y1429471D01*
X1854319Y1428383D01*
X1855408Y1427294D01*
X1856496Y1426750D01*
X1858673D01*
X1859761Y1427294D01*
X1860850Y1428383D01*
X1861394Y1429471D01*
X1861938Y1431104D01*
Y1433824D01*
X1861394Y1435457D01*
X1860850Y1436545D01*
X1859761Y1437634D01*
X1858673Y1438178D01*
X1856496D01*
X1864604D02*
Y1426750D01*
Y1438178D02*
X1872223Y1426750D01*
Y1438178D02*
Y1426750D01*
X1882453Y1438178D02*
X1875379D01*
Y1426750D01*
X1882453D01*
X1875379Y1432736D02*
X1879732D01*
X1884902Y1434368D02*
X1884358Y1433824D01*
X1884902Y1433280D01*
X1885446Y1433824D01*
X1884902Y1434368D01*
Y1427838D02*
X1884358Y1427294D01*
X1884902Y1426750D01*
X1885446Y1427294D01*
X1884902Y1427838D01*
X1832281Y1527442D02*
X1837178D01*
X1838811Y1527986D01*
X1839355Y1528530D01*
X1839899Y1529619D01*
Y1531251D01*
X1839355Y1532339D01*
X1838811Y1532883D01*
X1837178Y1533428D01*
X1832281D01*
Y1522000D01*
X1842457Y1533428D02*
Y1522000D01*
X1850075Y1533428D02*
Y1522000D01*
X1842457Y1527986D02*
X1850075D01*
X1856496Y1533428D02*
X1855408Y1532883D01*
X1854319Y1531795D01*
X1853775Y1530707D01*
X1853231Y1529074D01*
Y1526353D01*
X1853775Y1524721D01*
X1854319Y1523633D01*
X1855408Y1522544D01*
X1856496Y1522000D01*
X1858673D01*
X1859761Y1522544D01*
X1860850Y1523633D01*
X1861394Y1524721D01*
X1861938Y1526353D01*
Y1529074D01*
X1861394Y1530707D01*
X1860850Y1531795D01*
X1859761Y1532883D01*
X1858673Y1533428D01*
X1856496D01*
X1864604D02*
Y1522000D01*
Y1533428D02*
X1872223Y1522000D01*
Y1533428D02*
Y1522000D01*
X1882453Y1533428D02*
X1875379D01*
Y1522000D01*
X1882453D01*
X1875379Y1527986D02*
X1879732D01*
X1884902Y1529619D02*
X1884358Y1529074D01*
X1884902Y1528530D01*
X1885446Y1529074D01*
X1884902Y1529619D01*
Y1523088D02*
X1884358Y1522544D01*
X1884902Y1522000D01*
X1885446Y1522544D01*
X1884902Y1523088D01*
X2502206Y1463578D02*
Y1452150D01*
Y1463578D02*
X2507103D01*
X2508736Y1463033D01*
X2509280Y1462489D01*
X2509824Y1461401D01*
Y1460313D01*
X2509280Y1459224D01*
X2508736Y1458680D01*
X2507103Y1458136D01*
X2502206D01*
X2506015D02*
X2509824Y1452150D01*
X2519456Y1463578D02*
X2512382D01*
Y1452150D01*
X2519456D01*
X2512382Y1458136D02*
X2516735D01*
X2521360Y1463578D02*
X2525714Y1452150D01*
X2530067Y1463578D02*
X2525714Y1452150D01*
X2532081Y1459769D02*
X2531536Y1459224D01*
X2532081Y1458680D01*
X2532625Y1459224D01*
X2532081Y1459769D01*
Y1453238D02*
X2531536Y1452694D01*
X2532081Y1452150D01*
X2532625Y1452694D01*
X2532081Y1453238D01*
X2619681Y1463578D02*
Y1452150D01*
Y1463578D02*
X2623490D01*
X2625122Y1463033D01*
X2626211Y1461945D01*
X2626755Y1460857D01*
X2627299Y1459224D01*
Y1456503D01*
X2626755Y1454871D01*
X2626211Y1453783D01*
X2625122Y1452694D01*
X2623490Y1452150D01*
X2619681D01*
X2638564D02*
X2634210Y1463578D01*
X2629857Y1452150D01*
X2631489Y1455959D02*
X2636931D01*
X2645039Y1463578D02*
Y1452150D01*
X2641230Y1463578D02*
X2648848D01*
X2657283D02*
X2650209D01*
Y1452150D01*
X2657283D01*
X2650209Y1458136D02*
X2654562D01*
X2659731Y1459769D02*
X2659187Y1459224D01*
X2659731Y1458680D01*
X2660276Y1459224D01*
X2659731Y1459769D01*
Y1453238D02*
X2659187Y1452694D01*
X2659731Y1452150D01*
X2660276Y1452694D01*
X2659731Y1453238D01*
D33*
X2468831Y2093075D02*
D03*
Y2042275D02*
D03*
X2303081Y2231025D02*
D03*
X2326669Y2060415D02*
D03*
X2566251Y2669525D02*
D03*
X3012581Y2740775D02*
D03*
X3013331Y2689975D02*
D03*
X3092831Y2057275D02*
D03*
D34*
X2439001Y2225275D02*
D03*
Y2204275D02*
D03*
Y2251275D02*
D03*
Y2272275D02*
D03*
X2414001Y2204275D02*
D03*
Y2272275D02*
D03*
X2368501Y2225275D02*
D03*
Y2204275D02*
D03*
Y2251275D02*
D03*
Y2272275D02*
D03*
X2343501Y2204275D02*
D03*
Y2272275D02*
D03*
X3044001Y2187275D02*
D03*
Y2166275D02*
D03*
Y2213275D02*
D03*
Y2234275D02*
D03*
X3019001Y2166275D02*
D03*
Y2234275D02*
D03*
X2973501Y2187275D02*
D03*
Y2166275D02*
D03*
Y2213275D02*
D03*
Y2234275D02*
D03*
X2948501Y2166275D02*
D03*
Y2234275D02*
D03*
D35*
X2368501Y2170775D02*
D03*
Y2305775D02*
D03*
X2469001Y2170775D02*
D03*
Y2305775D02*
D03*
X2472001Y2238275D02*
D03*
X2973501Y2132775D02*
D03*
Y2267775D02*
D03*
X3074001Y2132775D02*
D03*
Y2267775D02*
D03*
X3077001Y2200275D02*
D03*
X3104201Y2566335D02*
D03*
X3071201Y2624735D02*
D03*
Y2317435D02*
D03*
X3104201Y2375835D02*
D03*
D36*
X2956001Y2022395D02*
D03*
X2981401Y1996995D02*
D03*
X2905201Y2022395D02*
D03*
X2930601Y1996995D02*
D03*
Y2809795D02*
D03*
Y2784395D02*
D03*
X2956001Y2809795D02*
D03*
Y2784395D02*
D03*
X2981401Y2809795D02*
D03*
Y2784395D02*
D03*
X2905201Y2809795D02*
D03*
X2981401Y2022395D02*
D03*
X3057601Y1996995D02*
D03*
X2727401Y2784395D02*
D03*
Y1996995D02*
D03*
X2575001Y2022395D02*
D03*
X2651201D02*
D03*
Y1996995D02*
D03*
X2625801Y2022395D02*
D03*
Y1996995D02*
D03*
X2600401Y2022395D02*
D03*
Y1996995D02*
D03*
X2575001Y2809795D02*
D03*
X2600401Y2784395D02*
D03*
Y2809795D02*
D03*
X2625801Y2784395D02*
D03*
Y2809795D02*
D03*
X2651201Y2784395D02*
D03*
Y2809795D02*
D03*
X2321001Y2022395D02*
D03*
X2397201Y1996995D02*
D03*
X2244801Y2022395D02*
D03*
X2270201Y1996995D02*
D03*
Y2022395D02*
D03*
X2295601D02*
D03*
Y1996995D02*
D03*
X2321001D02*
D03*
Y2784395D02*
D03*
X2295601D02*
D03*
X2270201D02*
D03*
X2371801Y1996995D02*
D03*
X2422601D02*
D03*
X2346401Y2022395D02*
D03*
X2371801D02*
D03*
X2397201D02*
D03*
X2422601D02*
D03*
X2371801Y2784395D02*
D03*
X2397201D02*
D03*
X2422601D02*
D03*
X2244801Y2809795D02*
D03*
X2270201D02*
D03*
X2295601D02*
D03*
X2321001D02*
D03*
X2346401D02*
D03*
X2371801D02*
D03*
X2397201D02*
D03*
X2422601D02*
D03*
X2956001Y1996995D02*
D03*
X3032201D02*
D03*
X3083001D02*
D03*
X2930601Y2022395D02*
D03*
X3006801D02*
D03*
X3032201D02*
D03*
X3057601D02*
D03*
X3083001D02*
D03*
X3032201Y2784395D02*
D03*
X3057601D02*
D03*
X3083001D02*
D03*
X3006801Y2809795D02*
D03*
X3032201D02*
D03*
X3057601D02*
D03*
X3083001D02*
D03*
X2702001Y2784395D02*
D03*
X2752801D02*
D03*
X2676601Y2809795D02*
D03*
X2702001D02*
D03*
X2727401D02*
D03*
X2752801D02*
D03*
X2702001Y1996995D02*
D03*
X2752801D02*
D03*
X2676601Y2022395D02*
D03*
X2702001D02*
D03*
X2727401D02*
D03*
X2752801D02*
D03*
D37*
X2905201Y2784395D02*
D03*
X2575001Y1996995D02*
D03*
Y2784395D02*
D03*
X2244801D02*
D03*
Y1996995D02*
D03*
X2905201D02*
D03*
D38*
X2408401Y2448795D02*
D03*
Y2698795D02*
D03*
D39*
X2433801Y2616995D02*
D03*
Y2594095D02*
D03*
Y2571195D02*
D03*
Y2548295D02*
D03*
Y2525395D02*
D03*
X2408401Y2536795D02*
D03*
Y2559695D02*
D03*
Y2582595D02*
D03*
Y2605495D02*
D03*
Y2628395D02*
D03*
X2383001Y2525395D02*
D03*
Y2548295D02*
D03*
Y2571195D02*
D03*
Y2594095D02*
D03*
Y2616995D02*
D03*
D40*
X3026701Y2553635D02*
D03*
X3077501D02*
D03*
X3064831Y2566335D02*
D03*
Y2540935D02*
D03*
X3039431Y2566335D02*
D03*
Y2540935D02*
D03*
D41*
X3071201Y2509185D02*
D03*
Y2490135D02*
D03*
Y2471085D02*
D03*
Y2452035D02*
D03*
Y2432985D02*
D03*
Y2413935D02*
D03*
Y2394885D02*
D03*
X3052151Y2509185D02*
D03*
Y2490135D02*
D03*
Y2471085D02*
D03*
Y2452035D02*
D03*
Y2432985D02*
D03*
Y2413935D02*
D03*
Y2394885D02*
D03*
X3033101Y2509185D02*
D03*
Y2432985D02*
D03*
Y2413935D02*
D03*
Y2394885D02*
D03*
Y2490135D02*
D03*
D42*
X3071201Y2375835D02*
D03*
X3052151D02*
D03*
X3033101D02*
D03*
D43*
Y2452035D02*
D03*
Y2471085D02*
D03*
D44*
X2566251Y2547775D02*
D03*
X2686001Y2507025D02*
D03*
X2829001Y2372525D02*
D03*
X2812721Y2166525D02*
D03*
X2727831Y2390775D02*
D03*
X2620501Y2382775D02*
D03*
X2790001Y2520995D02*
D03*
X2797001Y2645025D02*
D03*
X2896750Y2394775D02*
D03*
X2905471Y2191025D02*
D03*
X2981501Y2409025D02*
D03*
X2585581Y2620275D02*
D03*
X2670751Y2527525D02*
D03*
X2733001Y2469275D02*
D03*
X2817001Y2591025D02*
D03*
X2683581Y2348775D02*
D03*
X2652751Y2348775D02*
D03*
X2627001Y2372275D02*
D03*
X2616081Y2454025D02*
D03*
X2607581Y2444775D02*
D03*
X2595831Y2472525D02*
D03*
X2623081D02*
D03*
X2996251Y2598025D02*
D03*
Y2620275D02*
D03*
X2996001Y2548275D02*
D03*
X2996001Y2570775D02*
D03*
Y2497275D02*
D03*
X2996001Y2519275D02*
D03*
X2997501Y2438775D02*
D03*
X2970751Y2535525D02*
D03*
Y2586275D02*
D03*
X2867501Y2615525D02*
D03*
X2866751Y2563275D02*
D03*
X2349501Y2356275D02*
D03*
X2418081Y2336275D02*
D03*
X2443081Y2366525D02*
D03*
X2397581Y2149275D02*
D03*
X2265001Y2354275D02*
D03*
X2317001Y2582275D02*
D03*
X2225001Y2598275D02*
D03*
X2214001Y2528275D02*
D03*
X2329001Y2691275D02*
D03*
X2261001Y2605275D02*
D03*
X2237001D02*
D03*
X2454001Y2336275D02*
D03*
X2237001Y2591275D02*
D03*
X2289001Y2624275D02*
D03*
X3027351Y2593835D02*
D03*
X3037101Y2584085D02*
D03*
X2993831Y2465065D02*
D03*
X3091101Y2542335D02*
D03*
X3118751Y2480775D02*
D03*
X2970601Y2425335D02*
D03*
X2969351Y2464835D02*
D03*
X3021601Y2341085D02*
D03*
X3006101Y2320335D02*
D03*
X3007351Y2523835D02*
D03*
X2970101Y2637585D02*
D03*
D03*
D45*
X3062351Y2360585D02*
D03*
M02*
